G04 Layer_Physical_Order=1*
G04 Layer_Color=255*
%FSLAX25Y25*%
%MOIN*%
G70*
G01*
G75*
%ADD10R,0.04331X0.06693*%
%ADD11R,0.03150X0.03543*%
%ADD12R,0.07992X0.14961*%
%ADD13R,0.03543X0.03150*%
%ADD14R,0.10236X0.03937*%
%ADD15R,0.03228X0.01024*%
%ADD16R,0.01024X0.03228*%
%ADD17R,0.06614X0.06614*%
%ADD18R,0.05905X0.01575*%
%ADD19R,0.10984X0.02913*%
%ADD20R,0.06102X0.05118*%
%ADD21R,0.03386X0.01063*%
%ADD22R,0.01063X0.03386*%
%ADD23R,0.01968X0.02362*%
%ADD24O,0.03150X0.09449*%
%ADD25O,0.09449X0.03150*%
%ADD26R,0.05000X0.12520*%
%ADD27R,0.02362X0.01968*%
%ADD28R,0.03937X0.04724*%
%ADD29R,0.07165X0.04724*%
%ADD30R,0.01575X0.05512*%
%ADD31R,0.07087X0.07480*%
%ADD32R,0.09055X0.07480*%
%ADD33C,0.01000*%
%ADD34C,0.02000*%
%ADD35C,0.01200*%
%ADD36C,0.00800*%
%ADD37C,0.00600*%
%ADD38R,0.05905X0.05905*%
%ADD39C,0.05905*%
%ADD40R,0.05905X0.05905*%
%ADD41C,0.03347*%
%ADD42C,0.05543*%
%ADD43R,0.05543X0.05543*%
%ADD44C,0.08268*%
%ADD45C,0.02400*%
G36*
X211350Y109516D02*
X213886D01*
X216275Y107127D01*
X216080Y106627D01*
X198152D01*
X197732Y107047D01*
X197939Y107547D01*
X208453D01*
Y109873D01*
X211350D01*
Y109516D01*
D02*
G37*
G36*
X294917Y106767D02*
X295909Y106357D01*
X296446Y106286D01*
X296413Y105786D01*
X292756D01*
X292756Y105786D01*
X291842Y105666D01*
X290991Y105313D01*
X290260Y104752D01*
X287504Y101996D01*
X286943Y101265D01*
X286590Y100414D01*
X286470Y99500D01*
X286590Y98586D01*
X286692Y98341D01*
X286414Y97925D01*
X281000D01*
X280809Y98387D01*
X289622Y107200D01*
X294354D01*
X294917Y106767D01*
D02*
G37*
G36*
X274989Y114911D02*
X272405Y112327D01*
X228321D01*
X227991Y112703D01*
X228030Y113000D01*
X227910Y113914D01*
X227557Y114765D01*
X227435Y114925D01*
X227656Y115373D01*
X274798D01*
X274989Y114911D01*
D02*
G37*
G36*
X2504Y146004D02*
X3235Y145443D01*
X4086Y145090D01*
X5000Y144970D01*
X12369D01*
X13301Y144038D01*
Y135500D01*
X13421Y134586D01*
X13774Y133735D01*
X14256Y133106D01*
Y132728D01*
X14694D01*
X15066Y132443D01*
X15917Y132090D01*
X16831Y131970D01*
X17405Y132045D01*
X17925Y131685D01*
X17948Y131633D01*
X17965Y131458D01*
X10906Y124399D01*
X10345Y123668D01*
X9992Y122816D01*
X9872Y121903D01*
Y94772D01*
X9669D01*
Y86228D01*
X10214D01*
Y78756D01*
X10334Y77842D01*
X10687Y76991D01*
X11248Y76260D01*
X17004Y70504D01*
Y59020D01*
X28488D01*
X30004Y57504D01*
X30735Y56943D01*
X31586Y56590D01*
X32500Y56470D01*
X78895D01*
X79141Y55970D01*
X78706Y55402D01*
X78325Y54485D01*
X78262Y54000D01*
X82000D01*
Y53000D01*
X78262D01*
X78325Y52515D01*
X78706Y51598D01*
X79310Y50810D01*
X79865Y50384D01*
X79695Y49884D01*
X64622D01*
Y51917D01*
X53520D01*
Y49985D01*
X33323D01*
Y51917D01*
X22220D01*
Y49985D01*
X20319D01*
Y51272D01*
X12169D01*
Y51209D01*
X11707Y51017D01*
X9228Y53496D01*
X8497Y54057D01*
X7646Y54410D01*
X6732Y54530D01*
X5000D01*
X4086Y54410D01*
X3235Y54057D01*
X2504Y53496D01*
X2473Y53457D01*
X2000Y53618D01*
Y72063D01*
X2500Y72255D01*
X3134Y71768D01*
X4034Y71395D01*
X5000Y71268D01*
X5966Y71395D01*
X6866Y71768D01*
X7639Y72361D01*
X8232Y73134D01*
X8605Y74034D01*
X8732Y75000D01*
X8605Y75966D01*
X8232Y76866D01*
X7639Y77639D01*
X6866Y78232D01*
X5966Y78605D01*
X5000Y78732D01*
X4034Y78605D01*
X3134Y78232D01*
X2500Y77745D01*
X2000Y77937D01*
Y96563D01*
X2500Y96755D01*
X3134Y96268D01*
X4034Y95895D01*
X5000Y95768D01*
X5966Y95895D01*
X6866Y96268D01*
X7639Y96861D01*
X8232Y97634D01*
X8605Y98534D01*
X8732Y99500D01*
X8605Y100466D01*
X8232Y101366D01*
X7639Y102139D01*
X6866Y102732D01*
X5966Y103105D01*
X5000Y103232D01*
X4034Y103105D01*
X3134Y102732D01*
X2500Y102245D01*
X2000Y102437D01*
Y121063D01*
X2500Y121255D01*
X3134Y120768D01*
X4034Y120395D01*
X5000Y120268D01*
X5966Y120395D01*
X6866Y120768D01*
X7639Y121361D01*
X8232Y122134D01*
X8605Y123034D01*
X8732Y124000D01*
X8605Y124966D01*
X8232Y125866D01*
X7639Y126639D01*
X6866Y127232D01*
X5966Y127605D01*
X5000Y127732D01*
X4034Y127605D01*
X3134Y127232D01*
X2500Y126745D01*
X2000Y126937D01*
Y145882D01*
X2473Y146043D01*
X2504Y146004D01*
D02*
G37*
G36*
X182873Y179205D02*
Y161953D01*
X180547D01*
Y151047D01*
X182191D01*
X182352Y150574D01*
X182111Y150389D01*
X181237Y149250D01*
X180688Y147924D01*
X180500Y146500D01*
X180688Y145077D01*
X181237Y143750D01*
X182111Y142611D01*
X182873Y142026D01*
Y116059D01*
X182411Y115868D01*
X170627Y127653D01*
Y141547D01*
X172953D01*
Y152453D01*
X171309D01*
X171148Y152926D01*
X171389Y153111D01*
X172263Y154250D01*
X172812Y155577D01*
X173000Y157000D01*
X172812Y158423D01*
X172263Y159750D01*
X171389Y160889D01*
X170898Y161265D01*
Y177079D01*
X173224D01*
Y179638D01*
Y182197D01*
Y184756D01*
Y187476D01*
X174602D01*
X182873Y179205D01*
D02*
G37*
G36*
X26034Y79442D02*
X25843Y78980D01*
X18512D01*
X17274Y80218D01*
Y86228D01*
X19248D01*
X26034Y79442D01*
D02*
G37*
G36*
X351728Y88732D02*
X352642Y88612D01*
X353500Y88724D01*
X353675Y88683D01*
X354000Y88466D01*
Y71218D01*
X353500Y70884D01*
X352966Y71105D01*
X352000Y71232D01*
X351420Y71156D01*
X351044Y71485D01*
Y88565D01*
X351460Y88843D01*
X351728Y88732D01*
D02*
G37*
G36*
X249598Y85417D02*
Y83485D01*
X229402D01*
Y85417D01*
X229836Y85575D01*
X249164D01*
X249598Y85417D01*
D02*
G37*
G36*
X86547Y112691D02*
Y111047D01*
X88716D01*
Y89242D01*
X88083Y88756D01*
X87238Y87655D01*
X87171Y87494D01*
X86671D01*
X86605Y87655D01*
X85760Y88756D01*
X85127Y89242D01*
Y112026D01*
X85889Y112611D01*
X86074Y112852D01*
X86547Y112691D01*
D02*
G37*
G36*
X318507Y95136D02*
X319571Y94996D01*
X320635Y95136D01*
X320854Y95227D01*
X321269Y94949D01*
Y75549D01*
X297735Y52014D01*
X288272D01*
Y58575D01*
X288272D01*
Y63925D01*
Y67890D01*
X288286Y68000D01*
X288272Y68110D01*
Y72075D01*
X271228D01*
Y71786D01*
X269772D01*
Y72331D01*
X261228D01*
Y71786D01*
X208529D01*
X208359Y72286D01*
X208843Y72657D01*
X209404Y73388D01*
X209756Y74240D01*
X209877Y75153D01*
Y76370D01*
X215933D01*
Y77232D01*
X218299D01*
Y75299D01*
X229402D01*
Y77232D01*
X249598D01*
Y75299D01*
X260701D01*
Y85417D01*
X261136Y85575D01*
X308927D01*
X309693Y85474D01*
X310476Y85577D01*
X311206Y85879D01*
X311832Y86360D01*
X316986Y91514D01*
X316986Y91514D01*
X317467Y92141D01*
X317769Y92870D01*
X317872Y93654D01*
X317872Y93654D01*
Y94949D01*
X318288Y95227D01*
X318507Y95136D01*
D02*
G37*
G36*
X280689Y125611D02*
X276705Y121627D01*
X227670D01*
X227434Y121979D01*
X227415Y122127D01*
X227530Y123000D01*
X227410Y123914D01*
X227057Y124765D01*
X226496Y125496D01*
X226396Y125573D01*
X226566Y126073D01*
X280498D01*
X280689Y125611D01*
D02*
G37*
G36*
X211350Y149516D02*
X213886D01*
X216455Y146946D01*
X216264Y146484D01*
X211350D01*
Y146127D01*
X207474D01*
X206889Y146889D01*
X205807Y147719D01*
X205776Y148000D01*
X205807Y148281D01*
X206889Y149111D01*
X207474Y149873D01*
X211350D01*
Y149516D01*
D02*
G37*
G36*
X336414Y140035D02*
X337405Y139625D01*
X338469Y139485D01*
X339124Y139571D01*
X339500Y139241D01*
Y109759D01*
X339124Y109429D01*
X338469Y109516D01*
X337405Y109375D01*
X336414Y108965D01*
X336106Y108729D01*
X335799Y108965D01*
X334808Y109375D01*
X333744Y109516D01*
X332680Y109375D01*
X331689Y108965D01*
X331382Y108729D01*
X331075Y108965D01*
X330083Y109375D01*
X329020Y109516D01*
X327956Y109375D01*
X326965Y108965D01*
X326658Y108729D01*
X326350Y108965D01*
X325359Y109375D01*
X324295Y109516D01*
X323232Y109375D01*
X322240Y108965D01*
X321933Y108729D01*
X321626Y108965D01*
X320635Y109375D01*
X319571Y109516D01*
X318507Y109375D01*
X317516Y108965D01*
X317209Y108729D01*
X316901Y108965D01*
X315910Y109375D01*
X314846Y109516D01*
X313783Y109375D01*
X312791Y108965D01*
X312484Y108729D01*
X312177Y108965D01*
X311186Y109375D01*
X310122Y109516D01*
X309058Y109375D01*
X308067Y108965D01*
X307760Y108729D01*
X307453Y108965D01*
X307167Y109083D01*
X307242Y109263D01*
X307382Y110327D01*
X307242Y111390D01*
X306831Y112382D01*
X306595Y112689D01*
X306831Y112996D01*
X307242Y113987D01*
X307382Y115051D01*
X307242Y116115D01*
X306831Y117106D01*
X306595Y117413D01*
X306831Y117721D01*
X307242Y118712D01*
X307382Y119776D01*
X307242Y120839D01*
X306831Y121831D01*
X306595Y122138D01*
X306831Y122445D01*
X307242Y123436D01*
X307382Y124500D01*
X307242Y125564D01*
X306831Y126555D01*
X306595Y126862D01*
X306831Y127169D01*
X307242Y128161D01*
X307382Y129224D01*
X307242Y130288D01*
X306831Y131279D01*
X306595Y131587D01*
X306831Y131894D01*
X307242Y132885D01*
X307382Y133949D01*
X307242Y135013D01*
X306831Y136004D01*
X306595Y136311D01*
X306831Y136618D01*
X307242Y137610D01*
X307382Y138673D01*
X307242Y139737D01*
X307167Y139917D01*
X307453Y140035D01*
X307760Y140271D01*
X308067Y140035D01*
X309058Y139625D01*
X310122Y139485D01*
X311186Y139625D01*
X312177Y140035D01*
X312484Y140271D01*
X312791Y140035D01*
X313783Y139625D01*
X314846Y139485D01*
X315910Y139625D01*
X316901Y140035D01*
X317209Y140271D01*
X317516Y140035D01*
X318507Y139625D01*
X319571Y139485D01*
X320635Y139625D01*
X321626Y140035D01*
X321933Y140271D01*
X322240Y140035D01*
X323232Y139625D01*
X324295Y139485D01*
X325359Y139625D01*
X326350Y140035D01*
X326658Y140271D01*
X326965Y140035D01*
X327956Y139625D01*
X329020Y139485D01*
X330083Y139625D01*
X331075Y140035D01*
X331382Y140271D01*
X331689Y140035D01*
X332680Y139625D01*
X333744Y139485D01*
X334808Y139625D01*
X335799Y140035D01*
X336106Y140271D01*
X336414Y140035D01*
D02*
G37*
G36*
X290066Y155521D02*
X290085Y155373D01*
X289970Y154500D01*
Y151127D01*
X227554D01*
X227220Y151627D01*
X227410Y152086D01*
X227530Y153000D01*
X227410Y153914D01*
X227057Y154765D01*
X226591Y155373D01*
X226767Y155873D01*
X289830D01*
X290066Y155521D01*
D02*
G37*
G36*
X110045Y165033D02*
X110693Y164536D01*
X110728Y164521D01*
Y163169D01*
X119272D01*
Y164117D01*
X142114D01*
X142114Y164117D01*
X142709Y164196D01*
X142943Y163722D01*
X138247Y159026D01*
X112253D01*
X104526Y166753D01*
Y169845D01*
X105026Y170052D01*
X110045Y165033D01*
D02*
G37*
G36*
X211350Y159516D02*
X213886D01*
X216417Y156984D01*
X216210Y156484D01*
X211350D01*
Y156127D01*
X207474D01*
X206889Y156889D01*
X205807Y157719D01*
X205776Y158000D01*
X205807Y158281D01*
X206889Y159111D01*
X207474Y159873D01*
X211350D01*
Y159516D01*
D02*
G37*
G36*
X90728Y139169D02*
X91873D01*
Y138331D01*
X90728D01*
Y131871D01*
X86772D01*
Y133319D01*
X86143D01*
X85865Y133735D01*
X85910Y133842D01*
X86030Y134756D01*
Y139242D01*
X85910Y140156D01*
X85557Y141007D01*
X84996Y141739D01*
X81879Y144855D01*
X82250Y145226D01*
X90728D01*
Y139169D01*
D02*
G37*
G36*
X211350Y129516D02*
X213886D01*
X216412Y126989D01*
X216419Y126984D01*
X216249Y126484D01*
X211350D01*
Y126127D01*
X207474D01*
X206889Y126889D01*
X205807Y127719D01*
X205776Y128000D01*
X205807Y128281D01*
X206889Y129111D01*
X207474Y129873D01*
X211350D01*
Y129516D01*
D02*
G37*
G36*
X286289Y132789D02*
X286098Y132327D01*
X227821D01*
X227491Y132703D01*
X227530Y133000D01*
X227410Y133914D01*
X227057Y134765D01*
X226935Y134925D01*
X227156Y135373D01*
X283705D01*
X286289Y132789D01*
D02*
G37*
G36*
X293514Y140859D02*
X293413Y140728D01*
X293003Y139737D01*
X292863Y138673D01*
X293003Y137610D01*
X293052Y137491D01*
X292774Y137076D01*
X290846D01*
X287211Y140711D01*
X286563Y141208D01*
X285809Y141520D01*
X285000Y141627D01*
X285000Y141627D01*
X227670D01*
X227434Y141979D01*
X227415Y142127D01*
X227530Y143000D01*
X227410Y143914D01*
X227220Y144373D01*
X227554Y144873D01*
X289500D01*
X293514Y140859D01*
D02*
G37*
G36*
X211350Y139516D02*
X212622D01*
X212821Y139258D01*
X215132Y136946D01*
X214941Y136484D01*
X211350D01*
Y136127D01*
X207474D01*
X206889Y136889D01*
X205807Y137719D01*
X205776Y138000D01*
X205807Y138281D01*
X206889Y139111D01*
X207474Y139873D01*
X211350D01*
Y139516D01*
D02*
G37*
G36*
X354000Y63782D02*
X354000Y47718D01*
X353500Y47383D01*
X352966Y47605D01*
X352000Y47732D01*
X351420Y47656D01*
X351044Y47985D01*
Y63515D01*
X351420Y63844D01*
X352000Y63768D01*
X352966Y63895D01*
X353500Y64117D01*
X354000Y63782D01*
D02*
G37*
G36*
X217799Y36201D02*
Y34269D01*
X215831D01*
Y35272D01*
X207681D01*
Y34643D01*
X207265Y34365D01*
X207158Y34410D01*
X206244Y34530D01*
X199676D01*
X199485Y34992D01*
X200962Y36470D01*
X217411D01*
X217799Y36201D01*
D02*
G37*
G36*
X183470Y41006D02*
Y37500D01*
X183590Y36586D01*
X183943Y35735D01*
X184504Y35004D01*
X185235Y34443D01*
X186086Y34090D01*
X187000Y33970D01*
X187887Y34087D01*
X187926Y34054D01*
X188122Y33615D01*
X181004Y26496D01*
X177538Y23030D01*
X120795D01*
Y24873D01*
X143488D01*
X143488Y24873D01*
X143893Y24927D01*
X144298Y24980D01*
X145052Y25292D01*
X145699Y25789D01*
X151965Y32055D01*
X159492D01*
Y32885D01*
X171882D01*
Y32527D01*
X179151D01*
X179500Y32481D01*
X180414Y32602D01*
X181265Y32954D01*
X181996Y33515D01*
X182557Y34246D01*
X182910Y35098D01*
X183030Y36011D01*
Y36786D01*
X182910Y37699D01*
X182557Y38551D01*
X181996Y39282D01*
X179224Y42054D01*
X179416Y42516D01*
X181960D01*
X183470Y41006D01*
D02*
G37*
G36*
X249098Y36201D02*
Y34269D01*
X228902D01*
Y36201D01*
X229290Y36470D01*
X248710D01*
X249098Y36201D01*
D02*
G37*
G36*
X191470Y53780D02*
Y36962D01*
X190885Y36378D01*
X190446Y36574D01*
X190413Y36613D01*
X190530Y37500D01*
Y42468D01*
X190530Y42469D01*
X190410Y43382D01*
X190057Y44234D01*
X189496Y44965D01*
X189496Y44965D01*
X185965Y48496D01*
X185935Y48952D01*
X190970Y53987D01*
X191470Y53780D01*
D02*
G37*
G36*
X271228Y58413D02*
X271228D01*
Y50681D01*
Y45169D01*
X275296D01*
X282604Y37860D01*
X282605Y37860D01*
X283231Y37380D01*
X283961Y37077D01*
X284744Y36974D01*
X308500D01*
X309283Y37077D01*
X310013Y37380D01*
X310640Y37860D01*
X330155Y57376D01*
X330617Y57185D01*
Y47539D01*
X317806Y34728D01*
X305464Y34627D01*
X280795D01*
X268871Y46551D01*
Y58669D01*
X269772D01*
Y64726D01*
X271228D01*
Y58413D01*
D02*
G37*
G36*
X290000Y17627D02*
X182773D01*
X182581Y18089D01*
X184962Y20470D01*
X290000D01*
Y17627D01*
D02*
G37*
G36*
X100835Y22154D02*
X106859D01*
X106910Y21766D01*
X107263Y20915D01*
X107824Y20184D01*
X109919Y18089D01*
X109728Y17627D01*
X85295D01*
X78511Y24411D01*
X78702Y24873D01*
X100835D01*
Y22154D01*
D02*
G37*
G36*
X81789Y12289D02*
X81789Y12289D01*
X82437Y11792D01*
X83191Y11480D01*
X83595Y11427D01*
X84000Y11373D01*
X84000Y11373D01*
X290000D01*
Y9500D01*
X280000Y2000D01*
X248937D01*
X248745Y2500D01*
X249232Y3134D01*
X249605Y4034D01*
X249732Y5000D01*
X249605Y5966D01*
X249232Y6866D01*
X248639Y7639D01*
X247866Y8232D01*
X246966Y8605D01*
X246000Y8732D01*
X245034Y8605D01*
X244134Y8232D01*
X243361Y7639D01*
X242768Y6866D01*
X242395Y5966D01*
X242268Y5000D01*
X242395Y4034D01*
X242768Y3134D01*
X243255Y2500D01*
X243063Y2000D01*
X224338D01*
X224168Y2500D01*
X224639Y2861D01*
X225232Y3634D01*
X225605Y4534D01*
X225732Y5500D01*
X225605Y6466D01*
X225232Y7366D01*
X224639Y8139D01*
X223866Y8732D01*
X222966Y9105D01*
X222000Y9232D01*
X221034Y9105D01*
X220134Y8732D01*
X219361Y8139D01*
X218768Y7366D01*
X218395Y6466D01*
X218268Y5500D01*
X218395Y4534D01*
X218768Y3634D01*
X219361Y2861D01*
X219832Y2500D01*
X219662Y2000D01*
X200937D01*
X200745Y2500D01*
X201232Y3134D01*
X201605Y4034D01*
X201732Y5000D01*
X201605Y5966D01*
X201232Y6866D01*
X200639Y7639D01*
X199866Y8232D01*
X198966Y8605D01*
X198000Y8732D01*
X197034Y8605D01*
X196134Y8232D01*
X195361Y7639D01*
X194768Y6866D01*
X194395Y5966D01*
X194268Y5000D01*
X194395Y4034D01*
X194768Y3134D01*
X195255Y2500D01*
X195063Y2000D01*
X177437D01*
X177245Y2500D01*
X177732Y3134D01*
X178105Y4034D01*
X178232Y5000D01*
X178105Y5966D01*
X177732Y6866D01*
X177139Y7639D01*
X176366Y8232D01*
X175466Y8605D01*
X174500Y8732D01*
X173534Y8605D01*
X172634Y8232D01*
X171861Y7639D01*
X171268Y6866D01*
X170895Y5966D01*
X170768Y5000D01*
X170895Y4034D01*
X171268Y3134D01*
X171755Y2500D01*
X171563Y2000D01*
X153437D01*
X153245Y2500D01*
X153732Y3134D01*
X154105Y4034D01*
X154232Y5000D01*
X154105Y5966D01*
X153732Y6866D01*
X153139Y7639D01*
X152366Y8232D01*
X151466Y8605D01*
X150500Y8732D01*
X149534Y8605D01*
X148634Y8232D01*
X147861Y7639D01*
X147268Y6866D01*
X146895Y5966D01*
X146768Y5000D01*
X146895Y4034D01*
X147268Y3134D01*
X147755Y2500D01*
X147563Y2000D01*
X129437D01*
X129245Y2500D01*
X129732Y3134D01*
X130105Y4034D01*
X130232Y5000D01*
X130105Y5966D01*
X129732Y6866D01*
X129139Y7639D01*
X128366Y8232D01*
X127466Y8605D01*
X126500Y8732D01*
X125534Y8605D01*
X124634Y8232D01*
X123861Y7639D01*
X123268Y6866D01*
X122895Y5966D01*
X122768Y5000D01*
X122895Y4034D01*
X123268Y3134D01*
X123755Y2500D01*
X123563Y2000D01*
X105937D01*
X105745Y2500D01*
X106232Y3134D01*
X106605Y4034D01*
X106732Y5000D01*
X106605Y5966D01*
X106232Y6866D01*
X105639Y7639D01*
X104866Y8232D01*
X103966Y8605D01*
X103000Y8732D01*
X102034Y8605D01*
X101134Y8232D01*
X100361Y7639D01*
X99768Y6866D01*
X99395Y5966D01*
X99268Y5000D01*
X99395Y4034D01*
X99768Y3134D01*
X100255Y2500D01*
X100063Y2000D01*
X82437D01*
X82245Y2500D01*
X82732Y3134D01*
X83105Y4034D01*
X83232Y5000D01*
X83105Y5966D01*
X82732Y6866D01*
X82139Y7639D01*
X81366Y8232D01*
X80466Y8605D01*
X79500Y8732D01*
X78534Y8605D01*
X77634Y8232D01*
X76861Y7639D01*
X76268Y6866D01*
X75895Y5966D01*
X75768Y5000D01*
X75895Y4034D01*
X76268Y3134D01*
X76755Y2500D01*
X76563Y2000D01*
X58937D01*
X58745Y2500D01*
X59232Y3134D01*
X59605Y4034D01*
X59732Y5000D01*
X59605Y5966D01*
X59232Y6866D01*
X58639Y7639D01*
X57866Y8232D01*
X56966Y8605D01*
X56000Y8732D01*
X55034Y8605D01*
X54134Y8232D01*
X53361Y7639D01*
X52768Y6866D01*
X52395Y5966D01*
X52268Y5000D01*
X52395Y4034D01*
X52768Y3134D01*
X53255Y2500D01*
X53063Y2000D01*
X35437D01*
X35245Y2500D01*
X35732Y3134D01*
X36105Y4034D01*
X36232Y5000D01*
X36105Y5966D01*
X35732Y6866D01*
X35139Y7639D01*
X34366Y8232D01*
X33466Y8605D01*
X32500Y8732D01*
X31534Y8605D01*
X30634Y8232D01*
X29861Y7639D01*
X29268Y6866D01*
X28895Y5966D01*
X28768Y5000D01*
X28895Y4034D01*
X29268Y3134D01*
X29755Y2500D01*
X29563Y2000D01*
X11437D01*
X11245Y2500D01*
X11732Y3134D01*
X12105Y4034D01*
X12232Y5000D01*
X12105Y5966D01*
X11732Y6866D01*
X11139Y7639D01*
X10366Y8232D01*
X9466Y8605D01*
X8500Y8732D01*
X7534Y8605D01*
X6634Y8232D01*
X5995Y7742D01*
X5422Y7801D01*
X2000Y15500D01*
Y24563D01*
X2500Y24755D01*
X3134Y24268D01*
X4034Y23895D01*
X5000Y23768D01*
X5966Y23895D01*
X6458Y24099D01*
X6958Y23765D01*
Y22665D01*
X7078Y21752D01*
X7431Y20900D01*
X7992Y20169D01*
X8723Y19608D01*
X9574Y19255D01*
X10488Y19135D01*
X11402Y19255D01*
X12253Y19608D01*
X12984Y20169D01*
X13545Y20900D01*
X13898Y21752D01*
X14018Y22665D01*
Y24728D01*
X20075D01*
Y25873D01*
X22220D01*
Y24083D01*
X33323D01*
Y26015D01*
X53520D01*
Y24083D01*
X64622D01*
Y28803D01*
X65084Y28994D01*
X81789Y12289D01*
D02*
G37*
G36*
X2504Y48504D02*
X3235Y47943D01*
X4086Y47590D01*
X5000Y47470D01*
X5270D01*
X8157Y44582D01*
Y44228D01*
X8595D01*
X8967Y43943D01*
X9819Y43590D01*
X10732Y43470D01*
X11646Y43590D01*
X11754Y43635D01*
X12169Y43357D01*
Y42728D01*
X20319D01*
Y43731D01*
X22220D01*
Y41799D01*
X33323D01*
Y43731D01*
X53520D01*
Y41799D01*
X55944D01*
Y39429D01*
X55944Y39429D01*
X56051Y38620D01*
X56363Y37866D01*
X56860Y37218D01*
X59415Y34663D01*
X59224Y34201D01*
X53520D01*
Y32269D01*
X33323D01*
Y34201D01*
X22220D01*
Y32127D01*
X20075D01*
Y33272D01*
X11925D01*
Y32643D01*
X11509Y32365D01*
X11402Y32410D01*
X10488Y32530D01*
X9574Y32410D01*
X8723Y32057D01*
X8351Y31772D01*
X7913D01*
Y31394D01*
X7510Y30868D01*
X6957Y30662D01*
X6866Y30732D01*
X5966Y31105D01*
X5000Y31232D01*
X4034Y31105D01*
X3134Y30732D01*
X2500Y30245D01*
X2000Y30437D01*
Y48382D01*
X2473Y48543D01*
X2504Y48504D01*
D02*
G37*
G36*
X106790Y49308D02*
Y33846D01*
X100835D01*
Y31127D01*
X79033D01*
X75831Y34329D01*
X75948Y34918D01*
X76715Y35236D01*
X77788Y36059D01*
X78610Y37131D01*
X79128Y38380D01*
X79238Y39220D01*
X74126D01*
Y40220D01*
X79238D01*
X79128Y41061D01*
X78610Y42310D01*
X77825Y43332D01*
X77916Y43761D01*
X77940Y43832D01*
X93858D01*
X94641Y43935D01*
X95371Y44238D01*
X95998Y44719D01*
X100140Y48860D01*
X100620Y49487D01*
X100923Y50217D01*
X101026Y51000D01*
Y54419D01*
X101488Y54610D01*
X106790Y49308D01*
D02*
G37*
G36*
X325994Y71061D02*
Y61773D01*
X307247Y43026D01*
X285998D01*
X284572Y44451D01*
X284763Y44913D01*
X288272D01*
Y45962D01*
X298988D01*
X299771Y46065D01*
X300501Y46368D01*
X301128Y46849D01*
X325532Y71253D01*
X325994Y71061D01*
D02*
G37*
G36*
X195834Y91613D02*
X173392Y69171D01*
X172911Y68544D01*
X172609Y67815D01*
X172506Y67032D01*
Y59496D01*
X171850D01*
Y59138D01*
X159492D01*
Y59968D01*
X146425D01*
Y63788D01*
X174712Y92075D01*
X195642D01*
X195834Y91613D01*
D02*
G37*
G36*
X261228Y58669D02*
X262617D01*
Y45256D01*
X262617Y45256D01*
X262724Y44447D01*
X262938Y43929D01*
X262607Y43468D01*
X262136Y43530D01*
X260589D01*
X260201Y43799D01*
Y53917D01*
X249098D01*
Y51985D01*
X228902D01*
Y53917D01*
X217799D01*
Y51985D01*
X215831D01*
Y53272D01*
X209774D01*
Y58228D01*
X215831D01*
Y59515D01*
X218299D01*
Y57583D01*
X229402D01*
Y59515D01*
X249598D01*
Y57583D01*
X260701D01*
Y59718D01*
X261228D01*
Y58669D01*
D02*
G37*
G36*
X162319Y180678D02*
Y177079D01*
X164645D01*
Y161682D01*
X163611Y160889D01*
X162737Y159750D01*
X162188Y158423D01*
X162000Y157000D01*
X162188Y155577D01*
X162737Y154250D01*
X163611Y153111D01*
X163852Y152926D01*
X163691Y152453D01*
X162047D01*
Y141547D01*
X164373D01*
Y126500D01*
X164373Y126500D01*
X164480Y125691D01*
X164792Y124937D01*
X165289Y124289D01*
X165561Y124017D01*
X166174Y123547D01*
X191334Y98387D01*
X191142Y97925D01*
X173500D01*
X172743Y97825D01*
X172037Y97533D01*
X171432Y97068D01*
X141432Y67068D01*
X140967Y66462D01*
X140675Y65757D01*
X140575Y65000D01*
Y59968D01*
X127508D01*
Y59542D01*
X126838D01*
X126526Y60297D01*
X125965Y61028D01*
X115248Y71744D01*
X114517Y72305D01*
X113666Y72658D01*
X112752Y72778D01*
X101019D01*
X100827Y73240D01*
X154996Y127409D01*
X155557Y128140D01*
X155910Y128992D01*
X156030Y129905D01*
Y165154D01*
X161165D01*
Y176847D01*
X159526D01*
Y178538D01*
X161857Y180869D01*
X162319Y180678D01*
D02*
G37*
G36*
X41484Y63992D02*
X41293Y63530D01*
X33962D01*
X29996Y67496D01*
Y74827D01*
X30458Y75019D01*
X41484Y63992D01*
D02*
G37*
G36*
X202816Y78884D02*
Y75153D01*
X202937Y74240D01*
X203289Y73388D01*
X203850Y72657D01*
X204391Y72243D01*
X204251Y71720D01*
X203841Y71666D01*
X202989Y71313D01*
X202258Y70752D01*
X192526Y61020D01*
X192393Y61028D01*
X192026Y61153D01*
Y68747D01*
X202354Y79075D01*
X202816Y78884D01*
D02*
G37*
G36*
X249098Y43799D02*
X248710Y43530D01*
X229290D01*
X228902Y43799D01*
Y45731D01*
X249098D01*
Y43799D01*
D02*
G37*
G36*
X202714Y60570D02*
Y56000D01*
Y49000D01*
X202834Y48086D01*
X203187Y47235D01*
X203669Y46606D01*
Y46228D01*
X204107D01*
X204479Y45943D01*
X205330Y45590D01*
X206244Y45470D01*
X207158Y45590D01*
X207265Y45635D01*
X207681Y45357D01*
Y44728D01*
X215831D01*
Y45731D01*
X217799D01*
Y43799D01*
X217411Y43530D01*
X199500D01*
X199030Y43468D01*
X198530Y43907D01*
Y57039D01*
X202252Y60761D01*
X202714Y60570D01*
D02*
G37*
G36*
X120519Y51300D02*
X120481Y51012D01*
X120602Y50098D01*
X120954Y49246D01*
X121515Y48516D01*
X121504Y48508D01*
X120943Y47777D01*
X120590Y46925D01*
X120470Y46011D01*
X120590Y45098D01*
X120943Y44246D01*
X121504Y43515D01*
X122235Y42954D01*
X123086Y42602D01*
X124000Y42481D01*
X127508D01*
Y37055D01*
Y32055D01*
X142468D01*
X142659Y31593D01*
X142193Y31127D01*
X120795D01*
Y33846D01*
X113850D01*
Y47179D01*
X114226Y47508D01*
X114520Y47470D01*
X115434Y47590D01*
X116285Y47943D01*
X117016Y48504D01*
X120046Y51533D01*
X120519Y51300D01*
D02*
G37*
G36*
X203733Y89012D02*
X186860Y72140D01*
X186380Y71513D01*
X186077Y70783D01*
X185974Y70000D01*
Y57550D01*
X183872Y55448D01*
X183574Y55565D01*
X183420Y55703D01*
X183530Y56543D01*
Y65000D01*
X183410Y65914D01*
X183057Y66765D01*
X182496Y67496D01*
X181765Y68057D01*
X181524Y68157D01*
X181427Y68647D01*
X202253Y89474D01*
X203542D01*
X203733Y89012D01*
D02*
G37*
G36*
X117525Y59482D02*
X117464Y58837D01*
X117035Y58508D01*
X112305Y53778D01*
X100827Y65256D01*
X101019Y65718D01*
X111290D01*
X117525Y59482D01*
D02*
G37*
G36*
X74728Y179635D02*
Y175181D01*
Y169669D01*
X75873D01*
Y165575D01*
X74728D01*
Y159518D01*
X70772D01*
Y165169D01*
X70772D01*
Y170681D01*
Y178063D01*
X71236Y178124D01*
X71966Y178427D01*
X72592Y178908D01*
X73073Y179534D01*
X73375Y180264D01*
X73386Y180343D01*
X73859Y180504D01*
X74728Y179635D01*
D02*
G37*
G36*
X268974Y226953D02*
X266547D01*
Y216047D01*
X268269D01*
X268516Y215650D01*
Y208381D01*
X268470Y208032D01*
Y201782D01*
X268008Y201591D01*
X257955Y211644D01*
X264140Y217829D01*
X264620Y218456D01*
X264923Y219185D01*
X265026Y219969D01*
Y233039D01*
X268974D01*
Y226953D01*
D02*
G37*
G36*
X54540Y228474D02*
X54105Y228140D01*
X50247Y224282D01*
X44000D01*
X43217Y224179D01*
X42487Y223876D01*
X42428Y223831D01*
X41228D01*
Y222404D01*
X41077Y222039D01*
X40974Y221256D01*
X41077Y220473D01*
X41141Y220319D01*
X40864Y219819D01*
X39728D01*
Y211669D01*
X43938D01*
X55360Y200248D01*
X55168Y199786D01*
X48272D01*
Y200331D01*
X44797D01*
X44584Y200494D01*
X43733Y200847D01*
X42819Y200967D01*
X39492D01*
Y201905D01*
X35030D01*
Y210520D01*
X37996D01*
Y222717D01*
X44253Y228974D01*
X54371D01*
X54540Y228474D01*
D02*
G37*
G36*
X288500Y225500D02*
X298000Y215000D01*
X303470D01*
Y210000D01*
X303590Y209086D01*
X303943Y208235D01*
X304504Y207504D01*
X305235Y206943D01*
X306086Y206590D01*
X307000Y206470D01*
X307914Y206590D01*
X308765Y206943D01*
X309496Y207504D01*
X310057Y208235D01*
X310410Y209086D01*
X310530Y210000D01*
Y215000D01*
X311578D01*
X323489Y203089D01*
X323298Y202627D01*
X295940D01*
X285484Y213083D01*
Y215618D01*
X285026D01*
Y216949D01*
X285889Y217611D01*
X286763Y218750D01*
X287312Y220076D01*
X287500Y221500D01*
X287312Y222923D01*
X286763Y224250D01*
X285889Y225389D01*
X285026Y226051D01*
Y233039D01*
X288500D01*
Y225500D01*
D02*
G37*
G36*
X237000Y233039D02*
X258974D01*
Y221222D01*
X252902Y215150D01*
X250016D01*
Y211062D01*
X245532D01*
X244618Y210941D01*
X243766Y210589D01*
X243035Y210028D01*
X243004Y209996D01*
X242443Y209265D01*
X242090Y208414D01*
X241970Y207500D01*
X242090Y206586D01*
X242443Y205735D01*
X243004Y205004D01*
X243735Y204443D01*
X244586Y204090D01*
X245500Y203970D01*
X245739Y204001D01*
X253500D01*
X254414Y204122D01*
X255265Y204474D01*
X255840Y204915D01*
X258166Y202589D01*
X257975Y202127D01*
X227794D01*
X227465Y202503D01*
X227530Y203000D01*
X227410Y203914D01*
X227057Y204765D01*
X226496Y205496D01*
X225765Y206057D01*
X224914Y206410D01*
X224000Y206530D01*
X218969D01*
X218619Y206484D01*
X211350D01*
Y206127D01*
X207474D01*
X206889Y206889D01*
X205750Y207763D01*
X204423Y208312D01*
X203000Y208500D01*
X201576Y208312D01*
X200250Y207763D01*
X199111Y206889D01*
X198237Y205750D01*
X197688Y204423D01*
X197500Y203000D01*
X197688Y201576D01*
X198237Y200250D01*
X199111Y199111D01*
X200193Y198281D01*
X200224Y198000D01*
X200193Y197719D01*
X199111Y196889D01*
X198237Y195750D01*
X197688Y194423D01*
X197500Y193000D01*
X197688Y191577D01*
X198237Y190250D01*
X199111Y189111D01*
X200193Y188281D01*
X200224Y188000D01*
X200193Y187719D01*
X199111Y186889D01*
X198237Y185750D01*
X197688Y184423D01*
X197500Y183000D01*
X197688Y181577D01*
X198237Y180250D01*
X199111Y179111D01*
X200193Y178281D01*
X200224Y178000D01*
X200193Y177719D01*
X199111Y176889D01*
X198237Y175750D01*
X197688Y174424D01*
X197500Y173000D01*
X197688Y171576D01*
X198237Y170250D01*
X199111Y169111D01*
X200193Y168281D01*
X200224Y168000D01*
X200193Y167719D01*
X199111Y166889D01*
X198237Y165750D01*
X197688Y164424D01*
X197500Y163000D01*
X197688Y161576D01*
X198237Y160250D01*
X199111Y159111D01*
X200193Y158281D01*
X200224Y158000D01*
X200193Y157719D01*
X199111Y156889D01*
X198237Y155750D01*
X197688Y154423D01*
X197500Y153000D01*
X197688Y151576D01*
X198237Y150250D01*
X199111Y149111D01*
X200193Y148281D01*
X200224Y148000D01*
X200193Y147719D01*
X199111Y146889D01*
X198237Y145750D01*
X197688Y144423D01*
X197500Y143000D01*
X197688Y141577D01*
X198237Y140250D01*
X199111Y139111D01*
X200193Y138281D01*
X200224Y138000D01*
X200193Y137719D01*
X199111Y136889D01*
X198237Y135750D01*
X197688Y134423D01*
X197500Y133000D01*
X197688Y131577D01*
X198237Y130250D01*
X199111Y129111D01*
X200193Y128281D01*
X200224Y128000D01*
X200193Y127719D01*
X199111Y126889D01*
X198237Y125750D01*
X197688Y124424D01*
X197500Y123000D01*
X197688Y121576D01*
X198237Y120250D01*
X199111Y119111D01*
X199352Y118926D01*
X199191Y118453D01*
X197547D01*
Y107939D01*
X197047Y107732D01*
X189127Y115653D01*
Y142026D01*
X189889Y142611D01*
X190763Y143750D01*
X191312Y145077D01*
X191500Y146500D01*
X191312Y147924D01*
X190763Y149250D01*
X189889Y150389D01*
X189648Y150574D01*
X189809Y151047D01*
X191453D01*
Y161953D01*
X189127D01*
Y180500D01*
X189020Y181309D01*
X188708Y182063D01*
X188211Y182711D01*
X188211Y182711D01*
X178109Y192813D01*
X177840Y193020D01*
Y193470D01*
X177923Y193586D01*
X178400Y194208D01*
X178702Y194937D01*
X178805Y195721D01*
X178702Y196504D01*
X178400Y197233D01*
X177919Y197860D01*
X177293Y198341D01*
X176563Y198643D01*
X175779Y198746D01*
X173224D01*
Y202669D01*
Y205228D01*
Y207787D01*
Y210347D01*
Y216921D01*
X162319D01*
Y210347D01*
Y207787D01*
Y205228D01*
Y202669D01*
Y200110D01*
Y197551D01*
Y193614D01*
X161857Y193422D01*
X160526Y194753D01*
Y219153D01*
X162165D01*
Y230847D01*
X157492D01*
X157301Y231308D01*
X158962Y232970D01*
X223500D01*
X224414Y233090D01*
X225265Y233443D01*
X225996Y234004D01*
X229221Y237228D01*
X230831D01*
Y237970D01*
X237000D01*
Y233039D01*
D02*
G37*
G36*
X340066Y193012D02*
Y189009D01*
X339604Y188818D01*
X328311Y200111D01*
X328502Y200573D01*
X332505D01*
X340066Y193012D01*
D02*
G37*
G36*
X211350Y189516D02*
X213886D01*
X216417Y186984D01*
X216210Y186484D01*
X211350D01*
Y186127D01*
X207474D01*
X206889Y186889D01*
X205807Y187719D01*
X205776Y188000D01*
X205807Y188281D01*
X206889Y189111D01*
X207474Y189873D01*
X211350D01*
Y189516D01*
D02*
G37*
G36*
Y199516D02*
X213562D01*
X216094Y196984D01*
X215887Y196484D01*
X211350D01*
Y196127D01*
X207474D01*
X206889Y196889D01*
X205807Y197719D01*
X205776Y198000D01*
X205807Y198281D01*
X206889Y199111D01*
X207474Y199873D01*
X211350D01*
Y199516D01*
D02*
G37*
G36*
X98087Y191728D02*
X98474Y191457D01*
Y165500D01*
X98577Y164717D01*
X98879Y163987D01*
X99360Y163360D01*
X108860Y153860D01*
X109487Y153379D01*
X110217Y153077D01*
X111000Y152974D01*
X139500D01*
X140283Y153077D01*
X141013Y153379D01*
X141640Y153860D01*
X148508Y160729D01*
X148970Y160537D01*
Y131368D01*
X92129Y74527D01*
X91843Y74565D01*
X90466Y74384D01*
X89184Y73853D01*
X88083Y73008D01*
X87238Y71907D01*
X86707Y70624D01*
X86525Y69248D01*
X86686Y68026D01*
X86373Y67526D01*
X85819D01*
X85541Y67942D01*
X85675Y68263D01*
X85738Y68748D01*
X82000D01*
X78262D01*
X78325Y68263D01*
X78459Y67942D01*
X78181Y67526D01*
X46509D01*
X25328Y88707D01*
X29700Y93079D01*
X30313Y93549D01*
X30810Y94196D01*
X31123Y94951D01*
X31229Y95760D01*
Y100895D01*
X31729Y101141D01*
X32086Y100868D01*
X32815Y100565D01*
X33599Y100462D01*
X35094D01*
X35323Y99962D01*
X34978Y99513D01*
X34676Y98783D01*
X34573Y98000D01*
X34676Y97217D01*
X34978Y96487D01*
X35459Y95860D01*
X36086Y95380D01*
X36815Y95077D01*
X37598Y94974D01*
X38382Y95077D01*
X39112Y95380D01*
X39738Y95860D01*
X44791Y100913D01*
X45858D01*
Y102340D01*
X46009Y102705D01*
X46113Y103488D01*
X46009Y104271D01*
X45946Y104425D01*
X46223Y104925D01*
X47358D01*
Y108279D01*
X55496Y116417D01*
X56057Y117148D01*
X56410Y118000D01*
X56530Y118913D01*
Y155068D01*
X56992Y155260D01*
X58760Y153492D01*
X59491Y152931D01*
X60342Y152578D01*
X61256Y152458D01*
X61256Y152458D01*
X62228D01*
Y151913D01*
X70772D01*
Y152458D01*
X74728D01*
Y151913D01*
X78332D01*
X78501Y151413D01*
X78291Y151252D01*
X74004Y146965D01*
X73443Y146234D01*
X73090Y145382D01*
X72970Y144468D01*
X73016Y144120D01*
Y136850D01*
X73373D01*
Y131000D01*
X73373Y131000D01*
X73427Y130595D01*
X73480Y130191D01*
X73792Y129437D01*
X74289Y128789D01*
X76045Y127033D01*
X76045Y127033D01*
X76692Y126536D01*
X77134Y126353D01*
X77447Y126224D01*
X78228Y126121D01*
Y125169D01*
X86772D01*
Y125617D01*
X90728D01*
Y124669D01*
X91873D01*
Y121953D01*
X86547D01*
Y120309D01*
X86074Y120148D01*
X85889Y120389D01*
X84750Y121263D01*
X83424Y121812D01*
X82000Y122000D01*
X80576Y121812D01*
X79250Y121263D01*
X78111Y120389D01*
X77237Y119250D01*
X76688Y117923D01*
X76500Y116500D01*
X76688Y115076D01*
X77237Y113750D01*
X78111Y112611D01*
X78873Y112026D01*
Y89242D01*
X78240Y88756D01*
X77395Y87655D01*
X76864Y86372D01*
X76683Y84996D01*
X76864Y83620D01*
X77395Y82337D01*
X78240Y81236D01*
X79341Y80391D01*
X80624Y79860D01*
X82000Y79679D01*
X83376Y79860D01*
X84659Y80391D01*
X85760Y81236D01*
X86605Y82337D01*
X86671Y82498D01*
X87171D01*
X87238Y82337D01*
X88083Y81236D01*
X89184Y80391D01*
X90466Y79860D01*
X91843Y79679D01*
X93219Y79860D01*
X94501Y80391D01*
X95602Y81236D01*
X96447Y82337D01*
X96978Y83620D01*
X97160Y84996D01*
X96978Y86372D01*
X96447Y87655D01*
X95602Y88756D01*
X94969Y89242D01*
Y94476D01*
X95418Y94697D01*
X95946Y94291D01*
X97195Y93774D01*
X98035Y93663D01*
Y98776D01*
Y103888D01*
X97195Y103777D01*
X95946Y103260D01*
X95418Y102854D01*
X94969Y103076D01*
Y111047D01*
X97453D01*
Y117604D01*
X97708Y117937D01*
X98020Y118691D01*
X98127Y119500D01*
Y124669D01*
X99272D01*
Y130181D01*
Y138331D01*
X98127D01*
Y139169D01*
X99272D01*
Y145226D01*
X99782D01*
X101470Y143538D01*
Y137500D01*
X101590Y136586D01*
X101943Y135735D01*
X102504Y135004D01*
X103235Y134443D01*
X104086Y134090D01*
X105000Y133970D01*
X105914Y134090D01*
X106765Y134443D01*
X107496Y135004D01*
X108057Y135735D01*
X108410Y136586D01*
X108530Y137500D01*
Y145000D01*
X108410Y145914D01*
X108057Y146765D01*
X107496Y147496D01*
X103740Y151252D01*
X103009Y151813D01*
X102158Y152166D01*
X101244Y152286D01*
X84003D01*
X83904Y152786D01*
X84253Y152931D01*
X84984Y153492D01*
X87496Y156004D01*
X88057Y156735D01*
X88410Y157586D01*
X88530Y158500D01*
X88530Y158500D01*
Y185728D01*
X89075D01*
Y189082D01*
X90221Y190228D01*
X94075D01*
Y190857D01*
X94490Y191135D01*
X94598Y191090D01*
X95512Y190970D01*
X96425Y191090D01*
X97277Y191443D01*
X97649Y191728D01*
X98087D01*
D02*
G37*
G36*
X343470Y206867D02*
X342970Y206660D01*
X335092Y214538D01*
X335283Y215000D01*
X343470D01*
Y206867D01*
D02*
G37*
G36*
X124474Y258574D02*
Y218000D01*
X124577Y217217D01*
X124880Y216487D01*
X125360Y215860D01*
X127987Y213234D01*
X127796Y212772D01*
X123181D01*
Y212143D01*
X122765Y211865D01*
X122658Y211910D01*
X121744Y212030D01*
X115000D01*
X114086Y211910D01*
X113235Y211557D01*
X112504Y210996D01*
X111943Y210265D01*
X111590Y209414D01*
X111470Y208500D01*
X111590Y207586D01*
X111943Y206735D01*
X112504Y206004D01*
X113235Y205443D01*
X114086Y205090D01*
X115000Y204970D01*
X121744D01*
X122658Y205090D01*
X122765Y205135D01*
X123181Y204857D01*
Y204228D01*
X125442D01*
X125762Y203728D01*
X125577Y203283D01*
X125474Y202500D01*
X125577Y201717D01*
X125880Y200987D01*
X126360Y200360D01*
X127412Y199309D01*
X127220Y198847D01*
X124331D01*
Y199772D01*
X110669D01*
Y195103D01*
X106653Y191087D01*
X104526D01*
Y215000D01*
X104526Y215000D01*
X104423Y215783D01*
X104121Y216513D01*
X103640Y217140D01*
X100140Y220640D01*
X99513Y221121D01*
X98783Y221423D01*
X98000Y221526D01*
X80828D01*
X79083Y223271D01*
Y226575D01*
X87500D01*
X88257Y226675D01*
X88963Y226967D01*
X89568Y227432D01*
X103411Y241274D01*
X103876Y241880D01*
X104168Y242585D01*
X104268Y243342D01*
Y251138D01*
X105811D01*
Y257474D01*
X106717D01*
Y251138D01*
X115654D01*
Y251925D01*
X123772D01*
Y258483D01*
X124272Y258730D01*
X124474Y258574D01*
D02*
G37*
G36*
X247753Y269557D02*
X247959Y269056D01*
X244504Y265601D01*
X244472Y265559D01*
X237000D01*
Y248039D01*
Y245030D01*
X230831D01*
Y245772D01*
X224774D01*
Y248744D01*
X224654Y249658D01*
X224301Y250509D01*
X223740Y251240D01*
X223009Y251801D01*
X222158Y252154D01*
X221244Y252274D01*
X220330Y252154D01*
X219479Y251801D01*
X218748Y251240D01*
X218187Y250509D01*
X217834Y249658D01*
X217714Y248744D01*
Y241500D01*
X217834Y240586D01*
X217892Y240446D01*
X217615Y240030D01*
X157500D01*
X156586Y239910D01*
X155735Y239557D01*
X155004Y238996D01*
X150004Y233996D01*
X149443Y233265D01*
X149090Y232414D01*
X148970Y231500D01*
Y230847D01*
X142205D01*
Y219153D01*
X143844D01*
Y216921D01*
X140220D01*
X134826Y222316D01*
Y260700D01*
X134780Y261048D01*
X135000Y261268D01*
X135966Y261395D01*
X136866Y261768D01*
X137639Y262361D01*
X138232Y263134D01*
X138605Y264034D01*
X138732Y265000D01*
X138605Y265966D01*
X138232Y266866D01*
X137639Y267639D01*
X136866Y268232D01*
X135966Y268605D01*
X135000Y268732D01*
X134034Y268605D01*
X133134Y268232D01*
X132361Y267639D01*
X131768Y266866D01*
X131432Y266055D01*
X130933Y265846D01*
X127462Y269317D01*
X127654Y269779D01*
X247753Y269557D01*
D02*
G37*
G36*
X30971Y269957D02*
X31178Y269457D01*
X28360Y266640D01*
X27880Y266013D01*
X27577Y265283D01*
X27474Y264500D01*
Y259000D01*
X27577Y258217D01*
X27880Y257487D01*
X28360Y256860D01*
X31360Y253860D01*
X31987Y253380D01*
X32717Y253077D01*
X33500Y252974D01*
X47563D01*
X47770Y252474D01*
X44821Y249526D01*
X41000D01*
X40217Y249423D01*
X39487Y249120D01*
X38860Y248640D01*
X38379Y248013D01*
X38077Y247283D01*
X37974Y246500D01*
X38077Y245717D01*
X38379Y244987D01*
X38860Y244360D01*
X39487Y243880D01*
X40217Y243577D01*
X41000Y243474D01*
X46075D01*
X46858Y243577D01*
X47588Y243880D01*
X48214Y244360D01*
X49193Y245339D01*
X49626Y245524D01*
Y245524D01*
X49626Y245524D01*
X61567D01*
X66099Y240992D01*
X65907Y240530D01*
X12453D01*
Y242453D01*
X2000D01*
Y263500D01*
X4041Y265541D01*
X4515Y265307D01*
X4474Y265000D01*
X4577Y264217D01*
X4879Y263487D01*
X5360Y262860D01*
X5987Y262380D01*
X6717Y262077D01*
X7500Y261974D01*
X11247D01*
X14004Y259217D01*
Y259000D01*
X18500D01*
Y266980D01*
X14799D01*
X14640Y267140D01*
X14013Y267620D01*
X13283Y267923D01*
X12500Y268026D01*
X7500D01*
X7192Y267985D01*
X6959Y268459D01*
X8000Y269500D01*
Y269646D01*
X8354Y269999D01*
X30971Y269957D01*
D02*
G37*
G36*
X86788Y263974D02*
X80675Y257861D01*
X77264D01*
Y264474D01*
X86581D01*
X86788Y263974D01*
D02*
G37*
G36*
X98474Y213747D02*
Y211666D01*
X98211Y211577D01*
X97974Y211534D01*
X97277Y212069D01*
X96425Y212422D01*
X95512Y212542D01*
X94598Y212422D01*
X93747Y212069D01*
X93016Y211508D01*
X92455Y210777D01*
X92102Y209926D01*
X91982Y209012D01*
Y204772D01*
X87042D01*
Y213488D01*
X86922Y214402D01*
X86685Y214974D01*
X87002Y215474D01*
X96747D01*
X98474Y213747D01*
D02*
G37*
G36*
X77435Y216360D02*
X78062Y215880D01*
X78792Y215577D01*
X79575Y215474D01*
X80022D01*
X80339Y214974D01*
X80102Y214402D01*
X79982Y213488D01*
Y208772D01*
X76530D01*
Y216612D01*
X76992Y216803D01*
X77435Y216360D01*
D02*
G37*
G36*
X80728Y246181D02*
X81864D01*
X82141Y245681D01*
X82077Y245527D01*
X81974Y244744D01*
X82077Y243961D01*
X82228Y243596D01*
Y242169D01*
X83428D01*
X83487Y242124D01*
X84217Y241821D01*
X85000Y241718D01*
X88286D01*
X88477Y241256D01*
X82247Y235026D01*
X79083D01*
Y241787D01*
X73862D01*
X64340Y251309D01*
X64547Y251810D01*
X80728D01*
Y246181D01*
D02*
G37*
G36*
X278974Y226051D02*
X278111Y225389D01*
X277926Y225148D01*
X277453Y225309D01*
Y226953D01*
X275026D01*
Y233039D01*
X278974D01*
Y226051D01*
D02*
G37*
G36*
X258489Y172589D02*
X258298Y172127D01*
X227794D01*
X227465Y172503D01*
X227530Y173000D01*
X227465Y173497D01*
X227794Y173873D01*
X257205D01*
X258489Y172589D01*
D02*
G37*
G36*
X127587Y181228D02*
X127949Y180896D01*
X128360Y180360D01*
X128987Y179879D01*
X129717Y179577D01*
X130500Y179474D01*
X131283Y179577D01*
X132013Y179879D01*
X132640Y180360D01*
X133314Y181034D01*
X133776Y180843D01*
Y177079D01*
X140801D01*
X141205Y176846D01*
Y170756D01*
X140819Y170371D01*
X119272D01*
Y172606D01*
X120211Y173545D01*
X120211Y173545D01*
X120708Y174193D01*
X121020Y174947D01*
X121127Y175756D01*
X121127Y175756D01*
Y181228D01*
X127587Y181228D01*
D02*
G37*
G36*
X211350Y179516D02*
X213562D01*
X216132Y176946D01*
X215941Y176484D01*
X211350D01*
Y176127D01*
X207474D01*
X206889Y176889D01*
X205807Y177719D01*
X205776Y178000D01*
X205807Y178281D01*
X206889Y179111D01*
X207474Y179873D01*
X211350D01*
Y179516D01*
D02*
G37*
G36*
X113925Y188862D02*
Y181228D01*
X114873D01*
Y177051D01*
X114653Y176831D01*
X110728D01*
Y174338D01*
X110228Y174071D01*
X110127Y174139D01*
Y177425D01*
X111272D01*
Y182937D01*
Y186862D01*
X113463Y189053D01*
X113925Y188862D01*
D02*
G37*
G36*
X211350Y169516D02*
X213886D01*
X216417Y166984D01*
X216210Y166484D01*
X211350D01*
Y166127D01*
X207474D01*
X206889Y166889D01*
X205807Y167719D01*
X205776Y168000D01*
X205807Y168281D01*
X206889Y169111D01*
X207474Y169873D01*
X211350D01*
Y169516D01*
D02*
G37*
G36*
X303823Y161756D02*
X303492Y161379D01*
X303063Y161708D01*
X302309Y162020D01*
X301500Y162127D01*
X301500Y162127D01*
X227794D01*
X227465Y162503D01*
X227530Y163000D01*
X227410Y163914D01*
X227057Y164765D01*
X226591Y165373D01*
X226767Y165873D01*
X299705D01*
X303823Y161756D01*
D02*
G37*
G36*
X62228Y173909D02*
Y170681D01*
Y165575D01*
X62228D01*
Y160661D01*
X61766Y160470D01*
X57272Y164965D01*
Y169606D01*
X61766Y174100D01*
X62228Y173909D01*
D02*
G37*
G36*
X311720Y166858D02*
Y163356D01*
X311258Y163164D01*
X304011Y170411D01*
X304202Y170873D01*
X307705D01*
X311720Y166858D01*
D02*
G37*
G36*
X39729Y233008D02*
X37201Y230480D01*
X25004D01*
Y210520D01*
X27970D01*
Y201905D01*
X24256D01*
Y192968D01*
X25604D01*
X25756Y192532D01*
X25756D01*
Y190063D01*
X31874D01*
Y189063D01*
X25756D01*
Y186594D01*
X29993D01*
X30109Y186506D01*
X30960Y186153D01*
X31874Y186033D01*
X40563D01*
X40590Y185830D01*
X40943Y184979D01*
X41504Y184248D01*
X46169Y179582D01*
Y179228D01*
X46607D01*
X46979Y178943D01*
X47830Y178590D01*
X48744Y178470D01*
X49658Y178590D01*
X49765Y178635D01*
X50181Y178357D01*
Y177728D01*
X55897D01*
X56089Y177266D01*
X52653Y173831D01*
X48728D01*
Y164965D01*
X46294Y162530D01*
X43496D01*
Y168980D01*
X30504D01*
Y149020D01*
X43496D01*
Y155470D01*
X47756D01*
X48670Y155590D01*
X49054Y155749D01*
X49470Y155472D01*
Y120376D01*
X42933Y113839D01*
X42316Y114094D01*
X41403Y114215D01*
X37945D01*
Y118016D01*
X36322D01*
X36131Y118478D01*
X36226Y118573D01*
X36707Y119200D01*
X37010Y119929D01*
X37113Y120713D01*
Y126669D01*
X38358D01*
Y132181D01*
Y140331D01*
X29815D01*
Y138481D01*
X29703Y138396D01*
X26879Y135572D01*
X26417Y135763D01*
Y139772D01*
X25873D01*
Y141228D01*
X26417D01*
Y149772D01*
X18268D01*
Y149709D01*
X17806Y149517D01*
X16327Y150996D01*
X15596Y151557D01*
X14744Y151910D01*
X13831Y152030D01*
X5000D01*
X4086Y151910D01*
X3235Y151557D01*
X2504Y150996D01*
X2473Y150957D01*
X2000Y151118D01*
Y170660D01*
X2500Y170830D01*
X2860Y170360D01*
X3487Y169879D01*
X4217Y169577D01*
X5000Y169474D01*
X13004D01*
Y161520D01*
X17500D01*
Y170000D01*
Y178480D01*
X13004D01*
Y175526D01*
X5000D01*
X4217Y175423D01*
X3487Y175120D01*
X2860Y174640D01*
X2500Y174170D01*
X2000Y174340D01*
Y231547D01*
X12453D01*
Y233470D01*
X39537D01*
X39729Y233008D01*
D02*
G37*
G36*
X354000Y177782D02*
Y161034D01*
X353675Y160817D01*
X353500Y160775D01*
X352642Y160889D01*
X351728Y160768D01*
X351460Y160657D01*
X351044Y160935D01*
Y177515D01*
X351420Y177844D01*
X352000Y177768D01*
X352966Y177895D01*
X353500Y178117D01*
X354000Y177782D01*
D02*
G37*
G36*
X267489Y177589D02*
X267298Y177127D01*
X262795D01*
X260711Y179211D01*
X260063Y179708D01*
X259309Y180020D01*
X258500Y180127D01*
X258500Y180127D01*
X226767D01*
X226591Y180627D01*
X227057Y181235D01*
X227410Y182086D01*
X227530Y183000D01*
X227410Y183914D01*
X227057Y184765D01*
X226591Y185373D01*
X226767Y185873D01*
X259205D01*
X267489Y177589D01*
D02*
G37*
G36*
X354000Y206500D02*
X354000Y185218D01*
X353500Y184883D01*
X352966Y185105D01*
X352000Y185232D01*
X351420Y185156D01*
X351044Y185485D01*
Y197291D01*
X350938Y198100D01*
X350625Y198854D01*
X350128Y199502D01*
X347146Y202485D01*
X347325Y203013D01*
X347914Y203090D01*
X348765Y203443D01*
X349496Y204004D01*
X350057Y204735D01*
X350410Y205586D01*
X350530Y206500D01*
Y209316D01*
X350992Y209508D01*
X354000Y206500D01*
D02*
G37*
G36*
X272489Y182589D02*
X272298Y182127D01*
X271795D01*
X262711Y191211D01*
X262063Y191708D01*
X261309Y192020D01*
X260500Y192127D01*
X260500Y192127D01*
X227794D01*
X227465Y192503D01*
X227530Y193000D01*
X227410Y193914D01*
X227057Y194765D01*
X226591Y195373D01*
X226767Y195873D01*
X259205D01*
X272489Y182589D01*
D02*
G37*
G36*
X146974Y192747D02*
Y176847D01*
X145085D01*
X144681Y177079D01*
Y179638D01*
Y186213D01*
X143181D01*
Y187315D01*
X144681D01*
Y189874D01*
Y194386D01*
X145143Y194578D01*
X146974Y192747D01*
D02*
G37*
%LPC*%
G36*
X269500Y5000D02*
X267856D01*
X267928Y4642D01*
X268414Y3914D01*
X269142Y3428D01*
X269500Y3356D01*
Y5000D01*
D02*
G37*
G36*
X270500Y7644D02*
Y6000D01*
X272144D01*
X272072Y6358D01*
X271586Y7086D01*
X270858Y7572D01*
X270500Y7644D01*
D02*
G37*
G36*
X269500D02*
X269142Y7572D01*
X268414Y7086D01*
X267928Y6358D01*
X267856Y6000D01*
X269500D01*
Y7644D01*
D02*
G37*
G36*
X272144Y5000D02*
X270500D01*
Y3356D01*
X270858Y3428D01*
X271586Y3914D01*
X272072Y4642D01*
X272144Y5000D01*
D02*
G37*
G36*
X103648Y98276D02*
X99035D01*
Y93663D01*
X99876Y93774D01*
X101125Y94291D01*
X102197Y95114D01*
X103020Y96187D01*
X103537Y97435D01*
X103648Y98276D01*
D02*
G37*
G36*
X81500Y72986D02*
X81015Y72923D01*
X80098Y72543D01*
X79310Y71938D01*
X78706Y71150D01*
X78325Y70233D01*
X78262Y69748D01*
X81500D01*
Y72986D01*
D02*
G37*
G36*
X82500D02*
Y69748D01*
X85738D01*
X85675Y70233D01*
X85295Y71150D01*
X84690Y71938D01*
X83902Y72543D01*
X82985Y72923D01*
X82500Y72986D01*
D02*
G37*
G36*
X99035Y103888D02*
Y99276D01*
X103648D01*
X103537Y100116D01*
X103020Y101365D01*
X102197Y102437D01*
X101125Y103260D01*
X99876Y103777D01*
X99035Y103888D01*
D02*
G37*
G36*
X159000Y268732D02*
X158034Y268605D01*
X157134Y268232D01*
X156361Y267639D01*
X155768Y266866D01*
X155395Y265966D01*
X155268Y265000D01*
X155395Y264034D01*
X155768Y263134D01*
X156361Y262361D01*
X157134Y261768D01*
X158034Y261395D01*
X159000Y261268D01*
X159966Y261395D01*
X160866Y261768D01*
X161639Y262361D01*
X162232Y263134D01*
X162605Y264034D01*
X162732Y265000D01*
X162605Y265966D01*
X162232Y266866D01*
X161639Y267639D01*
X160866Y268232D01*
X159966Y268605D01*
X159000Y268732D01*
D02*
G37*
G36*
X183000D02*
X182034Y268605D01*
X181134Y268232D01*
X180361Y267639D01*
X179768Y266866D01*
X179395Y265966D01*
X179268Y265000D01*
X179395Y264034D01*
X179768Y263134D01*
X180361Y262361D01*
X181134Y261768D01*
X182034Y261395D01*
X183000Y261268D01*
X183966Y261395D01*
X184866Y261768D01*
X185639Y262361D01*
X186232Y263134D01*
X186605Y264034D01*
X186732Y265000D01*
X186605Y265966D01*
X186232Y266866D01*
X185639Y267639D01*
X184866Y268232D01*
X183966Y268605D01*
X183000Y268732D01*
D02*
G37*
G36*
X230500D02*
X229534Y268605D01*
X228634Y268232D01*
X227861Y267639D01*
X227268Y266866D01*
X226895Y265966D01*
X226768Y265000D01*
X226895Y264034D01*
X227268Y263134D01*
X227861Y262361D01*
X228634Y261768D01*
X229534Y261395D01*
X230500Y261268D01*
X231466Y261395D01*
X232366Y261768D01*
X233139Y262361D01*
X233732Y263134D01*
X234105Y264034D01*
X234232Y265000D01*
X234105Y265966D01*
X233732Y266866D01*
X233139Y267639D01*
X232366Y268232D01*
X231466Y268605D01*
X230500Y268732D01*
D02*
G37*
G36*
X207000D02*
X206034Y268605D01*
X205134Y268232D01*
X204361Y267639D01*
X203768Y266866D01*
X203395Y265966D01*
X203268Y265000D01*
X203395Y264034D01*
X203768Y263134D01*
X204361Y262361D01*
X205134Y261768D01*
X206034Y261395D01*
X207000Y261268D01*
X207966Y261395D01*
X208866Y261768D01*
X209639Y262361D01*
X210232Y263134D01*
X210605Y264034D01*
X210732Y265000D01*
X210605Y265966D01*
X210232Y266866D01*
X209639Y267639D01*
X208866Y268232D01*
X207966Y268605D01*
X207000Y268732D01*
D02*
G37*
G36*
X23996Y266980D02*
X19500D01*
Y259000D01*
X23996D01*
Y266980D01*
D02*
G37*
G36*
Y258000D02*
X19500D01*
Y250020D01*
X23996D01*
Y258000D01*
D02*
G37*
G36*
X18500D02*
X14004D01*
Y250020D01*
X18500D01*
Y258000D01*
D02*
G37*
G36*
X6500Y226500D02*
X3079D01*
X3149Y225968D01*
X3547Y225007D01*
X4181Y224181D01*
X5007Y223547D01*
X5968Y223149D01*
X6500Y223079D01*
Y226500D01*
D02*
G37*
G36*
X7500Y230921D02*
Y227000D01*
Y223079D01*
X8032Y223149D01*
X8806Y223470D01*
X19000D01*
X19914Y223590D01*
X20765Y223943D01*
X21496Y224504D01*
X22057Y225235D01*
X22410Y226086D01*
X22530Y227000D01*
X22410Y227914D01*
X22057Y228765D01*
X21496Y229496D01*
X20765Y230057D01*
X19914Y230410D01*
X19000Y230530D01*
X8806D01*
X8032Y230851D01*
X7500Y230921D01*
D02*
G37*
G36*
X22996Y178480D02*
X18500D01*
Y170500D01*
X22996D01*
Y178480D01*
D02*
G37*
G36*
X6500Y230921D02*
X5968Y230851D01*
X5007Y230453D01*
X4181Y229819D01*
X3547Y228993D01*
X3149Y228032D01*
X3079Y227500D01*
X6500D01*
Y230921D01*
D02*
G37*
G36*
X22996Y169500D02*
X18500D01*
Y161520D01*
X22996D01*
Y169500D01*
D02*
G37*
%LPD*%
D10*
X157500Y225000D02*
D03*
X146870D02*
D03*
X116130Y28000D02*
D03*
X105500D02*
D03*
X156500Y171000D02*
D03*
X145870D02*
D03*
D11*
X226756Y241500D02*
D03*
X221244D02*
D03*
X16831Y145500D02*
D03*
X22343D02*
D03*
X16831Y135500D02*
D03*
X22343D02*
D03*
X79488Y190000D02*
D03*
X85000D02*
D03*
X62488Y215500D02*
D03*
X68000D02*
D03*
X19256Y90500D02*
D03*
X13744D02*
D03*
X48744Y182000D02*
D03*
X54256D02*
D03*
X95512Y200500D02*
D03*
X90000D02*
D03*
X19331Y99000D02*
D03*
X24843D02*
D03*
X95512Y194500D02*
D03*
X90000D02*
D03*
X83512Y204500D02*
D03*
X78000D02*
D03*
X123512Y185500D02*
D03*
X118000D02*
D03*
X206347Y80642D02*
D03*
X211858D02*
D03*
X206244Y62500D02*
D03*
X211756D02*
D03*
X265244Y31000D02*
D03*
X270756D02*
D03*
X10488Y29000D02*
D03*
X16000D02*
D03*
X16244Y47000D02*
D03*
X10732D02*
D03*
X206244Y31000D02*
D03*
X211756D02*
D03*
X206244Y49000D02*
D03*
X211756D02*
D03*
X120256Y195500D02*
D03*
X114744D02*
D03*
X127256Y208500D02*
D03*
X121744D02*
D03*
D12*
X19000Y258500D02*
D03*
X23500Y69000D02*
D03*
X18000Y170000D02*
D03*
X37000Y159000D02*
D03*
X31500Y220500D02*
D03*
D13*
X66500Y161500D02*
D03*
Y155988D02*
D03*
X44000Y196256D02*
D03*
Y190744D02*
D03*
X95000Y148756D02*
D03*
Y143244D02*
D03*
X79000Y161500D02*
D03*
Y155988D02*
D03*
X79000Y179256D02*
D03*
Y173744D02*
D03*
X34087Y130744D02*
D03*
Y136256D02*
D03*
X66500Y174756D02*
D03*
Y169244D02*
D03*
X53000Y169756D02*
D03*
Y164244D02*
D03*
X107000Y187012D02*
D03*
Y181500D02*
D03*
X275500Y62488D02*
D03*
Y68000D02*
D03*
X284000Y62488D02*
D03*
Y68000D02*
D03*
X51500Y221256D02*
D03*
Y215744D02*
D03*
X44000Y221256D02*
D03*
Y215744D02*
D03*
X115000Y172756D02*
D03*
Y167244D02*
D03*
X85000Y244744D02*
D03*
Y250256D02*
D03*
X119500Y256000D02*
D03*
Y261512D02*
D03*
X43087Y103488D02*
D03*
Y109000D02*
D03*
X82500Y134756D02*
D03*
Y129244D02*
D03*
X95000Y134256D02*
D03*
Y128744D02*
D03*
X265500Y62744D02*
D03*
Y68256D02*
D03*
X275500Y49244D02*
D03*
Y54756D02*
D03*
X284000Y48988D02*
D03*
Y54500D02*
D03*
D14*
X31874Y197437D02*
D03*
Y189563D02*
D03*
D15*
X61791Y196953D02*
D03*
Y194984D02*
D03*
Y193016D02*
D03*
Y191047D02*
D03*
X73209D02*
D03*
Y193016D02*
D03*
Y194984D02*
D03*
Y196953D02*
D03*
D16*
X64547Y188291D02*
D03*
X66516D02*
D03*
X68484D02*
D03*
X70453D02*
D03*
Y199709D02*
D03*
X68484D02*
D03*
X66516D02*
D03*
X64547D02*
D03*
D17*
X67500Y194000D02*
D03*
D18*
X167772Y180366D02*
D03*
Y182925D02*
D03*
Y185484D02*
D03*
Y188043D02*
D03*
Y190602D02*
D03*
Y193161D02*
D03*
Y195721D02*
D03*
Y198280D02*
D03*
Y200839D02*
D03*
Y203398D02*
D03*
Y205957D02*
D03*
Y208516D02*
D03*
Y211075D02*
D03*
Y213634D02*
D03*
X139228D02*
D03*
Y211075D02*
D03*
Y208516D02*
D03*
Y205957D02*
D03*
Y203398D02*
D03*
Y200839D02*
D03*
Y198280D02*
D03*
Y195721D02*
D03*
Y193161D02*
D03*
Y190602D02*
D03*
Y188043D02*
D03*
Y185484D02*
D03*
Y182925D02*
D03*
Y180366D02*
D03*
D19*
X151500Y36011D02*
D03*
X135500D02*
D03*
X151500Y41012D02*
D03*
X135500D02*
D03*
X151500Y46011D02*
D03*
X135500D02*
D03*
X151500Y51012D02*
D03*
X135500D02*
D03*
X151500Y56011D02*
D03*
X135500D02*
D03*
D20*
X254650Y31142D02*
D03*
X223350D02*
D03*
X254650Y48858D02*
D03*
X223350D02*
D03*
X255150Y62642D02*
D03*
X223850D02*
D03*
X255150Y80358D02*
D03*
X223850D02*
D03*
X27772Y46858D02*
D03*
X59071D02*
D03*
X27772Y29142D02*
D03*
X59071D02*
D03*
D21*
X24421Y114984D02*
D03*
Y113016D02*
D03*
X33752D02*
D03*
Y114984D02*
D03*
D22*
X32039Y118665D02*
D03*
X30071D02*
D03*
X28102D02*
D03*
X26134D02*
D03*
Y109335D02*
D03*
X28102D02*
D03*
X30071D02*
D03*
X32039D02*
D03*
D23*
X282000Y211937D02*
D03*
Y208000D02*
D03*
X272000Y211968D02*
D03*
Y208032D02*
D03*
X253500Y211469D02*
D03*
Y207531D02*
D03*
X306500Y227500D02*
D03*
Y223563D02*
D03*
X317000Y228000D02*
D03*
Y224063D02*
D03*
X76500Y140532D02*
D03*
Y144468D02*
D03*
D24*
X352642Y146744D02*
D03*
X347917D02*
D03*
X343193D02*
D03*
X338469D02*
D03*
X333744D02*
D03*
X329020D02*
D03*
X324295D02*
D03*
X319571D02*
D03*
X314846D02*
D03*
X310122D02*
D03*
X305398D02*
D03*
X300673D02*
D03*
Y102256D02*
D03*
X305398D02*
D03*
X310122D02*
D03*
X314846D02*
D03*
X319571D02*
D03*
X324295D02*
D03*
X329020D02*
D03*
X333744D02*
D03*
X338469D02*
D03*
X343193D02*
D03*
X347917D02*
D03*
X352642D02*
D03*
D25*
X300122Y138673D02*
D03*
Y133949D02*
D03*
Y129224D02*
D03*
Y124500D02*
D03*
Y119776D02*
D03*
Y115051D02*
D03*
Y110327D02*
D03*
D26*
X242000Y241799D02*
D03*
Y256799D02*
D03*
X252000Y241799D02*
D03*
Y256799D02*
D03*
X262000Y241799D02*
D03*
Y256799D02*
D03*
X272000Y241799D02*
D03*
Y256799D02*
D03*
X282000Y241799D02*
D03*
Y256799D02*
D03*
X292000Y241799D02*
D03*
Y256799D02*
D03*
X302000Y241799D02*
D03*
Y256799D02*
D03*
X312000Y241799D02*
D03*
Y256799D02*
D03*
X322000Y241799D02*
D03*
Y256799D02*
D03*
X332000Y241799D02*
D03*
Y256799D02*
D03*
D27*
X215032Y163000D02*
D03*
X218969D02*
D03*
X215032Y113000D02*
D03*
X218969D02*
D03*
X215032Y123000D02*
D03*
X218969D02*
D03*
X215032Y133000D02*
D03*
X218969D02*
D03*
X215032Y143000D02*
D03*
X218969D02*
D03*
X215032Y153000D02*
D03*
X218969D02*
D03*
X215032Y173000D02*
D03*
X218969D02*
D03*
X215032Y183000D02*
D03*
X218969D02*
D03*
X215032Y193000D02*
D03*
X218969D02*
D03*
X215032Y203000D02*
D03*
X218969D02*
D03*
X175531Y56011D02*
D03*
X179469D02*
D03*
X164032Y51000D02*
D03*
X167968D02*
D03*
X179532Y46000D02*
D03*
X183468D02*
D03*
X175563Y36011D02*
D03*
X179500D02*
D03*
X123468Y56012D02*
D03*
X119532D02*
D03*
D28*
X111185Y256000D02*
D03*
X101342D02*
D03*
X91500D02*
D03*
D29*
X73000Y236925D02*
D03*
Y225075D02*
D03*
D30*
X60590Y250780D02*
D03*
X58031D02*
D03*
X55472D02*
D03*
X52913D02*
D03*
X50354D02*
D03*
D31*
X60000Y262000D02*
D03*
X50945D02*
D03*
D32*
X70236D02*
D03*
X40709D02*
D03*
D33*
X164752Y188043D02*
X167300D01*
X162957D02*
X164752D01*
X156500Y179791D02*
X164752Y188043D01*
X123000Y269500D02*
X131800Y260700D01*
X94213Y269500D02*
X123000D01*
X92213Y267500D02*
X94213Y269500D01*
X121500Y266000D02*
X127500Y260000D01*
X115000Y266000D02*
X121500D01*
X111300Y262300D02*
X115000Y266000D01*
X30071Y116571D02*
Y118665D01*
X26516Y113016D02*
X30071Y116571D01*
X12500Y265000D02*
X19000Y258500D01*
X7500Y265000D02*
X12500D01*
X15500Y172500D02*
X18000Y170000D01*
X5000Y172500D02*
X15500D01*
X58503Y250780D02*
Y254835D01*
X143161Y200839D02*
X150000Y194000D01*
Y166500D02*
Y194000D01*
X139500Y156000D02*
X150000Y166500D01*
X156500Y171000D02*
Y179791D01*
X157500Y193500D02*
Y225000D01*
Y193500D02*
X162957Y188043D01*
X146870Y210870D02*
Y225000D01*
X144516Y208516D02*
X146870Y210870D01*
X139228Y208516D02*
X144516D01*
X358766Y102256D02*
X407500D01*
X357500Y0D02*
X407500D01*
X406500Y64624D02*
Y102256D01*
Y0D02*
Y34432D01*
X404500Y96256D02*
X406500Y102256D01*
X408500Y96256D01*
X406500Y0D02*
X408500Y6000D01*
X404500D02*
X406500Y0D01*
X362000Y148000D02*
X405500D01*
X357500Y271500D02*
X405500D01*
X404500Y148000D02*
Y193554D01*
Y222746D02*
Y271500D01*
Y148000D02*
X406500Y154000D01*
X402500D02*
X404500Y148000D01*
X402500Y265500D02*
X404500Y271500D01*
X406500Y265500D01*
X-0Y272500D02*
Y299500D01*
X356000Y272500D02*
Y299500D01*
X-0Y298500D02*
X164303D01*
X188497D02*
X356000D01*
X-0D02*
X6000Y296500D01*
X-0Y298500D02*
X6000Y300500D01*
X350000D02*
X356000Y298500D01*
X350000Y296500D02*
X356000Y298500D01*
X-71000Y0D02*
X-1000D01*
X-71000Y271500D02*
X-1000D01*
X-70000Y0D02*
Y123053D01*
Y145247D02*
Y271500D01*
Y0D02*
X-68000Y6000D01*
X-72000D02*
X-70000Y0D01*
X-72000Y265500D02*
X-70000Y271500D01*
X-68000Y265500D01*
X275500Y49244D02*
X284744Y40000D01*
X308500D01*
X253500Y211469D02*
X262000Y219969D01*
Y241799D01*
X272000Y211968D02*
X272000Y211968D01*
Y221500D01*
Y241799D01*
X282000Y211937D02*
Y221500D01*
Y241799D01*
X329000Y146764D02*
X329020Y146744D01*
X255150Y62642D02*
X255252Y62744D01*
X265500D01*
X329020Y60520D02*
Y102256D01*
X308500Y40000D02*
X329020Y60520D01*
X324295Y74295D02*
Y102256D01*
X298988Y48988D02*
X324295Y74295D01*
X284000Y48988D02*
X298988D01*
X310122Y96172D02*
Y102256D01*
X306450Y92500D02*
X310122Y96172D01*
X309693Y88500D02*
X314846Y93654D01*
Y102256D01*
X179532Y46011D02*
Y46828D01*
Y46000D02*
Y46011D01*
X189000Y70000D02*
X207500Y88500D01*
X189000Y56297D02*
Y70000D01*
X179532Y46828D02*
X189000Y56297D01*
X175531Y56011D02*
Y67032D01*
X201000Y92500D01*
X306450D01*
X301500Y95000D02*
X305398Y98898D01*
Y102256D01*
X22843Y90500D02*
X28102Y95760D01*
X60000Y183744D02*
X64547Y188291D01*
X17603Y113016D02*
X19331Y111287D01*
Y99000D02*
Y111287D01*
X17603Y113016D02*
X24421D01*
X31843Y136256D02*
X34087D01*
X28102Y132516D02*
X31843Y136256D01*
X28102Y118665D02*
Y132516D01*
X32039Y118665D02*
Y120441D01*
X34087Y120713D02*
Y130744D01*
X24421Y114984D02*
X26134Y116697D01*
Y118665D01*
X32039D02*
X34087Y120713D01*
X24421Y113016D02*
X26516D01*
X70500Y203000D02*
X73000Y205500D01*
X76500Y203000D02*
X78000Y204500D01*
X70500Y203000D02*
X76500D01*
X56256Y196256D02*
X59496Y193016D01*
X56012Y196500D02*
X56256Y196256D01*
X57713Y196500D02*
X59228Y194984D01*
X56012Y196500D02*
X57713D01*
X59228Y194984D02*
X61791D01*
X43000Y232000D02*
X83500D01*
X139228Y185484D02*
Y188043D01*
X139213Y208500D02*
X139228Y208516D01*
X70453Y181047D02*
Y188291D01*
X54256Y182000D02*
Y183512D01*
X61791Y191047D01*
X76472Y193016D02*
X79488Y190000D01*
X73209Y193016D02*
X76472D01*
X89016Y194984D02*
X89500Y194500D01*
X73209Y194984D02*
X89016D01*
X78000Y200500D02*
X90000D01*
X74453Y196953D02*
X78000Y200500D01*
X73209Y196953D02*
X74453D01*
X85000Y250256D02*
X85756D01*
X31500Y220500D02*
X43000Y232000D01*
X51500Y221256D02*
X56244Y226000D01*
X59496Y193016D02*
X61791D01*
X44000Y221256D02*
X51500D01*
X62488Y219988D02*
X64500Y222000D01*
X62488Y215500D02*
Y219988D01*
X70453Y199709D02*
Y202953D01*
X41000Y246500D02*
X46075D01*
X50354Y250780D01*
X37598Y98000D02*
X43087Y103488D01*
X30071Y107016D02*
Y109335D01*
Y107016D02*
X33599Y103488D01*
X43087D01*
X26134Y118665D02*
X26271Y118802D01*
X131957Y205957D02*
X139228D01*
X127256Y208500D02*
X139213D01*
X128500Y202500D02*
X131957Y205957D01*
X128500Y202500D02*
X132720Y198280D01*
X139228D01*
X167772Y195721D02*
X175779D01*
X19256Y90500D02*
X22843D01*
X85756Y250256D02*
X91500Y256000D01*
X111185D02*
X119500D01*
X60590Y250780D02*
X73000Y238370D01*
Y236925D02*
Y238370D01*
X85000Y244744D02*
X90244D01*
X83500Y232000D02*
X96500Y245000D01*
X73000Y225075D02*
X79575Y218500D01*
X98000D01*
X139228Y200839D02*
X143161D01*
X167772Y126228D02*
X196000Y98000D01*
X186000Y114500D02*
X197000Y103500D01*
X118488Y260500D02*
X119500Y261512D01*
X96500Y245000D02*
Y257500D01*
X99500Y260500D01*
X118488D01*
X58031Y250780D02*
X58503D01*
Y254835D02*
X81928D01*
X89393Y262300D01*
X111300D01*
X134425Y211075D02*
X139228D01*
X131800Y221062D02*
X139228Y213634D01*
X55472Y250780D02*
Y254528D01*
X54000Y256000D02*
X55472Y254528D01*
X33500Y256000D02*
X54000D01*
X30500Y259000D02*
X33500Y256000D01*
X30500Y259000D02*
Y264500D01*
X33500Y267500D01*
X92213D01*
X19256Y90500D02*
X45256Y64500D01*
X59071Y46858D02*
X93858D01*
X98000Y51000D01*
X45256Y64500D02*
X90000D01*
X98000Y56500D01*
Y51000D02*
Y56500D01*
X101500Y165500D02*
X111000Y156000D01*
X101500Y165500D02*
Y215000D01*
X98000Y218500D02*
X101500Y215000D01*
X111000Y156000D02*
X139500D01*
X136043Y188043D02*
X139228D01*
X130500Y182500D02*
X136043Y188043D01*
X127500Y218000D02*
X134425Y211075D01*
X131800Y221062D02*
Y260700D01*
X127500Y218000D02*
Y260000D01*
X356000Y184625D02*
Y271500D01*
Y0D02*
Y75875D01*
X0Y0D02*
Y271500D01*
X356000D01*
Y75875D02*
Y184625D01*
X0Y0D02*
X356000D01*
D34*
X265500Y68256D02*
X283744D01*
X223500Y236500D02*
X226756Y239756D01*
X157500Y236500D02*
X223500D01*
X152500Y231500D02*
X157500Y236500D01*
X347000Y206500D02*
Y241799D01*
X332000Y256799D02*
X347000Y241799D01*
X5000Y148500D02*
X13831D01*
X16831Y145500D01*
X5000Y51000D02*
X6732D01*
X10732Y47000D01*
X152500Y129905D02*
Y231500D01*
X91843Y69248D02*
X152500Y129905D01*
X307000Y210000D02*
Y223063D01*
X306500Y223563D02*
X307000Y223063D01*
X327000Y210000D02*
Y211500D01*
X317000Y221500D02*
X327000Y211500D01*
X179000Y19500D02*
X183500Y24000D01*
X328000D01*
X183500D02*
X195000Y35500D01*
X113500Y19500D02*
X179000D01*
X110320Y22680D02*
X113500Y19500D01*
X110320Y22680D02*
Y50771D01*
X91843Y69248D02*
X110320Y50771D01*
X91843Y69248D02*
X112752D01*
X76500Y144468D02*
X80787Y148756D01*
X293500Y149500D02*
Y154500D01*
Y149500D02*
X296256Y146744D01*
X300673D01*
X245500Y207500D02*
X245532Y207531D01*
X253500D01*
X323500Y267000D02*
X327000Y263500D01*
X250895Y267000D02*
X323500D01*
X247000Y263105D02*
X250895Y267000D01*
X327000Y246799D02*
Y263500D01*
Y246799D02*
X332000Y241799D01*
X247000Y246799D02*
Y263105D01*
X242000Y241799D02*
X247000Y246799D01*
X272000Y200000D02*
Y208032D01*
X282000Y203500D02*
X285500Y200000D01*
X282000Y203500D02*
Y208000D01*
X199000Y31000D02*
X199000Y31000D01*
X206244D01*
Y56000D02*
Y62500D01*
Y49000D02*
Y56000D01*
X206347Y75153D02*
Y80642D01*
X283744Y68256D02*
X284000Y68000D01*
X204754Y68256D02*
X265500D01*
X195000Y58502D02*
X204754Y68256D01*
X173500Y51000D02*
X173500Y51000D01*
X167968Y51000D02*
X173500D01*
X179469Y56011D02*
X180000Y56543D01*
Y65000D01*
X195000Y35500D02*
Y58502D01*
X114520Y51000D02*
X119532Y56012D01*
X124012Y51012D02*
X135500D01*
X124000Y46011D02*
X135500D01*
X241701Y241500D02*
X242000Y241799D01*
X226756Y241500D02*
X241701D01*
X284000Y68000D02*
X284756D01*
X195000Y35500D02*
X199500Y40000D01*
X270756Y31000D02*
Y31380D01*
X262136Y40000D02*
X270756Y31380D01*
X199500Y40000D02*
X262136D01*
X328000Y24000D02*
X343193Y39193D01*
Y102256D01*
X123468Y56012D02*
X135500D01*
X10488Y22665D02*
Y29000D01*
X290000Y99500D02*
X292756Y102256D01*
X300673D01*
X13402Y90842D02*
X13744Y90500D01*
X22343Y122231D02*
X25771Y118802D01*
X16831Y135500D02*
Y145500D01*
X73000Y205500D02*
Y225075D01*
X44000Y186744D02*
Y190744D01*
Y186744D02*
X48744Y182000D01*
X95512Y194500D02*
Y200500D01*
Y209012D01*
X85000Y190000D02*
X89500Y194500D01*
X83512Y204500D02*
Y213488D01*
X31500Y197811D02*
X31874Y197437D01*
X31500Y197811D02*
Y220500D01*
X44000Y190744D02*
X51756D01*
X44000Y196256D02*
X56256D01*
X42819Y189563D02*
X44000Y190744D01*
X31874Y189563D02*
X42819D01*
X42819Y197437D02*
X44000Y196256D01*
X31874Y197437D02*
X42819D01*
X7000Y227000D02*
X19000D01*
X7000Y237000D02*
X72925D01*
X31874Y189563D02*
X32311Y190000D01*
X33752Y110684D02*
Y113016D01*
X32403Y109335D02*
X33752Y110684D01*
Y113016D02*
Y114984D01*
Y110684D02*
X41403D01*
X43087Y109000D01*
X22343Y135500D02*
Y145500D01*
Y130843D02*
Y135500D01*
Y122231D02*
Y130843D01*
X13402Y121903D02*
X22343Y130843D01*
X13402Y90842D02*
Y121903D01*
X218969Y203000D02*
X224000D01*
X218969Y193000D02*
X224000D01*
X218969Y183000D02*
X224000D01*
X218969Y173000D02*
X224000D01*
X218969Y163000D02*
X224000D01*
X218969Y153000D02*
X224000D01*
X218969Y143000D02*
X224000D01*
X352642Y146744D02*
Y157358D01*
Y92142D02*
Y102256D01*
X218969Y113000D02*
X224500D01*
X218969Y123000D02*
X224000D01*
X218969Y133000D02*
X224000D01*
X66500Y155988D02*
X79000D01*
X61256D02*
X66500D01*
X53000Y164244D02*
X61256Y155988D01*
X221244Y241500D02*
Y248744D01*
X270756Y31000D02*
X271256Y31500D01*
X179500Y36011D02*
Y36786D01*
X167500Y41511D02*
X174774D01*
X179500Y36786D01*
X135500Y56012D02*
X135500Y56011D01*
X317000Y221500D02*
Y224063D01*
X183468Y46000D02*
X187000Y42469D01*
Y37500D02*
Y42469D01*
X226756Y239756D02*
Y241500D01*
X95000Y148756D02*
X101244D01*
X105000Y145000D01*
Y137500D02*
Y145000D01*
X82500Y134756D02*
Y139242D01*
X77274Y144468D02*
X82500Y139242D01*
X76500Y144468D02*
X77274D01*
X80787Y148756D02*
X95000D01*
X79000Y155988D02*
X82488D01*
X85000Y158500D01*
Y190000D01*
X43087Y109000D02*
X53000Y118913D01*
Y164244D01*
X13744Y78756D02*
Y90500D01*
Y78756D02*
X23500Y69000D01*
X47756Y159000D02*
X53000Y164244D01*
X37000Y159000D02*
X47756D01*
X123468Y56012D02*
Y58531D01*
X112752Y69248D02*
X123468Y58531D01*
X85343Y60000D02*
X91843Y53500D01*
X32500Y60000D02*
X85343D01*
X23500Y69000D02*
X32500Y60000D01*
X115000Y208500D02*
X121744D01*
D35*
X211898Y62642D02*
X223850D01*
X212142Y80358D02*
X223850D01*
X351500Y181500D02*
X352000D01*
X222000Y5000D02*
Y5500D01*
X151500Y46011D02*
X179532D01*
X327300Y203700D02*
X333800D01*
X310500Y220500D02*
X327300Y203700D01*
X310500Y220500D02*
Y223708D01*
X333800Y203700D02*
X343193Y194307D01*
X317208Y228000D02*
X347917Y197291D01*
X317000Y228000D02*
X317208D01*
X347917Y146744D02*
Y197291D01*
X167772Y190602D02*
X175898D01*
X186000Y180500D01*
Y156500D02*
Y180500D01*
Y114500D02*
Y146500D01*
X167500Y126500D02*
X167772Y126228D01*
X167500Y126500D02*
Y147000D01*
Y157000D02*
X167772Y157272D01*
Y180366D01*
X218623Y129200D02*
X300122D01*
X27630Y29000D02*
X27772Y29142D01*
X16000Y29000D02*
X27630D01*
X16244Y47000D02*
X16386Y46858D01*
X27772D01*
X112256Y167244D02*
X115000D01*
X107000Y172500D02*
X112256Y167244D01*
X107000Y172500D02*
Y181500D01*
X142114Y167244D02*
X145870Y171000D01*
X115000Y167244D02*
X142114D01*
X134661Y193161D02*
X139228D01*
X127000Y185500D02*
X134661Y193161D01*
X123512Y185500D02*
X127000D01*
X143488Y28000D02*
X151500Y36011D01*
X116130Y28000D02*
X143488D01*
X59071Y39429D02*
Y46667D01*
X77737Y28000D02*
X105500D01*
X59071Y46667D02*
X77737Y28000D01*
X59071Y46667D02*
Y46858D01*
X84000Y14500D02*
X325500D01*
X59071Y39429D02*
X84000Y14500D01*
X325500D02*
X347917Y36917D01*
X215032Y112792D02*
Y113000D01*
Y112792D02*
X218623Y109200D01*
X273700D01*
X284276Y119776D01*
X300122D01*
X284000Y124500D02*
X300122D01*
X278000Y118500D02*
X284000Y124500D01*
X219000Y118500D02*
X278000D01*
X215032Y122468D02*
X219000Y118500D01*
X215032Y122468D02*
Y123000D01*
Y132792D02*
Y133000D01*
Y132792D02*
X218623Y129200D01*
X300122D02*
Y129224D01*
X289551Y133949D02*
X300122D01*
X285000Y138500D02*
X289551Y133949D01*
X218000Y138500D02*
X285000D01*
X215032Y141469D02*
X218000Y138500D01*
X215032Y141469D02*
Y143000D01*
X285051Y115051D02*
X300122D01*
X273500Y103500D02*
X285051Y115051D01*
X197000Y103500D02*
X273500D01*
X95000Y134256D02*
X95000Y134256D01*
X95000Y134256D02*
Y143244D01*
X288327Y110327D02*
X300122D01*
X276000Y98000D02*
X288327Y110327D01*
X196000Y98000D02*
X276000D01*
X290795Y148000D02*
X300122Y138673D01*
X219823Y148000D02*
X290795D01*
X215032Y152792D02*
X219823Y148000D01*
X218823Y159000D02*
X301500D01*
X305398Y155102D01*
X215032Y152792D02*
Y153000D01*
Y162792D02*
X218823Y159000D01*
X215032Y162792D02*
Y163000D01*
X305398Y146744D02*
Y155102D01*
X301000Y169000D02*
X310122Y159878D01*
Y146744D02*
Y159878D01*
X218823Y169000D02*
X301000D01*
X215032Y172792D02*
X218823Y169000D01*
X215032Y172792D02*
Y173000D01*
X309000Y174000D02*
X314846Y168154D01*
X261500Y174000D02*
X309000D01*
X258500Y177000D02*
X261500Y174000D01*
X220500Y177000D02*
X258500D01*
X215032Y182468D02*
X220500Y177000D01*
X314846Y146744D02*
Y168154D01*
X215032Y182468D02*
Y183000D01*
Y192792D02*
Y193000D01*
Y192792D02*
X218823Y189000D01*
X260500D01*
X270500Y179000D01*
X311500D01*
X319571Y170929D01*
Y146744D02*
Y170929D01*
X324295Y146744D02*
Y175205D01*
X315500Y184000D02*
X324295Y175205D01*
X275500Y184000D02*
X315500D01*
X260500Y199000D02*
X275500Y184000D01*
X218500Y199000D02*
X260500D01*
X215032Y202468D02*
X218500Y199000D01*
X215032Y202468D02*
Y203000D01*
X282000Y194500D02*
X320000D01*
X277000Y199500D02*
X282000Y194500D01*
X277000Y199500D02*
Y207177D01*
X272208Y211968D02*
X277000Y207177D01*
X272000Y211968D02*
X272208D01*
X329000Y146764D02*
Y178500D01*
X319000Y188500D02*
X329000Y178500D01*
X276677Y188500D02*
X319000D01*
X253708Y211469D02*
X276677Y188500D01*
X253500Y211469D02*
X253708D01*
X333744Y146744D02*
Y180756D01*
X320000Y194500D02*
X333744Y180756D01*
X338469Y146744D02*
Y185531D01*
X324500Y199500D02*
X338469Y185531D01*
X294645Y199500D02*
X324500D01*
X282208Y211937D02*
X294645Y199500D01*
X282000Y211937D02*
X282208D01*
X317000Y228000D02*
Y251799D01*
X312000Y256799D02*
X317000Y251799D01*
X265744Y45256D02*
Y61244D01*
X223850Y80358D02*
X255150D01*
X329020Y102256D02*
X329500Y101776D01*
X151500Y51012D02*
X151512Y51000D01*
X164032D01*
X275500Y54756D02*
X275500Y54756D01*
X275500Y54756D02*
Y62488D01*
X284000Y54500D02*
X284000Y54500D01*
X284000Y54500D02*
Y62488D01*
X333744Y46244D02*
Y102256D01*
X319000Y31500D02*
X333744Y46244D01*
X279500Y31500D02*
X319000D01*
X265744Y45256D02*
X279500Y31500D01*
X338469Y44969D02*
Y102256D01*
X321000Y27500D02*
X338469Y44969D01*
X268744Y27500D02*
X321000D01*
X265244Y31000D02*
X268744Y27500D01*
X223850Y62642D02*
X255150D01*
X347917Y36917D02*
Y102256D01*
X223350Y31142D02*
X254650D01*
X223350Y48858D02*
X254650D01*
X203000Y143000D02*
X215032D01*
X215032Y143000D01*
X319000Y147315D02*
X319571Y146744D01*
X323500Y147539D02*
X324295Y146744D01*
X27772Y29142D02*
X59071D01*
X53000Y169756D02*
X64700Y181456D01*
Y183636D01*
X66516Y185451D01*
Y188291D01*
X28102Y95760D02*
Y109335D01*
X82500Y129244D02*
X83000Y128744D01*
X82000Y116500D02*
X82079Y116421D01*
X203000Y203000D02*
X215032D01*
X215032Y203000D01*
X203000Y193000D02*
X215032D01*
X215032Y193000D01*
X203000Y183000D02*
X215032D01*
X215032Y183000D01*
X203000Y173000D02*
X215032D01*
X215032Y173000D01*
X203000Y163000D02*
X215032D01*
X215032Y163000D01*
X203000Y153000D02*
X215032D01*
X215032Y153000D01*
X203000Y133000D02*
X215032D01*
X203000Y133000D02*
X203000Y133000D01*
Y123000D02*
X215032D01*
X203000Y123000D02*
X203000Y123000D01*
Y113000D02*
X215032D01*
X203000Y113000D02*
X203000Y113000D01*
X79000Y161500D02*
Y173744D01*
X79000Y161500D02*
X79000Y161500D01*
X66500Y161500D02*
Y169244D01*
X66500Y169244D01*
X211898Y48858D02*
X223350D01*
X211756Y49000D02*
X211898Y48858D01*
X211898Y31142D02*
X223350D01*
X211756Y31000D02*
X211898Y31142D01*
X211858Y80642D02*
X212142Y80358D01*
X211756Y62500D02*
X211898Y62642D01*
X254791Y31000D02*
X265244D01*
X254650Y31142D02*
X254791Y31000D01*
X151500Y56011D02*
X175531D01*
X151500Y56011D02*
X151500Y56011D01*
X24843Y99000D02*
Y108075D01*
X26103Y109335D01*
X306500Y227500D02*
Y252299D01*
X302000Y256799D02*
X306500Y252299D01*
Y227500D02*
X306708D01*
X310500Y223708D01*
X343193Y146744D02*
Y194307D01*
X151500Y36011D02*
X175563D01*
X27772Y46858D02*
X59071D01*
X83000Y128744D02*
X95000D01*
X78256Y129244D02*
X82500D01*
X95000Y119500D02*
Y128744D01*
X76500Y131000D02*
X78256Y129244D01*
X76500Y131000D02*
Y140532D01*
X92000Y116500D02*
X95000Y119500D01*
X82000Y84996D02*
Y116500D01*
X91843Y84996D02*
Y116342D01*
X92000Y116500D01*
X120476Y195721D02*
X139228D01*
X120256Y195500D02*
X120476Y195721D01*
X114744Y194756D02*
Y195500D01*
X107000Y187012D02*
X114744Y194756D01*
X118000Y175756D02*
Y185500D01*
X115000Y172756D02*
X118000Y175756D01*
D36*
X207500Y88500D02*
X309693D01*
X173500Y95000D02*
X301500D01*
X143500Y65000D02*
X173500Y95000D01*
X143500Y53500D02*
Y65000D01*
Y53500D02*
X145988Y51012D01*
X151500D01*
X66500Y182890D02*
X68484Y184874D01*
X66500Y174756D02*
Y182890D01*
X68484Y184874D02*
Y188291D01*
Y199709D02*
Y215016D01*
X66000Y229500D02*
X87500D01*
X66259Y188035D02*
X66516Y188291D01*
X73209Y185291D02*
X79000Y179500D01*
X73209Y185291D02*
Y191047D01*
X56500Y220000D02*
X66000Y229500D01*
X61791Y196953D02*
Y197953D01*
X44000Y215744D02*
X61791Y197953D01*
X51500Y212756D02*
X64547Y199709D01*
X51500Y212756D02*
Y215744D01*
X56500Y213500D02*
Y220000D01*
Y213500D02*
X66516Y203484D01*
Y199709D02*
Y203484D01*
X68000Y215500D02*
X68484Y215016D01*
X139228Y213634D02*
Y213772D01*
X87500Y229500D02*
X101342Y243342D01*
Y256000D01*
D37*
X410099Y40031D02*
Y36032D01*
X406100Y40031D01*
X405101D01*
X404101Y39031D01*
Y37032D01*
X405101Y36032D01*
X404101Y46029D02*
Y42030D01*
X407100D01*
X406100Y44030D01*
Y45029D01*
X407100Y46029D01*
X409099D01*
X410099Y45029D01*
Y43030D01*
X409099Y42030D01*
X410099Y48028D02*
X409099D01*
Y49028D01*
X410099D01*
Y48028D01*
X409099Y53027D02*
X410099Y54027D01*
Y56026D01*
X409099Y57025D01*
X405101D01*
X404101Y56026D01*
Y54027D01*
X405101Y53027D01*
X406100D01*
X407100Y54027D01*
Y57025D01*
X404101Y59025D02*
Y63024D01*
X405101D01*
X409099Y59025D01*
X410099D01*
X403101Y195154D02*
X402101Y196154D01*
Y198153D01*
X403101Y199153D01*
X404100D01*
X405100Y198153D01*
Y197153D01*
Y198153D01*
X406100Y199153D01*
X407099D01*
X408099Y198153D01*
Y196154D01*
X407099Y195154D01*
X408099Y201152D02*
Y203152D01*
Y202152D01*
X402101D01*
X403101Y201152D01*
X408099Y206151D02*
X407099D01*
Y207150D01*
X408099D01*
Y206151D01*
X403101Y211149D02*
X402101Y212149D01*
Y214148D01*
X403101Y215148D01*
X404100D01*
X405100Y214148D01*
Y213148D01*
Y214148D01*
X406100Y215148D01*
X407099D01*
X408099Y214148D01*
Y212149D01*
X407099Y211149D01*
X402101Y217147D02*
Y221146D01*
X403101D01*
X407099Y217147D01*
X408099D01*
X165903Y299899D02*
X166903Y300899D01*
X168902D01*
X169902Y299899D01*
Y298900D01*
X168902Y297900D01*
X167903D01*
X168902D01*
X169902Y296900D01*
Y295901D01*
X168902Y294901D01*
X166903D01*
X165903Y295901D01*
X171901Y294901D02*
Y295901D01*
X172901D01*
Y294901D01*
X171901D01*
X180898Y300899D02*
X176900D01*
Y297900D01*
X178899Y298900D01*
X179899D01*
X180898Y297900D01*
Y295901D01*
X179899Y294901D01*
X177900D01*
X176900Y295901D01*
X186897Y300899D02*
X184897Y299899D01*
X182898Y297900D01*
Y295901D01*
X183897Y294901D01*
X185897D01*
X186897Y295901D01*
Y296900D01*
X185897Y297900D01*
X182898D01*
X-66401Y128652D02*
Y124653D01*
X-70400Y128652D01*
X-71399D01*
X-72399Y127652D01*
Y125653D01*
X-71399Y124653D01*
X-66401Y130651D02*
X-67401D01*
Y131651D01*
X-66401D01*
Y130651D01*
X-72399Y135650D02*
Y139648D01*
X-71399D01*
X-67401Y135650D01*
X-66401D01*
Y141648D02*
Y143647D01*
Y142647D01*
X-72399D01*
X-71399Y141648D01*
D38*
X167500Y147000D02*
D03*
X186000Y156500D02*
D03*
X203000Y113000D02*
D03*
X7000Y237000D02*
D03*
D39*
X167500Y157000D02*
D03*
X186000Y146500D02*
D03*
X282000Y221500D02*
D03*
X203000Y133000D02*
D03*
Y203000D02*
D03*
Y193000D02*
D03*
Y183000D02*
D03*
Y173000D02*
D03*
Y163000D02*
D03*
Y153000D02*
D03*
Y143000D02*
D03*
Y123000D02*
D03*
X82000Y116500D02*
D03*
X7000Y227000D02*
D03*
D40*
X272000Y221500D02*
D03*
X92000Y116500D02*
D03*
D41*
X107248Y266236D02*
D03*
X95437D02*
D03*
D42*
X82000Y84996D02*
D03*
Y69248D02*
D03*
Y53500D02*
D03*
X91843Y84996D02*
D03*
Y69248D02*
D03*
D43*
Y53500D02*
D03*
D44*
X98535Y98776D02*
D03*
X74126Y39720D02*
D03*
D45*
X352000Y44000D02*
D03*
Y67500D02*
D03*
X347000Y206500D02*
D03*
X352000Y181500D02*
D03*
X230500Y265000D02*
D03*
X207000D02*
D03*
X183000D02*
D03*
X159000D02*
D03*
X135000D02*
D03*
X5000Y148500D02*
D03*
Y124000D02*
D03*
Y99500D02*
D03*
Y75000D02*
D03*
Y51000D02*
D03*
Y27500D02*
D03*
X8500Y5000D02*
D03*
X32500D02*
D03*
X56000D02*
D03*
X79500D02*
D03*
X103000D02*
D03*
X126500D02*
D03*
X150500D02*
D03*
X174500D02*
D03*
X198000D02*
D03*
X222000Y5500D02*
D03*
X246000Y5000D02*
D03*
X270000Y5500D02*
D03*
X307000Y210000D02*
D03*
X327000D02*
D03*
X293500Y154500D02*
D03*
X245500Y207500D02*
D03*
X272000Y200000D02*
D03*
X285500Y200000D02*
D03*
X199000Y31000D02*
D03*
X206244Y56000D02*
D03*
X206347Y75153D02*
D03*
X173500Y51000D02*
D03*
X180000Y65000D02*
D03*
X114520Y51000D02*
D03*
X124012Y51012D02*
D03*
X124000Y46011D02*
D03*
X10488Y22665D02*
D03*
X60000Y183744D02*
D03*
X17603Y113016D02*
D03*
X70453Y181047D02*
D03*
X95512Y209012D02*
D03*
X83512Y213488D02*
D03*
X90244Y244744D02*
D03*
X56244Y226000D02*
D03*
X51756Y190744D02*
D03*
X64500Y222000D02*
D03*
X19000Y227000D02*
D03*
X41000Y246500D02*
D03*
X67500Y194000D02*
D03*
X37598Y98000D02*
D03*
X224000Y203000D02*
D03*
Y193000D02*
D03*
Y183000D02*
D03*
Y173000D02*
D03*
Y163000D02*
D03*
Y153000D02*
D03*
Y143000D02*
D03*
X352642Y157358D02*
D03*
X290000Y99500D02*
D03*
X352642Y92142D02*
D03*
X224500Y113000D02*
D03*
X224000Y123000D02*
D03*
Y133000D02*
D03*
X7500Y265000D02*
D03*
X221244Y248744D02*
D03*
X167500Y41511D02*
D03*
X187000Y37500D02*
D03*
X128500Y202500D02*
D03*
X105000Y137500D02*
D03*
X175779Y195721D02*
D03*
X5000Y172500D02*
D03*
X130500Y182500D02*
D03*
X115000Y208500D02*
D03*
M02*
