G04 Layer_Color=8388736*
%FSLAX25Y25*%
%MOIN*%
G70*
G01*
G75*
%ADD34C,0.01000*%
%ADD51R,0.05131X0.07493*%
%ADD52R,0.03950X0.04343*%
%ADD53R,0.08792X0.15761*%
%ADD54R,0.04343X0.03950*%
%ADD55R,0.11036X0.04737*%
%ADD56R,0.04028X0.01824*%
%ADD57R,0.01824X0.04028*%
%ADD58R,0.07414X0.07414*%
%ADD59R,0.06706X0.02375*%
%ADD60R,0.11784X0.03713*%
%ADD61R,0.06902X0.05918*%
%ADD62R,0.04186X0.01863*%
%ADD63R,0.01863X0.04186*%
%ADD64R,0.02768X0.03162*%
%ADD65O,0.03950X0.10249*%
%ADD66O,0.10249X0.03950*%
%ADD67R,0.03162X0.02768*%
%ADD68R,0.05800X0.13320*%
%ADD69R,0.04737X0.05524*%
%ADD70R,0.07965X0.05524*%
%ADD71R,0.02375X0.06312*%
%ADD72R,0.07887X0.08280*%
%ADD73R,0.09855X0.08280*%
%ADD74R,0.06706X0.06706*%
%ADD75C,0.06706*%
%ADD76R,0.06706X0.06706*%
%ADD77C,0.04147*%
%ADD78C,0.06343*%
%ADD79R,0.06343X0.06343*%
%ADD80C,0.09068*%
G36*
X176195Y237339D02*
X170799D01*
Y250256D01*
X176195D01*
Y237339D01*
D02*
G37*
G36*
X157193Y54354D02*
X145809D01*
Y57677D01*
X157193D01*
Y54354D01*
D02*
G37*
G36*
X141193D02*
X129783D01*
Y57690D01*
X141193D01*
Y54354D01*
D02*
G37*
G36*
X186155Y237339D02*
X180799D01*
Y250222D01*
X186155D01*
Y237339D01*
D02*
G37*
G36*
X216196D02*
X210799D01*
Y250211D01*
X216196D01*
Y237339D01*
D02*
G37*
G36*
X206183D02*
X200799D01*
Y250223D01*
X206183D01*
Y237339D01*
D02*
G37*
G36*
X196157D02*
X190799D01*
Y250208D01*
X196157D01*
Y237339D01*
D02*
G37*
G36*
X157193Y49354D02*
X145809D01*
Y52674D01*
X157193D01*
Y49354D01*
D02*
G37*
G36*
X141193Y39354D02*
X129793D01*
Y42666D01*
X141193D01*
Y39354D01*
D02*
G37*
G36*
X157193Y34354D02*
X145811D01*
Y37656D01*
X157193D01*
Y34354D01*
D02*
G37*
G36*
X141193D02*
X129785D01*
Y37655D01*
X141193D01*
Y34354D01*
D02*
G37*
G36*
X157193Y39354D02*
X145810D01*
Y42665D01*
X157193D01*
Y39354D01*
D02*
G37*
G36*
X141193Y49354D02*
X129799D01*
Y52673D01*
X141193D01*
Y49354D01*
D02*
G37*
G36*
X157193Y44354D02*
X145811D01*
Y47672D01*
X157193D01*
Y44354D01*
D02*
G37*
G36*
X141193D02*
X129781D01*
Y47672D01*
X141193D01*
Y44354D01*
D02*
G37*
G36*
X226209Y252339D02*
X220799D01*
Y265248D01*
X226209D01*
Y252339D01*
D02*
G37*
G36*
X216196D02*
X210799D01*
Y265239D01*
X216196D01*
Y252339D01*
D02*
G37*
G36*
X206199D02*
X200799D01*
Y265258D01*
X206199D01*
Y252339D01*
D02*
G37*
G36*
X236236D02*
X230799D01*
Y265237D01*
X236236D01*
Y252339D01*
D02*
G37*
G36*
X266251D02*
X260799D01*
Y265248D01*
X266251D01*
Y252339D01*
D02*
G37*
G36*
X256211D02*
X250799D01*
Y265257D01*
X256211D01*
Y252339D01*
D02*
G37*
G36*
X246251D02*
X240799D01*
Y265239D01*
X246251D01*
Y252339D01*
D02*
G37*
G36*
X196164D02*
X190799D01*
Y265241D01*
X196164D01*
Y252339D01*
D02*
G37*
G36*
X246223Y237339D02*
X240799D01*
Y250239D01*
X246223D01*
Y237339D01*
D02*
G37*
G36*
X236236D02*
X230799D01*
Y250207D01*
X236236D01*
Y237339D01*
D02*
G37*
G36*
X226212D02*
X220799D01*
Y250221D01*
X226212D01*
Y237339D01*
D02*
G37*
G36*
X256209D02*
X250799D01*
Y250254D01*
X256209D01*
Y237339D01*
D02*
G37*
G36*
X186153Y252339D02*
X180799D01*
Y265243D01*
X186153D01*
Y252339D01*
D02*
G37*
G36*
X176131D02*
X170799D01*
Y265241D01*
X176131D01*
Y252339D01*
D02*
G37*
G36*
X266272Y237339D02*
X260799D01*
Y250221D01*
X266272D01*
Y237339D01*
D02*
G37*
D34*
X356000Y184625D02*
Y271500D01*
Y0D02*
Y75875D01*
X0Y0D02*
Y271500D01*
X356000D01*
Y75875D02*
Y184625D01*
X0Y0D02*
X356000D01*
D51*
X157500Y225000D02*
D03*
X146870D02*
D03*
X116130Y28000D02*
D03*
X105500D02*
D03*
X156500Y171000D02*
D03*
X145870D02*
D03*
D52*
X158256Y243000D02*
D03*
X152744D02*
D03*
X278256Y78000D02*
D03*
X272744D02*
D03*
X278256Y84500D02*
D03*
X272744D02*
D03*
X16831Y145500D02*
D03*
X22343D02*
D03*
X16831Y135500D02*
D03*
X22343D02*
D03*
X79488Y190000D02*
D03*
X85000D02*
D03*
X62488Y215500D02*
D03*
X68000D02*
D03*
X19256Y90500D02*
D03*
X13744D02*
D03*
X48744Y182000D02*
D03*
X54256D02*
D03*
X95512Y200500D02*
D03*
X90000D02*
D03*
X19331Y99000D02*
D03*
X24843D02*
D03*
X95512Y194500D02*
D03*
X90000D02*
D03*
X83512Y204500D02*
D03*
X78000D02*
D03*
X206347Y80642D02*
D03*
X211858D02*
D03*
X206244Y62500D02*
D03*
X211756D02*
D03*
X276512Y51000D02*
D03*
X271000D02*
D03*
X10488Y29000D02*
D03*
X16000D02*
D03*
X16244Y47000D02*
D03*
X10732D02*
D03*
X292756Y78000D02*
D03*
X287244D02*
D03*
X292256Y84500D02*
D03*
X286744D02*
D03*
X206244Y31000D02*
D03*
X211756D02*
D03*
X206244Y49000D02*
D03*
X211756D02*
D03*
X127256Y208500D02*
D03*
X121744D02*
D03*
X120256Y195500D02*
D03*
X114744D02*
D03*
X123512Y185500D02*
D03*
X118000D02*
D03*
D53*
X19000Y258500D02*
D03*
X31500Y220500D02*
D03*
X37000Y159000D02*
D03*
X18000Y170000D02*
D03*
X23500Y69000D02*
D03*
D54*
X66500Y161500D02*
D03*
Y155988D02*
D03*
X44000Y196256D02*
D03*
Y190744D02*
D03*
X95000Y148756D02*
D03*
Y143244D02*
D03*
X79000Y161500D02*
D03*
Y155988D02*
D03*
X79000Y179256D02*
D03*
Y173744D02*
D03*
X34087Y130744D02*
D03*
Y136256D02*
D03*
X66500Y174756D02*
D03*
Y169244D02*
D03*
X53000Y169756D02*
D03*
Y164244D02*
D03*
X107000Y187012D02*
D03*
Y181500D02*
D03*
X51500Y221256D02*
D03*
Y215744D02*
D03*
X44000Y221256D02*
D03*
Y215744D02*
D03*
X115000Y172756D02*
D03*
Y167244D02*
D03*
X85000Y244744D02*
D03*
Y250256D02*
D03*
X119500Y256000D02*
D03*
Y261512D02*
D03*
X43087Y103488D02*
D03*
Y109000D02*
D03*
X82500Y134756D02*
D03*
Y129244D02*
D03*
X95000Y134256D02*
D03*
Y128744D02*
D03*
X265500Y62744D02*
D03*
Y68256D02*
D03*
D55*
X31874Y197437D02*
D03*
Y189563D02*
D03*
D56*
X61791Y196953D02*
D03*
Y194984D02*
D03*
Y193016D02*
D03*
Y191047D02*
D03*
X73209D02*
D03*
Y193016D02*
D03*
Y194984D02*
D03*
Y196953D02*
D03*
D57*
X64547Y188291D02*
D03*
X66516D02*
D03*
X68484D02*
D03*
X70453D02*
D03*
Y199709D02*
D03*
X68484D02*
D03*
X66516D02*
D03*
X64547D02*
D03*
D58*
X67500Y194000D02*
D03*
D59*
X167772Y180366D02*
D03*
Y182925D02*
D03*
Y185484D02*
D03*
Y188043D02*
D03*
Y190602D02*
D03*
Y193161D02*
D03*
Y195721D02*
D03*
Y198280D02*
D03*
Y200839D02*
D03*
Y203398D02*
D03*
Y205957D02*
D03*
Y208516D02*
D03*
Y211075D02*
D03*
Y213634D02*
D03*
X139228D02*
D03*
Y211075D02*
D03*
Y208516D02*
D03*
Y205957D02*
D03*
Y203398D02*
D03*
Y200839D02*
D03*
Y198280D02*
D03*
Y195721D02*
D03*
Y193161D02*
D03*
Y190602D02*
D03*
Y188043D02*
D03*
Y185484D02*
D03*
Y182925D02*
D03*
Y180366D02*
D03*
D60*
X151500Y36011D02*
D03*
X135500D02*
D03*
X151500Y41012D02*
D03*
X135500D02*
D03*
X151500Y46011D02*
D03*
X135500D02*
D03*
X151500Y51012D02*
D03*
X135500D02*
D03*
X151500Y56011D02*
D03*
X135500D02*
D03*
D61*
X254650Y31142D02*
D03*
X223350D02*
D03*
X254650Y48858D02*
D03*
X223350D02*
D03*
X255150Y62642D02*
D03*
X223850D02*
D03*
X255150Y80358D02*
D03*
X223850D02*
D03*
X27772Y46858D02*
D03*
X59071D02*
D03*
X27772Y29142D02*
D03*
X59071D02*
D03*
D62*
X24421Y114984D02*
D03*
Y113016D02*
D03*
X33752D02*
D03*
Y114984D02*
D03*
D63*
X32039Y118665D02*
D03*
X30071D02*
D03*
X28102D02*
D03*
X26134D02*
D03*
Y109335D02*
D03*
X28102D02*
D03*
X30071D02*
D03*
X32039D02*
D03*
D64*
X229500Y225969D02*
D03*
Y222031D02*
D03*
X187500Y209000D02*
D03*
Y205063D02*
D03*
X262500Y227000D02*
D03*
Y223063D02*
D03*
X76500Y140532D02*
D03*
Y144468D02*
D03*
X204000Y218969D02*
D03*
Y215032D02*
D03*
D65*
X352642Y146744D02*
D03*
X347917D02*
D03*
X343193D02*
D03*
X338469D02*
D03*
X333744D02*
D03*
X329020D02*
D03*
X324295D02*
D03*
X319571D02*
D03*
X314846D02*
D03*
X310122D02*
D03*
X305398D02*
D03*
X300673D02*
D03*
Y102256D02*
D03*
X305398D02*
D03*
X310122D02*
D03*
X314846D02*
D03*
X319571D02*
D03*
X324295D02*
D03*
X329020D02*
D03*
X333744D02*
D03*
X338469D02*
D03*
X343193D02*
D03*
X347917D02*
D03*
X352642D02*
D03*
D66*
X300122Y138673D02*
D03*
Y133949D02*
D03*
Y129224D02*
D03*
Y124500D02*
D03*
Y119776D02*
D03*
Y115051D02*
D03*
Y110327D02*
D03*
D67*
X275063Y226000D02*
D03*
X279000D02*
D03*
X215032Y163000D02*
D03*
X218969D02*
D03*
X215032Y113000D02*
D03*
X218969D02*
D03*
X215032Y123000D02*
D03*
X218969D02*
D03*
X215032Y133000D02*
D03*
X218969D02*
D03*
X215032Y143000D02*
D03*
X218969D02*
D03*
X215032Y153000D02*
D03*
X218969D02*
D03*
X215032Y173000D02*
D03*
X218969D02*
D03*
X215032Y183000D02*
D03*
X218969D02*
D03*
X215032Y193000D02*
D03*
X218969D02*
D03*
X215032Y203000D02*
D03*
X218969D02*
D03*
X175531Y56011D02*
D03*
X179469D02*
D03*
X164032Y51000D02*
D03*
X167968D02*
D03*
X179532Y46000D02*
D03*
X183468D02*
D03*
X175563Y36011D02*
D03*
X179500D02*
D03*
X123468Y56012D02*
D03*
X119532D02*
D03*
D68*
X173500Y243799D02*
D03*
Y258799D02*
D03*
X183500Y243799D02*
D03*
Y258799D02*
D03*
X193500Y243799D02*
D03*
Y258799D02*
D03*
X203500Y243799D02*
D03*
Y258799D02*
D03*
X213500Y243799D02*
D03*
Y258799D02*
D03*
X223500Y243799D02*
D03*
Y258799D02*
D03*
X233500Y243799D02*
D03*
Y258799D02*
D03*
X243500Y243799D02*
D03*
Y258799D02*
D03*
X253500Y243799D02*
D03*
Y258799D02*
D03*
X263500Y243799D02*
D03*
Y258799D02*
D03*
D69*
X111185Y256000D02*
D03*
X101342D02*
D03*
X91500D02*
D03*
D70*
X73000Y236925D02*
D03*
Y225075D02*
D03*
D71*
X60590Y250780D02*
D03*
X58031D02*
D03*
X55472D02*
D03*
X52913D02*
D03*
X50354D02*
D03*
D72*
X60000Y262000D02*
D03*
X50945D02*
D03*
D73*
X70236D02*
D03*
X40709D02*
D03*
D74*
X164000Y142000D02*
D03*
X179000Y152000D02*
D03*
X7000Y237000D02*
D03*
X128500Y132500D02*
D03*
X203000Y113000D02*
D03*
D75*
X164000Y152000D02*
D03*
X179000Y142000D02*
D03*
X214000Y228000D02*
D03*
X82000Y116500D02*
D03*
X7000Y227000D02*
D03*
X128500Y122500D02*
D03*
Y112500D02*
D03*
Y102500D02*
D03*
X203000Y133000D02*
D03*
Y203000D02*
D03*
Y193000D02*
D03*
Y183000D02*
D03*
Y173000D02*
D03*
Y163000D02*
D03*
Y153000D02*
D03*
Y143000D02*
D03*
Y123000D02*
D03*
D76*
X204000Y228000D02*
D03*
X92000Y116500D02*
D03*
D77*
X107248Y266236D02*
D03*
X95437D02*
D03*
D78*
X82000Y84996D02*
D03*
Y69248D02*
D03*
Y53500D02*
D03*
X91843Y84996D02*
D03*
Y69248D02*
D03*
D79*
Y53500D02*
D03*
D80*
X98535Y98776D02*
D03*
X74126Y39720D02*
D03*
M02*
