G04 Layer_Color=65535*
%FSLAX25Y25*%
%MOIN*%
G70*
G01*
G75*
%ADD33C,0.01000*%
%ADD36C,0.00800*%
%ADD37C,0.00600*%
%ADD46C,0.00500*%
%ADD47C,0.00787*%
%ADD48C,0.00000*%
%ADD49C,0.01102*%
D33*
X358500Y215000D02*
X391000D01*
X358766Y146744D02*
X391000D01*
X390000Y193868D02*
Y215000D01*
Y146744D02*
Y164676D01*
X388000Y209000D02*
X390000Y215000D01*
X392000Y209000D01*
X390000Y146744D02*
X392000Y152744D01*
X388000D02*
X390000Y146744D01*
X359500Y35000D02*
X382500D01*
X358766Y102256D02*
X382500D01*
X381500Y35000D02*
Y52432D01*
Y81624D02*
Y102256D01*
Y35000D02*
X383500Y41000D01*
X379500D02*
X381500Y35000D01*
X379500Y96256D02*
X381500Y102256D01*
X383500Y96256D01*
X356000Y184625D02*
Y271500D01*
Y0D02*
Y75875D01*
X0Y0D02*
Y271500D01*
X356000D01*
Y75875D02*
Y184625D01*
X0Y0D02*
X356000D01*
D36*
X163736Y176921D02*
Y217079D01*
X143264D02*
X163736D01*
X143264Y176921D02*
Y217079D01*
Y176921D02*
X163736D01*
D37*
X-606Y181689D02*
Y205311D01*
X30299D01*
X-606Y181689D02*
X30299D01*
X393599Y166276D02*
Y168276D01*
Y167276D01*
X387601D01*
X388601Y166276D01*
X387601Y171275D02*
Y175273D01*
X388601D01*
X392599Y171275D01*
X393599D01*
Y177273D02*
X392599D01*
Y178272D01*
X393599D01*
Y177273D01*
X388601Y182271D02*
X387601Y183271D01*
Y185270D01*
X388601Y186270D01*
X389600D01*
X390600Y185270D01*
Y184270D01*
Y185270D01*
X391600Y186270D01*
X392599D01*
X393599Y185270D01*
Y183271D01*
X392599Y182271D01*
X393599Y191268D02*
X387601D01*
X390600Y188269D01*
Y192268D01*
X385099Y54032D02*
Y56032D01*
Y55032D01*
X379101D01*
X380101Y54032D01*
X379101Y59030D02*
Y63029D01*
X380101D01*
X384099Y59030D01*
X385099D01*
Y65029D02*
X384099D01*
Y66028D01*
X385099D01*
Y65029D01*
X380101Y70027D02*
X379101Y71027D01*
Y73026D01*
X380101Y74026D01*
X384099D01*
X385099Y73026D01*
Y71027D01*
X384099Y70027D01*
X380101D01*
Y76025D02*
X379101Y77025D01*
Y79024D01*
X380101Y80024D01*
X381100D01*
X382100Y79024D01*
X383100Y80024D01*
X384099D01*
X385099Y79024D01*
Y77025D01*
X384099Y76025D01*
X383100D01*
X382100Y77025D01*
X381100Y76025D01*
X380101D01*
X382100Y77025D02*
Y79024D01*
D46*
X34500Y201000D02*
G03*
X34500Y201000I-500J0D01*
G01*
X61398Y198331D02*
Y200102D01*
X63169D01*
X71831D02*
X73602D01*
Y198331D02*
Y200102D01*
X61398Y187898D02*
Y189669D01*
Y187898D02*
X63169D01*
X71831D02*
X73602D01*
Y189669D01*
X226795Y52205D02*
X251205D01*
X226795Y27795D02*
X251205D01*
Y35197D02*
Y45118D01*
X226795Y35315D02*
Y45236D01*
X227295Y83705D02*
X251705D01*
X227295Y59295D02*
X251705D01*
Y66697D02*
Y76618D01*
X227295Y66815D02*
Y76736D01*
X24166Y109079D02*
Y110457D01*
X34008Y109079D02*
Y110457D01*
X24166Y117543D02*
Y118921D01*
X34008Y117543D02*
Y118921D01*
X24166Y109079D02*
X24756D01*
X33417D02*
X34008D01*
X24166Y118921D02*
X24756D01*
X33417D02*
X34008D01*
X356028Y99106D02*
Y149894D01*
X296972Y141626D02*
Y149894D01*
Y99106D02*
Y107374D01*
Y99106D02*
X297760D01*
X296972Y149894D02*
X297760D01*
X355634D02*
X356028D01*
X355634Y99106D02*
X356028D01*
X77291Y224583D02*
Y237417D01*
X68709Y224583D02*
Y237417D01*
X31216Y25795D02*
X55626D01*
X31216Y50205D02*
X55626D01*
X31216Y32882D02*
Y42803D01*
X55626Y32764D02*
Y42685D01*
X73732Y45248D02*
Y100744D01*
X91921D01*
X81921Y37752D02*
X100110D01*
Y93248D01*
X141500Y233500D02*
Y235499D01*
X142500D01*
X142833Y235166D01*
Y234500D01*
X142500Y234166D01*
X141500D01*
X142166D02*
X142833Y233500D01*
X144832D02*
X143499D01*
X144832Y234833D01*
Y235166D01*
X144499Y235499D01*
X143833D01*
X143499Y235166D01*
X146832Y235499D02*
X145499D01*
Y234500D01*
X146165Y234833D01*
X146498D01*
X146832Y234500D01*
Y233833D01*
X146498Y233500D01*
X145832D01*
X145499Y233833D01*
X221333Y234166D02*
X221000Y234499D01*
X220333D01*
X220000Y234166D01*
Y232833D01*
X220333Y232500D01*
X221000D01*
X221333Y232833D01*
X221999Y232500D02*
X222666D01*
X222333D01*
Y234499D01*
X221999Y234166D01*
X223665D02*
X223999Y234499D01*
X224665D01*
X224998Y234166D01*
Y233833D01*
X224665Y233500D01*
X224332D01*
X224665D01*
X224998Y233166D01*
Y232833D01*
X224665Y232500D01*
X223999D01*
X223665Y232833D01*
X10666Y263167D02*
X10999Y263500D01*
Y264167D01*
X10666Y264500D01*
X9333D01*
X9000Y264167D01*
Y263500D01*
X9333Y263167D01*
X10000D01*
Y263834D01*
X9000Y262501D02*
X10999D01*
X9000Y261168D01*
X10999D01*
Y260501D02*
X9000D01*
Y259502D01*
X9333Y259168D01*
X10666D01*
X10999Y259502D01*
Y260501D01*
X8667Y258502D02*
Y257169D01*
X10999Y256503D02*
Y255170D01*
Y255836D01*
X9000D01*
Y254503D02*
X10999D01*
Y253504D01*
X10666Y253170D01*
X10000D01*
X9667Y253504D01*
Y254503D01*
X58000Y151499D02*
Y149500D01*
X59333D01*
X61332Y151499D02*
X59999D01*
Y149500D01*
X61332D01*
X59999Y150500D02*
X60666D01*
X61999Y151499D02*
Y149500D01*
X62998D01*
X63332Y149833D01*
Y151166D01*
X62998Y151499D01*
X61999D01*
X63998Y149167D02*
X65331D01*
X65997Y149500D02*
Y151499D01*
X66997D01*
X67330Y151166D01*
Y150500D01*
X66997Y150166D01*
X65997D01*
X69330Y151166D02*
X68996Y151499D01*
X68330D01*
X67997Y151166D01*
Y149833D01*
X68330Y149500D01*
X68996D01*
X69330Y149833D01*
Y150500D01*
X68663D01*
X5500Y208999D02*
Y207666D01*
X6166Y207000D01*
X6833Y207666D01*
Y208999D01*
X7499D02*
Y207000D01*
X8499D01*
X8832Y207333D01*
Y207666D01*
X8499Y208000D01*
X7499D01*
X8499D01*
X8832Y208333D01*
Y208666D01*
X8499Y208999D01*
X7499D01*
X9499Y207000D02*
Y208333D01*
X10165Y208999D01*
X10832Y208333D01*
Y207000D01*
Y208000D01*
X9499D01*
X11498Y208999D02*
X12831D01*
X12165D01*
Y207000D01*
X13497Y208999D02*
X14830D01*
X14164D01*
Y207000D01*
X45833Y202666D02*
X45500Y202999D01*
X44833D01*
X44500Y202666D01*
Y201333D01*
X44833Y201000D01*
X45500D01*
X45833Y201333D01*
X47832Y201000D02*
X46499D01*
X47832Y202333D01*
Y202666D01*
X47499Y202999D01*
X46833D01*
X46499Y202666D01*
X42500Y207999D02*
Y206000D01*
X43500D01*
X43833Y206333D01*
Y206666D01*
X43500Y207000D01*
X42500D01*
X43500D01*
X43833Y207333D01*
Y207666D01*
X43500Y207999D01*
X42500D01*
X45832Y206333D02*
Y207666D01*
X45499Y207999D01*
X44833D01*
X44499Y207666D01*
Y206333D01*
X44833Y206000D01*
X45499D01*
X45166Y206666D02*
X45832Y206000D01*
X45499D02*
X45832Y206333D01*
X47832Y206000D02*
X46499D01*
X47832Y207333D01*
Y207666D01*
X47498Y207999D01*
X46832D01*
X46499Y207666D01*
X49498Y206000D02*
Y207999D01*
X48498Y207000D01*
X49831D01*
X50497Y207666D02*
X50831Y207999D01*
X51497D01*
X51830Y207666D01*
Y206333D01*
X51497Y206000D01*
X50831D01*
X50497Y206333D01*
Y207666D01*
X52497Y207999D02*
X53830D01*
Y207666D01*
X52497Y206333D01*
Y206000D01*
X55829Y207999D02*
X54496D01*
Y207000D01*
X55163Y207333D01*
X55496D01*
X55829Y207000D01*
Y206333D01*
X55496Y206000D01*
X54829D01*
X54496Y206333D01*
X56495Y206000D02*
Y207999D01*
X57495D01*
X57828Y207666D01*
Y207000D01*
X57495Y206666D01*
X56495D01*
X57162D02*
X57828Y206000D01*
X59828Y207666D02*
X59495Y207999D01*
X58828D01*
X58495Y207666D01*
Y206333D01*
X58828Y206000D01*
X59495D01*
X59828Y206333D01*
Y207000D01*
X59161D01*
X60494Y207999D02*
X61827D01*
X61161D01*
Y206000D01*
X62493D02*
Y207999D01*
X63493D01*
X63826Y207666D01*
Y207000D01*
X63493Y206666D01*
X62493D01*
X63160D02*
X63826Y206000D01*
X129833Y175499D02*
X128500D01*
Y174500D01*
X129166D01*
X128500D01*
Y173500D01*
X130499Y175499D02*
X131832D01*
X131166D01*
Y173500D01*
X133832D02*
X132499D01*
X133832Y174833D01*
Y175166D01*
X133498Y175499D01*
X132832D01*
X132499Y175166D01*
X134498D02*
X134831Y175499D01*
X135498D01*
X135831Y175166D01*
Y174833D01*
X135498Y174500D01*
X135164D01*
X135498D01*
X135831Y174167D01*
Y173833D01*
X135498Y173500D01*
X134831D01*
X134498Y173833D01*
X137830Y173500D02*
X136497D01*
X137830Y174833D01*
Y175166D01*
X137497Y175499D01*
X136831D01*
X136497Y175166D01*
X138497Y173500D02*
Y175499D01*
X139496D01*
X139830Y175166D01*
Y174500D01*
X139496Y174167D01*
X138497D01*
X139163D02*
X139830Y173500D01*
X140496Y175499D02*
Y173500D01*
X141829D01*
X136500Y23000D02*
Y24999D01*
X137500D01*
X137833Y24666D01*
Y24000D01*
X137500Y23666D01*
X136500D01*
X138499Y23000D02*
Y24999D01*
X139499D01*
X139832Y24666D01*
Y24000D01*
X139499Y23666D01*
X138499D01*
X139166D02*
X139832Y23000D01*
X141498Y24999D02*
X140832D01*
X140499Y24666D01*
Y23333D01*
X140832Y23000D01*
X141498D01*
X141832Y23333D01*
Y24666D01*
X141498Y24999D01*
X143831Y24666D02*
X143498Y24999D01*
X142831D01*
X142498Y24666D01*
Y23333D01*
X142831Y23000D01*
X143498D01*
X143831Y23333D01*
Y24000D01*
X143165D01*
X144497Y22667D02*
X145830D01*
X146497Y24999D02*
Y23000D01*
Y24000D01*
X147830D01*
Y24999D01*
Y23000D01*
X148496Y24999D02*
Y23000D01*
X149496D01*
X149829Y23333D01*
Y24666D01*
X149496Y24999D01*
X148496D01*
X150496Y23000D02*
Y24999D01*
X151495D01*
X151828Y24666D01*
Y24000D01*
X151495Y23666D01*
X150496D01*
X151162D02*
X151828Y23000D01*
X150336Y29351D02*
X150432Y29160D01*
X150717Y28875D01*
X148718D01*
X150717Y27313D02*
X150622Y27599D01*
X150336Y27789D01*
X149860Y27885D01*
X149575D01*
X149099Y27789D01*
X148813Y27599D01*
X148718Y27313D01*
Y27123D01*
X148813Y26837D01*
X149099Y26647D01*
X149575Y26551D01*
X149860D01*
X150336Y26647D01*
X150622Y26837D01*
X150717Y27123D01*
Y27313D01*
X132643Y28108D02*
X132357Y28204D01*
X132167Y28394D01*
X132071Y28680D01*
Y28775D01*
X132167Y29061D01*
X132357Y29251D01*
X132643Y29346D01*
X132738D01*
X133024Y29251D01*
X133214Y29061D01*
X133309Y28775D01*
Y28680D01*
X133214Y28394D01*
X133024Y28204D01*
X132643Y28108D01*
X132167D01*
X131691Y28204D01*
X131405Y28394D01*
X131310Y28680D01*
Y28870D01*
X131405Y29156D01*
X131595Y29251D01*
X150244Y65738D02*
X150340D01*
X150530Y65642D01*
X150625Y65547D01*
X150721Y65357D01*
Y64976D01*
X150625Y64785D01*
X150530Y64690D01*
X150340Y64595D01*
X150149D01*
X149959Y64690D01*
X149673Y64881D01*
X148721Y65833D01*
Y64500D01*
X132914Y65854D02*
X133009Y65663D01*
X133295Y65378D01*
X131295D01*
X262000Y52500D02*
X263999D01*
Y51500D01*
X263666Y51167D01*
X263000D01*
X262666Y51500D01*
Y52500D01*
X263999Y50501D02*
X262000D01*
Y49501D01*
X262333Y49168D01*
X262666D01*
X263000Y49501D01*
Y50501D01*
Y49501D01*
X263333Y49168D01*
X263666D01*
X263999Y49501D01*
Y50501D01*
X262000Y48501D02*
Y47835D01*
Y48168D01*
X263999D01*
X263666Y48501D01*
X264000Y82000D02*
X265999D01*
Y81000D01*
X265666Y80667D01*
X265000D01*
X264666Y81000D01*
Y82000D01*
X265999Y80001D02*
X264000D01*
Y79001D01*
X264333Y78668D01*
X264666D01*
X265000Y79001D01*
Y80001D01*
Y79001D01*
X265333Y78668D01*
X265666D01*
X265999Y79001D01*
Y80001D01*
X265666Y78001D02*
X265999Y77668D01*
Y77002D01*
X265666Y76668D01*
X264333D01*
X264000Y77002D01*
Y77668D01*
X264333Y78001D01*
X265666D01*
X90500Y154499D02*
Y152500D01*
X91833D01*
X93832Y154499D02*
X92499D01*
Y152500D01*
X93832D01*
X92499Y153500D02*
X93166D01*
X94499Y154499D02*
Y152500D01*
X95498D01*
X95832Y152833D01*
Y154166D01*
X95498Y154499D01*
X94499D01*
X96498Y152167D02*
X97831D01*
X99830Y154499D02*
X98497D01*
Y152500D01*
X99830D01*
X98497Y153500D02*
X99164D01*
X100497Y154499D02*
X101830Y152500D01*
Y154499D02*
X100497Y152500D01*
X102496Y154499D02*
X103829D01*
X103163D01*
Y152500D01*
X90499Y170000D02*
X88500D01*
Y168667D01*
X90499Y166668D02*
Y168001D01*
X88500D01*
Y166668D01*
X89500Y168001D02*
Y167334D01*
X90499Y166001D02*
X88500D01*
Y165002D01*
X88833Y164668D01*
X90166D01*
X90499Y165002D01*
Y166001D01*
X88167Y164002D02*
Y162669D01*
X90166Y160670D02*
X90499Y161003D01*
Y161669D01*
X90166Y162003D01*
X88833D01*
X88500Y161669D01*
Y161003D01*
X88833Y160670D01*
X90499Y160003D02*
X88500D01*
X89500D01*
Y158670D01*
X90499D01*
X88500D01*
X90166Y156671D02*
X90499Y157004D01*
Y157671D01*
X90166Y158004D01*
X88833D01*
X88500Y157671D01*
Y157004D01*
X88833Y156671D01*
X89500D01*
Y157337D01*
X9499Y124000D02*
Y122667D01*
Y123334D01*
X7500D01*
Y122001D02*
X9499D01*
Y121001D01*
X9166Y120668D01*
X8500D01*
X8167Y121001D01*
Y122001D01*
X9166Y118668D02*
X9499Y119002D01*
Y119668D01*
X9166Y120001D01*
X8833D01*
X8500Y119668D01*
Y119002D01*
X8167Y118668D01*
X7833D01*
X7500Y119002D01*
Y119668D01*
X7833Y120001D01*
X9499Y116669D02*
X9166Y117335D01*
X8500Y118002D01*
X7833D01*
X7500Y117669D01*
Y117002D01*
X7833Y116669D01*
X8167D01*
X8500Y117002D01*
Y118002D01*
X9166Y116003D02*
X9499Y115669D01*
Y115003D01*
X9166Y114670D01*
X8833D01*
X8500Y115003D01*
Y115336D01*
Y115003D01*
X8167Y114670D01*
X7833D01*
X7500Y115003D01*
Y115669D01*
X7833Y116003D01*
X9166Y114003D02*
X9499Y113670D01*
Y113004D01*
X9166Y112670D01*
X7833D01*
X7500Y113004D01*
Y113670D01*
X7833Y114003D01*
X9166D01*
X9499Y110671D02*
Y112004D01*
X8500D01*
X8833Y111337D01*
Y111004D01*
X8500Y110671D01*
X7833D01*
X7500Y111004D01*
Y111671D01*
X7833Y112004D01*
X7500Y110004D02*
Y109338D01*
Y109671D01*
X9499D01*
X9166Y110004D01*
X7500Y108338D02*
X9499D01*
Y107339D01*
X9166Y107006D01*
X8500D01*
X8167Y107339D01*
Y108338D01*
Y107672D02*
X7500Y107006D01*
Y106339D02*
X9499D01*
X8833Y105673D01*
X9499Y105006D01*
X7500D01*
X9499Y104340D02*
X7500D01*
X8167Y103673D01*
X7500Y103007D01*
X9499D01*
X7500Y102340D02*
X9499D01*
Y101341D01*
X9166Y101007D01*
X8500D01*
X8167Y101341D01*
Y102340D01*
Y101674D02*
X7500Y101007D01*
X20586Y120500D02*
X18920D01*
X18587Y120167D01*
Y119500D01*
X18920Y119167D01*
X20586D01*
X18587Y117168D02*
Y118501D01*
X19920Y117168D01*
X20253D01*
X20586Y117501D01*
Y118167D01*
X20253Y118501D01*
X71500Y174000D02*
Y175999D01*
X72500D01*
X72833Y175666D01*
Y175000D01*
X72500Y174667D01*
X71500D01*
X72166D02*
X72833Y174000D01*
X73499Y175666D02*
X73833Y175999D01*
X74499D01*
X74832Y175666D01*
Y175333D01*
X74499Y175000D01*
X74832Y174667D01*
Y174333D01*
X74499Y174000D01*
X73833D01*
X73499Y174333D01*
Y174667D01*
X73833Y175000D01*
X73499Y175333D01*
Y175666D01*
X73833Y175000D02*
X74499D01*
X288500Y210499D02*
Y208500D01*
X289833D01*
X291832Y210499D02*
X290499D01*
Y208500D01*
X291832D01*
X290499Y209500D02*
X291166D01*
X292499Y210499D02*
Y208500D01*
X293498D01*
X293832Y208833D01*
Y210166D01*
X293498Y210499D01*
X292499D01*
X294498Y208167D02*
X295831D01*
X296497Y210499D02*
X297830D01*
X297164D01*
Y208500D01*
X298497Y210499D02*
X299830Y208500D01*
Y210499D02*
X298497Y208500D01*
X257000Y209999D02*
Y208000D01*
X258333D01*
X260332Y209999D02*
X258999D01*
Y208000D01*
X260332D01*
X258999Y209000D02*
X259666D01*
X260999Y209999D02*
Y208000D01*
X261998D01*
X262332Y208333D01*
Y209666D01*
X261998Y209999D01*
X260999D01*
X262998Y207667D02*
X264331D01*
X264997Y208000D02*
Y209999D01*
X265997D01*
X266330Y209666D01*
Y209000D01*
X265997Y208666D01*
X264997D01*
X265664D02*
X266330Y208000D01*
X266997Y209999D02*
X268330Y208000D01*
Y209999D02*
X266997Y208000D01*
X290000Y215499D02*
X291333D01*
X290666D01*
Y213500D01*
X291999Y215499D02*
X293332Y213500D01*
Y215499D02*
X291999Y213500D01*
X262500Y212500D02*
Y214499D01*
X263500D01*
X263833Y214166D01*
Y213500D01*
X263500Y213166D01*
X262500D01*
X263166D02*
X263833Y212500D01*
X264499Y214499D02*
X265832Y212500D01*
Y214499D02*
X264499Y212500D01*
X10499Y80500D02*
X9166D01*
X8500Y79834D01*
X9166Y79167D01*
X10499D01*
X8500Y78501D02*
X10499D01*
Y77501D01*
X10166Y77168D01*
X9500D01*
X9166Y77501D01*
Y78501D01*
Y77834D02*
X8500Y77168D01*
X10499Y75168D02*
Y76501D01*
X8500D01*
Y75168D01*
X9500Y76501D02*
Y75835D01*
X10166Y73169D02*
X10499Y73502D01*
Y74169D01*
X10166Y74502D01*
X8833D01*
X8500Y74169D01*
Y73502D01*
X8833Y73169D01*
X9500D01*
Y73835D01*
X10499Y71503D02*
Y72169D01*
X10166Y72503D01*
X8833D01*
X8500Y72169D01*
Y71503D01*
X8833Y71170D01*
X10166D01*
X10499Y71503D01*
Y70503D02*
X8833D01*
X8500Y70170D01*
Y69504D01*
X8833Y69170D01*
X10499D01*
Y68504D02*
Y67171D01*
Y67838D01*
X8500D01*
X8167Y66505D02*
Y65172D01*
X10499Y64505D02*
Y63172D01*
Y63839D01*
X8500D01*
Y62506D02*
X10499D01*
Y61506D01*
X10166Y61173D01*
X9500D01*
X9166Y61506D01*
Y62506D01*
X38500Y131999D02*
Y130000D01*
X39833D01*
X40499D02*
X41166D01*
X40833D01*
Y131999D01*
X40499Y131666D01*
X59000Y171000D02*
Y172999D01*
X60000D01*
X60333Y172666D01*
Y172000D01*
X60000Y171667D01*
X59000D01*
X59666D02*
X60333Y171000D01*
X60999Y171333D02*
X61333Y171000D01*
X61999D01*
X62332Y171333D01*
Y172666D01*
X61999Y172999D01*
X61333D01*
X60999Y172666D01*
Y172333D01*
X61333Y172000D01*
X62332D01*
X44500Y165000D02*
Y166999D01*
X45500D01*
X45833Y166666D01*
Y166000D01*
X45500Y165666D01*
X44500D01*
X45166D02*
X45833Y165000D01*
X47832Y166999D02*
X47166Y166666D01*
X46499Y166000D01*
Y165333D01*
X46833Y165000D01*
X47499D01*
X47832Y165333D01*
Y165666D01*
X47499Y166000D01*
X46499D01*
X162600Y137100D02*
Y139099D01*
X163600D01*
X163933Y138766D01*
Y138100D01*
X163600Y137767D01*
X162600D01*
X164599Y137433D02*
X164933Y137100D01*
X165599D01*
X165932Y137433D01*
Y138766D01*
X165599Y139099D01*
X164933D01*
X164599Y138766D01*
Y138433D01*
X164933Y138100D01*
X165932D01*
X181100Y136600D02*
Y138599D01*
X182100D01*
X182433Y138266D01*
Y137600D01*
X182100Y137267D01*
X181100D01*
X183099Y138266D02*
X183433Y138599D01*
X184099D01*
X184432Y138266D01*
Y137933D01*
X184099Y137600D01*
X184432Y137267D01*
Y136933D01*
X184099Y136600D01*
X183433D01*
X183099Y136933D01*
Y137267D01*
X183433Y137600D01*
X183099Y137933D01*
Y138266D01*
X183433Y137600D02*
X184099D01*
X10166Y172667D02*
X10499Y173000D01*
Y173667D01*
X10166Y174000D01*
X8833D01*
X8500Y173667D01*
Y173000D01*
X8833Y172667D01*
X9500D01*
Y173334D01*
X8500Y172001D02*
X10499D01*
X8500Y170668D01*
X10499D01*
Y170001D02*
X8500D01*
Y169002D01*
X8833Y168668D01*
X10166D01*
X10499Y169002D01*
Y170001D01*
X8167Y168002D02*
Y166669D01*
X10499Y166003D02*
Y164670D01*
Y165336D01*
X8500D01*
Y164003D02*
X10499D01*
Y163004D01*
X10166Y162670D01*
X9500D01*
X9166Y163004D01*
Y164003D01*
X97000Y183000D02*
Y184999D01*
X98000D01*
X98333Y184666D01*
Y184000D01*
X98000Y183667D01*
X97000D01*
X97666D02*
X98333Y183000D01*
X100332D02*
X98999D01*
X100332Y184333D01*
Y184666D01*
X99999Y184999D01*
X99333D01*
X98999Y184666D01*
X100999D02*
X101332Y184999D01*
X101998D01*
X102332Y184666D01*
Y184333D01*
X101998Y184000D01*
X101665D01*
X101998D01*
X102332Y183667D01*
Y183333D01*
X101998Y183000D01*
X101332D01*
X100999Y183333D01*
X98815Y27000D02*
Y28999D01*
X99815D01*
X100148Y28666D01*
Y28000D01*
X99815Y27666D01*
X98815D01*
X99481D02*
X100148Y27000D01*
X102147D02*
X100814D01*
X102147Y28333D01*
Y28666D01*
X101814Y28999D01*
X101147D01*
X100814Y28666D01*
X102814Y28999D02*
X104147D01*
Y28666D01*
X102814Y27333D01*
Y27000D01*
X289500Y220500D02*
Y222499D01*
X290500D01*
X290833Y222166D01*
Y221500D01*
X290500Y221166D01*
X289500D01*
X291499Y222499D02*
X292832D01*
Y222166D01*
X291499Y220833D01*
Y220500D01*
X290499Y108000D02*
X288833D01*
X288500Y107667D01*
Y107000D01*
X288833Y106667D01*
X290499D01*
X290166Y106001D02*
X290499Y105667D01*
Y105001D01*
X290166Y104668D01*
X289833D01*
X289500Y105001D01*
Y105334D01*
Y105001D01*
X289166Y104668D01*
X288833D01*
X288500Y105001D01*
Y105667D01*
X288833Y106001D01*
X28500Y171999D02*
Y170667D01*
X29166Y170000D01*
X29833Y170667D01*
Y171999D01*
X30499Y170000D02*
Y171999D01*
X31499D01*
X31832Y171666D01*
Y171000D01*
X31499Y170667D01*
X30499D01*
X31166D02*
X31832Y170000D01*
X33832Y171999D02*
X32499D01*
Y170000D01*
X33832D01*
X32499Y171000D02*
X33165D01*
X35831Y171666D02*
X35498Y171999D01*
X34831D01*
X34498Y171666D01*
Y170333D01*
X34831Y170000D01*
X35498D01*
X35831Y170333D01*
Y171000D01*
X35164D01*
X36497Y169667D02*
X37830D01*
X38497Y171999D02*
X39830D01*
X39163D01*
Y170000D01*
X40496D02*
Y171999D01*
X41496D01*
X41829Y171666D01*
Y171000D01*
X41496Y170667D01*
X40496D01*
X24999Y227000D02*
X23666D01*
X23000Y226334D01*
X23666Y225667D01*
X24999D01*
Y225001D02*
X23000D01*
Y224001D01*
X23333Y223668D01*
X23666D01*
X24000Y224001D01*
Y225001D01*
Y224001D01*
X24333Y223668D01*
X24666D01*
X24999Y224001D01*
Y225001D01*
X23000Y223001D02*
X24333D01*
X24999Y222335D01*
X24333Y221668D01*
X23000D01*
X24000D01*
Y223001D01*
X24999Y221002D02*
Y219669D01*
Y220336D01*
X23000D01*
X24999Y219003D02*
Y217670D01*
Y218336D01*
X23000D01*
X22667Y217003D02*
Y215670D01*
X24999Y215004D02*
Y213671D01*
Y214337D01*
X23000D01*
Y213005D02*
X24999D01*
Y212005D01*
X24666Y211672D01*
X24000D01*
X23666Y212005D01*
Y213005D01*
X23900Y20300D02*
Y22299D01*
X24900D01*
X25233Y21966D01*
Y21300D01*
X24900Y20967D01*
X23900D01*
X24566D02*
X25233Y20300D01*
X27232Y22299D02*
X25899D01*
Y20300D01*
X27232D01*
X25899Y21300D02*
X26566D01*
X29232Y21966D02*
X28898Y22299D01*
X28232D01*
X27899Y21966D01*
Y21633D01*
X28232Y21300D01*
X28898D01*
X29232Y20967D01*
Y20633D01*
X28898Y20300D01*
X28232D01*
X27899Y20633D01*
X31231Y22299D02*
X29898D01*
Y20300D01*
X31231D01*
X29898Y21300D02*
X30564D01*
X31897Y22299D02*
X33230D01*
X32564D01*
Y20300D01*
X84510Y261334D02*
X84843Y261001D01*
X85509D01*
X85843Y261334D01*
Y261667D01*
X85509Y262000D01*
X84843D01*
X84510Y262334D01*
Y262667D01*
X84843Y263000D01*
X85509D01*
X85843Y262667D01*
X83843Y263000D02*
X83177D01*
X83510D01*
Y261001D01*
X83843Y261334D01*
X113100Y160600D02*
Y162599D01*
X114100D01*
X114433Y162266D01*
Y161600D01*
X114100Y161267D01*
X113100D01*
X113767D02*
X114433Y160600D01*
X116432D02*
X115099D01*
X116432Y161933D01*
Y162266D01*
X116099Y162599D01*
X115433D01*
X115099Y162266D01*
X118098Y160600D02*
Y162599D01*
X117099Y161600D01*
X118432D01*
X16000Y22500D02*
X17999D01*
Y21500D01*
X17666Y21167D01*
X17000D01*
X16667Y21500D01*
Y22500D01*
Y21834D02*
X16000Y21167D01*
Y19168D02*
Y20501D01*
X17333Y19168D01*
X17666D01*
X17999Y19501D01*
Y20167D01*
X17666Y20501D01*
X16000Y17168D02*
Y18501D01*
X17333Y17168D01*
X17666D01*
X17999Y17502D01*
Y18168D01*
X17666Y18501D01*
X279000Y76500D02*
X280999D01*
Y75500D01*
X280666Y75167D01*
X280000D01*
X279666Y75500D01*
Y76500D01*
Y75833D02*
X279000Y75167D01*
Y73168D02*
Y74501D01*
X280333Y73168D01*
X280666D01*
X280999Y73501D01*
Y74167D01*
X280666Y74501D01*
X279000Y72501D02*
Y71835D01*
Y72168D01*
X280999D01*
X280666Y72501D01*
X288500Y69000D02*
X290499D01*
Y68000D01*
X290166Y67667D01*
X289500D01*
X289166Y68000D01*
Y69000D01*
Y68334D02*
X288500Y67667D01*
Y65668D02*
Y67001D01*
X289833Y65668D01*
X290166D01*
X290499Y66001D01*
Y66667D01*
X290166Y67001D01*
Y65001D02*
X290499Y64668D01*
Y64002D01*
X290166Y63668D01*
X288833D01*
X288500Y64002D01*
Y64668D01*
X288833Y65001D01*
X290166D01*
X207500Y58000D02*
X209499D01*
Y57000D01*
X209166Y56667D01*
X208500D01*
X208166Y57000D01*
Y58000D01*
Y57334D02*
X207500Y56667D01*
Y56001D02*
Y55334D01*
Y55667D01*
X209499D01*
X209166Y56001D01*
X207833Y54334D02*
X207500Y54001D01*
Y53335D01*
X207833Y53002D01*
X209166D01*
X209499Y53335D01*
Y54001D01*
X209166Y54334D01*
X208833D01*
X208500Y54001D01*
Y53002D01*
X208000Y90500D02*
X209999D01*
Y89500D01*
X209666Y89167D01*
X209000D01*
X208666Y89500D01*
Y90500D01*
Y89834D02*
X208000Y89167D01*
Y88501D02*
Y87834D01*
Y88167D01*
X209999D01*
X209666Y88501D01*
Y86835D02*
X209999Y86501D01*
Y85835D01*
X209666Y85502D01*
X209333D01*
X209000Y85835D01*
X208666Y85502D01*
X208333D01*
X208000Y85835D01*
Y86501D01*
X208333Y86835D01*
X208666D01*
X209000Y86501D01*
X209333Y86835D01*
X209666D01*
X209000Y86501D02*
Y85835D01*
X266500Y26000D02*
X268499D01*
Y25000D01*
X268166Y24667D01*
X267500D01*
X267166Y25000D01*
Y26000D01*
Y25333D02*
X266500Y24667D01*
Y24001D02*
Y23334D01*
Y23667D01*
X268499D01*
X268166Y24001D01*
X268499Y22334D02*
Y21002D01*
X268166D01*
X266833Y22334D01*
X266500D01*
X256500Y64000D02*
Y65999D01*
X257500D01*
X257833Y65666D01*
Y65000D01*
X257500Y64666D01*
X256500D01*
X257166D02*
X257833Y64000D01*
X258499D02*
X259166D01*
X258833D01*
Y65999D01*
X258499Y65666D01*
X261498Y65999D02*
X260832Y65666D01*
X260166Y65000D01*
Y64333D01*
X260499Y64000D01*
X261165D01*
X261498Y64333D01*
Y64666D01*
X261165Y65000D01*
X260166D01*
X99500Y130500D02*
Y132499D01*
X100500D01*
X100833Y132166D01*
Y131500D01*
X100500Y131167D01*
X99500D01*
X100166D02*
X100833Y130500D01*
X101499D02*
X102166D01*
X101833D01*
Y132499D01*
X101499Y132166D01*
X103165D02*
X103499Y132499D01*
X104165D01*
X104498Y132166D01*
Y131833D01*
X104165Y131500D01*
X103832D01*
X104165D01*
X104498Y131167D01*
Y130833D01*
X104165Y130500D01*
X103499D01*
X103165Y130833D01*
X12100Y83600D02*
Y85599D01*
X13100D01*
X13433Y85266D01*
Y84600D01*
X13100Y84266D01*
X12100D01*
X12766D02*
X13433Y83600D01*
X14099D02*
X14766D01*
X14433D01*
Y85599D01*
X14099Y85266D01*
X17098Y83600D02*
X15766D01*
X17098Y84933D01*
Y85266D01*
X16765Y85599D01*
X16099D01*
X15766Y85266D01*
X83100Y238100D02*
Y240099D01*
X84100D01*
X84433Y239766D01*
Y239100D01*
X84100Y238766D01*
X83100D01*
X83766D02*
X84433Y238100D01*
X85099D02*
X85766D01*
X85433D01*
Y240099D01*
X85099Y239766D01*
X86765Y238100D02*
X87432D01*
X87099D01*
Y240099D01*
X86765Y239766D01*
X117600Y249300D02*
Y251299D01*
X118600D01*
X118933Y250966D01*
Y250300D01*
X118600Y249966D01*
X117600D01*
X118266D02*
X118933Y249300D01*
X119599D02*
X120266D01*
X119933D01*
Y251299D01*
X119599Y250966D01*
X121265D02*
X121599Y251299D01*
X122265D01*
X122598Y250966D01*
Y249633D01*
X122265Y249300D01*
X121599D01*
X121265Y249633D01*
Y250966D01*
X47100Y175100D02*
Y177099D01*
X48100D01*
X48433Y176766D01*
Y176100D01*
X48100Y175767D01*
X47100D01*
X47766D02*
X48433Y175100D01*
X49099Y177099D02*
X50432D01*
Y176766D01*
X49099Y175433D01*
Y175100D01*
X99256Y199500D02*
Y201499D01*
X100256D01*
X100589Y201166D01*
Y200500D01*
X100256Y200167D01*
X99256D01*
X99922D02*
X100589Y199500D01*
X102588Y201499D02*
X101255D01*
Y200500D01*
X101922Y200833D01*
X102255D01*
X102588Y200500D01*
Y199833D01*
X102255Y199500D01*
X101588D01*
X101255Y199833D01*
X50500Y228500D02*
X52499D01*
Y227500D01*
X52166Y227167D01*
X51500D01*
X51166Y227500D01*
Y228500D01*
Y227834D02*
X50500Y227167D01*
Y225501D02*
X52499D01*
X51500Y226501D01*
Y225168D01*
X55244Y214500D02*
Y216499D01*
X56244D01*
X56577Y216166D01*
Y215500D01*
X56244Y215166D01*
X55244D01*
X55910D02*
X56577Y214500D01*
X57243Y216166D02*
X57577Y216499D01*
X58243D01*
X58576Y216166D01*
Y215833D01*
X58243Y215500D01*
X57910D01*
X58243D01*
X58576Y215166D01*
Y214833D01*
X58243Y214500D01*
X57577D01*
X57243Y214833D01*
X42500Y228500D02*
X44499D01*
Y227500D01*
X44166Y227167D01*
X43500D01*
X43166Y227500D01*
Y228500D01*
Y227834D02*
X42500Y227167D01*
Y225168D02*
Y226501D01*
X43833Y225168D01*
X44166D01*
X44499Y225501D01*
Y226167D01*
X44166Y226501D01*
X66000Y232500D02*
Y230501D01*
X65000D01*
X64667Y230834D01*
Y231500D01*
X65000Y231834D01*
X66000D01*
X65334D02*
X64667Y232500D01*
X64001D02*
X63334D01*
X63667D01*
Y230501D01*
X64001Y230834D01*
X226000Y261000D02*
X227999D01*
Y260000D01*
X227666Y259667D01*
X227000D01*
X226666Y260000D01*
Y261000D01*
X227999Y257668D02*
X227666Y258334D01*
X227000Y259001D01*
X226333D01*
X226000Y258667D01*
Y258001D01*
X226333Y257668D01*
X226666D01*
X227000Y258001D01*
Y259001D01*
X198100Y103100D02*
Y105099D01*
X199100D01*
X199433Y104766D01*
Y104100D01*
X199100Y103767D01*
X198100D01*
X201432Y105099D02*
X200099D01*
Y104100D01*
X200766Y104433D01*
X201099D01*
X201432Y104100D01*
Y103433D01*
X201099Y103100D01*
X200433D01*
X200099Y103433D01*
X77100Y106600D02*
Y108599D01*
X78100D01*
X78433Y108266D01*
Y107600D01*
X78100Y107266D01*
X77100D01*
X79099Y108266D02*
X79433Y108599D01*
X80099D01*
X80432Y108266D01*
Y107933D01*
X80099Y107600D01*
X79766D01*
X80099D01*
X80432Y107266D01*
Y106933D01*
X80099Y106600D01*
X79433D01*
X79099Y106933D01*
X2100Y217100D02*
Y219099D01*
X3100D01*
X3433Y218766D01*
Y218100D01*
X3100Y217766D01*
X2100D01*
X5432Y217100D02*
X4099D01*
X5432Y218433D01*
Y218766D01*
X5099Y219099D01*
X4433D01*
X4099Y218766D01*
X42736Y247000D02*
X44736D01*
Y246000D01*
X44402Y245667D01*
X43736D01*
X43403Y246000D01*
Y247000D01*
X42736Y245001D02*
Y244334D01*
Y244667D01*
X44736D01*
X44402Y245001D01*
X247500Y216999D02*
Y215000D01*
X248500D01*
X248833Y215333D01*
Y216666D01*
X248500Y216999D01*
X247500D01*
X250832Y215000D02*
X249499D01*
X250832Y216333D01*
Y216666D01*
X250499Y216999D01*
X249833D01*
X249499Y216666D01*
X251499Y216999D02*
X252832D01*
Y216666D01*
X251499Y215333D01*
Y215000D01*
X298500Y226531D02*
Y224532D01*
X299500D01*
X299833Y224865D01*
Y226198D01*
X299500Y226531D01*
X298500D01*
X301832Y224532D02*
X300499D01*
X301832Y225864D01*
Y226198D01*
X301499Y226531D01*
X300833D01*
X300499Y226198D01*
X303832Y226531D02*
X303165Y226198D01*
X302499Y225531D01*
Y224865D01*
X302832Y224532D01*
X303498D01*
X303832Y224865D01*
Y225198D01*
X303498Y225531D01*
X302499D01*
X320500Y227031D02*
Y225031D01*
X321500D01*
X321833Y225365D01*
Y226698D01*
X321500Y227031D01*
X320500D01*
X323832Y225031D02*
X322499D01*
X323832Y226364D01*
Y226698D01*
X323499Y227031D01*
X322833D01*
X322499Y226698D01*
X325832Y227031D02*
X324499D01*
Y226031D01*
X325165Y226364D01*
X325498D01*
X325832Y226031D01*
Y225365D01*
X325498Y225031D01*
X324832D01*
X324499Y225365D01*
X116312Y180599D02*
Y178600D01*
X117312D01*
X117645Y178933D01*
Y180266D01*
X117312Y180599D01*
X116312D01*
X119644Y178600D02*
X118311D01*
X119644Y179933D01*
Y180266D01*
X119311Y180599D01*
X118644D01*
X118311Y180266D01*
X121310Y178600D02*
Y180599D01*
X120310Y179600D01*
X121643D01*
X114244Y201499D02*
Y199500D01*
X115244D01*
X115577Y199833D01*
Y201166D01*
X115244Y201499D01*
X114244D01*
X117576Y199500D02*
X116244D01*
X117576Y200833D01*
Y201166D01*
X117243Y201499D01*
X116577D01*
X116244Y201166D01*
X118243D02*
X118576Y201499D01*
X119243D01*
X119576Y201166D01*
Y200833D01*
X119243Y200500D01*
X118909D01*
X119243D01*
X119576Y200167D01*
Y199833D01*
X119243Y199500D01*
X118576D01*
X118243Y199833D01*
X176500Y62999D02*
Y61000D01*
X177500D01*
X177833Y61333D01*
Y62666D01*
X177500Y62999D01*
X176500D01*
X179832Y61000D02*
X178499D01*
X179832Y62333D01*
Y62666D01*
X179499Y62999D01*
X178833D01*
X178499Y62666D01*
X181832Y61000D02*
X180499D01*
X181832Y62333D01*
Y62666D01*
X181498Y62999D01*
X180832D01*
X180499Y62666D01*
X163500Y59999D02*
Y58000D01*
X164500D01*
X164833Y58333D01*
Y59666D01*
X164500Y59999D01*
X163500D01*
X166832Y58000D02*
X165499D01*
X166832Y59333D01*
Y59666D01*
X166499Y59999D01*
X165833D01*
X165499Y59666D01*
X167499Y58000D02*
X168165D01*
X167832D01*
Y59999D01*
X167499Y59666D01*
X186969Y43988D02*
Y41988D01*
X187968D01*
X188301Y42322D01*
Y43655D01*
X187968Y43988D01*
X186969D01*
X190301Y41988D02*
X188968D01*
X190301Y43321D01*
Y43655D01*
X189968Y43988D01*
X189301D01*
X188968Y43655D01*
X190967D02*
X191300Y43988D01*
X191967D01*
X192300Y43655D01*
Y42322D01*
X191967Y41988D01*
X191300D01*
X190967Y42322D01*
Y43655D01*
X175000Y32999D02*
Y31000D01*
X176000D01*
X176333Y31333D01*
Y32666D01*
X176000Y32999D01*
X175000D01*
X176999Y31000D02*
X177666D01*
X177333D01*
Y32999D01*
X176999Y32666D01*
X178665Y31333D02*
X178999Y31000D01*
X179665D01*
X179998Y31333D01*
Y32666D01*
X179665Y32999D01*
X178999D01*
X178665Y32666D01*
Y32333D01*
X178999Y32000D01*
X179998D01*
X122999Y67011D02*
X121000D01*
Y66012D01*
X121333Y65679D01*
X122666D01*
X122999Y66012D01*
Y67011D01*
X121000Y65012D02*
Y64346D01*
Y64679D01*
X122999D01*
X122666Y65012D01*
Y63346D02*
X122999Y63013D01*
Y62346D01*
X122666Y62013D01*
X122333D01*
X122000Y62346D01*
X121667Y62013D01*
X121333D01*
X121000Y62346D01*
Y63013D01*
X121333Y63346D01*
X121667D01*
X122000Y63013D01*
X122333Y63346D01*
X122666D01*
X122000Y63013D02*
Y62346D01*
X213800Y108899D02*
Y106900D01*
X214800D01*
X215133Y107233D01*
Y108566D01*
X214800Y108899D01*
X213800D01*
X215799Y106900D02*
X216466D01*
X216133D01*
Y108899D01*
X215799Y108566D01*
X217465Y108899D02*
X218798D01*
Y108566D01*
X217465Y107233D01*
Y106900D01*
X213800Y118899D02*
Y116900D01*
X214800D01*
X215133Y117233D01*
Y118566D01*
X214800Y118899D01*
X213800D01*
X215799Y116900D02*
X216466D01*
X216133D01*
Y118899D01*
X215799Y118566D01*
X218798Y118899D02*
X218132Y118566D01*
X217465Y117900D01*
Y117233D01*
X217799Y116900D01*
X218465D01*
X218798Y117233D01*
Y117567D01*
X218465Y117900D01*
X217465D01*
X213800Y128899D02*
Y126900D01*
X214800D01*
X215133Y127233D01*
Y128566D01*
X214800Y128899D01*
X213800D01*
X215799Y126900D02*
X216466D01*
X216133D01*
Y128899D01*
X215799Y128566D01*
X218798Y128899D02*
X217465D01*
Y127900D01*
X218132Y128233D01*
X218465D01*
X218798Y127900D01*
Y127233D01*
X218465Y126900D01*
X217799D01*
X217465Y127233D01*
X213800Y138899D02*
Y136900D01*
X214800D01*
X215133Y137233D01*
Y138566D01*
X214800Y138899D01*
X213800D01*
X215799Y136900D02*
X216466D01*
X216133D01*
Y138899D01*
X215799Y138566D01*
X218465Y136900D02*
Y138899D01*
X217465Y137900D01*
X218798D01*
X213800Y148899D02*
Y146900D01*
X214800D01*
X215133Y147233D01*
Y148566D01*
X214800Y148899D01*
X213800D01*
X215799Y146900D02*
X216466D01*
X216133D01*
Y148899D01*
X215799Y148566D01*
X217465D02*
X217799Y148899D01*
X218465D01*
X218798Y148566D01*
Y148233D01*
X218465Y147900D01*
X218132D01*
X218465D01*
X218798Y147566D01*
Y147233D01*
X218465Y146900D01*
X217799D01*
X217465Y147233D01*
X205099Y219500D02*
X203100D01*
Y218500D01*
X203433Y218167D01*
X204766D01*
X205099Y218500D01*
Y219500D01*
X203100Y217501D02*
Y216834D01*
Y217167D01*
X205099D01*
X204766Y217501D01*
X203100Y214502D02*
Y215834D01*
X204433Y214502D01*
X204766D01*
X205099Y214835D01*
Y215501D01*
X204766Y215834D01*
X213800Y168899D02*
Y166900D01*
X214800D01*
X215133Y167233D01*
Y168566D01*
X214800Y168899D01*
X213800D01*
X215799Y166900D02*
X216466D01*
X216133D01*
Y168899D01*
X215799Y168566D01*
X217465Y166900D02*
X218132D01*
X217799D01*
Y168899D01*
X217465Y168566D01*
X213800Y178899D02*
Y176900D01*
X214800D01*
X215133Y177233D01*
Y178566D01*
X214800Y178899D01*
X213800D01*
X215799Y176900D02*
X216466D01*
X216133D01*
Y178899D01*
X215799Y178566D01*
X217465D02*
X217799Y178899D01*
X218465D01*
X218798Y178566D01*
Y177233D01*
X218465Y176900D01*
X217799D01*
X217465Y177233D01*
Y178566D01*
X213800Y188899D02*
Y186900D01*
X214800D01*
X215133Y187233D01*
Y188566D01*
X214800Y188899D01*
X213800D01*
X215799Y187233D02*
X216133Y186900D01*
X216799D01*
X217132Y187233D01*
Y188566D01*
X216799Y188899D01*
X216133D01*
X215799Y188566D01*
Y188233D01*
X216133Y187900D01*
X217132D01*
X213800Y198899D02*
Y196900D01*
X214800D01*
X215133Y197233D01*
Y198566D01*
X214800Y198899D01*
X213800D01*
X215799Y198566D02*
X216133Y198899D01*
X216799D01*
X217132Y198566D01*
Y198233D01*
X216799Y197900D01*
X217132Y197566D01*
Y197233D01*
X216799Y196900D01*
X216133D01*
X215799Y197233D01*
Y197566D01*
X216133Y197900D01*
X215799Y198233D01*
Y198566D01*
X216133Y197900D02*
X216799D01*
X276500Y42257D02*
Y44256D01*
X275500D01*
X275167Y43923D01*
Y42590D01*
X275500Y42257D01*
X276500D01*
X274501D02*
X273168D01*
Y42590D01*
X274501Y43923D01*
Y44256D01*
X285000Y42501D02*
Y44500D01*
X284000D01*
X283667Y44167D01*
Y42834D01*
X284000Y42501D01*
X285000D01*
X281668D02*
X282334Y42834D01*
X283001Y43500D01*
Y44167D01*
X282667Y44500D01*
X282001D01*
X281668Y44167D01*
Y43834D01*
X282001Y43500D01*
X283001D01*
X72499Y143500D02*
X70500D01*
Y142500D01*
X70833Y142167D01*
X72166D01*
X72499Y142500D01*
Y143500D01*
X70500Y140501D02*
X72499D01*
X71500Y141501D01*
Y140168D01*
X113833Y214166D02*
X113500Y214499D01*
X112833D01*
X112500Y214166D01*
Y212833D01*
X112833Y212500D01*
X113500D01*
X113833Y212833D01*
X114499Y212500D02*
X115166D01*
X114833D01*
Y214499D01*
X114499Y214166D01*
X117498Y212500D02*
X116165D01*
X117498Y213833D01*
Y214166D01*
X117165Y214499D01*
X116499D01*
X116165Y214166D01*
X16666Y40667D02*
X16999Y41000D01*
Y41667D01*
X16666Y42000D01*
X15333D01*
X15000Y41667D01*
Y41000D01*
X15333Y40667D01*
X15000Y40001D02*
Y39334D01*
Y39667D01*
X16999D01*
X16666Y40001D01*
X15000Y38335D02*
Y37668D01*
Y38001D01*
X16999D01*
X16666Y38335D01*
X211166Y38667D02*
X211499Y39000D01*
Y39667D01*
X211166Y40000D01*
X209833D01*
X209500Y39667D01*
Y39000D01*
X209833Y38667D01*
X209500Y38001D02*
Y37334D01*
Y37667D01*
X211499D01*
X211166Y38001D01*
Y36334D02*
X211499Y36001D01*
Y35335D01*
X211166Y35002D01*
X209833D01*
X209500Y35335D01*
Y36001D01*
X209833Y36334D01*
X211166D01*
X211666Y68667D02*
X211999Y69000D01*
Y69667D01*
X211666Y70000D01*
X210333D01*
X210000Y69667D01*
Y69000D01*
X210333Y68667D01*
Y68001D02*
X210000Y67667D01*
Y67001D01*
X210333Y66668D01*
X211666D01*
X211999Y67001D01*
Y67667D01*
X211666Y68001D01*
X211333D01*
X211000Y67667D01*
Y66668D01*
X9333Y135666D02*
X9000Y135999D01*
X8333D01*
X8000Y135666D01*
Y134333D01*
X8333Y134000D01*
X9000D01*
X9333Y134333D01*
X9999Y135666D02*
X10333Y135999D01*
X10999D01*
X11332Y135666D01*
Y135333D01*
X10999Y135000D01*
X11332Y134667D01*
Y134333D01*
X10999Y134000D01*
X10333D01*
X9999Y134333D01*
Y134667D01*
X10333Y135000D01*
X9999Y135333D01*
Y135666D01*
X10333Y135000D02*
X10999D01*
X87833Y135166D02*
X87500Y135499D01*
X86833D01*
X86500Y135166D01*
Y133833D01*
X86833Y133500D01*
X87500D01*
X87833Y133833D01*
X88499Y135499D02*
X89832D01*
Y135166D01*
X88499Y133833D01*
Y133500D01*
X19333Y151666D02*
X19000Y151999D01*
X18333D01*
X18000Y151666D01*
Y150333D01*
X18333Y150000D01*
X19000D01*
X19333Y150333D01*
X21332Y151999D02*
X20666Y151666D01*
X19999Y151000D01*
Y150333D01*
X20333Y150000D01*
X20999D01*
X21332Y150333D01*
Y150666D01*
X20999Y151000D01*
X19999D01*
X19033Y93766D02*
X18700Y94099D01*
X18033D01*
X17700Y93766D01*
Y92433D01*
X18033Y92100D01*
X18700D01*
X19033Y92433D01*
X21032Y94099D02*
X19699D01*
Y93100D01*
X20366Y93433D01*
X20699D01*
X21032Y93100D01*
Y92433D01*
X20699Y92100D01*
X20033D01*
X19699Y92433D01*
X43753Y97911D02*
X44086Y98244D01*
Y98911D01*
X43753Y99244D01*
X42420D01*
X42087Y98911D01*
Y98244D01*
X42420Y97911D01*
X42087Y96245D02*
X44086D01*
X43086Y97245D01*
Y95912D01*
X100589Y195166D02*
X100256Y195499D01*
X99589D01*
X99256Y195166D01*
Y193833D01*
X99589Y193500D01*
X100256D01*
X100589Y193833D01*
X101255Y195166D02*
X101588Y195499D01*
X102255D01*
X102588Y195166D01*
Y194833D01*
X102255Y194500D01*
X101922D01*
X102255D01*
X102588Y194167D01*
Y193833D01*
X102255Y193500D01*
X101588D01*
X101255Y193833D01*
X79166Y209167D02*
X79499Y209500D01*
Y210167D01*
X79166Y210500D01*
X77833D01*
X77500Y210167D01*
Y209500D01*
X77833Y209167D01*
X77500Y208501D02*
Y207834D01*
Y208167D01*
X79499D01*
X79166Y208501D01*
X88000Y185000D02*
X89999D01*
Y184000D01*
X89666Y183667D01*
X89000D01*
X88666Y184000D01*
Y185000D01*
Y184334D02*
X88000Y183667D01*
Y181668D02*
Y183001D01*
X89333Y181668D01*
X89666D01*
X89999Y182001D01*
Y182667D01*
X89666Y183001D01*
X89999Y179668D02*
X89666Y180335D01*
X89000Y181001D01*
X88333D01*
X88000Y180668D01*
Y180002D01*
X88333Y179668D01*
X88666D01*
X89000Y180002D01*
Y181001D01*
X105255Y41581D02*
X104922Y41248D01*
Y40581D01*
X105255Y40248D01*
X105588D01*
X105922Y40581D01*
Y41248D01*
X106255Y41581D01*
X106588D01*
X106921Y41248D01*
Y40581D01*
X106588Y40248D01*
X106921Y43580D02*
Y42247D01*
X105588Y43580D01*
X105255D01*
X104922Y43247D01*
Y42581D01*
X105255Y42247D01*
X146785Y164100D02*
Y166099D01*
X147785D01*
X148118Y165766D01*
Y165100D01*
X147785Y164767D01*
X146785D01*
X147451D02*
X148118Y164100D01*
X150117D02*
X148784D01*
X150117Y165433D01*
Y165766D01*
X149784Y166099D01*
X149118D01*
X148784Y165766D01*
X150784D02*
X151117Y166099D01*
X151783D01*
X152117Y165766D01*
Y165433D01*
X151783Y165100D01*
X152117Y164767D01*
Y164433D01*
X151783Y164100D01*
X151117D01*
X150784Y164433D01*
Y164767D01*
X151117Y165100D01*
X150784Y165433D01*
Y165766D01*
X151117Y165100D02*
X151783D01*
X233250Y238757D02*
Y238662D01*
X233155Y238471D01*
X233060Y238376D01*
X232870Y238281D01*
X232489D01*
X232298Y238376D01*
X232203Y238471D01*
X232108Y238662D01*
Y238852D01*
X232203Y239043D01*
X232394Y239328D01*
X233346Y240281D01*
X232013D01*
X230994Y238281D02*
X231279Y238376D01*
X231470Y238662D01*
X231565Y239138D01*
Y239423D01*
X231470Y239900D01*
X231279Y240185D01*
X230994Y240281D01*
X230803D01*
X230518Y240185D01*
X230327Y239900D01*
X230232Y239423D01*
Y239138D01*
X230327Y238662D01*
X230518Y238376D01*
X230803Y238281D01*
X230994D01*
X341905Y240977D02*
Y240881D01*
X341810Y240691D01*
X341714Y240596D01*
X341524Y240500D01*
X341143D01*
X340953Y240596D01*
X340857Y240691D01*
X340762Y240881D01*
Y241072D01*
X340857Y241262D01*
X341048Y241548D01*
X342000Y242500D01*
X340667D01*
X342000Y262381D02*
X341810Y262286D01*
X341524Y262000D01*
Y264000D01*
X233252Y253628D02*
X233062Y253533D01*
X232776Y253247D01*
Y255246D01*
X230548Y253913D02*
X230643Y254199D01*
X230833Y254390D01*
X231119Y254485D01*
X231214D01*
X231500Y254390D01*
X231690Y254199D01*
X231786Y253913D01*
Y253818D01*
X231690Y253533D01*
X231500Y253342D01*
X231214Y253247D01*
X231119D01*
X230833Y253342D01*
X230643Y253533D01*
X230548Y253913D01*
Y254390D01*
X230643Y254866D01*
X230833Y255151D01*
X231119Y255246D01*
X231310D01*
X231595Y255151D01*
X231690Y254961D01*
D47*
X58445Y197150D02*
G03*
X58445Y197150I-394J0D01*
G01*
X253370Y27008D02*
G03*
X253370Y27008I-197J0D01*
G01*
X253870Y58508D02*
G03*
X253870Y58508I-197J0D01*
G01*
X33496Y122051D02*
G03*
X33496Y122051I-394J0D01*
G01*
X71609Y272630D02*
G03*
X70236Y271050I103J-1476D01*
G01*
X40708Y270657D02*
G03*
X39336Y272236I-1476J103D01*
G01*
X29445Y50992D02*
G03*
X29445Y50992I-197J0D01*
G01*
X103063Y52516D02*
G03*
X103063Y52516I-394J0D01*
G01*
X150610Y222047D02*
X153760D01*
X150610Y227953D02*
X153760D01*
X128232Y31740D02*
X158768D01*
X128232D02*
Y60283D01*
X158768D01*
Y31740D02*
Y60283D01*
X162500Y162000D02*
X172500D01*
Y142000D02*
Y162000D01*
X162500Y142000D02*
X172500D01*
X162500D02*
Y162000D01*
X181000Y141500D02*
X191000D01*
X181000D02*
Y161500D01*
X191000D01*
Y141500D02*
Y161500D01*
X109240Y25047D02*
X112390D01*
X109240Y30953D02*
X112390D01*
X149610Y168047D02*
X152760D01*
X149610Y173953D02*
X152760D01*
X287000Y216500D02*
Y226500D01*
X267000Y216500D02*
X287000D01*
X267000D02*
Y226500D01*
X287000D01*
X235228Y233764D02*
X338772D01*
X235228D02*
Y304272D01*
X338772D01*
Y233764D02*
Y304272D01*
X198000Y115500D02*
Y208000D01*
Y108000D02*
Y115500D01*
Y108000D02*
X208000D01*
Y208000D01*
X198000D02*
X208000D01*
X77000Y111500D02*
Y121500D01*
X97000D01*
Y111500D02*
Y121500D01*
X77000Y111500D02*
X97000D01*
X2000Y222000D02*
X12000D01*
X2000D02*
Y242000D01*
X12000D01*
Y222000D02*
Y242000D01*
X62756Y250780D02*
X70236D01*
X40709D02*
X48189D01*
X40709D02*
Y256882D01*
Y266921D02*
Y270465D01*
X70236D01*
Y266921D02*
Y270465D01*
Y250780D02*
Y256882D01*
X68465Y270661D02*
Y272827D01*
X42480D02*
X68465D01*
X42480Y270661D02*
Y272827D01*
D48*
X161639Y180465D02*
G03*
X161639Y180465I-1741J0D01*
G01*
X63662Y248220D02*
G03*
X63662Y248220I-710J0D01*
G01*
D49*
X353429Y154224D02*
G03*
X353429Y154224I-551J0D01*
G01*
M02*
