G04 Layer_Color=16711935*
%FSLAX25Y25*%
%MOIN*%
G70*
G01*
G75*
%ADD33C,0.01000*%
%ADD73R,0.06706X0.06706*%
%ADD74C,0.06706*%
%ADD75C,0.09068*%
%ADD76R,0.06343X0.06343*%
%ADD77C,0.06343*%
%ADD78R,0.06706X0.06706*%
%ADD79C,0.04147*%
%ADD80C,0.03200*%
D33*
X0Y0D02*
X356000D01*
Y75875D02*
Y184625D01*
X0Y271500D02*
X356000D01*
X0Y0D02*
Y271500D01*
X356000Y0D02*
Y75875D01*
Y184625D02*
Y271500D01*
D73*
X203000Y113000D02*
D03*
X128500Y132500D02*
D03*
X7000Y237000D02*
D03*
X179000Y152000D02*
D03*
X164000Y142000D02*
D03*
D74*
X203000Y123000D02*
D03*
Y143000D02*
D03*
Y153000D02*
D03*
Y163000D02*
D03*
Y173000D02*
D03*
Y183000D02*
D03*
Y193000D02*
D03*
Y203000D02*
D03*
Y133000D02*
D03*
X128500Y102500D02*
D03*
Y112500D02*
D03*
Y122500D02*
D03*
X7000Y227000D02*
D03*
X82000Y116500D02*
D03*
X214000Y228000D02*
D03*
X179000Y142000D02*
D03*
X164000Y152000D02*
D03*
D75*
X74126Y39720D02*
D03*
X98535Y98776D02*
D03*
D76*
X91843Y53500D02*
D03*
D77*
Y69248D02*
D03*
Y84996D02*
D03*
X82000Y53500D02*
D03*
Y69248D02*
D03*
Y84996D02*
D03*
D78*
X92000Y116500D02*
D03*
X204000Y228000D02*
D03*
D79*
X95437Y266236D02*
D03*
X107248D02*
D03*
D80*
X283500Y226000D02*
D03*
X262500Y218000D02*
D03*
X236968Y222031D02*
D03*
X183500Y201063D02*
D03*
X198031Y215032D02*
D03*
X224000Y203000D02*
D03*
X152744Y250756D02*
D03*
X117000Y132500D02*
D03*
X115000Y208500D02*
D03*
X130500Y182500D02*
D03*
X5000Y172500D02*
D03*
X175779Y195721D02*
D03*
X105000Y137500D02*
D03*
X128500Y202500D02*
D03*
X187000Y37500D02*
D03*
X167500Y41511D02*
D03*
X7500Y265000D02*
D03*
X224000Y133000D02*
D03*
Y123000D02*
D03*
X224500Y113000D02*
D03*
X352642Y92142D02*
D03*
X290000Y99500D02*
D03*
X352642Y157358D02*
D03*
X224000Y143000D02*
D03*
Y153000D02*
D03*
Y163000D02*
D03*
Y173000D02*
D03*
Y183000D02*
D03*
Y193000D02*
D03*
X37598Y98000D02*
D03*
X67500Y194000D02*
D03*
X41000Y246500D02*
D03*
X19000Y227000D02*
D03*
X64500Y222000D02*
D03*
X51756Y190744D02*
D03*
X56244Y226000D02*
D03*
X90244Y244744D02*
D03*
X83512Y213488D02*
D03*
X95512Y209012D02*
D03*
X70453Y181047D02*
D03*
X17603Y113016D02*
D03*
X60000Y183744D02*
D03*
X10488Y22665D02*
D03*
X124000Y46011D02*
D03*
X124012Y51012D02*
D03*
X180000Y65000D02*
D03*
X173500Y51000D02*
D03*
X206347Y75153D02*
D03*
X206244Y56000D02*
D03*
X199000Y31000D02*
D03*
X293500Y154500D02*
D03*
X270000Y5500D02*
D03*
X246000Y5000D02*
D03*
X222000Y5500D02*
D03*
X198000Y5000D02*
D03*
X174500D02*
D03*
X150500D02*
D03*
X126500D02*
D03*
X103000D02*
D03*
X79500D02*
D03*
X56000D02*
D03*
X32500D02*
D03*
X8500D02*
D03*
X5000Y27500D02*
D03*
Y51000D02*
D03*
Y75000D02*
D03*
Y99500D02*
D03*
Y124000D02*
D03*
Y148500D02*
D03*
X135000Y265000D02*
D03*
X352500Y181500D02*
D03*
X352000Y67500D02*
D03*
Y44000D02*
D03*
X114500Y56000D02*
D03*
X325000Y135000D02*
D03*
X335000D02*
D03*
X315000Y125000D02*
D03*
X325000D02*
D03*
X335000Y124500D02*
D03*
X315000Y115000D02*
D03*
X325000D02*
D03*
X335000D02*
D03*
X315000Y135000D02*
D03*
M02*
