G04 Layer_Physical_Order=2*
G04 Layer_Color=16711680*
%FSLAX25Y25*%
%MOIN*%
G70*
G01*
G75*
%ADD33C,0.01000*%
%ADD38R,0.05905X0.05905*%
%ADD39C,0.05905*%
%ADD40R,0.05905X0.05905*%
%ADD41C,0.03347*%
%ADD42C,0.05543*%
%ADD43R,0.05543X0.05543*%
%ADD44C,0.08268*%
%ADD45C,0.02400*%
G36*
X288000Y260500D02*
Y225500D01*
X298500Y215000D01*
X345000D01*
X353500Y206500D01*
Y185334D01*
X353084Y185056D01*
X352966Y185105D01*
X352000Y185232D01*
X351034Y185105D01*
X350134Y184732D01*
X349361Y184139D01*
X348768Y183366D01*
X348395Y182466D01*
X348268Y181500D01*
X348395Y180534D01*
X348768Y179634D01*
X349361Y178861D01*
X350134Y178268D01*
X351034Y177895D01*
X352000Y177768D01*
X352966Y177895D01*
X353084Y177944D01*
X353500Y177666D01*
Y159825D01*
X353142Y159531D01*
Y157358D01*
Y155186D01*
X353500Y154892D01*
Y141500D01*
X353000Y141000D01*
X339000D01*
Y113000D01*
X339500Y112500D01*
Y109000D01*
X340000Y108500D01*
X353500D01*
Y94608D01*
X353142Y94314D01*
Y92142D01*
Y89969D01*
X353500Y89675D01*
Y71333D01*
X353084Y71056D01*
X352966Y71105D01*
X352000Y71232D01*
X351034Y71105D01*
X350134Y70732D01*
X349361Y70139D01*
X348768Y69366D01*
X348395Y68466D01*
X348268Y67500D01*
X348395Y66534D01*
X348768Y65634D01*
X349361Y64861D01*
X350134Y64268D01*
X351034Y63895D01*
X352000Y63768D01*
X352966Y63895D01*
X353084Y63944D01*
X353500Y63666D01*
Y47833D01*
X353084Y47556D01*
X352966Y47605D01*
X352000Y47732D01*
X351034Y47605D01*
X350134Y47232D01*
X349361Y46639D01*
X348768Y45866D01*
X348395Y44966D01*
X348268Y44000D01*
X348395Y43034D01*
X348768Y42134D01*
X349361Y41361D01*
X350134Y40768D01*
X351034Y40395D01*
X352000Y40268D01*
X352966Y40395D01*
X353084Y40444D01*
X353500Y40167D01*
Y35000D01*
X290000D01*
Y10000D01*
X279500Y2000D01*
X248937D01*
X248745Y2500D01*
X249232Y3134D01*
X249605Y4034D01*
X249732Y5000D01*
X249605Y5966D01*
X249232Y6866D01*
X248639Y7639D01*
X247866Y8232D01*
X246966Y8605D01*
X246000Y8732D01*
X245034Y8605D01*
X244134Y8232D01*
X243361Y7639D01*
X242768Y6866D01*
X242395Y5966D01*
X242268Y5000D01*
X242395Y4034D01*
X242768Y3134D01*
X243255Y2500D01*
X243063Y2000D01*
X224338D01*
X224168Y2500D01*
X224639Y2861D01*
X225232Y3634D01*
X225605Y4534D01*
X225732Y5500D01*
X225605Y6466D01*
X225232Y7366D01*
X224639Y8139D01*
X223866Y8732D01*
X222966Y9105D01*
X222000Y9232D01*
X221034Y9105D01*
X220134Y8732D01*
X219361Y8139D01*
X218768Y7366D01*
X218395Y6466D01*
X218268Y5500D01*
X218395Y4534D01*
X218768Y3634D01*
X219361Y2861D01*
X219832Y2500D01*
X219662Y2000D01*
X200937D01*
X200745Y2500D01*
X201232Y3134D01*
X201605Y4034D01*
X201732Y5000D01*
X201605Y5966D01*
X201232Y6866D01*
X200639Y7639D01*
X199866Y8232D01*
X198966Y8605D01*
X198000Y8732D01*
X197034Y8605D01*
X196134Y8232D01*
X195361Y7639D01*
X194768Y6866D01*
X194395Y5966D01*
X194268Y5000D01*
X194395Y4034D01*
X194768Y3134D01*
X195255Y2500D01*
X195063Y2000D01*
X177437D01*
X177245Y2500D01*
X177732Y3134D01*
X178105Y4034D01*
X178232Y5000D01*
X178105Y5966D01*
X177732Y6866D01*
X177139Y7639D01*
X176366Y8232D01*
X175466Y8605D01*
X174500Y8732D01*
X173534Y8605D01*
X172634Y8232D01*
X171861Y7639D01*
X171268Y6866D01*
X170895Y5966D01*
X170768Y5000D01*
X170895Y4034D01*
X171268Y3134D01*
X171755Y2500D01*
X171563Y2000D01*
X153437D01*
X153245Y2500D01*
X153732Y3134D01*
X154105Y4034D01*
X154232Y5000D01*
X154105Y5966D01*
X153732Y6866D01*
X153139Y7639D01*
X152366Y8232D01*
X151466Y8605D01*
X150500Y8732D01*
X149534Y8605D01*
X148634Y8232D01*
X147861Y7639D01*
X147268Y6866D01*
X146895Y5966D01*
X146768Y5000D01*
X146895Y4034D01*
X147268Y3134D01*
X147755Y2500D01*
X147563Y2000D01*
X129437D01*
X129245Y2500D01*
X129732Y3134D01*
X130105Y4034D01*
X130232Y5000D01*
X130105Y5966D01*
X129732Y6866D01*
X129139Y7639D01*
X128366Y8232D01*
X127466Y8605D01*
X126500Y8732D01*
X125534Y8605D01*
X124634Y8232D01*
X123861Y7639D01*
X123268Y6866D01*
X122895Y5966D01*
X122768Y5000D01*
X122895Y4034D01*
X123268Y3134D01*
X123755Y2500D01*
X123563Y2000D01*
X105937D01*
X105745Y2500D01*
X106232Y3134D01*
X106605Y4034D01*
X106732Y5000D01*
X106605Y5966D01*
X106232Y6866D01*
X105639Y7639D01*
X104866Y8232D01*
X103966Y8605D01*
X103000Y8732D01*
X102034Y8605D01*
X101134Y8232D01*
X100361Y7639D01*
X99768Y6866D01*
X99395Y5966D01*
X99268Y5000D01*
X99395Y4034D01*
X99768Y3134D01*
X100255Y2500D01*
X100063Y2000D01*
X82437D01*
X82245Y2500D01*
X82732Y3134D01*
X83105Y4034D01*
X83232Y5000D01*
X83105Y5966D01*
X82732Y6866D01*
X82139Y7639D01*
X81366Y8232D01*
X80466Y8605D01*
X79500Y8732D01*
X78534Y8605D01*
X77634Y8232D01*
X76861Y7639D01*
X76268Y6866D01*
X75895Y5966D01*
X75768Y5000D01*
X75895Y4034D01*
X76268Y3134D01*
X76755Y2500D01*
X76563Y2000D01*
X58937D01*
X58745Y2500D01*
X59232Y3134D01*
X59605Y4034D01*
X59732Y5000D01*
X59605Y5966D01*
X59232Y6866D01*
X58639Y7639D01*
X57866Y8232D01*
X56966Y8605D01*
X56000Y8732D01*
X55034Y8605D01*
X54134Y8232D01*
X53361Y7639D01*
X52768Y6866D01*
X52395Y5966D01*
X52268Y5000D01*
X52395Y4034D01*
X52768Y3134D01*
X53255Y2500D01*
X53063Y2000D01*
X35437D01*
X35245Y2500D01*
X35732Y3134D01*
X36105Y4034D01*
X36232Y5000D01*
X36105Y5966D01*
X35732Y6866D01*
X35139Y7639D01*
X34366Y8232D01*
X33466Y8605D01*
X32500Y8732D01*
X31534Y8605D01*
X30634Y8232D01*
X29861Y7639D01*
X29268Y6866D01*
X28895Y5966D01*
X28768Y5000D01*
X28895Y4034D01*
X29268Y3134D01*
X29755Y2500D01*
X29563Y2000D01*
X15000D01*
X12205Y4795D01*
X12232Y5000D01*
X12105Y5966D01*
X11732Y6866D01*
X11139Y7639D01*
X10366Y8232D01*
X9466Y8605D01*
X8500Y8732D01*
X8295Y8705D01*
X2000Y15000D01*
Y24563D01*
X2500Y24755D01*
X3134Y24268D01*
X4034Y23895D01*
X5000Y23768D01*
X5966Y23895D01*
X6866Y24268D01*
X7639Y24861D01*
X8232Y25634D01*
X8605Y26534D01*
X8732Y27500D01*
X8605Y28466D01*
X8232Y29366D01*
X7639Y30139D01*
X6866Y30732D01*
X5966Y31105D01*
X5000Y31232D01*
X4034Y31105D01*
X3134Y30732D01*
X2500Y30245D01*
X2000Y30437D01*
Y72063D01*
X2500Y72255D01*
X3134Y71768D01*
X4034Y71395D01*
X5000Y71268D01*
X5966Y71395D01*
X6866Y71768D01*
X7639Y72361D01*
X8232Y73134D01*
X8605Y74034D01*
X8732Y75000D01*
X8605Y75966D01*
X8232Y76866D01*
X7639Y77639D01*
X6866Y78232D01*
X5966Y78605D01*
X5000Y78732D01*
X4034Y78605D01*
X3134Y78232D01*
X2500Y77745D01*
X2000Y77937D01*
Y96563D01*
X2500Y96755D01*
X3134Y96268D01*
X4034Y95895D01*
X5000Y95768D01*
X5966Y95895D01*
X6866Y96268D01*
X7639Y96861D01*
X8232Y97634D01*
X8605Y98534D01*
X8732Y99500D01*
X8605Y100466D01*
X8232Y101366D01*
X7639Y102139D01*
X6866Y102732D01*
X5966Y103105D01*
X5000Y103232D01*
X4034Y103105D01*
X3134Y102732D01*
X2500Y102245D01*
X2000Y102437D01*
Y121063D01*
X2500Y121255D01*
X3134Y120768D01*
X4034Y120395D01*
X5000Y120268D01*
X5966Y120395D01*
X6866Y120768D01*
X7639Y121361D01*
X8232Y122134D01*
X8605Y123034D01*
X8732Y124000D01*
X8605Y124966D01*
X8232Y125866D01*
X7639Y126639D01*
X6866Y127232D01*
X5966Y127605D01*
X5000Y127732D01*
X4034Y127605D01*
X3134Y127232D01*
X2500Y126745D01*
X2000Y126937D01*
Y231547D01*
X12453D01*
Y242453D01*
X2000D01*
Y260000D01*
X5048Y263810D01*
X5667Y263783D01*
X5914Y263414D01*
X6642Y262928D01*
X7000Y262856D01*
Y265000D01*
X7500D01*
Y265500D01*
X9644D01*
X9572Y265858D01*
X9086Y266586D01*
X8358Y267072D01*
X8226Y267099D01*
X8055Y267568D01*
X10000Y270000D01*
X92665D01*
X92835Y269500D01*
X92461Y269213D01*
X91792Y268341D01*
X91371Y267326D01*
X91228Y266236D01*
X91371Y265147D01*
X91792Y264132D01*
X92461Y263260D01*
X93332Y262591D01*
X94348Y262170D01*
X95437Y262027D01*
X96526Y262170D01*
X97542Y262591D01*
X98413Y263260D01*
X99082Y264132D01*
X99503Y265147D01*
X99646Y266236D01*
X99503Y267326D01*
X99082Y268341D01*
X98413Y269213D01*
X98039Y269500D01*
X98209Y270000D01*
X104476D01*
X104646Y269500D01*
X104272Y269213D01*
X103603Y268341D01*
X103182Y267326D01*
X103039Y266236D01*
X103182Y265147D01*
X103603Y264132D01*
X104272Y263260D01*
X105143Y262591D01*
X106159Y262170D01*
X107248Y262027D01*
X108337Y262170D01*
X109353Y262591D01*
X110224Y263260D01*
X110893Y264132D01*
X111314Y265147D01*
X111457Y266236D01*
X111314Y267326D01*
X110893Y268341D01*
X110224Y269213D01*
X109850Y269500D01*
X110020Y270000D01*
X278500D01*
X288000Y260500D01*
D02*
G37*
%LPC*%
G36*
X203000Y208500D02*
X201576Y208312D01*
X200250Y207763D01*
X199111Y206889D01*
X198237Y205750D01*
X197688Y204423D01*
X197500Y203000D01*
X197688Y201576D01*
X198237Y200250D01*
X199111Y199111D01*
X200193Y198281D01*
X200224Y198000D01*
X200193Y197719D01*
X199111Y196889D01*
X198237Y195750D01*
X197688Y194423D01*
X197500Y193000D01*
X197688Y191577D01*
X198237Y190250D01*
X199111Y189111D01*
X200193Y188281D01*
X200224Y188000D01*
X200193Y187719D01*
X199111Y186889D01*
X198237Y185750D01*
X197688Y184423D01*
X197500Y183000D01*
X197688Y181577D01*
X198237Y180250D01*
X199111Y179111D01*
X200193Y178281D01*
X200224Y178000D01*
X200193Y177719D01*
X199111Y176889D01*
X198237Y175750D01*
X197688Y174424D01*
X197500Y173000D01*
X197688Y171576D01*
X198237Y170250D01*
X199111Y169111D01*
X200193Y168281D01*
X200224Y168000D01*
X200193Y167719D01*
X199111Y166889D01*
X198237Y165750D01*
X197688Y164424D01*
X197500Y163000D01*
X197688Y161576D01*
X198237Y160250D01*
X199111Y159111D01*
X200193Y158281D01*
X200224Y158000D01*
X200193Y157719D01*
X199111Y156889D01*
X198237Y155750D01*
X197688Y154423D01*
X197500Y153000D01*
X197688Y151576D01*
X198237Y150250D01*
X199111Y149111D01*
X200193Y148281D01*
X200224Y148000D01*
X200193Y147719D01*
X199111Y146889D01*
X198237Y145750D01*
X197688Y144423D01*
X197500Y143000D01*
X197688Y141577D01*
X198237Y140250D01*
X199111Y139111D01*
X200193Y138281D01*
X200224Y138000D01*
X200193Y137719D01*
X199111Y136889D01*
X198237Y135750D01*
X197688Y134423D01*
X197500Y133000D01*
X197688Y131577D01*
X198237Y130250D01*
X199111Y129111D01*
X200193Y128281D01*
X200224Y128000D01*
X200193Y127719D01*
X199111Y126889D01*
X198237Y125750D01*
X197688Y124424D01*
X197500Y123000D01*
X197688Y121576D01*
X198237Y120250D01*
X199111Y119111D01*
X199352Y118926D01*
X199191Y118453D01*
X197547D01*
Y107547D01*
X208453D01*
Y118453D01*
X206809D01*
X206648Y118926D01*
X206889Y119111D01*
X207763Y120250D01*
X208312Y121576D01*
X208500Y123000D01*
X208312Y124424D01*
X207763Y125750D01*
X206889Y126889D01*
X205807Y127719D01*
X205776Y128000D01*
X205807Y128281D01*
X206889Y129111D01*
X207763Y130250D01*
X208312Y131577D01*
X208500Y133000D01*
X208312Y134423D01*
X207763Y135750D01*
X206889Y136889D01*
X205807Y137719D01*
X205776Y138000D01*
X205807Y138281D01*
X206889Y139111D01*
X207763Y140250D01*
X208312Y141577D01*
X208500Y143000D01*
X208312Y144423D01*
X207763Y145750D01*
X206889Y146889D01*
X205807Y147719D01*
X205776Y148000D01*
X205807Y148281D01*
X206889Y149111D01*
X207763Y150250D01*
X208312Y151576D01*
X208500Y153000D01*
X208312Y154423D01*
X207763Y155750D01*
X206889Y156889D01*
X205807Y157719D01*
X205776Y158000D01*
X205807Y158281D01*
X206889Y159111D01*
X207763Y160250D01*
X208312Y161576D01*
X208500Y163000D01*
X208312Y164424D01*
X207763Y165750D01*
X206889Y166889D01*
X205807Y167719D01*
X205776Y168000D01*
X205807Y168281D01*
X206889Y169111D01*
X207763Y170250D01*
X208312Y171576D01*
X208500Y173000D01*
X208312Y174424D01*
X207763Y175750D01*
X206889Y176889D01*
X205807Y177719D01*
X205776Y178000D01*
X205807Y178281D01*
X206889Y179111D01*
X207763Y180250D01*
X208312Y181577D01*
X208500Y183000D01*
X208312Y184423D01*
X207763Y185750D01*
X206889Y186889D01*
X205807Y187719D01*
X205776Y188000D01*
X205807Y188281D01*
X206889Y189111D01*
X207763Y190250D01*
X208312Y191577D01*
X208500Y193000D01*
X208312Y194423D01*
X207763Y195750D01*
X206889Y196889D01*
X205807Y197719D01*
X205776Y198000D01*
X205807Y198281D01*
X206889Y199111D01*
X207763Y200250D01*
X208312Y201576D01*
X208500Y203000D01*
X208312Y204423D01*
X207763Y205750D01*
X206889Y206889D01*
X205750Y207763D01*
X204423Y208312D01*
X203000Y208500D01*
D02*
G37*
G36*
X224000Y112500D02*
X222356D01*
X222428Y112142D01*
X222914Y111414D01*
X223642Y110928D01*
X224000Y110856D01*
Y112500D01*
D02*
G37*
G36*
X226644D02*
X225000D01*
Y110856D01*
X225358Y110928D01*
X226086Y111414D01*
X226572Y112142D01*
X226644Y112500D01*
D02*
G37*
G36*
X290500Y101644D02*
Y100000D01*
X292144D01*
X292072Y100358D01*
X291586Y101086D01*
X290858Y101572D01*
X290500Y101644D01*
D02*
G37*
G36*
X98035Y103888D02*
X97195Y103777D01*
X95946Y103260D01*
X94874Y102437D01*
X94051Y101365D01*
X93534Y100116D01*
X93423Y99276D01*
X98035D01*
Y103888D01*
D02*
G37*
G36*
X99035D02*
Y99276D01*
X103648D01*
X103537Y100116D01*
X103020Y101365D01*
X102197Y102437D01*
X101125Y103260D01*
X99876Y103777D01*
X99035Y103888D01*
D02*
G37*
G36*
X289500Y101644D02*
X289142Y101572D01*
X288414Y101086D01*
X287928Y100358D01*
X287856Y100000D01*
X289500D01*
Y101644D01*
D02*
G37*
G36*
X17102Y112516D02*
X15459D01*
X15530Y112157D01*
X16016Y111430D01*
X16744Y110943D01*
X17102Y110872D01*
Y112516D01*
D02*
G37*
G36*
Y115159D02*
X16744Y115088D01*
X16016Y114602D01*
X15530Y113874D01*
X15459Y113516D01*
X17102D01*
Y115159D01*
D02*
G37*
G36*
X18102D02*
Y113516D01*
X19746D01*
X19675Y113874D01*
X19189Y114602D01*
X18461Y115088D01*
X18102Y115159D01*
D02*
G37*
G36*
X223500Y122500D02*
X221856D01*
X221928Y122142D01*
X222414Y121414D01*
X223142Y120928D01*
X223500Y120856D01*
Y122500D01*
D02*
G37*
G36*
X225000Y115144D02*
Y113500D01*
X226644D01*
X226572Y113858D01*
X226086Y114586D01*
X225358Y115072D01*
X225000Y115144D01*
D02*
G37*
G36*
X19746Y112516D02*
X18102D01*
Y110872D01*
X18461Y110943D01*
X19189Y111430D01*
X19675Y112157D01*
X19746Y112516D01*
D02*
G37*
G36*
X82000Y122000D02*
X80576Y121812D01*
X79250Y121263D01*
X78111Y120389D01*
X77237Y119250D01*
X76688Y117923D01*
X76500Y116500D01*
X76688Y115076D01*
X77237Y113750D01*
X78111Y112611D01*
X79250Y111737D01*
X80576Y111188D01*
X82000Y111000D01*
X83424Y111188D01*
X84750Y111737D01*
X85889Y112611D01*
X86074Y112852D01*
X86547Y112691D01*
Y111047D01*
X97453D01*
Y121953D01*
X86547D01*
Y120309D01*
X86074Y120148D01*
X85889Y120389D01*
X84750Y121263D01*
X83424Y121812D01*
X82000Y122000D01*
D02*
G37*
G36*
X224000Y115144D02*
X223642Y115072D01*
X222914Y114586D01*
X222428Y113858D01*
X222356Y113500D01*
X224000D01*
Y115144D01*
D02*
G37*
G36*
X91843Y90313D02*
X90466Y90132D01*
X89184Y89601D01*
X88083Y88756D01*
X87238Y87655D01*
X87171Y87494D01*
X86671D01*
X86605Y87655D01*
X85760Y88756D01*
X84659Y89601D01*
X83376Y90132D01*
X82000Y90313D01*
X80624Y90132D01*
X79341Y89601D01*
X78240Y88756D01*
X77395Y87655D01*
X76864Y86372D01*
X76683Y84996D01*
X76864Y83620D01*
X77395Y82337D01*
X78240Y81236D01*
X79341Y80391D01*
X80624Y79860D01*
X82000Y79679D01*
X83376Y79860D01*
X84659Y80391D01*
X85760Y81236D01*
X86605Y82337D01*
X86671Y82498D01*
X87171D01*
X87238Y82337D01*
X88083Y81236D01*
X89184Y80391D01*
X90466Y79860D01*
X91843Y79679D01*
X93219Y79860D01*
X94501Y80391D01*
X95602Y81236D01*
X96447Y82337D01*
X96978Y83620D01*
X97160Y84996D01*
X96978Y86372D01*
X96447Y87655D01*
X95602Y88756D01*
X94501Y89601D01*
X93219Y90132D01*
X91843Y90313D01*
D02*
G37*
G36*
X352142Y91642D02*
X350498D01*
X350569Y91283D01*
X351056Y90556D01*
X351783Y90069D01*
X352142Y89998D01*
Y91642D01*
D02*
G37*
G36*
Y94285D02*
X351783Y94214D01*
X351056Y93728D01*
X350569Y93000D01*
X350498Y92642D01*
X352142D01*
Y94285D01*
D02*
G37*
G36*
X206846Y77297D02*
Y75653D01*
X208490D01*
X208419Y76012D01*
X207933Y76740D01*
X207205Y77226D01*
X206846Y77297D01*
D02*
G37*
G36*
X205847Y74654D02*
X204203D01*
X204274Y74295D01*
X204760Y73567D01*
X205488Y73081D01*
X205847Y73010D01*
Y74654D01*
D02*
G37*
G36*
X208490D02*
X206846D01*
Y73010D01*
X207205Y73081D01*
X207933Y73567D01*
X208419Y74295D01*
X208490Y74654D01*
D02*
G37*
G36*
X205847Y77297D02*
X205488Y77226D01*
X204760Y76740D01*
X204274Y76012D01*
X204203Y75653D01*
X205847D01*
Y77297D01*
D02*
G37*
G36*
X98035Y98276D02*
X93423D01*
X93534Y97435D01*
X94051Y96187D01*
X94874Y95114D01*
X95946Y94291D01*
X97195Y93774D01*
X98035Y93663D01*
Y98276D01*
D02*
G37*
G36*
X292144Y99000D02*
X290500D01*
Y97356D01*
X290858Y97428D01*
X291586Y97914D01*
X292072Y98642D01*
X292144Y99000D01*
D02*
G37*
G36*
X37099Y100144D02*
X36740Y100072D01*
X36012Y99586D01*
X35526Y98858D01*
X35455Y98500D01*
X37099D01*
Y100144D01*
D02*
G37*
G36*
X38098D02*
Y98500D01*
X39742D01*
X39671Y98858D01*
X39185Y99586D01*
X38457Y100072D01*
X38098Y100144D01*
D02*
G37*
G36*
X289500Y99000D02*
X287856D01*
X287928Y98642D01*
X288414Y97914D01*
X289142Y97428D01*
X289500Y97356D01*
Y99000D01*
D02*
G37*
G36*
X103648Y98276D02*
X99035D01*
Y93663D01*
X99876Y93774D01*
X101125Y94291D01*
X102197Y95114D01*
X103020Y96187D01*
X103537Y97435D01*
X103648Y98276D01*
D02*
G37*
G36*
X37099Y97500D02*
X35455D01*
X35526Y97142D01*
X36012Y96414D01*
X36740Y95928D01*
X37099Y95856D01*
Y97500D01*
D02*
G37*
G36*
X39742D02*
X38098D01*
Y95856D01*
X38457Y95928D01*
X39185Y96414D01*
X39671Y97142D01*
X39742Y97500D01*
D02*
G37*
G36*
X226144Y122500D02*
X224500D01*
Y120856D01*
X224858Y120928D01*
X225586Y121414D01*
X226072Y122142D01*
X226144Y122500D01*
D02*
G37*
G36*
X5500Y150644D02*
Y149000D01*
X7144D01*
X7072Y149358D01*
X6586Y150086D01*
X5858Y150572D01*
X5500Y150644D01*
D02*
G37*
G36*
X223500Y152500D02*
X221856D01*
X221928Y152142D01*
X222414Y151414D01*
X223142Y150928D01*
X223500Y150856D01*
Y152500D01*
D02*
G37*
G36*
X226144D02*
X224500D01*
Y150856D01*
X224858Y150928D01*
X225586Y151414D01*
X226072Y152142D01*
X226144Y152500D01*
D02*
G37*
G36*
X4500Y150644D02*
X4142Y150572D01*
X3414Y150086D01*
X2928Y149358D01*
X2856Y149000D01*
X4500D01*
Y150644D01*
D02*
G37*
G36*
X224500Y145144D02*
Y143500D01*
X226144D01*
X226072Y143858D01*
X225586Y144586D01*
X224858Y145072D01*
X224500Y145144D01*
D02*
G37*
G36*
X4500Y148000D02*
X2856D01*
X2928Y147642D01*
X3414Y146914D01*
X4142Y146428D01*
X4500Y146356D01*
Y148000D01*
D02*
G37*
G36*
X7144D02*
X5500D01*
Y146356D01*
X5858Y146428D01*
X6586Y146914D01*
X7072Y147642D01*
X7144Y148000D01*
D02*
G37*
G36*
X293000Y154000D02*
X291356D01*
X291428Y153642D01*
X291914Y152914D01*
X292642Y152428D01*
X293000Y152356D01*
Y154000D01*
D02*
G37*
G36*
X294000Y156644D02*
Y155000D01*
X295644D01*
X295572Y155358D01*
X295086Y156086D01*
X294358Y156572D01*
X294000Y156644D01*
D02*
G37*
G36*
X352142Y156858D02*
X350498D01*
X350569Y156500D01*
X351056Y155772D01*
X351783Y155286D01*
X352142Y155215D01*
Y156858D01*
D02*
G37*
G36*
Y159502D02*
X351783Y159431D01*
X351056Y158944D01*
X350569Y158217D01*
X350498Y157858D01*
X352142D01*
Y159502D01*
D02*
G37*
G36*
X293000Y156644D02*
X292642Y156572D01*
X291914Y156086D01*
X291428Y155358D01*
X291356Y155000D01*
X293000D01*
Y156644D01*
D02*
G37*
G36*
X295644Y154000D02*
X294000D01*
Y152356D01*
X294358Y152428D01*
X295086Y152914D01*
X295572Y153642D01*
X295644Y154000D01*
D02*
G37*
G36*
X223500Y155144D02*
X223142Y155072D01*
X222414Y154586D01*
X221928Y153858D01*
X221856Y153500D01*
X223500D01*
Y155144D01*
D02*
G37*
G36*
X224500D02*
Y153500D01*
X226144D01*
X226072Y153858D01*
X225586Y154586D01*
X224858Y155072D01*
X224500Y155144D01*
D02*
G37*
G36*
X223500Y135144D02*
X223142Y135072D01*
X222414Y134586D01*
X221928Y133858D01*
X221856Y133500D01*
X223500D01*
Y135144D01*
D02*
G37*
G36*
X224500D02*
Y133500D01*
X226144D01*
X226072Y133858D01*
X225586Y134586D01*
X224858Y135072D01*
X224500Y135144D01*
D02*
G37*
G36*
X104500Y137000D02*
X102856D01*
X102928Y136642D01*
X103414Y135914D01*
X104142Y135428D01*
X104500Y135356D01*
Y137000D01*
D02*
G37*
G36*
X226144Y132500D02*
X224500D01*
Y130856D01*
X224858Y130928D01*
X225586Y131414D01*
X226072Y132142D01*
X226144Y132500D01*
D02*
G37*
G36*
X223500Y125144D02*
X223142Y125072D01*
X222414Y124586D01*
X221928Y123858D01*
X221856Y123500D01*
X223500D01*
Y125144D01*
D02*
G37*
G36*
X224500D02*
Y123500D01*
X226144D01*
X226072Y123858D01*
X225586Y124586D01*
X224858Y125072D01*
X224500Y125144D01*
D02*
G37*
G36*
X223500Y132500D02*
X221856D01*
X221928Y132142D01*
X222414Y131414D01*
X223142Y130928D01*
X223500Y130856D01*
Y132500D01*
D02*
G37*
G36*
X107144Y137000D02*
X105500D01*
Y135356D01*
X105858Y135428D01*
X106586Y135914D01*
X107072Y136642D01*
X107144Y137000D01*
D02*
G37*
G36*
X191453Y161953D02*
X180547D01*
Y151047D01*
X182191D01*
X182352Y150574D01*
X182111Y150389D01*
X181237Y149250D01*
X180688Y147924D01*
X180500Y146500D01*
X180688Y145077D01*
X181237Y143750D01*
X182111Y142611D01*
X183250Y141737D01*
X184576Y141188D01*
X186000Y141000D01*
X187424Y141188D01*
X188750Y141737D01*
X189889Y142611D01*
X190763Y143750D01*
X191312Y145077D01*
X191500Y146500D01*
X191312Y147924D01*
X190763Y149250D01*
X189889Y150389D01*
X189648Y150574D01*
X189809Y151047D01*
X191453D01*
Y161953D01*
D02*
G37*
G36*
X167500Y162500D02*
X166077Y162312D01*
X164750Y161763D01*
X163611Y160889D01*
X162737Y159750D01*
X162188Y158423D01*
X162000Y157000D01*
X162188Y155577D01*
X162737Y154250D01*
X163611Y153111D01*
X163852Y152926D01*
X163691Y152453D01*
X162047D01*
Y141547D01*
X172953D01*
Y152453D01*
X171309D01*
X171148Y152926D01*
X171389Y153111D01*
X172263Y154250D01*
X172812Y155577D01*
X173000Y157000D01*
X172812Y158423D01*
X172263Y159750D01*
X171389Y160889D01*
X170250Y161763D01*
X168923Y162312D01*
X167500Y162500D01*
D02*
G37*
G36*
X223500Y145144D02*
X223142Y145072D01*
X222414Y144586D01*
X221928Y143858D01*
X221856Y143500D01*
X223500D01*
Y145144D01*
D02*
G37*
G36*
X226144Y142500D02*
X224500D01*
Y140856D01*
X224858Y140928D01*
X225586Y141414D01*
X226072Y142142D01*
X226144Y142500D01*
D02*
G37*
G36*
X104500Y139644D02*
X104142Y139572D01*
X103414Y139086D01*
X102928Y138358D01*
X102856Y138000D01*
X104500D01*
Y139644D01*
D02*
G37*
G36*
X105500D02*
Y138000D01*
X107144D01*
X107072Y138358D01*
X106586Y139086D01*
X105858Y139572D01*
X105500Y139644D01*
D02*
G37*
G36*
X223500Y142500D02*
X221856D01*
X221928Y142142D01*
X222414Y141414D01*
X223142Y140928D01*
X223500Y140856D01*
Y142500D01*
D02*
G37*
G36*
X82500Y72986D02*
Y69748D01*
X85738D01*
X85675Y70233D01*
X85295Y71150D01*
X84690Y71938D01*
X83902Y72543D01*
X82985Y72923D01*
X82500Y72986D01*
D02*
G37*
G36*
X169644Y41012D02*
X168000D01*
Y39368D01*
X168358Y39439D01*
X169086Y39925D01*
X169572Y40653D01*
X169644Y41012D01*
D02*
G37*
G36*
X73626Y44833D02*
X72786Y44722D01*
X71537Y44205D01*
X70464Y43382D01*
X69642Y42310D01*
X69124Y41061D01*
X69014Y40220D01*
X73626D01*
Y44833D01*
D02*
G37*
G36*
X74626D02*
Y40220D01*
X79238D01*
X79128Y41061D01*
X78610Y42310D01*
X77788Y43382D01*
X76715Y44205D01*
X75466Y44722D01*
X74626Y44833D01*
D02*
G37*
G36*
X167000Y41012D02*
X165356D01*
X165428Y40653D01*
X165914Y39925D01*
X166642Y39439D01*
X167000Y39368D01*
Y41012D01*
D02*
G37*
G36*
X189144Y37000D02*
X187500D01*
Y35356D01*
X187858Y35428D01*
X188586Y35914D01*
X189072Y36642D01*
X189144Y37000D01*
D02*
G37*
G36*
X186500Y39644D02*
X186142Y39572D01*
X185414Y39086D01*
X184928Y38358D01*
X184856Y38000D01*
X186500D01*
Y39644D01*
D02*
G37*
G36*
X187500D02*
Y38000D01*
X189144D01*
X189072Y38358D01*
X188586Y39086D01*
X187858Y39572D01*
X187500Y39644D01*
D02*
G37*
G36*
X167000Y43655D02*
X166642Y43584D01*
X165914Y43098D01*
X165428Y42370D01*
X165356Y42011D01*
X167000D01*
Y43655D01*
D02*
G37*
G36*
X124500Y48155D02*
Y46512D01*
X126144D01*
X126072Y46870D01*
X125586Y47598D01*
X124858Y48084D01*
X124500Y48155D01*
D02*
G37*
G36*
X97114Y58772D02*
X86571D01*
Y48228D01*
X97114D01*
Y58772D01*
D02*
G37*
G36*
X4500Y50500D02*
X2856D01*
X2928Y50142D01*
X3414Y49414D01*
X4142Y48928D01*
X4500Y48856D01*
Y50500D01*
D02*
G37*
G36*
X123500Y48155D02*
X123142Y48084D01*
X122414Y47598D01*
X121928Y46870D01*
X121856Y46512D01*
X123500D01*
Y48155D01*
D02*
G37*
G36*
X168000Y43655D02*
Y42011D01*
X169644D01*
X169572Y42370D01*
X169086Y43098D01*
X168358Y43584D01*
X168000Y43655D01*
D02*
G37*
G36*
X123500Y45511D02*
X121856D01*
X121928Y45153D01*
X122414Y44425D01*
X123142Y43939D01*
X123500Y43868D01*
Y45511D01*
D02*
G37*
G36*
X126144D02*
X124500D01*
Y43868D01*
X124858Y43939D01*
X125586Y44425D01*
X126072Y45153D01*
X126144Y45511D01*
D02*
G37*
G36*
X9988Y22165D02*
X8344D01*
X8416Y21807D01*
X8902Y21079D01*
X9630Y20593D01*
X9988Y20522D01*
Y22165D01*
D02*
G37*
G36*
X12632D02*
X10988D01*
Y20522D01*
X11347Y20593D01*
X12074Y21079D01*
X12561Y21807D01*
X12632Y22165D01*
D02*
G37*
G36*
X9988Y24809D02*
X9630Y24738D01*
X8902Y24251D01*
X8416Y23524D01*
X8344Y23165D01*
X9988D01*
Y24809D01*
D02*
G37*
G36*
X270500Y7644D02*
Y6000D01*
X272144D01*
X272072Y6358D01*
X271586Y7086D01*
X270858Y7572D01*
X270500Y7644D01*
D02*
G37*
G36*
X269500Y5000D02*
X267856D01*
X267928Y4642D01*
X268414Y3914D01*
X269142Y3428D01*
X269500Y3356D01*
Y5000D01*
D02*
G37*
G36*
X272144D02*
X270500D01*
Y3356D01*
X270858Y3428D01*
X271586Y3914D01*
X272072Y4642D01*
X272144Y5000D01*
D02*
G37*
G36*
X269500Y7644D02*
X269142Y7572D01*
X268414Y7086D01*
X267928Y6358D01*
X267856Y6000D01*
X269500D01*
Y7644D01*
D02*
G37*
G36*
X10988Y24809D02*
Y23165D01*
X12632D01*
X12561Y23524D01*
X12074Y24251D01*
X11347Y24738D01*
X10988Y24809D01*
D02*
G37*
G36*
X73626Y39220D02*
X69014D01*
X69124Y38380D01*
X69642Y37131D01*
X70464Y36059D01*
X71537Y35236D01*
X72786Y34719D01*
X73626Y34608D01*
Y39220D01*
D02*
G37*
G36*
X79238D02*
X74626D01*
Y34608D01*
X75466Y34719D01*
X76715Y35236D01*
X77788Y36059D01*
X78610Y37131D01*
X79128Y38380D01*
X79238Y39220D01*
D02*
G37*
G36*
X186500Y37000D02*
X184856D01*
X184928Y36642D01*
X185414Y35914D01*
X186142Y35428D01*
X186500Y35356D01*
Y37000D01*
D02*
G37*
G36*
X199500Y33144D02*
Y31500D01*
X201144D01*
X201072Y31858D01*
X200586Y32586D01*
X199858Y33072D01*
X199500Y33144D01*
D02*
G37*
G36*
X198500Y30500D02*
X196856D01*
X196928Y30142D01*
X197414Y29414D01*
X198142Y28928D01*
X198500Y28856D01*
Y30500D01*
D02*
G37*
G36*
X201144D02*
X199500D01*
Y28856D01*
X199858Y28928D01*
X200586Y29414D01*
X201072Y30142D01*
X201144Y30500D01*
D02*
G37*
G36*
X198500Y33144D02*
X198142Y33072D01*
X197414Y32586D01*
X196928Y31858D01*
X196856Y31500D01*
X198500D01*
Y33144D01*
D02*
G37*
G36*
X7144Y50500D02*
X5500D01*
Y48856D01*
X5858Y48928D01*
X6586Y49414D01*
X7072Y50142D01*
X7144Y50500D01*
D02*
G37*
G36*
X82500Y57238D02*
Y54000D01*
X85738D01*
X85675Y54485D01*
X85295Y55402D01*
X84690Y56190D01*
X83902Y56795D01*
X82985Y57175D01*
X82500Y57238D01*
D02*
G37*
G36*
X205744Y58144D02*
X205386Y58072D01*
X204658Y57586D01*
X204172Y56858D01*
X204100Y56500D01*
X205744D01*
Y58144D01*
D02*
G37*
G36*
X206744D02*
Y56500D01*
X208388D01*
X208316Y56858D01*
X207830Y57586D01*
X207102Y58072D01*
X206744Y58144D01*
D02*
G37*
G36*
X81500Y57238D02*
X81015Y57175D01*
X80098Y56795D01*
X79310Y56190D01*
X78706Y55402D01*
X78325Y54485D01*
X78262Y54000D01*
X81500D01*
Y57238D01*
D02*
G37*
G36*
X124512Y53155D02*
Y51512D01*
X126155D01*
X126084Y51870D01*
X125598Y52598D01*
X124870Y53084D01*
X124512Y53155D01*
D02*
G37*
G36*
X205744Y55500D02*
X204100D01*
X204172Y55142D01*
X204658Y54414D01*
X205386Y53928D01*
X205744Y53856D01*
Y55500D01*
D02*
G37*
G36*
X208388D02*
X206744D01*
Y53856D01*
X207102Y53928D01*
X207830Y54414D01*
X208316Y55142D01*
X208388Y55500D01*
D02*
G37*
G36*
X179500Y64500D02*
X177856D01*
X177928Y64142D01*
X178414Y63414D01*
X179142Y62928D01*
X179500Y62856D01*
Y64500D01*
D02*
G37*
G36*
X81500Y68748D02*
X78262D01*
X78325Y68263D01*
X78706Y67346D01*
X79310Y66558D01*
X80098Y65953D01*
X81015Y65574D01*
X81500Y65510D01*
Y68748D01*
D02*
G37*
G36*
X85738D02*
X82500D01*
Y65510D01*
X82985Y65574D01*
X83902Y65953D01*
X84690Y66558D01*
X85295Y67346D01*
X85675Y68263D01*
X85738Y68748D01*
D02*
G37*
G36*
X81500Y72986D02*
X81015Y72923D01*
X80098Y72543D01*
X79310Y71938D01*
X78706Y71150D01*
X78325Y70233D01*
X78262Y69748D01*
X81500D01*
Y72986D01*
D02*
G37*
G36*
X180500Y67144D02*
Y65500D01*
X182144D01*
X182072Y65858D01*
X181586Y66586D01*
X180858Y67072D01*
X180500Y67144D01*
D02*
G37*
G36*
X182144Y64500D02*
X180500D01*
Y62856D01*
X180858Y62928D01*
X181586Y63414D01*
X182072Y64142D01*
X182144Y64500D01*
D02*
G37*
G36*
X91843Y74565D02*
X90466Y74384D01*
X89184Y73853D01*
X88083Y73008D01*
X87238Y71907D01*
X86707Y70624D01*
X86525Y69248D01*
X86707Y67872D01*
X87238Y66589D01*
X88083Y65488D01*
X89184Y64643D01*
X90466Y64112D01*
X91843Y63931D01*
X93219Y64112D01*
X94501Y64643D01*
X95602Y65488D01*
X96447Y66589D01*
X96978Y67872D01*
X97160Y69248D01*
X96978Y70624D01*
X96447Y71907D01*
X95602Y73008D01*
X94501Y73853D01*
X93219Y74384D01*
X91843Y74565D01*
D02*
G37*
G36*
X179500Y67144D02*
X179142Y67072D01*
X178414Y66586D01*
X177928Y65858D01*
X177856Y65500D01*
X179500D01*
Y67144D01*
D02*
G37*
G36*
X123512Y50511D02*
X121868D01*
X121939Y50153D01*
X122425Y49425D01*
X123153Y48939D01*
X123512Y48868D01*
Y50511D01*
D02*
G37*
G36*
X126155D02*
X124512D01*
Y48868D01*
X124870Y48939D01*
X125598Y49425D01*
X126084Y50153D01*
X126155Y50511D01*
D02*
G37*
G36*
X81500Y53000D02*
X78262D01*
X78325Y52515D01*
X78706Y51598D01*
X79310Y50810D01*
X80098Y50205D01*
X81015Y49825D01*
X81500Y49762D01*
Y53000D01*
D02*
G37*
G36*
X175644Y50500D02*
X174000D01*
Y48856D01*
X174358Y48928D01*
X175086Y49414D01*
X175572Y50142D01*
X175644Y50500D01*
D02*
G37*
G36*
X114020D02*
X112376D01*
X112448Y50142D01*
X112934Y49414D01*
X113662Y48928D01*
X114020Y48856D01*
Y50500D01*
D02*
G37*
G36*
X116664D02*
X115020D01*
Y48856D01*
X115378Y48928D01*
X116106Y49414D01*
X116592Y50142D01*
X116664Y50500D01*
D02*
G37*
G36*
X173000D02*
X171356D01*
X171428Y50142D01*
X171914Y49414D01*
X172642Y48928D01*
X173000Y48856D01*
Y50500D01*
D02*
G37*
G36*
X85738Y53000D02*
X82500D01*
Y49762D01*
X82985Y49825D01*
X83902Y50205D01*
X84690Y50810D01*
X85295Y51598D01*
X85675Y52515D01*
X85738Y53000D01*
D02*
G37*
G36*
X173000Y53144D02*
X172642Y53072D01*
X171914Y52586D01*
X171428Y51858D01*
X171356Y51500D01*
X173000D01*
Y53144D01*
D02*
G37*
G36*
X174000D02*
Y51500D01*
X175644D01*
X175572Y51858D01*
X175086Y52586D01*
X174358Y53072D01*
X174000Y53144D01*
D02*
G37*
G36*
X123512Y53155D02*
X123153Y53084D01*
X122425Y52598D01*
X121939Y51870D01*
X121868Y51512D01*
X123512D01*
Y53155D01*
D02*
G37*
G36*
X115020Y53144D02*
Y51500D01*
X116664D01*
X116592Y51858D01*
X116106Y52586D01*
X115378Y53072D01*
X115020Y53144D01*
D02*
G37*
G36*
X4500D02*
X4142Y53072D01*
X3414Y52586D01*
X2928Y51858D01*
X2856Y51500D01*
X4500D01*
Y53144D01*
D02*
G37*
G36*
X5500D02*
Y51500D01*
X7144D01*
X7072Y51858D01*
X6586Y52586D01*
X5858Y53072D01*
X5500Y53144D01*
D02*
G37*
G36*
X114020D02*
X113662Y53072D01*
X112934Y52586D01*
X112448Y51858D01*
X112376Y51500D01*
X114020D01*
Y53144D01*
D02*
G37*
G36*
X307500Y212144D02*
Y210500D01*
X309144D01*
X309072Y210858D01*
X308586Y211586D01*
X307858Y212072D01*
X307500Y212144D01*
D02*
G37*
G36*
X326500D02*
X326142Y212072D01*
X325414Y211586D01*
X324928Y210858D01*
X324856Y210500D01*
X326500D01*
Y212144D01*
D02*
G37*
G36*
X327500D02*
Y210500D01*
X329144D01*
X329072Y210858D01*
X328586Y211586D01*
X327858Y212072D01*
X327500Y212144D01*
D02*
G37*
G36*
X306500D02*
X306142Y212072D01*
X305414Y211586D01*
X304928Y210858D01*
X304856Y210500D01*
X306500D01*
Y212144D01*
D02*
G37*
G36*
X115500Y210644D02*
Y209000D01*
X117144D01*
X117072Y209358D01*
X116586Y210086D01*
X115858Y210572D01*
X115500Y210644D01*
D02*
G37*
G36*
X95012Y211156D02*
X94653Y211084D01*
X93926Y210598D01*
X93440Y209870D01*
X93368Y209512D01*
X95012D01*
Y211156D01*
D02*
G37*
G36*
X96012D02*
Y209512D01*
X97655D01*
X97584Y209870D01*
X97098Y210598D01*
X96370Y211084D01*
X96012Y211156D01*
D02*
G37*
G36*
X83012Y212988D02*
X81368D01*
X81440Y212630D01*
X81926Y211902D01*
X82653Y211416D01*
X83012Y211345D01*
Y212988D01*
D02*
G37*
G36*
X66644Y221500D02*
X65000D01*
Y219856D01*
X65358Y219928D01*
X66086Y220414D01*
X66572Y221142D01*
X66644Y221500D01*
D02*
G37*
G36*
X64000Y224144D02*
X63642Y224072D01*
X62914Y223586D01*
X62428Y222858D01*
X62356Y222500D01*
X64000D01*
Y224144D01*
D02*
G37*
G36*
X65000D02*
Y222500D01*
X66644D01*
X66572Y222858D01*
X66086Y223586D01*
X65358Y224072D01*
X65000Y224144D01*
D02*
G37*
G36*
X64000Y221500D02*
X62356D01*
X62428Y221142D01*
X62914Y220414D01*
X63642Y219928D01*
X64000Y219856D01*
Y221500D01*
D02*
G37*
G36*
X85655Y212988D02*
X84012D01*
Y211345D01*
X84370Y211416D01*
X85098Y211902D01*
X85584Y212630D01*
X85655Y212988D01*
D02*
G37*
G36*
X83012Y215632D02*
X82653Y215561D01*
X81926Y215074D01*
X81440Y214347D01*
X81368Y213988D01*
X83012D01*
Y215632D01*
D02*
G37*
G36*
X84012D02*
Y213988D01*
X85655D01*
X85584Y214347D01*
X85098Y215074D01*
X84370Y215561D01*
X84012Y215632D01*
D02*
G37*
G36*
X95012Y208512D02*
X93368D01*
X93440Y208153D01*
X93926Y207426D01*
X94653Y206940D01*
X95012Y206868D01*
Y208512D01*
D02*
G37*
G36*
X97655D02*
X96012D01*
Y206868D01*
X96370Y206940D01*
X97098Y207426D01*
X97584Y208153D01*
X97655Y208512D01*
D02*
G37*
G36*
X346500Y208644D02*
X346142Y208572D01*
X345414Y208086D01*
X344928Y207358D01*
X344856Y207000D01*
X346500D01*
Y208644D01*
D02*
G37*
G36*
X117144Y208000D02*
X115500D01*
Y206356D01*
X115858Y206428D01*
X116586Y206914D01*
X117072Y207642D01*
X117144Y208000D01*
D02*
G37*
G36*
X245000Y207000D02*
X243356D01*
X243428Y206642D01*
X243914Y205914D01*
X244642Y205428D01*
X245000Y205356D01*
Y207000D01*
D02*
G37*
G36*
X247644D02*
X246000D01*
Y205356D01*
X246358Y205428D01*
X247086Y205914D01*
X247572Y206642D01*
X247644Y207000D01*
D02*
G37*
G36*
X114500Y208000D02*
X112856D01*
X112928Y207642D01*
X113414Y206914D01*
X114142Y206428D01*
X114500Y206356D01*
Y208000D01*
D02*
G37*
G36*
X347500Y208644D02*
Y207000D01*
X349144D01*
X349072Y207358D01*
X348586Y208086D01*
X347858Y208572D01*
X347500Y208644D01*
D02*
G37*
G36*
X245000Y209644D02*
X244642Y209572D01*
X243914Y209086D01*
X243428Y208358D01*
X243356Y208000D01*
X245000D01*
Y209644D01*
D02*
G37*
G36*
X246000D02*
Y208000D01*
X247644D01*
X247572Y208358D01*
X247086Y209086D01*
X246358Y209572D01*
X246000Y209644D01*
D02*
G37*
G36*
X114500Y210644D02*
X114142Y210572D01*
X113414Y210086D01*
X112928Y209358D01*
X112856Y209000D01*
X114500D01*
Y210644D01*
D02*
G37*
G36*
X329144Y209500D02*
X327500D01*
Y207856D01*
X327858Y207928D01*
X328586Y208414D01*
X329072Y209142D01*
X329144Y209500D01*
D02*
G37*
G36*
X306500D02*
X304856D01*
X304928Y209142D01*
X305414Y208414D01*
X306142Y207928D01*
X306500Y207856D01*
Y209500D01*
D02*
G37*
G36*
X309144D02*
X307500D01*
Y207856D01*
X307858Y207928D01*
X308586Y208414D01*
X309072Y209142D01*
X309144Y209500D01*
D02*
G37*
G36*
X326500D02*
X324856D01*
X324928Y209142D01*
X325414Y208414D01*
X326142Y207928D01*
X326500Y207856D01*
Y209500D01*
D02*
G37*
G36*
X6500Y226500D02*
X3079D01*
X3149Y225968D01*
X3547Y225007D01*
X4181Y224181D01*
X5007Y223547D01*
X5968Y223149D01*
X6500Y223079D01*
Y226500D01*
D02*
G37*
G36*
X223388Y248244D02*
X221744D01*
Y246601D01*
X222102Y246672D01*
X222830Y247158D01*
X223316Y247886D01*
X223388Y248244D01*
D02*
G37*
G36*
X40500Y248644D02*
X40142Y248572D01*
X39414Y248086D01*
X38928Y247358D01*
X38856Y247000D01*
X40500D01*
Y248644D01*
D02*
G37*
G36*
X41500D02*
Y247000D01*
X43144D01*
X43072Y247358D01*
X42586Y248086D01*
X41858Y248572D01*
X41500Y248644D01*
D02*
G37*
G36*
X220744Y248244D02*
X219100D01*
X219172Y247886D01*
X219658Y247158D01*
X220386Y246672D01*
X220744Y246601D01*
Y248244D01*
D02*
G37*
G36*
X43144Y246000D02*
X41500D01*
Y244356D01*
X41858Y244428D01*
X42586Y244914D01*
X43072Y245642D01*
X43144Y246000D01*
D02*
G37*
G36*
X89744Y246888D02*
X89386Y246816D01*
X88658Y246330D01*
X88172Y245602D01*
X88100Y245244D01*
X89744D01*
Y246888D01*
D02*
G37*
G36*
X90744D02*
Y245244D01*
X92388D01*
X92316Y245602D01*
X91830Y246330D01*
X91102Y246816D01*
X90744Y246888D01*
D02*
G37*
G36*
X220744Y250888D02*
X220386Y250816D01*
X219658Y250330D01*
X219172Y249603D01*
X219100Y249244D01*
X220744D01*
Y250888D01*
D02*
G37*
G36*
X207000Y268732D02*
X206034Y268605D01*
X205134Y268232D01*
X204361Y267639D01*
X203768Y266866D01*
X203395Y265966D01*
X203268Y265000D01*
X203395Y264034D01*
X203768Y263134D01*
X204361Y262361D01*
X205134Y261768D01*
X206034Y261395D01*
X207000Y261268D01*
X207966Y261395D01*
X208866Y261768D01*
X209639Y262361D01*
X210232Y263134D01*
X210605Y264034D01*
X210732Y265000D01*
X210605Y265966D01*
X210232Y266866D01*
X209639Y267639D01*
X208866Y268232D01*
X207966Y268605D01*
X207000Y268732D01*
D02*
G37*
G36*
X230500D02*
X229534Y268605D01*
X228634Y268232D01*
X227861Y267639D01*
X227268Y266866D01*
X226895Y265966D01*
X226768Y265000D01*
X226895Y264034D01*
X227268Y263134D01*
X227861Y262361D01*
X228634Y261768D01*
X229534Y261395D01*
X230500Y261268D01*
X231466Y261395D01*
X232366Y261768D01*
X233139Y262361D01*
X233732Y263134D01*
X234105Y264034D01*
X234232Y265000D01*
X234105Y265966D01*
X233732Y266866D01*
X233139Y267639D01*
X232366Y268232D01*
X231466Y268605D01*
X230500Y268732D01*
D02*
G37*
G36*
X9644Y264500D02*
X8000D01*
Y262856D01*
X8358Y262928D01*
X9086Y263414D01*
X9572Y264142D01*
X9644Y264500D01*
D02*
G37*
G36*
X183000Y268732D02*
X182034Y268605D01*
X181134Y268232D01*
X180361Y267639D01*
X179768Y266866D01*
X179395Y265966D01*
X179268Y265000D01*
X179395Y264034D01*
X179768Y263134D01*
X180361Y262361D01*
X181134Y261768D01*
X182034Y261395D01*
X183000Y261268D01*
X183966Y261395D01*
X184866Y261768D01*
X185639Y262361D01*
X186232Y263134D01*
X186605Y264034D01*
X186732Y265000D01*
X186605Y265966D01*
X186232Y266866D01*
X185639Y267639D01*
X184866Y268232D01*
X183966Y268605D01*
X183000Y268732D01*
D02*
G37*
G36*
X221744Y250888D02*
Y249244D01*
X223388D01*
X223316Y249603D01*
X222830Y250330D01*
X222102Y250816D01*
X221744Y250888D01*
D02*
G37*
G36*
X135000Y268732D02*
X134034Y268605D01*
X133134Y268232D01*
X132361Y267639D01*
X131768Y266866D01*
X131395Y265966D01*
X131268Y265000D01*
X131395Y264034D01*
X131768Y263134D01*
X132361Y262361D01*
X133134Y261768D01*
X134034Y261395D01*
X135000Y261268D01*
X135966Y261395D01*
X136866Y261768D01*
X137639Y262361D01*
X138232Y263134D01*
X138605Y264034D01*
X138732Y265000D01*
X138605Y265966D01*
X138232Y266866D01*
X137639Y267639D01*
X136866Y268232D01*
X135966Y268605D01*
X135000Y268732D01*
D02*
G37*
G36*
X159000D02*
X158034Y268605D01*
X157134Y268232D01*
X156361Y267639D01*
X155768Y266866D01*
X155395Y265966D01*
X155268Y265000D01*
X155395Y264034D01*
X155768Y263134D01*
X156361Y262361D01*
X157134Y261768D01*
X158034Y261395D01*
X159000Y261268D01*
X159966Y261395D01*
X160866Y261768D01*
X161639Y262361D01*
X162232Y263134D01*
X162605Y264034D01*
X162732Y265000D01*
X162605Y265966D01*
X162232Y266866D01*
X161639Y267639D01*
X160866Y268232D01*
X159966Y268605D01*
X159000Y268732D01*
D02*
G37*
G36*
X21144Y226500D02*
X19500D01*
Y224856D01*
X19858Y224928D01*
X20586Y225414D01*
X21072Y226142D01*
X21144Y226500D01*
D02*
G37*
G36*
X282000Y227000D02*
X280576Y226812D01*
X279250Y226263D01*
X278111Y225389D01*
X277926Y225148D01*
X277453Y225309D01*
Y226953D01*
X266547D01*
Y216047D01*
X277453D01*
Y217691D01*
X277926Y217852D01*
X278111Y217611D01*
X279250Y216737D01*
X280576Y216188D01*
X282000Y216000D01*
X283423Y216188D01*
X284750Y216737D01*
X285889Y217611D01*
X286763Y218750D01*
X287312Y220076D01*
X287500Y221500D01*
X287312Y222923D01*
X286763Y224250D01*
X285889Y225389D01*
X284750Y226263D01*
X283423Y226812D01*
X282000Y227000D01*
D02*
G37*
G36*
X55744Y228144D02*
X55386Y228072D01*
X54658Y227586D01*
X54172Y226858D01*
X54101Y226500D01*
X55744D01*
Y228144D01*
D02*
G37*
G36*
X18500Y226500D02*
X16856D01*
X16928Y226142D01*
X17414Y225414D01*
X18142Y224928D01*
X18500Y224856D01*
Y226500D01*
D02*
G37*
G36*
X10921D02*
X7500D01*
Y223079D01*
X8032Y223149D01*
X8993Y223547D01*
X9819Y224181D01*
X10453Y225007D01*
X10851Y225968D01*
X10921Y226500D01*
D02*
G37*
G36*
X55744Y225500D02*
X54101D01*
X54172Y225142D01*
X54658Y224414D01*
X55386Y223928D01*
X55744Y223856D01*
Y225500D01*
D02*
G37*
G36*
X58388D02*
X56744D01*
Y223856D01*
X57103Y223928D01*
X57830Y224414D01*
X58316Y225142D01*
X58388Y225500D01*
D02*
G37*
G36*
X56744Y228144D02*
Y226500D01*
X58388D01*
X58316Y226858D01*
X57830Y227586D01*
X57103Y228072D01*
X56744Y228144D01*
D02*
G37*
G36*
X89744Y244244D02*
X88100D01*
X88172Y243886D01*
X88658Y243158D01*
X89386Y242672D01*
X89744Y242600D01*
Y244244D01*
D02*
G37*
G36*
X92388D02*
X90744D01*
Y242600D01*
X91102Y242672D01*
X91830Y243158D01*
X92316Y243886D01*
X92388Y244244D01*
D02*
G37*
G36*
X40500Y246000D02*
X38856D01*
X38928Y245642D01*
X39414Y244914D01*
X40142Y244428D01*
X40500Y244356D01*
Y246000D01*
D02*
G37*
G36*
X7500Y230921D02*
Y227500D01*
X10921D01*
X10851Y228032D01*
X10453Y228993D01*
X9819Y229819D01*
X8993Y230453D01*
X8032Y230851D01*
X7500Y230921D01*
D02*
G37*
G36*
X6500D02*
X5968Y230851D01*
X5007Y230453D01*
X4181Y229819D01*
X3547Y228993D01*
X3149Y228032D01*
X3079Y227500D01*
X6500D01*
Y230921D01*
D02*
G37*
G36*
X18500Y229144D02*
X18142Y229072D01*
X17414Y228586D01*
X16928Y227858D01*
X16856Y227500D01*
X18500D01*
Y229144D01*
D02*
G37*
G36*
X19500D02*
Y227500D01*
X21144D01*
X21072Y227858D01*
X20586Y228586D01*
X19858Y229072D01*
X19500Y229144D01*
D02*
G37*
G36*
X349144Y206000D02*
X347500D01*
Y204356D01*
X347858Y204428D01*
X348586Y204914D01*
X349072Y205642D01*
X349144Y206000D01*
D02*
G37*
G36*
X70953Y183191D02*
Y181547D01*
X72596D01*
X72525Y181906D01*
X72039Y182633D01*
X71311Y183120D01*
X70953Y183191D01*
D02*
G37*
G36*
X59500Y183244D02*
X57856D01*
X57928Y182886D01*
X58414Y182158D01*
X59142Y181672D01*
X59500Y181600D01*
Y183244D01*
D02*
G37*
G36*
X62144D02*
X60500D01*
Y181600D01*
X60858Y181672D01*
X61586Y182158D01*
X62072Y182886D01*
X62144Y183244D01*
D02*
G37*
G36*
X69953Y183191D02*
X69594Y183120D01*
X68867Y182633D01*
X68380Y181906D01*
X68309Y181547D01*
X69953D01*
Y183191D01*
D02*
G37*
G36*
X132644Y182000D02*
X131000D01*
Y180356D01*
X131358Y180428D01*
X132086Y180914D01*
X132572Y181642D01*
X132644Y182000D01*
D02*
G37*
G36*
X223500Y182500D02*
X221856D01*
X221928Y182142D01*
X222414Y181414D01*
X223142Y180928D01*
X223500Y180856D01*
Y182500D01*
D02*
G37*
G36*
X226144D02*
X224500D01*
Y180856D01*
X224858Y180928D01*
X225586Y181414D01*
X226072Y182142D01*
X226144Y182500D01*
D02*
G37*
G36*
X130000Y184644D02*
X129642Y184572D01*
X128914Y184086D01*
X128428Y183358D01*
X128356Y183000D01*
X130000D01*
Y184644D01*
D02*
G37*
G36*
X60500Y185888D02*
Y184244D01*
X62144D01*
X62072Y184602D01*
X61586Y185330D01*
X60858Y185817D01*
X60500Y185888D01*
D02*
G37*
G36*
X51256Y190244D02*
X49612D01*
X49684Y189886D01*
X50170Y189158D01*
X50898Y188672D01*
X51256Y188601D01*
Y190244D01*
D02*
G37*
G36*
X53900D02*
X52256D01*
Y188601D01*
X52614Y188672D01*
X53342Y189158D01*
X53828Y189886D01*
X53900Y190244D01*
D02*
G37*
G36*
X59500Y185888D02*
X59142Y185817D01*
X58414Y185330D01*
X57928Y184602D01*
X57856Y184244D01*
X59500D01*
Y185888D01*
D02*
G37*
G36*
X131000Y184644D02*
Y183000D01*
X132644D01*
X132572Y183358D01*
X132086Y184086D01*
X131358Y184572D01*
X131000Y184644D01*
D02*
G37*
G36*
X223500Y185144D02*
X223142Y185072D01*
X222414Y184586D01*
X221928Y183858D01*
X221856Y183500D01*
X223500D01*
Y185144D01*
D02*
G37*
G36*
X224500D02*
Y183500D01*
X226144D01*
X226072Y183858D01*
X225586Y184586D01*
X224858Y185072D01*
X224500Y185144D01*
D02*
G37*
G36*
X4500Y172000D02*
X2856D01*
X2928Y171642D01*
X3414Y170914D01*
X4142Y170428D01*
X4500Y170356D01*
Y172000D01*
D02*
G37*
G36*
X7144D02*
X5500D01*
Y170356D01*
X5858Y170428D01*
X6586Y170914D01*
X7072Y171642D01*
X7144Y172000D01*
D02*
G37*
G36*
X223500Y172500D02*
X221856D01*
X221928Y172142D01*
X222414Y171414D01*
X223142Y170928D01*
X223500Y170856D01*
Y172500D01*
D02*
G37*
G36*
X224500Y165144D02*
Y163500D01*
X226144D01*
X226072Y163858D01*
X225586Y164586D01*
X224858Y165072D01*
X224500Y165144D01*
D02*
G37*
G36*
X223500Y162500D02*
X221856D01*
X221928Y162142D01*
X222414Y161414D01*
X223142Y160928D01*
X223500Y160856D01*
Y162500D01*
D02*
G37*
G36*
X226144D02*
X224500D01*
Y160856D01*
X224858Y160928D01*
X225586Y161414D01*
X226072Y162142D01*
X226144Y162500D01*
D02*
G37*
G36*
X223500Y165144D02*
X223142Y165072D01*
X222414Y164586D01*
X221928Y163858D01*
X221856Y163500D01*
X223500D01*
Y165144D01*
D02*
G37*
G36*
X226144Y172500D02*
X224500D01*
Y170856D01*
X224858Y170928D01*
X225586Y171414D01*
X226072Y172142D01*
X226144Y172500D01*
D02*
G37*
G36*
X69953Y180547D02*
X68309D01*
X68380Y180189D01*
X68867Y179461D01*
X69594Y178975D01*
X69953Y178904D01*
Y180547D01*
D02*
G37*
G36*
X72596D02*
X70953D01*
Y178904D01*
X71311Y178975D01*
X72039Y179461D01*
X72525Y180189D01*
X72596Y180547D01*
D02*
G37*
G36*
X130000Y182000D02*
X128356D01*
X128428Y181642D01*
X128914Y180914D01*
X129642Y180428D01*
X130000Y180356D01*
Y182000D01*
D02*
G37*
G36*
X224500Y175144D02*
Y173500D01*
X226144D01*
X226072Y173858D01*
X225586Y174586D01*
X224858Y175072D01*
X224500Y175144D01*
D02*
G37*
G36*
X4500Y174644D02*
X4142Y174572D01*
X3414Y174086D01*
X2928Y173358D01*
X2856Y173000D01*
X4500D01*
Y174644D01*
D02*
G37*
G36*
X5500D02*
Y173000D01*
X7144D01*
X7072Y173358D01*
X6586Y174086D01*
X5858Y174572D01*
X5500Y174644D01*
D02*
G37*
G36*
X223500Y175144D02*
X223142Y175072D01*
X222414Y174586D01*
X221928Y173858D01*
X221856Y173500D01*
X223500D01*
Y175144D01*
D02*
G37*
G36*
Y192500D02*
X221856D01*
X221928Y192142D01*
X222414Y191414D01*
X223142Y190928D01*
X223500Y190856D01*
Y192500D01*
D02*
G37*
G36*
X285000Y202144D02*
X284642Y202072D01*
X283914Y201586D01*
X283428Y200858D01*
X283356Y200500D01*
X285000D01*
Y202144D01*
D02*
G37*
G36*
X286000D02*
Y200500D01*
X287644D01*
X287572Y200858D01*
X287086Y201586D01*
X286358Y202072D01*
X286000Y202144D01*
D02*
G37*
G36*
X271500Y202144D02*
X271142Y202072D01*
X270414Y201586D01*
X269928Y200858D01*
X269856Y200500D01*
X271500D01*
Y202144D01*
D02*
G37*
G36*
X130644Y202000D02*
X129000D01*
Y200356D01*
X129358Y200428D01*
X130086Y200914D01*
X130572Y201642D01*
X130644Y202000D01*
D02*
G37*
G36*
X271500Y199500D02*
X269856D01*
X269928Y199142D01*
X270414Y198414D01*
X271142Y197928D01*
X271500Y197856D01*
Y199500D01*
D02*
G37*
G36*
X274144D02*
X272500D01*
Y197856D01*
X272858Y197928D01*
X273586Y198414D01*
X274072Y199142D01*
X274144Y199500D01*
D02*
G37*
G36*
X128000Y202000D02*
X126356D01*
X126428Y201642D01*
X126914Y200914D01*
X127642Y200428D01*
X128000Y200356D01*
Y202000D01*
D02*
G37*
G36*
X272500Y202144D02*
Y200500D01*
X274144D01*
X274072Y200858D01*
X273586Y201586D01*
X272858Y202072D01*
X272500Y202144D01*
D02*
G37*
G36*
X223500Y205144D02*
X223142Y205072D01*
X222414Y204586D01*
X221928Y203858D01*
X221856Y203500D01*
X223500D01*
Y205144D01*
D02*
G37*
G36*
X224500D02*
Y203500D01*
X226144D01*
X226072Y203858D01*
X225586Y204586D01*
X224858Y205072D01*
X224500Y205144D01*
D02*
G37*
G36*
X346500Y206000D02*
X344856D01*
X344928Y205642D01*
X345414Y204914D01*
X346142Y204428D01*
X346500Y204356D01*
Y206000D01*
D02*
G37*
G36*
X129000Y204644D02*
Y203000D01*
X130644D01*
X130572Y203358D01*
X130086Y204086D01*
X129358Y204572D01*
X129000Y204644D01*
D02*
G37*
G36*
X223500Y202500D02*
X221856D01*
X221928Y202142D01*
X222414Y201414D01*
X223142Y200928D01*
X223500Y200856D01*
Y202500D01*
D02*
G37*
G36*
X226144D02*
X224500D01*
Y200856D01*
X224858Y200928D01*
X225586Y201414D01*
X226072Y202142D01*
X226144Y202500D01*
D02*
G37*
G36*
X128000Y204644D02*
X127642Y204572D01*
X126914Y204086D01*
X126428Y203358D01*
X126356Y203000D01*
X128000D01*
Y204644D01*
D02*
G37*
G36*
X69644Y193500D02*
X68000D01*
Y191856D01*
X68358Y191928D01*
X69086Y192414D01*
X69572Y193142D01*
X69644Y193500D01*
D02*
G37*
G36*
X223500Y195144D02*
X223142Y195072D01*
X222414Y194586D01*
X221928Y193858D01*
X221856Y193500D01*
X223500D01*
Y195144D01*
D02*
G37*
G36*
X224500D02*
Y193500D01*
X226144D01*
X226072Y193858D01*
X225586Y194586D01*
X224858Y195072D01*
X224500Y195144D01*
D02*
G37*
G36*
X67000Y193500D02*
X65356D01*
X65428Y193142D01*
X65914Y192414D01*
X66642Y191928D01*
X67000Y191856D01*
Y193500D01*
D02*
G37*
G36*
X226144Y192500D02*
X224500D01*
Y190856D01*
X224858Y190928D01*
X225586Y191414D01*
X226072Y192142D01*
X226144Y192500D01*
D02*
G37*
G36*
X51256Y192888D02*
X50898Y192816D01*
X50170Y192330D01*
X49684Y191603D01*
X49612Y191244D01*
X51256D01*
Y192888D01*
D02*
G37*
G36*
X52256D02*
Y191244D01*
X53900D01*
X53828Y191603D01*
X53342Y192330D01*
X52614Y192816D01*
X52256Y192888D01*
D02*
G37*
G36*
X175279Y195220D02*
X173636D01*
X173707Y194862D01*
X174193Y194134D01*
X174921Y193648D01*
X175279Y193577D01*
Y195220D01*
D02*
G37*
G36*
X176279Y197864D02*
Y196221D01*
X177923D01*
X177852Y196579D01*
X177366Y197307D01*
X176638Y197793D01*
X176279Y197864D01*
D02*
G37*
G36*
X285000Y199500D02*
X283356D01*
X283428Y199142D01*
X283914Y198414D01*
X284642Y197928D01*
X285000Y197856D01*
Y199500D01*
D02*
G37*
G36*
X287644D02*
X286000D01*
Y197856D01*
X286358Y197928D01*
X287086Y198414D01*
X287572Y199142D01*
X287644Y199500D01*
D02*
G37*
G36*
X175279Y197864D02*
X174921Y197793D01*
X174193Y197307D01*
X173707Y196579D01*
X173636Y196221D01*
X175279D01*
Y197864D01*
D02*
G37*
G36*
X177923Y195220D02*
X176279D01*
Y193577D01*
X176638Y193648D01*
X177366Y194134D01*
X177852Y194862D01*
X177923Y195220D01*
D02*
G37*
G36*
X67000Y196144D02*
X66642Y196072D01*
X65914Y195586D01*
X65428Y194858D01*
X65356Y194500D01*
X67000D01*
Y196144D01*
D02*
G37*
G36*
X68000D02*
Y194500D01*
X69644D01*
X69572Y194858D01*
X69086Y195586D01*
X68358Y196072D01*
X68000Y196144D01*
D02*
G37*
%LPD*%
D33*
X356000Y184625D02*
Y271500D01*
Y0D02*
Y75875D01*
X0Y0D02*
Y271500D01*
X356000D01*
Y75875D02*
Y184625D01*
X0Y0D02*
X356000D01*
D38*
X167500Y147000D02*
D03*
X186000Y156500D02*
D03*
X203000Y113000D02*
D03*
X7000Y237000D02*
D03*
D39*
X167500Y157000D02*
D03*
X186000Y146500D02*
D03*
X282000Y221500D02*
D03*
X203000Y133000D02*
D03*
Y203000D02*
D03*
Y193000D02*
D03*
Y183000D02*
D03*
Y173000D02*
D03*
Y163000D02*
D03*
Y153000D02*
D03*
Y143000D02*
D03*
Y123000D02*
D03*
X82000Y116500D02*
D03*
X7000Y227000D02*
D03*
D40*
X272000Y221500D02*
D03*
X92000Y116500D02*
D03*
D41*
X107248Y266236D02*
D03*
X95437D02*
D03*
D42*
X82000Y84996D02*
D03*
Y69248D02*
D03*
Y53500D02*
D03*
X91843Y84996D02*
D03*
Y69248D02*
D03*
D43*
Y53500D02*
D03*
D44*
X98535Y98776D02*
D03*
X74126Y39720D02*
D03*
D45*
X352000Y44000D02*
D03*
Y67500D02*
D03*
X347000Y206500D02*
D03*
X352000Y181500D02*
D03*
X230500Y265000D02*
D03*
X207000D02*
D03*
X183000D02*
D03*
X159000D02*
D03*
X135000D02*
D03*
X5000Y148500D02*
D03*
Y124000D02*
D03*
Y99500D02*
D03*
Y75000D02*
D03*
Y51000D02*
D03*
Y27500D02*
D03*
X8500Y5000D02*
D03*
X32500D02*
D03*
X56000D02*
D03*
X79500D02*
D03*
X103000D02*
D03*
X126500D02*
D03*
X150500D02*
D03*
X174500D02*
D03*
X198000D02*
D03*
X222000Y5500D02*
D03*
X246000Y5000D02*
D03*
X270000Y5500D02*
D03*
X307000Y210000D02*
D03*
X327000D02*
D03*
X293500Y154500D02*
D03*
X245500Y207500D02*
D03*
X272000Y200000D02*
D03*
X285500Y200000D02*
D03*
X199000Y31000D02*
D03*
X206244Y56000D02*
D03*
X206347Y75153D02*
D03*
X173500Y51000D02*
D03*
X180000Y65000D02*
D03*
X114520Y51000D02*
D03*
X124012Y51012D02*
D03*
X124000Y46011D02*
D03*
X10488Y22665D02*
D03*
X60000Y183744D02*
D03*
X17603Y113016D02*
D03*
X70453Y181047D02*
D03*
X95512Y209012D02*
D03*
X83512Y213488D02*
D03*
X90244Y244744D02*
D03*
X56244Y226000D02*
D03*
X51756Y190744D02*
D03*
X64500Y222000D02*
D03*
X19000Y227000D02*
D03*
X41000Y246500D02*
D03*
X67500Y194000D02*
D03*
X37598Y98000D02*
D03*
X224000Y203000D02*
D03*
Y193000D02*
D03*
Y183000D02*
D03*
Y173000D02*
D03*
Y163000D02*
D03*
Y153000D02*
D03*
Y143000D02*
D03*
X352642Y157358D02*
D03*
X290000Y99500D02*
D03*
X352642Y92142D02*
D03*
X224500Y113000D02*
D03*
X224000Y123000D02*
D03*
Y133000D02*
D03*
X7500Y265000D02*
D03*
X221244Y248744D02*
D03*
X167500Y41511D02*
D03*
X187000Y37500D02*
D03*
X128500Y202500D02*
D03*
X105000Y137500D02*
D03*
X175779Y195721D02*
D03*
X5000Y172500D02*
D03*
X130500Y182500D02*
D03*
X115000Y208500D02*
D03*
M02*
