G04 Layer_Color=8388736*
%FSLAX25Y25*%
%MOIN*%
G70*
G01*
G75*
%ADD33C,0.01000*%
%ADD50R,0.02768X0.03162*%
%ADD51R,0.03950X0.04343*%
%ADD52R,0.08792X0.15761*%
%ADD53R,0.03162X0.02768*%
%ADD54R,0.06902X0.05918*%
%ADD55R,0.04343X0.03950*%
%ADD56R,0.09855X0.08280*%
%ADD57R,0.07887X0.08280*%
%ADD58R,0.02375X0.06312*%
%ADD59R,0.07965X0.05524*%
%ADD60R,0.04737X0.05524*%
%ADD61R,0.05800X0.13320*%
%ADD62O,0.03950X0.10249*%
%ADD63O,0.10249X0.03950*%
%ADD64R,0.05131X0.07493*%
%ADD65R,0.01863X0.04186*%
%ADD66R,0.04186X0.01863*%
%ADD67R,0.11784X0.03713*%
%ADD68R,0.06706X0.02375*%
%ADD69R,0.07414X0.07414*%
%ADD70R,0.01824X0.04028*%
%ADD71R,0.04028X0.01824*%
%ADD72R,0.11036X0.04737*%
%ADD73R,0.06706X0.06706*%
%ADD74C,0.06706*%
%ADD75C,0.09068*%
%ADD76R,0.06343X0.06343*%
%ADD77C,0.06343*%
%ADD78R,0.06706X0.06706*%
%ADD79C,0.04147*%
%ADD80C,0.03200*%
G36*
X176195Y237339D02*
X170799D01*
Y250256D01*
X176195D01*
Y237339D01*
D02*
G37*
G36*
X157193Y54354D02*
X145809D01*
Y57677D01*
X157193D01*
Y54354D01*
D02*
G37*
G36*
X141193D02*
X129783D01*
Y57690D01*
X141193D01*
Y54354D01*
D02*
G37*
G36*
X186155Y237339D02*
X180799D01*
Y250222D01*
X186155D01*
Y237339D01*
D02*
G37*
G36*
X216196D02*
X210799D01*
Y250211D01*
X216196D01*
Y237339D01*
D02*
G37*
G36*
X206183D02*
X200799D01*
Y250223D01*
X206183D01*
Y237339D01*
D02*
G37*
G36*
X196157D02*
X190799D01*
Y250208D01*
X196157D01*
Y237339D01*
D02*
G37*
G36*
X157193Y49354D02*
X145809D01*
Y52674D01*
X157193D01*
Y49354D01*
D02*
G37*
G36*
X141193Y39354D02*
X129793D01*
Y42666D01*
X141193D01*
Y39354D01*
D02*
G37*
G36*
X157193Y34354D02*
X145811D01*
Y37656D01*
X157193D01*
Y34354D01*
D02*
G37*
G36*
X141193D02*
X129785D01*
Y37655D01*
X141193D01*
Y34354D01*
D02*
G37*
G36*
X157193Y39354D02*
X145810D01*
Y42665D01*
X157193D01*
Y39354D01*
D02*
G37*
G36*
X141193Y49354D02*
X129799D01*
Y52673D01*
X141193D01*
Y49354D01*
D02*
G37*
G36*
X157193Y44354D02*
X145811D01*
Y47672D01*
X157193D01*
Y44354D01*
D02*
G37*
G36*
X141193D02*
X129781D01*
Y47672D01*
X141193D01*
Y44354D01*
D02*
G37*
G36*
X226209Y252339D02*
X220799D01*
Y265248D01*
X226209D01*
Y252339D01*
D02*
G37*
G36*
X216196D02*
X210799D01*
Y265239D01*
X216196D01*
Y252339D01*
D02*
G37*
G36*
X206199D02*
X200799D01*
Y265258D01*
X206199D01*
Y252339D01*
D02*
G37*
G36*
X236236D02*
X230799D01*
Y265237D01*
X236236D01*
Y252339D01*
D02*
G37*
G36*
X266251D02*
X260799D01*
Y265248D01*
X266251D01*
Y252339D01*
D02*
G37*
G36*
X256211D02*
X250799D01*
Y265257D01*
X256211D01*
Y252339D01*
D02*
G37*
G36*
X246251D02*
X240799D01*
Y265239D01*
X246251D01*
Y252339D01*
D02*
G37*
G36*
X196164D02*
X190799D01*
Y265241D01*
X196164D01*
Y252339D01*
D02*
G37*
G36*
X246223Y237339D02*
X240799D01*
Y250239D01*
X246223D01*
Y237339D01*
D02*
G37*
G36*
X236236D02*
X230799D01*
Y250207D01*
X236236D01*
Y237339D01*
D02*
G37*
G36*
X226212D02*
X220799D01*
Y250221D01*
X226212D01*
Y237339D01*
D02*
G37*
G36*
X256209D02*
X250799D01*
Y250254D01*
X256209D01*
Y237339D01*
D02*
G37*
G36*
X186153Y252339D02*
X180799D01*
Y265243D01*
X186153D01*
Y252339D01*
D02*
G37*
G36*
X176131D02*
X170799D01*
Y265241D01*
X176131D01*
Y252339D01*
D02*
G37*
G36*
X266272Y237339D02*
X260799D01*
Y250221D01*
X266272D01*
Y237339D01*
D02*
G37*
D33*
X0Y0D02*
X356000D01*
Y75875D02*
Y184625D01*
X0Y271500D02*
X356000D01*
X0Y0D02*
Y271500D01*
X356000Y0D02*
Y75875D01*
Y184625D02*
Y271500D01*
D50*
X204000Y215032D02*
D03*
Y218969D02*
D03*
X76500Y144468D02*
D03*
Y140532D02*
D03*
X262500Y223063D02*
D03*
Y227000D02*
D03*
X187500Y205063D02*
D03*
Y209000D02*
D03*
X229500Y222031D02*
D03*
Y225969D02*
D03*
D51*
X118000Y185500D02*
D03*
X123512D02*
D03*
X114744Y195500D02*
D03*
X120256D02*
D03*
X121744Y208500D02*
D03*
X127256D02*
D03*
X211756Y49000D02*
D03*
X206244D02*
D03*
X211756Y31000D02*
D03*
X206244D02*
D03*
X286744Y84500D02*
D03*
X292256D02*
D03*
X287244Y78000D02*
D03*
X292756D02*
D03*
X10732Y47000D02*
D03*
X16244D02*
D03*
X16000Y29000D02*
D03*
X10488D02*
D03*
X271000Y51000D02*
D03*
X276512D02*
D03*
X211756Y62500D02*
D03*
X206244D02*
D03*
X211858Y80642D02*
D03*
X206347D02*
D03*
X78000Y204500D02*
D03*
X83512D02*
D03*
X90000Y194500D02*
D03*
X95512D02*
D03*
X24843Y99000D02*
D03*
X19331D02*
D03*
X90000Y200500D02*
D03*
X95512D02*
D03*
X54256Y182000D02*
D03*
X48744D02*
D03*
X13744Y90500D02*
D03*
X19256D02*
D03*
X68000Y215500D02*
D03*
X62488D02*
D03*
X85000Y190000D02*
D03*
X79488D02*
D03*
X22343Y135500D02*
D03*
X16831D02*
D03*
X22343Y145500D02*
D03*
X16831D02*
D03*
X272744Y84500D02*
D03*
X278256D02*
D03*
X272744Y78000D02*
D03*
X278256D02*
D03*
X152744Y243000D02*
D03*
X158256D02*
D03*
D52*
X23500Y69000D02*
D03*
X18000Y170000D02*
D03*
X37000Y159000D02*
D03*
X31500Y220500D02*
D03*
X19000Y258500D02*
D03*
D53*
X119532Y56012D02*
D03*
X123468D02*
D03*
X179500Y36011D02*
D03*
X175563D02*
D03*
X183468Y46000D02*
D03*
X179532D02*
D03*
X167968Y51000D02*
D03*
X164032D02*
D03*
X179469Y56011D02*
D03*
X175531D02*
D03*
X218969Y203000D02*
D03*
X215032D02*
D03*
X218969Y193000D02*
D03*
X215032D02*
D03*
X218969Y183000D02*
D03*
X215032D02*
D03*
X218969Y173000D02*
D03*
X215032D02*
D03*
X218969Y153000D02*
D03*
X215032D02*
D03*
X218969Y143000D02*
D03*
X215032D02*
D03*
X218969Y133000D02*
D03*
X215032D02*
D03*
X218969Y123000D02*
D03*
X215032D02*
D03*
X218969Y113000D02*
D03*
X215032D02*
D03*
X218969Y163000D02*
D03*
X215032D02*
D03*
X279000Y226000D02*
D03*
X275063D02*
D03*
D54*
X59071Y29142D02*
D03*
X27772D02*
D03*
X59071Y46858D02*
D03*
X27772D02*
D03*
X223850Y80358D02*
D03*
X255150D02*
D03*
X223850Y62642D02*
D03*
X255150D02*
D03*
X223350Y48858D02*
D03*
X254650D02*
D03*
X223350Y31142D02*
D03*
X254650D02*
D03*
D55*
X265500Y68256D02*
D03*
Y62744D02*
D03*
X95000Y128744D02*
D03*
Y134256D02*
D03*
X82500Y129244D02*
D03*
Y134756D02*
D03*
X43087Y109000D02*
D03*
Y103488D02*
D03*
X119500Y261512D02*
D03*
Y256000D02*
D03*
X85000Y250256D02*
D03*
Y244744D02*
D03*
X115000Y167244D02*
D03*
Y172756D02*
D03*
X44000Y215744D02*
D03*
Y221256D02*
D03*
X51500Y215744D02*
D03*
Y221256D02*
D03*
X107000Y181500D02*
D03*
Y187012D02*
D03*
X53000Y164244D02*
D03*
Y169756D02*
D03*
X66500Y169244D02*
D03*
Y174756D02*
D03*
X34087Y136256D02*
D03*
Y130744D02*
D03*
X79000Y173744D02*
D03*
Y179256D02*
D03*
X79000Y155988D02*
D03*
Y161500D02*
D03*
X95000Y143244D02*
D03*
Y148756D02*
D03*
X44000Y190744D02*
D03*
Y196256D02*
D03*
X66500Y155988D02*
D03*
Y161500D02*
D03*
D56*
X40709Y262000D02*
D03*
X70236D02*
D03*
D57*
X50945D02*
D03*
X60000D02*
D03*
D58*
X50354Y250780D02*
D03*
X52913D02*
D03*
X55472D02*
D03*
X58031D02*
D03*
X60590D02*
D03*
D59*
X73000Y225075D02*
D03*
Y236925D02*
D03*
D60*
X91500Y256000D02*
D03*
X101342D02*
D03*
X111185D02*
D03*
D61*
X263500Y258799D02*
D03*
Y243799D02*
D03*
X253500Y258799D02*
D03*
Y243799D02*
D03*
X243500Y258799D02*
D03*
Y243799D02*
D03*
X233500Y258799D02*
D03*
Y243799D02*
D03*
X223500Y258799D02*
D03*
Y243799D02*
D03*
X213500Y258799D02*
D03*
Y243799D02*
D03*
X203500Y258799D02*
D03*
Y243799D02*
D03*
X193500Y258799D02*
D03*
Y243799D02*
D03*
X183500Y258799D02*
D03*
Y243799D02*
D03*
X173500Y258799D02*
D03*
Y243799D02*
D03*
D62*
X352642Y102256D02*
D03*
X347917D02*
D03*
X343193D02*
D03*
X338469D02*
D03*
X333744D02*
D03*
X329020D02*
D03*
X324295D02*
D03*
X319571D02*
D03*
X314846D02*
D03*
X310122D02*
D03*
X305398D02*
D03*
X300673D02*
D03*
Y146744D02*
D03*
X305398D02*
D03*
X310122D02*
D03*
X314846D02*
D03*
X319571D02*
D03*
X324295D02*
D03*
X329020D02*
D03*
X333744D02*
D03*
X338469D02*
D03*
X343193D02*
D03*
X347917D02*
D03*
X352642D02*
D03*
D63*
X300122Y110327D02*
D03*
Y115051D02*
D03*
Y119776D02*
D03*
Y124500D02*
D03*
Y129224D02*
D03*
Y133949D02*
D03*
Y138673D02*
D03*
D64*
X145870Y171000D02*
D03*
X156500D02*
D03*
X105500Y28000D02*
D03*
X116130D02*
D03*
X146870Y225000D02*
D03*
X157500D02*
D03*
D65*
X32039Y109335D02*
D03*
X30071D02*
D03*
X28102D02*
D03*
X26134D02*
D03*
Y118665D02*
D03*
X28102D02*
D03*
X30071D02*
D03*
X32039D02*
D03*
D66*
X33752Y114984D02*
D03*
Y113016D02*
D03*
X24421D02*
D03*
Y114984D02*
D03*
D67*
X135500Y56011D02*
D03*
X151500D02*
D03*
X135500Y51012D02*
D03*
X151500D02*
D03*
X135500Y46011D02*
D03*
X151500D02*
D03*
X135500Y41012D02*
D03*
X151500D02*
D03*
X135500Y36011D02*
D03*
X151500D02*
D03*
D68*
X139228Y180366D02*
D03*
Y182925D02*
D03*
Y185484D02*
D03*
Y188043D02*
D03*
Y190602D02*
D03*
Y193161D02*
D03*
Y195721D02*
D03*
Y198280D02*
D03*
Y200839D02*
D03*
Y203398D02*
D03*
Y205957D02*
D03*
Y208516D02*
D03*
Y211075D02*
D03*
Y213634D02*
D03*
X167772D02*
D03*
Y211075D02*
D03*
Y208516D02*
D03*
Y205957D02*
D03*
Y203398D02*
D03*
Y200839D02*
D03*
Y198280D02*
D03*
Y195721D02*
D03*
Y193161D02*
D03*
Y190602D02*
D03*
Y188043D02*
D03*
Y185484D02*
D03*
Y182925D02*
D03*
Y180366D02*
D03*
D69*
X67500Y194000D02*
D03*
D70*
X64547Y199709D02*
D03*
X66516D02*
D03*
X68484D02*
D03*
X70453D02*
D03*
Y188291D02*
D03*
X68484D02*
D03*
X66516D02*
D03*
X64547D02*
D03*
D71*
X73209Y196953D02*
D03*
Y194984D02*
D03*
Y193016D02*
D03*
Y191047D02*
D03*
X61791D02*
D03*
Y193016D02*
D03*
Y194984D02*
D03*
Y196953D02*
D03*
D72*
X31874Y189563D02*
D03*
Y197437D02*
D03*
D73*
X203000Y113000D02*
D03*
X128500Y132500D02*
D03*
X7000Y237000D02*
D03*
X179000Y152000D02*
D03*
X164000Y142000D02*
D03*
D74*
X203000Y123000D02*
D03*
Y143000D02*
D03*
Y153000D02*
D03*
Y163000D02*
D03*
Y173000D02*
D03*
Y183000D02*
D03*
Y193000D02*
D03*
Y203000D02*
D03*
Y133000D02*
D03*
X128500Y102500D02*
D03*
Y112500D02*
D03*
Y122500D02*
D03*
X7000Y227000D02*
D03*
X82000Y116500D02*
D03*
X214000Y228000D02*
D03*
X179000Y142000D02*
D03*
X164000Y152000D02*
D03*
D75*
X74126Y39720D02*
D03*
X98535Y98776D02*
D03*
D76*
X91843Y53500D02*
D03*
D77*
Y69248D02*
D03*
Y84996D02*
D03*
X82000Y53500D02*
D03*
Y69248D02*
D03*
Y84996D02*
D03*
D78*
X92000Y116500D02*
D03*
X204000Y228000D02*
D03*
D79*
X95437Y266236D02*
D03*
X107248D02*
D03*
D80*
X283500Y226000D02*
D03*
X262500Y218000D02*
D03*
X236968Y222031D02*
D03*
X183500Y201063D02*
D03*
X198031Y215032D02*
D03*
X224000Y203000D02*
D03*
X152744Y250756D02*
D03*
X117000Y132500D02*
D03*
X115000Y208500D02*
D03*
X130500Y182500D02*
D03*
X5000Y172500D02*
D03*
X175779Y195721D02*
D03*
X105000Y137500D02*
D03*
X128500Y202500D02*
D03*
X187000Y37500D02*
D03*
X167500Y41511D02*
D03*
X7500Y265000D02*
D03*
X224000Y133000D02*
D03*
Y123000D02*
D03*
X224500Y113000D02*
D03*
X352642Y92142D02*
D03*
X290000Y99500D02*
D03*
X352642Y157358D02*
D03*
X224000Y143000D02*
D03*
Y153000D02*
D03*
Y163000D02*
D03*
Y173000D02*
D03*
Y183000D02*
D03*
Y193000D02*
D03*
X37598Y98000D02*
D03*
X67500Y194000D02*
D03*
X41000Y246500D02*
D03*
X19000Y227000D02*
D03*
X64500Y222000D02*
D03*
X51756Y190744D02*
D03*
X56244Y226000D02*
D03*
X90244Y244744D02*
D03*
X83512Y213488D02*
D03*
X95512Y209012D02*
D03*
X70453Y181047D02*
D03*
X17603Y113016D02*
D03*
X60000Y183744D02*
D03*
X10488Y22665D02*
D03*
X124000Y46011D02*
D03*
X124012Y51012D02*
D03*
X180000Y65000D02*
D03*
X173500Y51000D02*
D03*
X206347Y75153D02*
D03*
X206244Y56000D02*
D03*
X199000Y31000D02*
D03*
X293500Y154500D02*
D03*
X270000Y5500D02*
D03*
X246000Y5000D02*
D03*
X222000Y5500D02*
D03*
X198000Y5000D02*
D03*
X174500D02*
D03*
X150500D02*
D03*
X126500D02*
D03*
X103000D02*
D03*
X79500D02*
D03*
X56000D02*
D03*
X32500D02*
D03*
X8500D02*
D03*
X5000Y27500D02*
D03*
Y51000D02*
D03*
Y75000D02*
D03*
Y99500D02*
D03*
Y124000D02*
D03*
Y148500D02*
D03*
X135000Y265000D02*
D03*
X352500Y181500D02*
D03*
X352000Y67500D02*
D03*
Y44000D02*
D03*
X114500Y56000D02*
D03*
X325000Y135000D02*
D03*
X335000D02*
D03*
X315000Y125000D02*
D03*
X325000D02*
D03*
X335000Y124500D02*
D03*
X315000Y115000D02*
D03*
X325000D02*
D03*
X335000D02*
D03*
X315000Y135000D02*
D03*
M02*
