M48
;Layer_Color=9474304
;FILE_FORMAT=2:5
INCH,LZ
;TYPE=PLATED
T1F00S00C0.01200
T2F00S00C0.03543
T3F00S00C0.05512
;TYPE=NON_PLATED
T4F00S00C0.03346
%
T01
X00085Y0005
X0010488Y0022665
X0005Y00275
Y0051
X00325Y0005
X0056
X00795
X0103
X01265
X01505
X01745
X0198
X0199Y0031
X0187Y00375
X01675Y0041511
X01735Y0051
X018Y0065
X0206244Y0056
X0124012Y0051012
X0124Y0046011
X01145Y0056
X0222Y00055
X0246Y0005
X027Y00055
X0352Y0044
Y00675
X0352642Y0092142
X0335Y0115
Y01245
Y0135
X0325
Y0125
X0315
Y0115
X0325
X0315Y0135
X02935Y01545
X029Y00995
X02245Y0113
X0224Y0123
Y0133
Y0143
Y0153
Y0163
Y0173
Y0183
Y0193
Y0203
X0236968Y0222031
X02625Y0218
X02835Y0226
X03525Y01815
X0352642Y0157358
X0198031Y0215032
X01835Y0201063
X0175779Y0195721
X01285Y02025
X0115Y02085
X0095512Y0209012
X0083512Y0213488
X00645Y0222
X00675Y0194
X0070453Y0181047
X006Y0183744
X01305Y01825
X0117Y01325
X0105Y01375
X0206347Y0075153
X0037598Y0098
X0005Y00995
Y0075
Y0124
X0017603Y0113016
X0005Y01485
Y01725
X0051756Y0190744
X0056244Y0226
X0041Y02465
X0019Y0227
X00075Y0265
X0090244Y0244744
X0135Y0265
X0152744Y0250756
T02
X0082Y00535
X0091843
Y0069248
X0082
Y0084996
X0091843
X0092Y01165
X0082
X01285Y01125
Y01025
Y01225
Y01325
X0164Y0142
Y0152
X0179
Y0142
X0203Y0143
Y0153
Y0163
Y0173
Y0183
Y0193
Y0203
Y0133
Y0123
Y0113
X0007Y0227
Y0237
X0204Y0228
X0214
T03
X0074126Y003972
X0098535Y0098776
T04
X0095437Y0266236
X0107248
M30
