G04 Layer_Physical_Order=2*
G04 Layer_Color=16711680*
%FSLAX25Y25*%
%MOIN*%
G70*
G01*
G75*
%ADD41C,0.04000*%
%ADD42C,0.03347*%
%ADD43R,0.05905X0.05905*%
%ADD44C,0.05905*%
%ADD45R,0.05905X0.05905*%
%ADD46C,0.08268*%
%ADD47R,0.05543X0.05543*%
%ADD48C,0.05543*%
%ADD49C,0.05512*%
%ADD50C,0.02400*%
%ADD51C,0.02000*%
G36*
X286500Y293500D02*
Y249000D01*
X289780Y245720D01*
X289885Y245615D01*
X289639Y245154D01*
X289573Y245167D01*
X289531Y245175D01*
Y243531D01*
X291175D01*
X291104Y243890D01*
X290618Y244618D01*
X290103Y244961D01*
X290045Y245000D01*
X290197Y245500D01*
X290338Y245500D01*
X297924D01*
X298033Y245000D01*
X297414Y244586D01*
X296928Y243858D01*
X296856Y243500D01*
X301144D01*
X301072Y243858D01*
X300586Y244586D01*
X299967Y245000D01*
X300076Y245500D01*
X307924D01*
X308033Y245000D01*
X307414Y244586D01*
X306928Y243858D01*
X306856Y243500D01*
X311144D01*
X311072Y243858D01*
X310586Y244586D01*
X309967Y245000D01*
X310076Y245500D01*
X317724D01*
X317808Y245398D01*
X317712Y244733D01*
X317445Y244555D01*
X316959Y243827D01*
X316888Y243468D01*
X321175D01*
X321104Y243827D01*
X320618Y244555D01*
X320351Y244733D01*
X320255Y245398D01*
X320339Y245500D01*
X335803D01*
X335955Y245000D01*
X335382Y244618D01*
X334896Y243890D01*
X334825Y243531D01*
X339112D01*
X339041Y243890D01*
X338555Y244618D01*
X337982Y245000D01*
X338134Y245500D01*
X343500D01*
X348500Y240500D01*
Y232674D01*
X348059Y232438D01*
X347858Y232572D01*
X347500Y232644D01*
Y230500D01*
Y228356D01*
X347858Y228428D01*
X348059Y228562D01*
X348500Y228326D01*
Y208674D01*
X348059Y208438D01*
X347858Y208572D01*
X347500Y208644D01*
Y206500D01*
Y204356D01*
X347858Y204428D01*
X348059Y204562D01*
X348500Y204326D01*
Y184174D01*
X348059Y183938D01*
X347858Y184072D01*
X347500Y184144D01*
Y182000D01*
Y179856D01*
X347858Y179928D01*
X348059Y180062D01*
X348500Y179826D01*
Y167500D01*
X335000D01*
Y132500D01*
X348500D01*
Y123674D01*
X348059Y123438D01*
X347858Y123572D01*
X347500Y123644D01*
Y121500D01*
Y119356D01*
X347858Y119428D01*
X348059Y119562D01*
X348500Y119326D01*
Y99174D01*
X348059Y98938D01*
X347858Y99072D01*
X347500Y99144D01*
Y97000D01*
Y94856D01*
X347858Y94928D01*
X348059Y95062D01*
X348500Y94826D01*
Y74674D01*
X348059Y74438D01*
X347858Y74572D01*
X347500Y74644D01*
Y72500D01*
Y70356D01*
X347858Y70428D01*
X348059Y70562D01*
X348500Y70326D01*
Y58500D01*
X344500Y54500D01*
X327674D01*
X327438Y54941D01*
X327572Y55142D01*
X327644Y55500D01*
X323356D01*
X323428Y55142D01*
X323562Y54941D01*
X323326Y54500D01*
X303674D01*
X303438Y54941D01*
X303572Y55142D01*
X303644Y55500D01*
X299356D01*
X299428Y55142D01*
X299562Y54941D01*
X299326Y54500D01*
X294000D01*
X286500Y47000D01*
Y39798D01*
X286000Y39644D01*
X285358Y40072D01*
X285000Y40144D01*
Y38000D01*
Y35856D01*
X285358Y35928D01*
X286000Y36356D01*
X286500Y36202D01*
Y15298D01*
X286000Y15144D01*
X285358Y15572D01*
X285000Y15644D01*
Y13500D01*
Y11356D01*
X285358Y11428D01*
X286000Y11856D01*
X286500Y11702D01*
Y7000D01*
X283711Y4211D01*
X283168Y4375D01*
X283072Y4858D01*
X282586Y5586D01*
X281858Y6072D01*
X281500Y6144D01*
Y4000D01*
X281000D01*
Y3500D01*
X278856D01*
X278928Y3142D01*
X279356Y2500D01*
X279202Y2000D01*
X258798D01*
X258644Y2500D01*
X259072Y3142D01*
X259144Y3500D01*
X254856D01*
X254928Y3142D01*
X255356Y2500D01*
X255202Y2000D01*
X234798D01*
X234644Y2500D01*
X235072Y3142D01*
X235144Y3500D01*
X230856D01*
X230928Y3142D01*
X231356Y2500D01*
X231202Y2000D01*
X210298D01*
X210144Y2500D01*
X210572Y3142D01*
X210644Y3500D01*
X206356D01*
X206428Y3142D01*
X206856Y2500D01*
X206702Y2000D01*
X185798D01*
X185644Y2500D01*
X186072Y3142D01*
X186144Y3500D01*
X181856D01*
X181928Y3142D01*
X182356Y2500D01*
X182202Y2000D01*
X161798D01*
X161644Y2500D01*
X162072Y3142D01*
X162144Y3500D01*
X157856D01*
X157928Y3142D01*
X158356Y2500D01*
X158202Y2000D01*
X137798D01*
X137644Y2500D01*
X138072Y3142D01*
X138144Y3500D01*
X133856D01*
X133928Y3142D01*
X134356Y2500D01*
X134202Y2000D01*
X114674D01*
X114438Y2441D01*
X114572Y2642D01*
X114644Y3000D01*
X110356D01*
X110428Y2642D01*
X110562Y2441D01*
X110326Y2000D01*
X89798D01*
X89644Y2500D01*
X90072Y3142D01*
X90144Y3500D01*
X85856D01*
X85928Y3142D01*
X86356Y2500D01*
X86202Y2000D01*
X65798D01*
X65644Y2500D01*
X66072Y3142D01*
X66144Y3500D01*
X61856D01*
X61928Y3142D01*
X62356Y2500D01*
X62202Y2000D01*
X41798D01*
X41644Y2500D01*
X42072Y3142D01*
X42144Y3500D01*
X37856D01*
X37928Y3142D01*
X38356Y2500D01*
X38202Y2000D01*
X7000D01*
X2000Y7000D01*
Y8924D01*
X2500Y9033D01*
X2914Y8414D01*
X3642Y7928D01*
X4000Y7856D01*
Y10000D01*
Y12144D01*
X3642Y12072D01*
X2914Y11586D01*
X2500Y10967D01*
X2000Y11076D01*
Y33424D01*
X2500Y33533D01*
X2914Y32914D01*
X3642Y32428D01*
X4000Y32356D01*
Y34500D01*
Y36644D01*
X3642Y36572D01*
X2914Y36086D01*
X2500Y35467D01*
X2000Y35576D01*
Y57424D01*
X2500Y57533D01*
X2914Y56914D01*
X3642Y56428D01*
X4000Y56356D01*
Y58500D01*
Y60644D01*
X3642Y60572D01*
X2914Y60086D01*
X2500Y59467D01*
X2000Y59576D01*
Y81424D01*
X2500Y81533D01*
X2914Y80914D01*
X3642Y80428D01*
X4000Y80356D01*
Y82500D01*
Y84644D01*
X3642Y84572D01*
X2914Y84086D01*
X2500Y83467D01*
X2000Y83576D01*
Y105924D01*
X2500Y106033D01*
X2914Y105414D01*
X3642Y104928D01*
X4000Y104856D01*
Y107000D01*
Y109144D01*
X3642Y109072D01*
X2914Y108586D01*
X2500Y107967D01*
X2000Y108076D01*
Y235924D01*
X2500Y236033D01*
X2914Y235414D01*
X3642Y234928D01*
X4000Y234856D01*
Y237000D01*
Y239144D01*
X3642Y239072D01*
X2914Y238586D01*
X2500Y237967D01*
X2000Y238076D01*
Y260424D01*
X2500Y260533D01*
X2914Y259914D01*
X3642Y259428D01*
X4000Y259356D01*
Y261500D01*
Y263644D01*
X3642Y263572D01*
X2914Y263086D01*
X2500Y262467D01*
X2000Y262576D01*
Y284924D01*
X2500Y285033D01*
X2914Y284414D01*
X3642Y283928D01*
X4000Y283856D01*
Y286000D01*
Y288144D01*
X3642Y288072D01*
X2914Y287586D01*
X2500Y286967D01*
X2000Y287076D01*
Y293500D01*
X7000Y298500D01*
X22202D01*
X22356Y298000D01*
X21928Y297358D01*
X21856Y297000D01*
X26144D01*
X26072Y297358D01*
X25644Y298000D01*
X25798Y298500D01*
X46702D01*
X46856Y298000D01*
X46428Y297358D01*
X46356Y297000D01*
X50644D01*
X50572Y297358D01*
X50144Y298000D01*
X50298Y298500D01*
X120424D01*
X120533Y298000D01*
X119914Y297586D01*
X119428Y296858D01*
X119356Y296500D01*
X123644D01*
X123572Y296858D01*
X123086Y297586D01*
X122467Y298000D01*
X122576Y298500D01*
X144202D01*
X144356Y298000D01*
X143928Y297358D01*
X143856Y297000D01*
X148144D01*
X148072Y297358D01*
X147644Y298000D01*
X147798Y298500D01*
X168924D01*
X169033Y298000D01*
X168414Y297586D01*
X167928Y296858D01*
X167856Y296500D01*
X172144D01*
X172072Y296858D01*
X171586Y297586D01*
X170967Y298000D01*
X171076Y298500D01*
X192702D01*
X192856Y298000D01*
X192428Y297358D01*
X192356Y297000D01*
X196644D01*
X196572Y297358D01*
X196144Y298000D01*
X196298Y298500D01*
X281500D01*
X286500Y293500D01*
D02*
G37*
%LPC*%
G36*
X227500Y136644D02*
X227142Y136572D01*
X226414Y136086D01*
X225928Y135358D01*
X225856Y135000D01*
X227500D01*
Y136644D01*
D02*
G37*
G36*
X218500Y136144D02*
Y134500D01*
X220144D01*
X220072Y134858D01*
X219586Y135586D01*
X218858Y136072D01*
X218500Y136144D01*
D02*
G37*
G36*
X228500Y136644D02*
Y135000D01*
X230144D01*
X230072Y135358D01*
X229586Y136086D01*
X228858Y136572D01*
X228500Y136644D01*
D02*
G37*
G36*
X309144Y139000D02*
X307500D01*
Y137356D01*
X307858Y137428D01*
X308586Y137914D01*
X309072Y138642D01*
X309144Y139000D01*
D02*
G37*
G36*
X306500D02*
X304856D01*
X304928Y138642D01*
X305414Y137914D01*
X306142Y137428D01*
X306500Y137356D01*
Y139000D01*
D02*
G37*
G36*
X220144Y133500D02*
X218500D01*
Y131856D01*
X218858Y131928D01*
X219586Y132414D01*
X220072Y133142D01*
X220144Y133500D01*
D02*
G37*
G36*
X217500D02*
X215856D01*
X215928Y133142D01*
X216414Y132414D01*
X217142Y131928D01*
X217500Y131856D01*
Y133500D01*
D02*
G37*
G36*
X227500Y134000D02*
X225856D01*
X225928Y133642D01*
X226414Y132914D01*
X227142Y132428D01*
X227500Y132356D01*
Y134000D01*
D02*
G37*
G36*
X217500Y136144D02*
X217142Y136072D01*
X216414Y135586D01*
X215928Y134858D01*
X215856Y134500D01*
X217500D01*
Y136144D01*
D02*
G37*
G36*
X230144Y134000D02*
X228500D01*
Y132356D01*
X228858Y132428D01*
X229586Y132914D01*
X230072Y133642D01*
X230144Y134000D01*
D02*
G37*
G36*
X312000Y139000D02*
X310356D01*
X310428Y138642D01*
X310914Y137914D01*
X311642Y137428D01*
X312000Y137356D01*
Y139000D01*
D02*
G37*
G36*
X331144D02*
X329500D01*
Y137356D01*
X329858Y137428D01*
X330586Y137914D01*
X331072Y138642D01*
X331144Y139000D01*
D02*
G37*
G36*
X328500D02*
X326856D01*
X326928Y138642D01*
X327414Y137914D01*
X328142Y137428D01*
X328500Y137356D01*
Y139000D01*
D02*
G37*
G36*
X7882Y146804D02*
X6792Y146660D01*
X5777Y146240D01*
X4905Y145571D01*
X4237Y144699D01*
X3816Y143684D01*
X3673Y142595D01*
X3816Y141505D01*
X4237Y140490D01*
X4905Y139618D01*
X5777Y138949D01*
X6792Y138529D01*
X7882Y138385D01*
X8971Y138529D01*
X9986Y138949D01*
X10858Y139618D01*
X11527Y140490D01*
X11948Y141505D01*
X12091Y142595D01*
X11948Y143684D01*
X11527Y144699D01*
X10858Y145571D01*
X9986Y146240D01*
X8971Y146660D01*
X7882Y146804D01*
D02*
G37*
G36*
X314644Y143500D02*
X310356D01*
X310428Y143142D01*
X310914Y142414D01*
X311492Y142028D01*
X311508Y141978D01*
Y141522D01*
X311492Y141472D01*
X310914Y141086D01*
X310428Y140358D01*
X310356Y140000D01*
X314644D01*
X314572Y140358D01*
X314086Y141086D01*
X313508Y141472D01*
X313492Y141522D01*
Y141978D01*
X313508Y142028D01*
X314086Y142414D01*
X314572Y143142D01*
X314644Y143500D01*
D02*
G37*
G36*
X309144D02*
X304856D01*
X304928Y143142D01*
X305414Y142414D01*
X305992Y142028D01*
X306008Y141978D01*
Y141522D01*
X305992Y141472D01*
X305414Y141086D01*
X304928Y140358D01*
X304856Y140000D01*
X309144D01*
X309072Y140358D01*
X308586Y141086D01*
X308008Y141472D01*
X307992Y141522D01*
Y141978D01*
X308008Y142028D01*
X308586Y142414D01*
X309072Y143142D01*
X309144Y143500D01*
D02*
G37*
G36*
X317500Y139000D02*
X315856D01*
X315928Y138642D01*
X316414Y137914D01*
X317142Y137428D01*
X317500Y137356D01*
Y139000D01*
D02*
G37*
G36*
X314644D02*
X313000D01*
Y137356D01*
X313358Y137428D01*
X314086Y137914D01*
X314572Y138642D01*
X314644Y139000D01*
D02*
G37*
G36*
X320144D02*
X318500D01*
Y137356D01*
X318858Y137428D01*
X319586Y137914D01*
X320072Y138642D01*
X320144Y139000D01*
D02*
G37*
G36*
X325644D02*
X324000D01*
Y137356D01*
X324358Y137428D01*
X325086Y137914D01*
X325572Y138642D01*
X325644Y139000D01*
D02*
G37*
G36*
X323000D02*
X321356D01*
X321428Y138642D01*
X321914Y137914D01*
X322642Y137428D01*
X323000Y137356D01*
Y139000D01*
D02*
G37*
G36*
X161016Y130628D02*
Y128984D01*
X162659D01*
X162588Y129343D01*
X162102Y130070D01*
X161374Y130557D01*
X161016Y130628D01*
D02*
G37*
G36*
X187500Y127000D02*
X185856D01*
X185928Y126642D01*
X186414Y125914D01*
X187142Y125428D01*
X187500Y125356D01*
Y127000D01*
D02*
G37*
G36*
X10244Y125888D02*
Y124244D01*
X11888D01*
X11817Y124602D01*
X11330Y125330D01*
X10603Y125817D01*
X10244Y125888D01*
D02*
G37*
G36*
X190144Y127000D02*
X188500D01*
Y125356D01*
X188858Y125428D01*
X189586Y125914D01*
X190072Y126642D01*
X190144Y127000D01*
D02*
G37*
G36*
X291144Y127256D02*
X289500D01*
Y125612D01*
X289858Y125684D01*
X290586Y126170D01*
X291072Y126898D01*
X291144Y127256D01*
D02*
G37*
G36*
X288500D02*
X286856D01*
X286928Y126898D01*
X287414Y126170D01*
X288142Y125684D01*
X288500Y125612D01*
Y127256D01*
D02*
G37*
G36*
X346500Y123644D02*
X346142Y123572D01*
X345414Y123086D01*
X344928Y122358D01*
X344856Y122000D01*
X346500D01*
Y123644D01*
D02*
G37*
G36*
X295500D02*
Y122000D01*
X297144D01*
X297072Y122358D01*
X296586Y123086D01*
X295858Y123572D01*
X295500Y123644D01*
D02*
G37*
G36*
X187500Y124144D02*
X187142Y124072D01*
X186414Y123586D01*
X185928Y122858D01*
X185856Y122500D01*
X187500D01*
Y124144D01*
D02*
G37*
G36*
X9244Y125888D02*
X8886Y125817D01*
X8158Y125330D01*
X7672Y124602D01*
X7600Y124244D01*
X9244D01*
Y125888D01*
D02*
G37*
G36*
X188500Y124144D02*
Y122500D01*
X190144D01*
X190072Y122858D01*
X189586Y123586D01*
X188858Y124072D01*
X188500Y124144D01*
D02*
G37*
G36*
X218500Y127500D02*
X216856D01*
X216928Y127142D01*
X217414Y126414D01*
X218142Y125928D01*
X218500Y125856D01*
Y127500D01*
D02*
G37*
G36*
X289500Y129900D02*
Y128256D01*
X291144D01*
X291072Y128614D01*
X290586Y129342D01*
X289858Y129828D01*
X289500Y129900D01*
D02*
G37*
G36*
X288500D02*
X288142Y129828D01*
X287414Y129342D01*
X286928Y128614D01*
X286856Y128256D01*
X288500D01*
Y129900D01*
D02*
G37*
G36*
X218500Y130144D02*
X218142Y130072D01*
X217414Y129586D01*
X216928Y128858D01*
X216856Y128500D01*
X218500D01*
Y130144D01*
D02*
G37*
G36*
X160016Y130628D02*
X159657Y130557D01*
X158930Y130070D01*
X158443Y129343D01*
X158372Y128984D01*
X160016D01*
Y130628D01*
D02*
G37*
G36*
X219500Y130144D02*
Y128500D01*
X221144D01*
X221072Y128858D01*
X220586Y129586D01*
X219858Y130072D01*
X219500Y130144D01*
D02*
G37*
G36*
X160016Y127984D02*
X158372D01*
X158443Y127626D01*
X158930Y126898D01*
X159657Y126412D01*
X160016Y126341D01*
Y127984D01*
D02*
G37*
G36*
X221144Y127500D02*
X219500D01*
Y125856D01*
X219858Y125928D01*
X220586Y126414D01*
X221072Y127142D01*
X221144Y127500D01*
D02*
G37*
G36*
X162659Y127984D02*
X161016D01*
Y126341D01*
X161374Y126412D01*
X162102Y126898D01*
X162588Y127626D01*
X162659Y127984D01*
D02*
G37*
G36*
X188500Y129644D02*
Y128000D01*
X190144D01*
X190072Y128358D01*
X189586Y129086D01*
X188858Y129572D01*
X188500Y129644D01*
D02*
G37*
G36*
X187500D02*
X187142Y129572D01*
X186414Y129086D01*
X185928Y128358D01*
X185856Y128000D01*
X187500D01*
Y129644D01*
D02*
G37*
G36*
X320144Y143500D02*
X315856D01*
X315928Y143142D01*
X316414Y142414D01*
X316992Y142028D01*
X317008Y141978D01*
Y141522D01*
X316992Y141472D01*
X316414Y141086D01*
X315928Y140358D01*
X315856Y140000D01*
X320144D01*
X320072Y140358D01*
X319586Y141086D01*
X319008Y141472D01*
X318992Y141522D01*
Y141978D01*
X319008Y142028D01*
X319586Y142414D01*
X320072Y143142D01*
X320144Y143500D01*
D02*
G37*
G36*
X331144Y157000D02*
X326856D01*
X326928Y156642D01*
X327414Y155914D01*
X327992Y155528D01*
X328008Y155478D01*
Y155022D01*
X327992Y154972D01*
X327414Y154586D01*
X326928Y153858D01*
X326856Y153500D01*
X331144D01*
X331072Y153858D01*
X330586Y154586D01*
X330008Y154972D01*
X329992Y155022D01*
Y155478D01*
X330008Y155528D01*
X330586Y155914D01*
X331072Y156642D01*
X331144Y157000D01*
D02*
G37*
G36*
X325644D02*
X321356D01*
X321428Y156642D01*
X321914Y155914D01*
X322492Y155528D01*
X322508Y155478D01*
Y155022D01*
X322492Y154972D01*
X321914Y154586D01*
X321428Y153858D01*
X321356Y153500D01*
X325644D01*
X325572Y153858D01*
X325086Y154586D01*
X324508Y154972D01*
X324492Y155022D01*
Y155478D01*
X324508Y155528D01*
X325086Y155914D01*
X325572Y156642D01*
X325644Y157000D01*
D02*
G37*
G36*
X76800Y156644D02*
X76442Y156572D01*
X75714Y156086D01*
X75228Y155358D01*
X75156Y155000D01*
X76800D01*
Y156644D01*
D02*
G37*
G36*
X166284Y160724D02*
X161671D01*
X161782Y159884D01*
X162299Y158635D01*
X163122Y157563D01*
X164194Y156740D01*
X165443Y156223D01*
X166284Y156112D01*
Y160724D01*
D02*
G37*
G36*
X77800Y156644D02*
Y155000D01*
X79444D01*
X79372Y155358D01*
X78886Y156086D01*
X78158Y156572D01*
X77800Y156644D01*
D02*
G37*
G36*
X79444Y154000D02*
X77800D01*
Y152356D01*
X78158Y152428D01*
X78886Y152914D01*
X79372Y153642D01*
X79444Y154000D01*
D02*
G37*
G36*
X76800D02*
X75156D01*
X75228Y153642D01*
X75714Y152914D01*
X76442Y152428D01*
X76800Y152356D01*
Y154000D01*
D02*
G37*
G36*
X309144Y157000D02*
X304856D01*
X304928Y156642D01*
X305414Y155914D01*
X305992Y155528D01*
X306008Y155478D01*
Y155022D01*
X305992Y154972D01*
X305414Y154586D01*
X304928Y153858D01*
X304856Y153500D01*
X309144D01*
X309072Y153858D01*
X308586Y154586D01*
X308008Y154972D01*
X307992Y155022D01*
Y155478D01*
X308008Y155528D01*
X308586Y155914D01*
X309072Y156642D01*
X309144Y157000D01*
D02*
G37*
G36*
X320144D02*
X315856D01*
X315928Y156642D01*
X316414Y155914D01*
X316992Y155528D01*
X317008Y155478D01*
Y155022D01*
X316992Y154972D01*
X316414Y154586D01*
X315928Y153858D01*
X315856Y153500D01*
X320144D01*
X320072Y153858D01*
X319586Y154586D01*
X319008Y154972D01*
X318992Y155022D01*
Y155478D01*
X319008Y155528D01*
X319586Y155914D01*
X320072Y156642D01*
X320144Y157000D01*
D02*
G37*
G36*
X314644D02*
X310356D01*
X310428Y156642D01*
X310914Y155914D01*
X311492Y155528D01*
X311508Y155478D01*
Y155022D01*
X311492Y154972D01*
X310914Y154586D01*
X310428Y153858D01*
X310356Y153500D01*
X314644D01*
X314572Y153858D01*
X314086Y154586D01*
X313508Y154972D01*
X313492Y155022D01*
Y155478D01*
X313508Y155528D01*
X314086Y155914D01*
X314572Y156642D01*
X314644Y157000D01*
D02*
G37*
G36*
X171896Y160724D02*
X167283D01*
Y156112D01*
X168124Y156223D01*
X169372Y156740D01*
X170445Y157563D01*
X171268Y158635D01*
X171785Y159884D01*
X171896Y160724D01*
D02*
G37*
G36*
X167283Y166337D02*
Y161724D01*
X171896D01*
X171785Y162565D01*
X171268Y163813D01*
X170445Y164886D01*
X169372Y165709D01*
X168124Y166226D01*
X167283Y166337D01*
D02*
G37*
G36*
X166284Y166337D02*
X165443Y166226D01*
X164194Y165709D01*
X163122Y164886D01*
X162299Y163813D01*
X161782Y162565D01*
X161671Y161724D01*
X166284D01*
Y166337D01*
D02*
G37*
G36*
X306500Y164144D02*
X306142Y164072D01*
X305414Y163586D01*
X304928Y162858D01*
X304856Y162500D01*
X306500D01*
Y164144D01*
D02*
G37*
G36*
X312000D02*
X311642Y164072D01*
X310914Y163586D01*
X310428Y162858D01*
X310356Y162500D01*
X312000D01*
Y164144D01*
D02*
G37*
G36*
X307500D02*
Y162500D01*
X309144D01*
X309072Y162858D01*
X308586Y163586D01*
X307858Y164072D01*
X307500Y164144D01*
D02*
G37*
G36*
X314644Y161500D02*
X310356D01*
X310428Y161142D01*
X310914Y160414D01*
X311492Y160028D01*
X311508Y159978D01*
Y159522D01*
X311492Y159472D01*
X310914Y159086D01*
X310428Y158358D01*
X310356Y158000D01*
X314644D01*
X314572Y158358D01*
X314086Y159086D01*
X313508Y159472D01*
X313492Y159522D01*
Y159978D01*
X313508Y160028D01*
X314086Y160414D01*
X314572Y161142D01*
X314644Y161500D01*
D02*
G37*
G36*
X309144D02*
X304856D01*
X304928Y161142D01*
X305414Y160414D01*
X305992Y160028D01*
X306008Y159978D01*
Y159522D01*
X305992Y159472D01*
X305414Y159086D01*
X304928Y158358D01*
X304856Y158000D01*
X309144D01*
X309072Y158358D01*
X308586Y159086D01*
X308008Y159472D01*
X307992Y159522D01*
Y159978D01*
X308008Y160028D01*
X308586Y160414D01*
X309072Y161142D01*
X309144Y161500D01*
D02*
G37*
G36*
X320144D02*
X315856D01*
X315928Y161142D01*
X316414Y160414D01*
X316992Y160028D01*
X317008Y159978D01*
Y159522D01*
X316992Y159472D01*
X316414Y159086D01*
X315928Y158358D01*
X315856Y158000D01*
X320144D01*
X320072Y158358D01*
X319586Y159086D01*
X319008Y159472D01*
X318992Y159522D01*
Y159978D01*
X319008Y160028D01*
X319586Y160414D01*
X320072Y161142D01*
X320144Y161500D01*
D02*
G37*
G36*
X331144D02*
X326856D01*
X326928Y161142D01*
X327414Y160414D01*
X327992Y160028D01*
X328008Y159978D01*
Y159522D01*
X327992Y159472D01*
X327414Y159086D01*
X326928Y158358D01*
X326856Y158000D01*
X331144D01*
X331072Y158358D01*
X330586Y159086D01*
X330008Y159472D01*
X329992Y159522D01*
Y159978D01*
X330008Y160028D01*
X330586Y160414D01*
X331072Y161142D01*
X331144Y161500D01*
D02*
G37*
G36*
X325644D02*
X321356D01*
X321428Y161142D01*
X321914Y160414D01*
X322492Y160028D01*
X322508Y159978D01*
Y159522D01*
X322492Y159472D01*
X321914Y159086D01*
X321428Y158358D01*
X321356Y158000D01*
X325644D01*
X325572Y158358D01*
X325086Y159086D01*
X324508Y159472D01*
X324492Y159522D01*
Y159978D01*
X324508Y160028D01*
X325086Y160414D01*
X325572Y161142D01*
X325644Y161500D01*
D02*
G37*
G36*
X55500Y152444D02*
Y150800D01*
X57144D01*
X57072Y151158D01*
X56586Y151886D01*
X55858Y152372D01*
X55500Y152444D01*
D02*
G37*
G36*
X309144Y148000D02*
X304856D01*
X304928Y147642D01*
X305414Y146914D01*
X305992Y146528D01*
X306008Y146478D01*
Y146022D01*
X305992Y145972D01*
X305414Y145586D01*
X304928Y144858D01*
X304856Y144500D01*
X309144D01*
X309072Y144858D01*
X308586Y145586D01*
X308008Y145972D01*
X307992Y146022D01*
Y146478D01*
X308008Y146528D01*
X308586Y146914D01*
X309072Y147642D01*
X309144Y148000D01*
D02*
G37*
G36*
X244500Y144644D02*
Y143000D01*
X246144D01*
X246072Y143358D01*
X245586Y144086D01*
X244858Y144572D01*
X244500Y144644D01*
D02*
G37*
G36*
X314644Y148000D02*
X310356D01*
X310428Y147642D01*
X310914Y146914D01*
X311492Y146528D01*
X311508Y146478D01*
Y146022D01*
X311492Y145972D01*
X310914Y145586D01*
X310428Y144858D01*
X310356Y144500D01*
X314644D01*
X314572Y144858D01*
X314086Y145586D01*
X313508Y145972D01*
X313492Y146022D01*
Y146478D01*
X313508Y146528D01*
X314086Y146914D01*
X314572Y147642D01*
X314644Y148000D01*
D02*
G37*
G36*
X325644D02*
X321356D01*
X321428Y147642D01*
X321914Y146914D01*
X322492Y146528D01*
X322508Y146478D01*
Y146022D01*
X322492Y145972D01*
X321914Y145586D01*
X321428Y144858D01*
X321356Y144500D01*
X325644D01*
X325572Y144858D01*
X325086Y145586D01*
X324508Y145972D01*
X324492Y146022D01*
Y146478D01*
X324508Y146528D01*
X325086Y146914D01*
X325572Y147642D01*
X325644Y148000D01*
D02*
G37*
G36*
X320144D02*
X315856D01*
X315928Y147642D01*
X316414Y146914D01*
X316992Y146528D01*
X317008Y146478D01*
Y146022D01*
X316992Y145972D01*
X316414Y145586D01*
X315928Y144858D01*
X315856Y144500D01*
X320144D01*
X320072Y144858D01*
X319586Y145586D01*
X319008Y145972D01*
X318992Y146022D01*
Y146478D01*
X319008Y146528D01*
X319586Y146914D01*
X320072Y147642D01*
X320144Y148000D01*
D02*
G37*
G36*
X331144Y143500D02*
X326856D01*
X326928Y143142D01*
X327414Y142414D01*
X327992Y142028D01*
X328008Y141978D01*
Y141522D01*
X327992Y141472D01*
X327414Y141086D01*
X326928Y140358D01*
X326856Y140000D01*
X331144D01*
X331072Y140358D01*
X330586Y141086D01*
X330008Y141472D01*
X329992Y141522D01*
Y141978D01*
X330008Y142028D01*
X330586Y142414D01*
X331072Y143142D01*
X331144Y143500D01*
D02*
G37*
G36*
X325644D02*
X321356D01*
X321428Y143142D01*
X321914Y142414D01*
X322492Y142028D01*
X322508Y141978D01*
Y141522D01*
X322492Y141472D01*
X321914Y141086D01*
X321428Y140358D01*
X321356Y140000D01*
X325644D01*
X325572Y140358D01*
X325086Y141086D01*
X324508Y141472D01*
X324492Y141522D01*
Y141978D01*
X324508Y142028D01*
X325086Y142414D01*
X325572Y143142D01*
X325644Y143500D01*
D02*
G37*
G36*
X243500Y142000D02*
X241856D01*
X241928Y141642D01*
X242414Y140914D01*
X243142Y140428D01*
X243500Y140356D01*
Y142000D01*
D02*
G37*
G36*
Y144644D02*
X243142Y144572D01*
X242414Y144086D01*
X241928Y143358D01*
X241856Y143000D01*
X243500D01*
Y144644D01*
D02*
G37*
G36*
X246144Y142000D02*
X244500D01*
Y140356D01*
X244858Y140428D01*
X245586Y140914D01*
X246072Y141642D01*
X246144Y142000D01*
D02*
G37*
G36*
X331144Y148000D02*
X326856D01*
X326928Y147642D01*
X327414Y146914D01*
X327992Y146528D01*
X328008Y146478D01*
Y146022D01*
X327992Y145972D01*
X327414Y145586D01*
X326928Y144858D01*
X326856Y144500D01*
X331144D01*
X331072Y144858D01*
X330586Y145586D01*
X330008Y145972D01*
X329992Y146022D01*
Y146478D01*
X330008Y146528D01*
X330586Y146914D01*
X331072Y147642D01*
X331144Y148000D01*
D02*
G37*
G36*
X325644Y152500D02*
X321356D01*
X321428Y152142D01*
X321914Y151414D01*
X322492Y151028D01*
X322508Y150978D01*
Y150522D01*
X322492Y150472D01*
X321914Y150086D01*
X321428Y149358D01*
X321356Y149000D01*
X325644D01*
X325572Y149358D01*
X325086Y150086D01*
X324508Y150472D01*
X324492Y150522D01*
Y150978D01*
X324508Y151028D01*
X325086Y151414D01*
X325572Y152142D01*
X325644Y152500D01*
D02*
G37*
G36*
X320144D02*
X315856D01*
X315928Y152142D01*
X316414Y151414D01*
X316992Y151028D01*
X317008Y150978D01*
Y150522D01*
X316992Y150472D01*
X316414Y150086D01*
X315928Y149358D01*
X315856Y149000D01*
X320144D01*
X320072Y149358D01*
X319586Y150086D01*
X319008Y150472D01*
X318992Y150522D01*
Y150978D01*
X319008Y151028D01*
X319586Y151414D01*
X320072Y152142D01*
X320144Y152500D01*
D02*
G37*
G36*
X331144D02*
X326856D01*
X326928Y152142D01*
X327414Y151414D01*
X327992Y151028D01*
X328008Y150978D01*
Y150522D01*
X327992Y150472D01*
X327414Y150086D01*
X326928Y149358D01*
X326856Y149000D01*
X331144D01*
X331072Y149358D01*
X330586Y150086D01*
X330008Y150472D01*
X329992Y150522D01*
Y150978D01*
X330008Y151028D01*
X330586Y151414D01*
X331072Y152142D01*
X331144Y152500D01*
D02*
G37*
G36*
X54500Y152444D02*
X54142Y152372D01*
X53414Y151886D01*
X52928Y151158D01*
X52856Y150800D01*
X54500D01*
Y152444D01*
D02*
G37*
G36*
X7882Y158615D02*
X6792Y158471D01*
X5777Y158051D01*
X4905Y157382D01*
X4237Y156510D01*
X3816Y155495D01*
X3673Y154405D01*
X3816Y153316D01*
X4237Y152301D01*
X4905Y151429D01*
X5777Y150760D01*
X6792Y150340D01*
X7882Y150196D01*
X8971Y150340D01*
X9986Y150760D01*
X10858Y151429D01*
X11527Y152301D01*
X11948Y153316D01*
X12091Y154405D01*
X11948Y155495D01*
X11527Y156510D01*
X10858Y157382D01*
X9986Y158051D01*
X8971Y158471D01*
X7882Y158615D01*
D02*
G37*
G36*
X54500Y149800D02*
X52856D01*
X52928Y149442D01*
X53414Y148714D01*
X54142Y148228D01*
X54500Y148156D01*
Y149800D01*
D02*
G37*
G36*
X249000Y168500D02*
X247576Y168312D01*
X246250Y167763D01*
X245111Y166889D01*
X244237Y165750D01*
X243688Y164424D01*
X243500Y163000D01*
X243688Y161576D01*
X244237Y160250D01*
X245111Y159111D01*
X245352Y158926D01*
X245191Y158453D01*
X243547D01*
Y147547D01*
X254453D01*
Y158453D01*
X252809D01*
X252648Y158926D01*
X252889Y159111D01*
X253763Y160250D01*
X254312Y161576D01*
X254500Y163000D01*
X254312Y164424D01*
X253763Y165750D01*
X252889Y166889D01*
X251750Y167763D01*
X250424Y168312D01*
X249000Y168500D01*
D02*
G37*
G36*
X57144Y149800D02*
X55500D01*
Y148156D01*
X55858Y148228D01*
X56586Y148714D01*
X57072Y149442D01*
X57144Y149800D01*
D02*
G37*
G36*
X314644Y152500D02*
X310356D01*
X310428Y152142D01*
X310914Y151414D01*
X311492Y151028D01*
X311508Y150978D01*
Y150522D01*
X311492Y150472D01*
X310914Y150086D01*
X310428Y149358D01*
X310356Y149000D01*
X314644D01*
X314572Y149358D01*
X314086Y150086D01*
X313508Y150472D01*
X313492Y150522D01*
Y150978D01*
X313508Y151028D01*
X314086Y151414D01*
X314572Y152142D01*
X314644Y152500D01*
D02*
G37*
G36*
X309144D02*
X304856D01*
X304928Y152142D01*
X305414Y151414D01*
X305992Y151028D01*
X306008Y150978D01*
Y150522D01*
X305992Y150472D01*
X305414Y150086D01*
X304928Y149358D01*
X304856Y149000D01*
X309144D01*
X309072Y149358D01*
X308586Y150086D01*
X308008Y150472D01*
X307992Y150522D01*
Y150978D01*
X308008Y151028D01*
X308586Y151414D01*
X309072Y152142D01*
X309144Y152500D01*
D02*
G37*
G36*
X211144Y26500D02*
X209500D01*
Y24856D01*
X209858Y24928D01*
X210586Y25414D01*
X211072Y26142D01*
X211144Y26500D01*
D02*
G37*
G36*
X208500D02*
X206856D01*
X206928Y26142D01*
X207414Y25414D01*
X208142Y24928D01*
X208500Y24856D01*
Y26500D01*
D02*
G37*
G36*
X277500Y26644D02*
X277142Y26572D01*
X276414Y26086D01*
X275928Y25358D01*
X275856Y25000D01*
X277500D01*
Y26644D01*
D02*
G37*
G36*
X208500Y29144D02*
X208142Y29072D01*
X207414Y28586D01*
X206928Y27858D01*
X206856Y27500D01*
X208500D01*
Y29144D01*
D02*
G37*
G36*
X278500Y26644D02*
Y25000D01*
X280144D01*
X280072Y25358D01*
X279586Y26086D01*
X278858Y26572D01*
X278500Y26644D01*
D02*
G37*
G36*
X284000Y13000D02*
X282356D01*
X282428Y12642D01*
X282914Y11914D01*
X283642Y11428D01*
X284000Y11356D01*
Y13000D01*
D02*
G37*
G36*
X5000Y12144D02*
Y10500D01*
X6644D01*
X6572Y10858D01*
X6086Y11586D01*
X5358Y12072D01*
X5000Y12144D01*
D02*
G37*
G36*
X284000Y15644D02*
X283642Y15572D01*
X282914Y15086D01*
X282428Y14358D01*
X282356Y14000D01*
X284000D01*
Y15644D01*
D02*
G37*
G36*
X280144Y24000D02*
X278500D01*
Y22356D01*
X278858Y22428D01*
X279586Y22914D01*
X280072Y23642D01*
X280144Y24000D01*
D02*
G37*
G36*
X277500D02*
X275856D01*
X275928Y23642D01*
X276414Y22914D01*
X277142Y22428D01*
X277500Y22356D01*
Y24000D01*
D02*
G37*
G36*
X209500Y29144D02*
Y27500D01*
X211144D01*
X211072Y27858D01*
X210586Y28586D01*
X209858Y29072D01*
X209500Y29144D01*
D02*
G37*
G36*
X27500Y54644D02*
X27142Y54572D01*
X26414Y54086D01*
X25928Y53358D01*
X25856Y53000D01*
X27500D01*
Y54644D01*
D02*
G37*
G36*
X30144Y52000D02*
X28500D01*
Y50356D01*
X28858Y50428D01*
X29586Y50914D01*
X30072Y51642D01*
X30144Y52000D01*
D02*
G37*
G36*
X28500Y54644D02*
Y53000D01*
X30144D01*
X30072Y53358D01*
X29586Y54086D01*
X28858Y54572D01*
X28500Y54644D01*
D02*
G37*
G36*
X301000Y58144D02*
X300642Y58072D01*
X299914Y57586D01*
X299428Y56858D01*
X299356Y56500D01*
X301000D01*
Y58144D01*
D02*
G37*
G36*
X6644Y58000D02*
X5000D01*
Y56356D01*
X5358Y56428D01*
X6086Y56914D01*
X6572Y57642D01*
X6644Y58000D01*
D02*
G37*
G36*
X5000Y36644D02*
Y35000D01*
X6644D01*
X6572Y35358D01*
X6086Y36086D01*
X5358Y36572D01*
X5000Y36644D01*
D02*
G37*
G36*
X6644Y34000D02*
X5000D01*
Y32356D01*
X5358Y32428D01*
X6086Y32914D01*
X6572Y33642D01*
X6644Y34000D01*
D02*
G37*
G36*
X284000Y37500D02*
X282356D01*
X282428Y37142D01*
X282914Y36414D01*
X283642Y35928D01*
X284000Y35856D01*
Y37500D01*
D02*
G37*
G36*
X27500Y52000D02*
X25856D01*
X25928Y51642D01*
X26414Y50914D01*
X27142Y50428D01*
X27500Y50356D01*
Y52000D01*
D02*
G37*
G36*
X284000Y40144D02*
X283642Y40072D01*
X282914Y39586D01*
X282428Y38858D01*
X282356Y38500D01*
X284000D01*
Y40144D01*
D02*
G37*
G36*
X6644Y9500D02*
X5000D01*
Y7856D01*
X5358Y7928D01*
X6086Y8414D01*
X6572Y9142D01*
X6644Y9500D01*
D02*
G37*
G36*
X87500Y6144D02*
X87142Y6072D01*
X86414Y5586D01*
X85928Y4858D01*
X85856Y4500D01*
X87500D01*
Y6144D01*
D02*
G37*
G36*
X64500D02*
Y4500D01*
X66144D01*
X66072Y4858D01*
X65586Y5586D01*
X64858Y6072D01*
X64500Y6144D01*
D02*
G37*
G36*
X88500D02*
Y4500D01*
X90144D01*
X90072Y4858D01*
X89586Y5586D01*
X88858Y6072D01*
X88500Y6144D01*
D02*
G37*
G36*
X136500D02*
Y4500D01*
X138144D01*
X138072Y4858D01*
X137586Y5586D01*
X136858Y6072D01*
X136500Y6144D01*
D02*
G37*
G36*
X135500D02*
X135142Y6072D01*
X134414Y5586D01*
X133928Y4858D01*
X133856Y4500D01*
X135500D01*
Y6144D01*
D02*
G37*
G36*
X113000Y5644D02*
Y4000D01*
X114644D01*
X114572Y4358D01*
X114086Y5086D01*
X113358Y5572D01*
X113000Y5644D01*
D02*
G37*
G36*
X112000D02*
X111642Y5572D01*
X110914Y5086D01*
X110428Y4358D01*
X110356Y4000D01*
X112000D01*
Y5644D01*
D02*
G37*
G36*
X39500Y6144D02*
X39142Y6072D01*
X38414Y5586D01*
X37928Y4858D01*
X37856Y4500D01*
X39500D01*
Y6144D01*
D02*
G37*
G36*
X63500D02*
X63142Y6072D01*
X62414Y5586D01*
X61928Y4858D01*
X61856Y4500D01*
X63500D01*
Y6144D01*
D02*
G37*
G36*
X40500D02*
Y4500D01*
X42144D01*
X42072Y4858D01*
X41586Y5586D01*
X40858Y6072D01*
X40500Y6144D01*
D02*
G37*
G36*
X159500D02*
X159142Y6072D01*
X158414Y5586D01*
X157928Y4858D01*
X157856Y4500D01*
X159500D01*
Y6144D01*
D02*
G37*
G36*
X233500D02*
Y4500D01*
X235144D01*
X235072Y4858D01*
X234586Y5586D01*
X233858Y6072D01*
X233500Y6144D01*
D02*
G37*
G36*
X232500D02*
X232142Y6072D01*
X231414Y5586D01*
X230928Y4858D01*
X230856Y4500D01*
X232500D01*
Y6144D01*
D02*
G37*
G36*
X256500D02*
X256142Y6072D01*
X255414Y5586D01*
X254928Y4858D01*
X254856Y4500D01*
X256500D01*
Y6144D01*
D02*
G37*
G36*
X280500D02*
X280142Y6072D01*
X279414Y5586D01*
X278928Y4858D01*
X278856Y4500D01*
X280500D01*
Y6144D01*
D02*
G37*
G36*
X257500D02*
Y4500D01*
X259144D01*
X259072Y4858D01*
X258586Y5586D01*
X257858Y6072D01*
X257500Y6144D01*
D02*
G37*
G36*
X183500D02*
X183142Y6072D01*
X182414Y5586D01*
X181928Y4858D01*
X181856Y4500D01*
X183500D01*
Y6144D01*
D02*
G37*
G36*
X160500D02*
Y4500D01*
X162144D01*
X162072Y4858D01*
X161586Y5586D01*
X160858Y6072D01*
X160500Y6144D01*
D02*
G37*
G36*
X184500D02*
Y4500D01*
X186144D01*
X186072Y4858D01*
X185586Y5586D01*
X184858Y6072D01*
X184500Y6144D01*
D02*
G37*
G36*
X209000D02*
Y4500D01*
X210644D01*
X210572Y4858D01*
X210086Y5586D01*
X209358Y6072D01*
X209000Y6144D01*
D02*
G37*
G36*
X208000D02*
X207642Y6072D01*
X206914Y5586D01*
X206428Y4858D01*
X206356Y4500D01*
X208000D01*
Y6144D01*
D02*
G37*
G36*
X302000Y58144D02*
Y56500D01*
X303644D01*
X303572Y56858D01*
X303086Y57586D01*
X302358Y58072D01*
X302000Y58144D01*
D02*
G37*
G36*
X5000Y109144D02*
Y107500D01*
X6644D01*
X6572Y107858D01*
X6086Y108586D01*
X5358Y109072D01*
X5000Y109144D01*
D02*
G37*
G36*
X136388Y108744D02*
X134744D01*
Y107100D01*
X135102Y107172D01*
X135830Y107658D01*
X136317Y108386D01*
X136388Y108744D01*
D02*
G37*
G36*
X133744Y111388D02*
X133386Y111317D01*
X132658Y110830D01*
X132172Y110102D01*
X132100Y109744D01*
X133744D01*
Y111388D01*
D02*
G37*
G36*
X132500Y119500D02*
X130856D01*
X130928Y119142D01*
X131414Y118414D01*
X132142Y117928D01*
X132500Y117856D01*
Y119500D01*
D02*
G37*
G36*
X134744Y111388D02*
Y109744D01*
X136388D01*
X136317Y110102D01*
X135830Y110830D01*
X135102Y111317D01*
X134744Y111388D01*
D02*
G37*
G36*
X208500Y97644D02*
Y96000D01*
X210144D01*
X210072Y96358D01*
X209586Y97086D01*
X208858Y97572D01*
X208500Y97644D01*
D02*
G37*
G36*
X207500D02*
X207142Y97572D01*
X206414Y97086D01*
X205928Y96358D01*
X205856Y96000D01*
X207500D01*
Y97644D01*
D02*
G37*
G36*
X346500Y99144D02*
X346142Y99072D01*
X345414Y98586D01*
X344928Y97858D01*
X344856Y97500D01*
X346500D01*
Y99144D01*
D02*
G37*
G36*
X133744Y108744D02*
X132100D01*
X132172Y108386D01*
X132658Y107658D01*
X133386Y107172D01*
X133744Y107100D01*
Y108744D01*
D02*
G37*
G36*
X6644Y106500D02*
X5000D01*
Y104856D01*
X5358Y104928D01*
X6086Y105414D01*
X6572Y106142D01*
X6644Y106500D01*
D02*
G37*
G36*
X135144Y119500D02*
X133500D01*
Y117856D01*
X133858Y117928D01*
X134586Y118414D01*
X135072Y119142D01*
X135144Y119500D01*
D02*
G37*
G36*
X133500Y122144D02*
Y120500D01*
X135144D01*
X135072Y120858D01*
X134586Y121586D01*
X133858Y122072D01*
X133500Y122144D01*
D02*
G37*
G36*
X132500D02*
X132142Y122072D01*
X131414Y121586D01*
X130928Y120858D01*
X130856Y120500D01*
X132500D01*
Y122144D01*
D02*
G37*
G36*
X9244Y123244D02*
X7600D01*
X7672Y122886D01*
X8158Y122158D01*
X8886Y121672D01*
X9244Y121600D01*
Y123244D01*
D02*
G37*
G36*
X294500Y123644D02*
X294142Y123572D01*
X293414Y123086D01*
X292928Y122358D01*
X292856Y122000D01*
X294500D01*
Y123644D01*
D02*
G37*
G36*
X11888Y123244D02*
X10244D01*
Y121600D01*
X10603Y121672D01*
X11330Y122158D01*
X11817Y122886D01*
X11888Y123244D01*
D02*
G37*
G36*
X297144Y121000D02*
X295500D01*
Y119356D01*
X295858Y119428D01*
X296586Y119914D01*
X297072Y120642D01*
X297144Y121000D01*
D02*
G37*
G36*
X294500D02*
X292856D01*
X292928Y120642D01*
X293414Y119914D01*
X294142Y119428D01*
X294500Y119356D01*
Y121000D01*
D02*
G37*
G36*
X346500D02*
X344856D01*
X344928Y120642D01*
X345414Y119914D01*
X346142Y119428D01*
X346500Y119356D01*
Y121000D01*
D02*
G37*
G36*
X190144Y121500D02*
X188500D01*
Y119856D01*
X188858Y119928D01*
X189586Y120414D01*
X190072Y121142D01*
X190144Y121500D01*
D02*
G37*
G36*
X187500D02*
X185856D01*
X185928Y121142D01*
X186414Y120414D01*
X187142Y119928D01*
X187500Y119856D01*
Y121500D01*
D02*
G37*
G36*
X346500Y96500D02*
X344856D01*
X344928Y96142D01*
X345414Y95414D01*
X346142Y94928D01*
X346500Y94856D01*
Y96500D01*
D02*
G37*
G36*
X208500Y68644D02*
Y67000D01*
X210144D01*
X210072Y67358D01*
X209586Y68086D01*
X208858Y68572D01*
X208500Y68644D01*
D02*
G37*
G36*
X207500D02*
X207142Y68572D01*
X206414Y68086D01*
X205928Y67358D01*
X205856Y67000D01*
X207500D01*
Y68644D01*
D02*
G37*
G36*
X183500Y70000D02*
X181856D01*
X181928Y69642D01*
X182414Y68914D01*
X183142Y68428D01*
X183500Y68356D01*
Y70000D01*
D02*
G37*
G36*
X346500Y72000D02*
X344856D01*
X344928Y71642D01*
X345414Y70914D01*
X346142Y70428D01*
X346500Y70356D01*
Y72000D01*
D02*
G37*
G36*
X186144Y70000D02*
X184500D01*
Y68356D01*
X184858Y68428D01*
X185586Y68914D01*
X186072Y69642D01*
X186144Y70000D01*
D02*
G37*
G36*
X326000Y58144D02*
Y56500D01*
X327644D01*
X327572Y56858D01*
X327086Y57586D01*
X326358Y58072D01*
X326000Y58144D01*
D02*
G37*
G36*
X325000D02*
X324642Y58072D01*
X323914Y57586D01*
X323428Y56858D01*
X323356Y56500D01*
X325000D01*
Y58144D01*
D02*
G37*
G36*
X5000Y60644D02*
Y59000D01*
X6644D01*
X6572Y59358D01*
X6086Y60086D01*
X5358Y60572D01*
X5000Y60644D01*
D02*
G37*
G36*
X210144Y66000D02*
X208500D01*
Y64356D01*
X208858Y64428D01*
X209586Y64914D01*
X210072Y65642D01*
X210144Y66000D01*
D02*
G37*
G36*
X207500D02*
X205856D01*
X205928Y65642D01*
X206414Y64914D01*
X207142Y64428D01*
X207500Y64356D01*
Y66000D01*
D02*
G37*
G36*
X183500Y72644D02*
X183142Y72572D01*
X182414Y72086D01*
X181928Y71358D01*
X181856Y71000D01*
X183500D01*
Y72644D01*
D02*
G37*
G36*
X207500Y86644D02*
X207142Y86572D01*
X206414Y86086D01*
X205928Y85358D01*
X205856Y85000D01*
X207500D01*
Y86644D01*
D02*
G37*
G36*
X5000Y84644D02*
Y83000D01*
X6644D01*
X6572Y83358D01*
X6086Y84086D01*
X5358Y84572D01*
X5000Y84644D01*
D02*
G37*
G36*
X208500Y86644D02*
Y85000D01*
X210144D01*
X210072Y85358D01*
X209586Y86086D01*
X208858Y86572D01*
X208500Y86644D01*
D02*
G37*
G36*
X210144Y95000D02*
X208500D01*
Y93356D01*
X208858Y93428D01*
X209586Y93914D01*
X210072Y94642D01*
X210144Y95000D01*
D02*
G37*
G36*
X207500D02*
X205856D01*
X205928Y94642D01*
X206414Y93914D01*
X207142Y93428D01*
X207500Y93356D01*
Y95000D01*
D02*
G37*
G36*
X346500Y74644D02*
X346142Y74572D01*
X345414Y74086D01*
X344928Y73358D01*
X344856Y73000D01*
X346500D01*
Y74644D01*
D02*
G37*
G36*
X184500Y72644D02*
Y71000D01*
X186144D01*
X186072Y71358D01*
X185586Y72086D01*
X184858Y72572D01*
X184500Y72644D01*
D02*
G37*
G36*
X6644Y82000D02*
X5000D01*
Y80356D01*
X5358Y80428D01*
X6086Y80914D01*
X6572Y81642D01*
X6644Y82000D01*
D02*
G37*
G36*
X210144Y84000D02*
X208500D01*
Y82356D01*
X208858Y82428D01*
X209586Y82914D01*
X210072Y83642D01*
X210144Y84000D01*
D02*
G37*
G36*
X207500D02*
X205856D01*
X205928Y83642D01*
X206414Y82914D01*
X207142Y82428D01*
X207500Y82356D01*
Y84000D01*
D02*
G37*
G36*
X313000Y164144D02*
Y162500D01*
X314644D01*
X314572Y162858D01*
X314086Y163586D01*
X313358Y164072D01*
X313000Y164144D01*
D02*
G37*
G36*
X282500Y249500D02*
X280856D01*
X280928Y249142D01*
X281414Y248414D01*
X282142Y247928D01*
X282500Y247856D01*
Y249500D01*
D02*
G37*
G36*
X227644Y249000D02*
X226000D01*
Y247356D01*
X226358Y247428D01*
X227086Y247914D01*
X227572Y248642D01*
X227644Y249000D01*
D02*
G37*
G36*
X285144Y249500D02*
X283500D01*
Y247856D01*
X283858Y247928D01*
X284586Y248414D01*
X285072Y249142D01*
X285144Y249500D01*
D02*
G37*
G36*
X15500Y251921D02*
Y248500D01*
X18921D01*
X18851Y249032D01*
X18453Y249993D01*
X17819Y250819D01*
X16993Y251453D01*
X16032Y251851D01*
X15500Y251921D01*
D02*
G37*
G36*
X14500D02*
X13968Y251851D01*
X13007Y251453D01*
X12181Y250819D01*
X11547Y249993D01*
X11149Y249032D01*
X11079Y248500D01*
X14500D01*
Y251921D01*
D02*
G37*
G36*
X288531Y245175D02*
X288173Y245104D01*
X287445Y244618D01*
X286959Y243890D01*
X286888Y243531D01*
X288531D01*
Y245175D01*
D02*
G37*
G36*
X164500Y245921D02*
Y242500D01*
X167921D01*
X167851Y243032D01*
X167453Y243993D01*
X166819Y244819D01*
X165993Y245453D01*
X165032Y245851D01*
X164500Y245921D01*
D02*
G37*
G36*
X14500Y247500D02*
X11079D01*
X11149Y246968D01*
X11547Y246007D01*
X12181Y245181D01*
X13007Y244547D01*
X13968Y244149D01*
X14500Y244079D01*
Y247500D01*
D02*
G37*
G36*
X225000Y249000D02*
X223356D01*
X223428Y248642D01*
X223914Y247914D01*
X224642Y247428D01*
X225000Y247356D01*
Y249000D01*
D02*
G37*
G36*
X18921Y247500D02*
X15500D01*
Y244079D01*
X16032Y244149D01*
X16993Y244547D01*
X17819Y245181D01*
X18453Y246007D01*
X18851Y246968D01*
X18921Y247500D01*
D02*
G37*
G36*
X225000Y251644D02*
X224642Y251572D01*
X223914Y251086D01*
X223428Y250358D01*
X223356Y250000D01*
X225000D01*
Y251644D01*
D02*
G37*
G36*
X35144Y261500D02*
X33500D01*
Y259856D01*
X33858Y259928D01*
X34586Y260414D01*
X35072Y261142D01*
X35144Y261500D01*
D02*
G37*
G36*
X32500D02*
X30856D01*
X30928Y261142D01*
X31414Y260414D01*
X32142Y259928D01*
X32500Y259856D01*
Y261500D01*
D02*
G37*
G36*
X5000Y263644D02*
Y262000D01*
X6644D01*
X6572Y262358D01*
X6086Y263086D01*
X5358Y263572D01*
X5000Y263644D01*
D02*
G37*
G36*
X33500Y264144D02*
Y262500D01*
X35144D01*
X35072Y262858D01*
X34586Y263586D01*
X33858Y264072D01*
X33500Y264144D01*
D02*
G37*
G36*
X32500D02*
X32142Y264072D01*
X31414Y263586D01*
X30928Y262858D01*
X30856Y262500D01*
X32500D01*
Y264144D01*
D02*
G37*
G36*
X282500Y252144D02*
X282142Y252072D01*
X281414Y251586D01*
X280928Y250858D01*
X280856Y250500D01*
X282500D01*
Y252144D01*
D02*
G37*
G36*
X226000Y251644D02*
Y250000D01*
X227644D01*
X227572Y250358D01*
X227086Y251086D01*
X226358Y251572D01*
X226000Y251644D01*
D02*
G37*
G36*
X283500Y252144D02*
Y250500D01*
X285144D01*
X285072Y250858D01*
X284586Y251586D01*
X283858Y252072D01*
X283500Y252144D01*
D02*
G37*
G36*
X6644Y261000D02*
X5000D01*
Y259356D01*
X5358Y259428D01*
X6086Y259914D01*
X6572Y260642D01*
X6644Y261000D01*
D02*
G37*
G36*
X78500Y266022D02*
X77128Y265841D01*
X75849Y265312D01*
X74751Y264469D01*
X73909Y263371D01*
X73379Y262092D01*
X73199Y260720D01*
X73379Y259348D01*
X73909Y258070D01*
X74751Y256972D01*
X75849Y256129D01*
X77128Y255600D01*
X78500Y255419D01*
X79872Y255600D01*
X81151Y256129D01*
X82249Y256972D01*
X83091Y258070D01*
X83621Y259348D01*
X83801Y260720D01*
X83621Y262092D01*
X83091Y263371D01*
X82249Y264469D01*
X81151Y265312D01*
X79872Y265841D01*
X78500Y266022D01*
D02*
G37*
G36*
X236000Y244144D02*
Y242500D01*
X237644D01*
X237572Y242858D01*
X237086Y243586D01*
X236358Y244072D01*
X236000Y244144D01*
D02*
G37*
G36*
X167921Y241500D02*
X164500D01*
Y238079D01*
X165032Y238149D01*
X165993Y238547D01*
X166819Y239181D01*
X167453Y240007D01*
X167851Y240968D01*
X167921Y241500D01*
D02*
G37*
G36*
X163500D02*
X160079D01*
X160149Y240968D01*
X160547Y240007D01*
X161181Y239181D01*
X162007Y238547D01*
X162968Y238149D01*
X163500Y238079D01*
Y241500D01*
D02*
G37*
G36*
X235000D02*
X233356D01*
X233428Y241142D01*
X233914Y240414D01*
X234642Y239928D01*
X235000Y239856D01*
Y241500D01*
D02*
G37*
G36*
X318531Y242469D02*
X316888D01*
X316959Y242110D01*
X317445Y241382D01*
X318173Y240896D01*
X318531Y240825D01*
Y242469D01*
D02*
G37*
G36*
X237644Y241500D02*
X236000D01*
Y239856D01*
X236358Y239928D01*
X237086Y240414D01*
X237572Y241142D01*
X237644Y241500D01*
D02*
G37*
G36*
X246000Y236144D02*
Y234500D01*
X247644D01*
X247572Y234858D01*
X247086Y235586D01*
X246358Y236072D01*
X246000Y236144D01*
D02*
G37*
G36*
X245000D02*
X244642Y236072D01*
X243914Y235586D01*
X243428Y234858D01*
X243356Y234500D01*
X245000D01*
Y236144D01*
D02*
G37*
G36*
X6644Y236500D02*
X5000D01*
Y234856D01*
X5358Y234928D01*
X6086Y235414D01*
X6572Y236142D01*
X6644Y236500D01*
D02*
G37*
G36*
X5000Y239144D02*
Y237500D01*
X6644D01*
X6572Y237858D01*
X6086Y238586D01*
X5358Y239072D01*
X5000Y239144D01*
D02*
G37*
G36*
X179453Y247453D02*
X168547D01*
Y236547D01*
X179453D01*
Y247453D01*
D02*
G37*
G36*
X321175Y242469D02*
X319531D01*
Y240825D01*
X319890Y240896D01*
X320618Y241382D01*
X321104Y242110D01*
X321175Y242469D01*
D02*
G37*
G36*
X336469Y242531D02*
X334825D01*
X334896Y242173D01*
X335382Y241445D01*
X336110Y240959D01*
X336469Y240888D01*
Y242531D01*
D02*
G37*
G36*
X291175D02*
X289531D01*
Y240888D01*
X289890Y240959D01*
X290618Y241445D01*
X291104Y242173D01*
X291175Y242531D01*
D02*
G37*
G36*
X339112D02*
X337469D01*
Y240888D01*
X337827Y240959D01*
X338555Y241445D01*
X339041Y242173D01*
X339112Y242531D01*
D02*
G37*
G36*
X235000Y244144D02*
X234642Y244072D01*
X233914Y243586D01*
X233428Y242858D01*
X233356Y242500D01*
X235000D01*
Y244144D01*
D02*
G37*
G36*
X163500Y245921D02*
X162968Y245851D01*
X162007Y245453D01*
X161181Y244819D01*
X160547Y243993D01*
X160149Y243032D01*
X160079Y242500D01*
X163500D01*
Y245921D01*
D02*
G37*
G36*
X301144Y242500D02*
X299500D01*
Y240856D01*
X299858Y240928D01*
X300586Y241414D01*
X301072Y242142D01*
X301144Y242500D01*
D02*
G37*
G36*
X298500D02*
X296856D01*
X296928Y242142D01*
X297414Y241414D01*
X298142Y240928D01*
X298500Y240856D01*
Y242500D01*
D02*
G37*
G36*
X308500D02*
X306856D01*
X306928Y242142D01*
X307414Y241414D01*
X308142Y240928D01*
X308500Y240856D01*
Y242500D01*
D02*
G37*
G36*
X288531Y242531D02*
X286888D01*
X286959Y242173D01*
X287445Y241445D01*
X288173Y240959D01*
X288531Y240888D01*
Y242531D01*
D02*
G37*
G36*
X311144Y242500D02*
X309500D01*
Y240856D01*
X309858Y240928D01*
X310586Y241414D01*
X311072Y242142D01*
X311144Y242500D01*
D02*
G37*
G36*
X174469Y269531D02*
X172825D01*
X172896Y269173D01*
X173382Y268445D01*
X174110Y267959D01*
X174469Y267888D01*
Y269531D01*
D02*
G37*
G36*
X279000Y290421D02*
X278468Y290351D01*
X277507Y289953D01*
X276681Y289319D01*
X276047Y288493D01*
X275649Y287532D01*
X275579Y287000D01*
X279000D01*
Y290421D01*
D02*
G37*
G36*
X270000D02*
Y287000D01*
X273421D01*
X273351Y287532D01*
X272953Y288493D01*
X272319Y289319D01*
X271493Y289953D01*
X270532Y290351D01*
X270000Y290421D01*
D02*
G37*
G36*
X280000D02*
Y287000D01*
X283421D01*
X283351Y287532D01*
X282953Y288493D01*
X282319Y289319D01*
X281493Y289953D01*
X280532Y290351D01*
X280000Y290421D01*
D02*
G37*
G36*
X121000Y295500D02*
X119356D01*
X119428Y295142D01*
X119914Y294414D01*
X120642Y293928D01*
X121000Y293856D01*
Y295500D01*
D02*
G37*
G36*
X259500Y292000D02*
X258077Y291812D01*
X256750Y291263D01*
X255611Y290389D01*
X254781Y289307D01*
X254500Y289276D01*
X254219Y289307D01*
X253389Y290389D01*
X252250Y291263D01*
X250923Y291812D01*
X249500Y292000D01*
X248077Y291812D01*
X246750Y291263D01*
X245611Y290389D01*
X244781Y289307D01*
X244500Y289276D01*
X244219Y289307D01*
X243389Y290389D01*
X242250Y291263D01*
X240924Y291812D01*
X239500Y292000D01*
X238076Y291812D01*
X236750Y291263D01*
X235611Y290389D01*
X234781Y289307D01*
X234500Y289276D01*
X234219Y289307D01*
X233389Y290389D01*
X232250Y291263D01*
X230924Y291812D01*
X229500Y292000D01*
X228077Y291812D01*
X226750Y291263D01*
X225611Y290389D01*
X224781Y289307D01*
X224500Y289276D01*
X224219Y289307D01*
X223389Y290389D01*
X222250Y291263D01*
X220923Y291812D01*
X219500Y292000D01*
X218076Y291812D01*
X216750Y291263D01*
X215611Y290389D01*
X215426Y290148D01*
X214953Y290309D01*
Y291953D01*
X204047D01*
Y281047D01*
X214953D01*
Y282691D01*
X215426Y282852D01*
X215611Y282611D01*
X216750Y281737D01*
X218076Y281188D01*
X219500Y281000D01*
X220923Y281188D01*
X222250Y281737D01*
X223389Y282611D01*
X224219Y283693D01*
X224500Y283724D01*
X224781Y283693D01*
X225611Y282611D01*
X226750Y281737D01*
X228077Y281188D01*
X229500Y281000D01*
X230924Y281188D01*
X232250Y281737D01*
X233389Y282611D01*
X234219Y283693D01*
X234500Y283724D01*
X234781Y283693D01*
X235611Y282611D01*
X236750Y281737D01*
X238076Y281188D01*
X239500Y281000D01*
X240924Y281188D01*
X242250Y281737D01*
X243389Y282611D01*
X244219Y283693D01*
X244500Y283724D01*
X244781Y283693D01*
X245611Y282611D01*
X246750Y281737D01*
X248077Y281188D01*
X249500Y281000D01*
X250923Y281188D01*
X252250Y281737D01*
X253389Y282611D01*
X254219Y283693D01*
X254500Y283724D01*
X254781Y283693D01*
X255611Y282611D01*
X256750Y281737D01*
X258077Y281188D01*
X259500Y281000D01*
X260924Y281188D01*
X262250Y281737D01*
X263389Y282611D01*
X264263Y283750D01*
X264812Y285076D01*
X265000Y286500D01*
X264812Y287924D01*
X264263Y289250D01*
X263389Y290389D01*
X262250Y291263D01*
X260924Y291812D01*
X259500Y292000D01*
D02*
G37*
G36*
X78500Y293581D02*
X77128Y293400D01*
X75849Y292871D01*
X74751Y292028D01*
X73909Y290930D01*
X73379Y289652D01*
X73199Y288280D01*
X73379Y286908D01*
X73909Y285629D01*
X74751Y284531D01*
X75849Y283688D01*
X77128Y283159D01*
X78500Y282978D01*
X79872Y283159D01*
X81151Y283688D01*
X82249Y284531D01*
X83091Y285629D01*
X83621Y286908D01*
X83801Y288280D01*
X83621Y289652D01*
X83091Y290930D01*
X82249Y292028D01*
X81151Y292871D01*
X79872Y293400D01*
X78500Y293581D01*
D02*
G37*
G36*
X283421Y286000D02*
X280000D01*
Y282579D01*
X280532Y282649D01*
X281493Y283047D01*
X282319Y283681D01*
X282953Y284507D01*
X283351Y285468D01*
X283421Y286000D01*
D02*
G37*
G36*
X6644Y285500D02*
X5000D01*
Y283856D01*
X5358Y283928D01*
X6086Y284414D01*
X6572Y285142D01*
X6644Y285500D01*
D02*
G37*
G36*
X269000Y290421D02*
X268468Y290351D01*
X267507Y289953D01*
X266681Y289319D01*
X266047Y288493D01*
X265649Y287532D01*
X265579Y287000D01*
X269000D01*
Y290421D01*
D02*
G37*
G36*
X5000Y288144D02*
Y286500D01*
X6644D01*
X6572Y286858D01*
X6086Y287586D01*
X5358Y288072D01*
X5000Y288144D01*
D02*
G37*
G36*
X123644Y295500D02*
X122000D01*
Y293856D01*
X122358Y293928D01*
X123086Y294414D01*
X123572Y295142D01*
X123644Y295500D01*
D02*
G37*
G36*
X145500Y296000D02*
X143856D01*
X143928Y295642D01*
X144414Y294914D01*
X145142Y294428D01*
X145500Y294356D01*
Y296000D01*
D02*
G37*
G36*
X50644D02*
X49000D01*
Y294356D01*
X49358Y294428D01*
X50086Y294914D01*
X50572Y295642D01*
X50644Y296000D01*
D02*
G37*
G36*
X148144D02*
X146500D01*
Y294356D01*
X146858Y294428D01*
X147586Y294914D01*
X148072Y295642D01*
X148144Y296000D01*
D02*
G37*
G36*
X196644D02*
X195000D01*
Y294356D01*
X195358Y294428D01*
X196086Y294914D01*
X196572Y295642D01*
X196644Y296000D01*
D02*
G37*
G36*
X194000D02*
X192356D01*
X192428Y295642D01*
X192914Y294914D01*
X193642Y294428D01*
X194000Y294356D01*
Y296000D01*
D02*
G37*
G36*
X172144Y295500D02*
X170500D01*
Y293856D01*
X170858Y293928D01*
X171586Y294414D01*
X172072Y295142D01*
X172144Y295500D01*
D02*
G37*
G36*
X169500D02*
X167856D01*
X167928Y295142D01*
X168414Y294414D01*
X169142Y293928D01*
X169500Y293856D01*
Y295500D01*
D02*
G37*
G36*
X23500Y296000D02*
X21856D01*
X21928Y295642D01*
X22414Y294914D01*
X23142Y294428D01*
X23500Y294356D01*
Y296000D01*
D02*
G37*
G36*
X48000D02*
X46356D01*
X46428Y295642D01*
X46914Y294914D01*
X47642Y294428D01*
X48000Y294356D01*
Y296000D01*
D02*
G37*
G36*
X26144D02*
X24500D01*
Y294356D01*
X24858Y294428D01*
X25586Y294914D01*
X26072Y295642D01*
X26144Y296000D01*
D02*
G37*
G36*
X279000Y286000D02*
X275579D01*
X275649Y285468D01*
X276047Y284507D01*
X276681Y283681D01*
X277507Y283047D01*
X278468Y282649D01*
X279000Y282579D01*
Y286000D01*
D02*
G37*
G36*
X175469Y272175D02*
Y270532D01*
X177112D01*
X177041Y270890D01*
X176555Y271618D01*
X175827Y272104D01*
X175469Y272175D01*
D02*
G37*
G36*
X174469D02*
X174110Y272104D01*
X173382Y271618D01*
X172896Y270890D01*
X172825Y270532D01*
X174469D01*
Y272175D01*
D02*
G37*
G36*
X119000Y273644D02*
X118642Y273572D01*
X117914Y273086D01*
X117428Y272358D01*
X117356Y272000D01*
X119000D01*
Y273644D01*
D02*
G37*
G36*
X140500D02*
X140142Y273572D01*
X139414Y273086D01*
X138928Y272358D01*
X138856Y272000D01*
X140500D01*
Y273644D01*
D02*
G37*
G36*
X120000D02*
Y272000D01*
X121644D01*
X121572Y272358D01*
X121086Y273086D01*
X120358Y273572D01*
X120000Y273644D01*
D02*
G37*
G36*
X119000Y271000D02*
X117356D01*
X117428Y270642D01*
X117914Y269914D01*
X118642Y269428D01*
X119000Y269356D01*
Y271000D01*
D02*
G37*
G36*
X177112Y269531D02*
X175469D01*
Y267888D01*
X175827Y267959D01*
X176555Y268445D01*
X177041Y269173D01*
X177112Y269531D01*
D02*
G37*
G36*
X121644Y271000D02*
X120000D01*
Y269356D01*
X120358Y269428D01*
X121086Y269914D01*
X121572Y270642D01*
X121644Y271000D01*
D02*
G37*
G36*
X143144D02*
X141500D01*
Y269356D01*
X141858Y269428D01*
X142586Y269914D01*
X143072Y270642D01*
X143144Y271000D01*
D02*
G37*
G36*
X140500D02*
X138856D01*
X138928Y270642D01*
X139414Y269914D01*
X140142Y269428D01*
X140500Y269356D01*
Y271000D01*
D02*
G37*
G36*
X141500Y273644D02*
Y272000D01*
X143144D01*
X143072Y272358D01*
X142586Y273086D01*
X141858Y273572D01*
X141500Y273644D01*
D02*
G37*
G36*
X103500Y283144D02*
X103142Y283072D01*
X102414Y282586D01*
X101928Y281858D01*
X101856Y281500D01*
X103500D01*
Y283144D01*
D02*
G37*
G36*
X106144Y280500D02*
X104500D01*
Y278856D01*
X104858Y278928D01*
X105586Y279414D01*
X106072Y280142D01*
X106144Y280500D01*
D02*
G37*
G36*
X104500Y283144D02*
Y281500D01*
X106144D01*
X106072Y281858D01*
X105586Y282586D01*
X104858Y283072D01*
X104500Y283144D01*
D02*
G37*
G36*
X273421Y286000D02*
X270000D01*
Y282579D01*
X270532Y282649D01*
X271493Y283047D01*
X272319Y283681D01*
X272953Y284507D01*
X273351Y285468D01*
X273421Y286000D01*
D02*
G37*
G36*
X269000D02*
X265579D01*
X265649Y285468D01*
X266047Y284507D01*
X266681Y283681D01*
X267507Y283047D01*
X268468Y282649D01*
X269000Y282579D01*
Y286000D01*
D02*
G37*
G36*
X285144Y274000D02*
X283500D01*
Y272356D01*
X283858Y272428D01*
X284586Y272914D01*
X285072Y273642D01*
X285144Y274000D01*
D02*
G37*
G36*
X282500D02*
X280856D01*
X280928Y273642D01*
X281414Y272914D01*
X282142Y272428D01*
X282500Y272356D01*
Y274000D01*
D02*
G37*
G36*
Y276644D02*
X282142Y276572D01*
X281414Y276086D01*
X280928Y275358D01*
X280856Y275000D01*
X282500D01*
Y276644D01*
D02*
G37*
G36*
X103500Y280500D02*
X101856D01*
X101928Y280142D01*
X102414Y279414D01*
X103142Y278928D01*
X103500Y278856D01*
Y280500D01*
D02*
G37*
G36*
X283500Y276644D02*
Y275000D01*
X285144D01*
X285072Y275358D01*
X284586Y276086D01*
X283858Y276572D01*
X283500Y276644D01*
D02*
G37*
G36*
X222500Y181144D02*
X222142Y181072D01*
X221414Y180586D01*
X220928Y179858D01*
X220856Y179500D01*
X222500D01*
Y181144D01*
D02*
G37*
G36*
X297144Y178500D02*
X295500D01*
Y176856D01*
X295858Y176928D01*
X296586Y177414D01*
X297072Y178142D01*
X297144Y178500D01*
D02*
G37*
G36*
X223500Y181144D02*
Y179500D01*
X225144D01*
X225072Y179858D01*
X224586Y180586D01*
X223858Y181072D01*
X223500Y181144D01*
D02*
G37*
G36*
X295500D02*
Y179500D01*
X297144D01*
X297072Y179858D01*
X296586Y180586D01*
X295858Y181072D01*
X295500Y181144D01*
D02*
G37*
G36*
X294500D02*
X294142Y181072D01*
X293414Y180586D01*
X292928Y179858D01*
X292856Y179500D01*
X294500D01*
Y181144D01*
D02*
G37*
G36*
X175157Y178742D02*
Y175504D01*
X178396D01*
X178332Y175988D01*
X177952Y176906D01*
X177348Y177694D01*
X176560Y178298D01*
X175642Y178679D01*
X175157Y178742D01*
D02*
G37*
G36*
X174158D02*
X173673Y178679D01*
X172755Y178298D01*
X171967Y177694D01*
X171363Y176906D01*
X170983Y175988D01*
X170919Y175504D01*
X174158D01*
Y178742D01*
D02*
G37*
G36*
X222500Y178500D02*
X220856D01*
X220928Y178142D01*
X221414Y177414D01*
X222142Y176928D01*
X222500Y176856D01*
Y178500D01*
D02*
G37*
G36*
X294500D02*
X292856D01*
X292928Y178142D01*
X293414Y177414D01*
X294142Y176928D01*
X294500Y176856D01*
Y178500D01*
D02*
G37*
G36*
X225144D02*
X223500D01*
Y176856D01*
X223858Y176928D01*
X224586Y177414D01*
X225072Y178142D01*
X225144Y178500D01*
D02*
G37*
G36*
X346500Y181500D02*
X344856D01*
X344928Y181142D01*
X345414Y180414D01*
X346142Y179928D01*
X346500Y179856D01*
Y181500D01*
D02*
G37*
G36*
X32000Y195000D02*
X30356D01*
X30428Y194642D01*
X30914Y193914D01*
X31642Y193428D01*
X32000Y193356D01*
Y195000D01*
D02*
G37*
G36*
X175157Y194490D02*
Y191252D01*
X178396D01*
X178332Y191737D01*
X177952Y192654D01*
X177348Y193442D01*
X176560Y194046D01*
X175642Y194427D01*
X175157Y194490D01*
D02*
G37*
G36*
X34644Y195000D02*
X33000D01*
Y193356D01*
X33358Y193428D01*
X34086Y193914D01*
X34572Y194642D01*
X34644Y195000D01*
D02*
G37*
G36*
X123644Y195500D02*
X122000D01*
Y193856D01*
X122358Y193928D01*
X123086Y194414D01*
X123572Y195142D01*
X123644Y195500D01*
D02*
G37*
G36*
X121000D02*
X119356D01*
X119428Y195142D01*
X119914Y194414D01*
X120642Y193928D01*
X121000Y193856D01*
Y195500D01*
D02*
G37*
G36*
X184500Y196069D02*
X183124Y195888D01*
X181841Y195357D01*
X180740Y194512D01*
X179895Y193411D01*
X179364Y192128D01*
X179183Y190752D01*
X179364Y189376D01*
X179895Y188093D01*
X180740Y186992D01*
X181841Y186147D01*
X183124Y185616D01*
X184500Y185435D01*
X185876Y185616D01*
X187159Y186147D01*
X188260Y186992D01*
X189105Y188093D01*
X189636Y189376D01*
X189817Y190752D01*
X189636Y192128D01*
X189105Y193411D01*
X188260Y194512D01*
X187159Y195357D01*
X185876Y195888D01*
X184500Y196069D01*
D02*
G37*
G36*
X346500Y184144D02*
X346142Y184072D01*
X345414Y183586D01*
X344928Y182858D01*
X344856Y182500D01*
X346500D01*
Y184144D01*
D02*
G37*
G36*
X178396Y190252D02*
X175157D01*
Y187014D01*
X175642Y187077D01*
X176560Y187457D01*
X177348Y188062D01*
X177952Y188850D01*
X178332Y189767D01*
X178396Y190252D01*
D02*
G37*
G36*
X174158Y194490D02*
X173673Y194427D01*
X172755Y194046D01*
X171967Y193442D01*
X171363Y192654D01*
X170983Y191737D01*
X170919Y191252D01*
X174158D01*
Y194490D01*
D02*
G37*
G36*
Y190252D02*
X170919D01*
X170983Y189767D01*
X171363Y188850D01*
X171967Y188062D01*
X172755Y187457D01*
X173673Y187077D01*
X174158Y187014D01*
Y190252D01*
D02*
G37*
G36*
X105500Y176444D02*
Y174800D01*
X107144D01*
X107072Y175158D01*
X106586Y175886D01*
X105858Y176372D01*
X105500Y176444D01*
D02*
G37*
G36*
X71500Y165300D02*
X70060D01*
X70116Y165020D01*
X70558Y164358D01*
X71220Y163916D01*
X71500Y163860D01*
Y165300D01*
D02*
G37*
G36*
X329500Y164144D02*
Y162500D01*
X331144D01*
X331072Y162858D01*
X330586Y163586D01*
X329858Y164072D01*
X329500Y164144D01*
D02*
G37*
G36*
X73940Y165300D02*
X72500D01*
Y163860D01*
X72780Y163916D01*
X73442Y164358D01*
X73884Y165020D01*
X73940Y165300D01*
D02*
G37*
G36*
X72500Y167740D02*
Y166300D01*
X73940D01*
X73884Y166580D01*
X73442Y167242D01*
X72780Y167684D01*
X72500Y167740D01*
D02*
G37*
G36*
X71500D02*
X71220Y167684D01*
X70558Y167242D01*
X70116Y166580D01*
X70060Y166300D01*
X71500D01*
Y167740D01*
D02*
G37*
G36*
X318500Y164144D02*
Y162500D01*
X320144D01*
X320072Y162858D01*
X319586Y163586D01*
X318858Y164072D01*
X318500Y164144D01*
D02*
G37*
G36*
X317500D02*
X317142Y164072D01*
X316414Y163586D01*
X315928Y162858D01*
X315856Y162500D01*
X317500D01*
Y164144D01*
D02*
G37*
G36*
X323000D02*
X322642Y164072D01*
X321914Y163586D01*
X321428Y162858D01*
X321356Y162500D01*
X323000D01*
Y164144D01*
D02*
G37*
G36*
X328500D02*
X328142Y164072D01*
X327414Y163586D01*
X326928Y162858D01*
X326856Y162500D01*
X328500D01*
Y164144D01*
D02*
G37*
G36*
X324000D02*
Y162500D01*
X325644D01*
X325572Y162858D01*
X325086Y163586D01*
X324358Y164072D01*
X324000Y164144D01*
D02*
G37*
G36*
X189772Y180276D02*
X179228D01*
Y169732D01*
X189772D01*
Y180276D01*
D02*
G37*
G36*
X107144Y173800D02*
X105500D01*
Y172156D01*
X105858Y172228D01*
X106586Y172714D01*
X107072Y173442D01*
X107144Y173800D01*
D02*
G37*
G36*
X104500D02*
X102856D01*
X102928Y173442D01*
X103414Y172714D01*
X104142Y172228D01*
X104500Y172156D01*
Y173800D01*
D02*
G37*
G36*
X288500Y174144D02*
X288142Y174072D01*
X287414Y173586D01*
X286928Y172858D01*
X286856Y172500D01*
X288500D01*
Y174144D01*
D02*
G37*
G36*
X104500Y176444D02*
X104142Y176372D01*
X103414Y175886D01*
X102928Y175158D01*
X102856Y174800D01*
X104500D01*
Y176444D01*
D02*
G37*
G36*
X289500Y174144D02*
Y172500D01*
X291144D01*
X291072Y172858D01*
X290586Y173586D01*
X289858Y174072D01*
X289500Y174144D01*
D02*
G37*
G36*
X291144Y171500D02*
X289500D01*
Y169856D01*
X289858Y169928D01*
X290586Y170414D01*
X291072Y171142D01*
X291144Y171500D01*
D02*
G37*
G36*
X288500D02*
X286856D01*
X286928Y171142D01*
X287414Y170414D01*
X288142Y169928D01*
X288500Y169856D01*
Y171500D01*
D02*
G37*
G36*
X174158Y174504D02*
X170919D01*
X170983Y174019D01*
X171363Y173102D01*
X171967Y172314D01*
X172755Y171709D01*
X173673Y171329D01*
X174158Y171266D01*
Y174504D01*
D02*
G37*
G36*
X255000Y192500D02*
X253576Y192312D01*
X252250Y191763D01*
X251111Y190889D01*
X250237Y189750D01*
X249688Y188424D01*
X249500Y187000D01*
X249688Y185576D01*
X250237Y184250D01*
X251111Y183111D01*
X251352Y182926D01*
X251191Y182453D01*
X249547D01*
Y171547D01*
X260453D01*
Y182453D01*
X258809D01*
X258648Y182926D01*
X258889Y183111D01*
X259763Y184250D01*
X260312Y185576D01*
X260500Y187000D01*
X260312Y188424D01*
X259763Y189750D01*
X258889Y190889D01*
X257750Y191763D01*
X256423Y192312D01*
X255000Y192500D01*
D02*
G37*
G36*
X178396Y174504D02*
X175157D01*
Y171266D01*
X175642Y171329D01*
X176560Y171709D01*
X177348Y172314D01*
X177952Y173102D01*
X178332Y174019D01*
X178396Y174504D01*
D02*
G37*
G36*
X32000Y197644D02*
X31642Y197572D01*
X30914Y197086D01*
X30428Y196358D01*
X30356Y196000D01*
X32000D01*
Y197644D01*
D02*
G37*
G36*
X96500Y220000D02*
X94856D01*
X94928Y219642D01*
X95414Y218914D01*
X96142Y218428D01*
X96500Y218356D01*
Y220000D01*
D02*
G37*
G36*
X118000Y218644D02*
Y217000D01*
X119644D01*
X119572Y217358D01*
X119086Y218086D01*
X118358Y218572D01*
X118000Y218644D01*
D02*
G37*
G36*
X99144Y220000D02*
X97500D01*
Y218356D01*
X97858Y218428D01*
X98586Y218914D01*
X99072Y219642D01*
X99144Y220000D01*
D02*
G37*
G36*
X191693Y225392D02*
Y220779D01*
X196305D01*
X196195Y221620D01*
X195677Y222869D01*
X194854Y223941D01*
X193782Y224764D01*
X192533Y225281D01*
X191693Y225392D01*
D02*
G37*
G36*
X190693Y225392D02*
X189853Y225281D01*
X188604Y224764D01*
X187531Y223941D01*
X186708Y222869D01*
X186191Y221620D01*
X186081Y220779D01*
X190693D01*
Y225392D01*
D02*
G37*
G36*
X196305Y219779D02*
X191693D01*
Y215167D01*
X192533Y215278D01*
X193782Y215795D01*
X194854Y216618D01*
X195677Y217690D01*
X196195Y218939D01*
X196305Y219779D01*
D02*
G37*
G36*
X190693D02*
X186081D01*
X186191Y218939D01*
X186708Y217690D01*
X187531Y216618D01*
X188604Y215795D01*
X189853Y215278D01*
X190693Y215167D01*
Y219779D01*
D02*
G37*
G36*
X70500Y218644D02*
X70142Y218572D01*
X69414Y218086D01*
X68928Y217358D01*
X68856Y217000D01*
X70500D01*
Y218644D01*
D02*
G37*
G36*
X117000D02*
X116642Y218572D01*
X115914Y218086D01*
X115428Y217358D01*
X115356Y217000D01*
X117000D01*
Y218644D01*
D02*
G37*
G36*
X71500D02*
Y217000D01*
X73144D01*
X73072Y217358D01*
X72586Y218086D01*
X71858Y218572D01*
X71500Y218644D01*
D02*
G37*
G36*
X96500Y222644D02*
X96142Y222572D01*
X95414Y222086D01*
X94928Y221358D01*
X94856Y221000D01*
X96500D01*
Y222644D01*
D02*
G37*
G36*
X346500Y232644D02*
X346142Y232572D01*
X345414Y232086D01*
X344928Y231358D01*
X344856Y231000D01*
X346500D01*
Y232644D01*
D02*
G37*
G36*
Y230000D02*
X344856D01*
X344928Y229642D01*
X345414Y228914D01*
X346142Y228428D01*
X346500Y228356D01*
Y230000D01*
D02*
G37*
G36*
X245000Y233500D02*
X243356D01*
X243428Y233142D01*
X243914Y232414D01*
X244642Y231928D01*
X245000Y231856D01*
Y233500D01*
D02*
G37*
G36*
X20453Y243453D02*
X9547D01*
Y232547D01*
X20453D01*
Y243453D01*
D02*
G37*
G36*
X247644Y233500D02*
X246000D01*
Y231856D01*
X246358Y231928D01*
X247086Y232414D01*
X247572Y233142D01*
X247644Y233500D01*
D02*
G37*
G36*
X255000Y226500D02*
X253356D01*
X253428Y226142D01*
X253914Y225414D01*
X254642Y224928D01*
X255000Y224856D01*
Y226500D01*
D02*
G37*
G36*
X97500Y222644D02*
Y221000D01*
X99144D01*
X99072Y221358D01*
X98586Y222086D01*
X97858Y222572D01*
X97500Y222644D01*
D02*
G37*
G36*
X257644Y226500D02*
X256000D01*
Y224856D01*
X256358Y224928D01*
X257086Y225414D01*
X257572Y226142D01*
X257644Y226500D01*
D02*
G37*
G36*
X256000Y229144D02*
Y227500D01*
X257644D01*
X257572Y227858D01*
X257086Y228586D01*
X256358Y229072D01*
X256000Y229144D01*
D02*
G37*
G36*
X255000D02*
X254642Y229072D01*
X253914Y228586D01*
X253428Y227858D01*
X253356Y227500D01*
X255000D01*
Y229144D01*
D02*
G37*
G36*
X119644Y216000D02*
X118000D01*
Y214356D01*
X118358Y214428D01*
X119086Y214914D01*
X119572Y215642D01*
X119644Y216000D01*
D02*
G37*
G36*
X79000Y201644D02*
Y200000D01*
X80644D01*
X80572Y200358D01*
X80086Y201086D01*
X79358Y201572D01*
X79000Y201644D01*
D02*
G37*
G36*
X78000D02*
X77642Y201572D01*
X76914Y201086D01*
X76428Y200358D01*
X76356Y200000D01*
X78000D01*
Y201644D01*
D02*
G37*
G36*
X184500Y211817D02*
X183124Y211636D01*
X181841Y211105D01*
X180740Y210260D01*
X179895Y209159D01*
X179364Y207876D01*
X179183Y206500D01*
X179364Y205124D01*
X179895Y203841D01*
X180740Y202740D01*
X181841Y201895D01*
X183124Y201364D01*
X184500Y201183D01*
X185876Y201364D01*
X187159Y201895D01*
X188260Y202740D01*
X189105Y203841D01*
X189636Y205124D01*
X189817Y206500D01*
X189636Y207876D01*
X189105Y209159D01*
X188260Y210260D01*
X187159Y211105D01*
X185876Y211636D01*
X184500Y211817D01*
D02*
G37*
G36*
X56144Y203300D02*
X54500D01*
Y201656D01*
X54858Y201728D01*
X55586Y202214D01*
X56072Y202942D01*
X56144Y203300D01*
D02*
G37*
G36*
X53500D02*
X51856D01*
X51928Y202942D01*
X52414Y202214D01*
X53142Y201728D01*
X53500Y201656D01*
Y203300D01*
D02*
G37*
G36*
X121000Y198144D02*
X120642Y198072D01*
X119914Y197586D01*
X119428Y196858D01*
X119356Y196500D01*
X121000D01*
Y198144D01*
D02*
G37*
G36*
X33000Y197644D02*
Y196000D01*
X34644D01*
X34572Y196358D01*
X34086Y197086D01*
X33358Y197572D01*
X33000Y197644D01*
D02*
G37*
G36*
X122000Y198144D02*
Y196500D01*
X123644D01*
X123572Y196858D01*
X123086Y197586D01*
X122358Y198072D01*
X122000Y198144D01*
D02*
G37*
G36*
X80644Y199000D02*
X79000D01*
Y197356D01*
X79358Y197428D01*
X80086Y197914D01*
X80572Y198642D01*
X80644Y199000D01*
D02*
G37*
G36*
X78000D02*
X76356D01*
X76428Y198642D01*
X76914Y197914D01*
X77642Y197428D01*
X78000Y197356D01*
Y199000D01*
D02*
G37*
G36*
X174158Y206000D02*
X170919D01*
X170983Y205515D01*
X171363Y204598D01*
X171967Y203810D01*
X172755Y203205D01*
X173673Y202825D01*
X174158Y202762D01*
Y206000D01*
D02*
G37*
G36*
X175157Y210238D02*
Y207000D01*
X178396D01*
X178332Y207485D01*
X177952Y208402D01*
X177348Y209190D01*
X176560Y209794D01*
X175642Y210175D01*
X175157Y210238D01*
D02*
G37*
G36*
X346500Y208644D02*
X346142Y208572D01*
X345414Y208086D01*
X344928Y207358D01*
X344856Y207000D01*
X346500D01*
Y208644D01*
D02*
G37*
G36*
X70500Y216000D02*
X68856D01*
X68928Y215642D01*
X69414Y214914D01*
X70142Y214428D01*
X70500Y214356D01*
Y216000D01*
D02*
G37*
G36*
X117000D02*
X115356D01*
X115428Y215642D01*
X115914Y214914D01*
X116642Y214428D01*
X117000Y214356D01*
Y216000D01*
D02*
G37*
G36*
X73144D02*
X71500D01*
Y214356D01*
X71858Y214428D01*
X72586Y214914D01*
X73072Y215642D01*
X73144Y216000D01*
D02*
G37*
G36*
X53500Y205944D02*
X53142Y205872D01*
X52414Y205386D01*
X51928Y204658D01*
X51856Y204300D01*
X53500D01*
Y205944D01*
D02*
G37*
G36*
X178396Y206000D02*
X175157D01*
Y202762D01*
X175642Y202825D01*
X176560Y203205D01*
X177348Y203810D01*
X177952Y204598D01*
X178332Y205515D01*
X178396Y206000D01*
D02*
G37*
G36*
X54500Y205944D02*
Y204300D01*
X56144D01*
X56072Y204658D01*
X55586Y205386D01*
X54858Y205872D01*
X54500Y205944D01*
D02*
G37*
G36*
X174158Y210238D02*
X173673Y210175D01*
X172755Y209794D01*
X171967Y209190D01*
X171363Y208402D01*
X170983Y207485D01*
X170919Y207000D01*
X174158D01*
Y210238D01*
D02*
G37*
G36*
X346500Y206000D02*
X344856D01*
X344928Y205642D01*
X345414Y204914D01*
X346142Y204428D01*
X346500Y204356D01*
Y206000D01*
D02*
G37*
%LPD*%
D41*
X0Y0D02*
X288500D01*
X0Y300500D02*
X288500D01*
X0Y0D02*
Y300500D01*
X288500Y0D02*
X350500D01*
Y300500D01*
X288500D02*
X350500D01*
D42*
X7882Y142595D02*
D03*
Y154405D02*
D03*
D43*
X255000Y177000D02*
D03*
X249000Y153000D02*
D03*
X15000Y238000D02*
D03*
D44*
X255000Y187000D02*
D03*
X249000Y163000D02*
D03*
X164000Y242000D02*
D03*
X279500Y286500D02*
D03*
X269500D02*
D03*
X259500D02*
D03*
X249500D02*
D03*
X239500D02*
D03*
X229500D02*
D03*
X219500D02*
D03*
X15000Y248000D02*
D03*
X343000Y286500D02*
D03*
X333000D02*
D03*
X323000D02*
D03*
X313000D02*
D03*
X303000D02*
D03*
D45*
X174000Y242000D02*
D03*
X209500Y286500D02*
D03*
X293000D02*
D03*
D46*
X166783Y161224D02*
D03*
X191193Y220280D02*
D03*
D47*
X184500Y175004D02*
D03*
D48*
Y190752D02*
D03*
Y206500D02*
D03*
X174657Y175004D02*
D03*
Y190752D02*
D03*
Y206500D02*
D03*
D49*
X78500Y260720D02*
D03*
Y288280D02*
D03*
D50*
X347000Y230500D02*
D03*
Y206500D02*
D03*
X307000Y157500D02*
D03*
X312500Y162000D02*
D03*
X323500D02*
D03*
X312500Y157500D02*
D03*
Y153000D02*
D03*
Y148500D02*
D03*
Y144000D02*
D03*
Y139500D02*
D03*
X323500D02*
D03*
Y144000D02*
D03*
Y148500D02*
D03*
Y153000D02*
D03*
Y157500D02*
D03*
X325500Y56000D02*
D03*
X301500D02*
D03*
X289000Y127756D02*
D03*
Y172000D02*
D03*
X112500Y3500D02*
D03*
X347000Y182000D02*
D03*
X283000Y250000D02*
D03*
Y274500D02*
D03*
X194500Y296500D02*
D03*
X170000Y296000D02*
D03*
X146000Y296500D02*
D03*
X121500Y296000D02*
D03*
X24000Y296500D02*
D03*
X48500D02*
D03*
X4500Y261500D02*
D03*
Y286000D02*
D03*
Y237000D02*
D03*
Y107000D02*
D03*
Y10000D02*
D03*
Y82500D02*
D03*
Y58500D02*
D03*
Y34500D02*
D03*
X88000Y4000D02*
D03*
X64000D02*
D03*
X40000D02*
D03*
X208500D02*
D03*
X184000D02*
D03*
X160000D02*
D03*
X136000D02*
D03*
X233000D02*
D03*
X257000D02*
D03*
X284500Y13500D02*
D03*
Y38000D02*
D03*
X281000Y4000D02*
D03*
X347000Y72500D02*
D03*
Y97000D02*
D03*
X307000Y162000D02*
D03*
Y153000D02*
D03*
Y139500D02*
D03*
Y144000D02*
D03*
Y148500D02*
D03*
X318000Y162000D02*
D03*
Y157500D02*
D03*
Y153000D02*
D03*
Y139500D02*
D03*
Y144000D02*
D03*
Y148500D02*
D03*
X329000D02*
D03*
Y144000D02*
D03*
Y139500D02*
D03*
Y153000D02*
D03*
Y157500D02*
D03*
Y162000D02*
D03*
X184000Y70500D02*
D03*
X28000Y52500D02*
D03*
X174969Y270031D02*
D03*
X209000Y27000D02*
D03*
X336968Y243032D02*
D03*
X319032Y242969D02*
D03*
X309000Y243000D02*
D03*
X289032Y243032D02*
D03*
X299000Y243000D02*
D03*
X219000Y128000D02*
D03*
X188000Y122000D02*
D03*
Y127500D02*
D03*
X223000Y179000D02*
D03*
X208000Y66500D02*
D03*
Y95500D02*
D03*
X54000Y203800D02*
D03*
X55000Y150300D02*
D03*
X9744Y123744D02*
D03*
X105000Y174300D02*
D03*
X133000Y120000D02*
D03*
X32500Y195500D02*
D03*
X33000Y262000D02*
D03*
X78500Y199500D02*
D03*
X104000Y281000D02*
D03*
X121500Y196000D02*
D03*
X208000Y84500D02*
D03*
X71000Y216500D02*
D03*
X160516Y128484D02*
D03*
X347000Y121500D02*
D03*
X295000Y179000D02*
D03*
X244000Y142500D02*
D03*
X228000Y134500D02*
D03*
X218000Y134000D02*
D03*
X295000Y121500D02*
D03*
X225500Y249500D02*
D03*
X235500Y242000D02*
D03*
X245500Y234000D02*
D03*
X255500Y227000D02*
D03*
X77300Y154500D02*
D03*
X278000Y24500D02*
D03*
X141000Y271500D02*
D03*
X119500D02*
D03*
X134244Y109244D02*
D03*
X117500Y216500D02*
D03*
X97000Y220500D02*
D03*
D51*
X72000Y165800D02*
D03*
M02*
