M48
;Layer_Color=9474304
;FILE_FORMAT=2:5
INCH,LZ
;TYPE=PLATED
T1F00S00C0.01200
T2F00S00C0.01400
T3F00S00C0.03543
T4F00S00C0.05512
;TYPE=NON_PLATED
T5F00S00C0.03346
T6F00S00C0.05512
%
T01
X00045Y001
Y00345
Y00585
Y00825
X0028Y00525
X004Y0004
X0064
X0088
X01125Y00035
X0136Y0004
X016
X0184
Y00705
X0208Y00665
Y00845
X0209Y0033
X02085Y0004
X0233
X02425Y0014
X0257Y0004
X0281
X02845Y00135
X0278Y00305
X02885Y00485
X03125
X03365
X0347Y00725
Y0097
Y01215
X0329Y01395
Y0147
Y01545
Y0162
X0318
Y01545
Y0147
Y01395
X0307
Y0147
Y01545
Y0162
X0289Y0172
X0295Y0179
X0283Y01995
Y02235
X0299Y0226
X0309
X0319
X03385Y0229
X0347Y02305
Y02065
Y0182
X0289Y0127756
X0295Y01215
X0244Y01425
X0228Y01345
X0218Y0134
X0219Y0128
X01925Y01155
X0208Y00955
X0223Y0179
X02255Y02495
X02355Y0242
X02455Y0234
X02555Y0227
X0283Y02475
X0117Y0216
X0097Y02205
X0071Y02165
X00785Y01995
X0054Y02038
X0055Y01503
X0067Y0155
X00773Y01545
X0105Y01743
X01215Y0196
X0133Y012
X0134244Y0108744
X0160516Y0128484
X0188Y01275
X0009744Y0123744
X00045Y0107
X00325Y01955
X00045Y0237
Y02615
Y0286
X0024Y02965
X0033Y0262
X00485Y02965
X0104Y0281
X01195Y02715
X0141
X0146Y02965
X017Y0296
X0174969Y0270031
X01215Y0296
X01945Y02965
X0283Y0272
T02
X0072Y01655
T03
X0249Y0153
Y0163
X0255Y0177
Y0187
X02925Y0246
X03025
X03125
X03225
X03325
X03425
X0174Y0242
X0164
X0174657Y02065
X01845
Y0190752
X0174657
Y0175004
X01845
X0015Y0238
Y0248
X02095Y02865
X02195
X02295
X02395
X02495
X02595
X02695
X02795
T04
X0166783Y0161224
X0191193Y022028
T05
X0007882Y0142595
Y0154405
T06
X00785Y026072
Y028828
M30
