G04 Layer_Color=8421504*
%FSLAX25Y25*%
%MOIN*%
G70*
G01*
G75*
%ADD10R,0.03386X0.01063*%
%ADD11R,0.01063X0.03386*%
%ADD12R,0.05905X0.01575*%
%ADD13R,0.06700X0.06700*%
%ADD14R,0.01200X0.03200*%
%ADD15R,0.03200X0.01200*%
%ADD16R,0.03937X0.10236*%
%ADD17R,0.04724X0.03937*%
%ADD18R,0.14961X0.07992*%
%ADD19R,0.07992X0.14961*%
%ADD20R,0.07165X0.04724*%
%ADD21R,0.10236X0.13780*%
%ADD22R,0.03150X0.03543*%
%ADD23R,0.06693X0.04331*%
%ADD24R,0.04331X0.06693*%
%ADD25R,0.03543X0.03150*%
%ADD26R,0.02362X0.01968*%
%ADD27R,0.06102X0.05118*%
%ADD28R,0.02913X0.10984*%
%ADD29O,0.03150X0.09449*%
%ADD30O,0.09449X0.03150*%
%ADD31R,0.07480X0.09055*%
%ADD32R,0.07480X0.07087*%
%ADD33R,0.05512X0.01575*%
%ADD34R,0.10630X0.07087*%
%ADD35R,0.10630X0.08661*%
%ADD36R,0.01968X0.02362*%
G36*
X228459Y145508D02*
X225543D01*
Y156491D01*
X228459D01*
Y145508D01*
D02*
G37*
G36*
X233464D02*
X230543D01*
Y156491D01*
X233464D01*
Y145508D01*
D02*
G37*
G36*
X223458D02*
X220543D01*
Y156490D01*
X223458D01*
Y145508D01*
D02*
G37*
G36*
X213448D02*
X210543D01*
Y156490D01*
X213448D01*
Y145508D01*
D02*
G37*
G36*
X218456D02*
X215543D01*
Y156492D01*
X218456D01*
Y145508D01*
D02*
G37*
G36*
X228459Y161508D02*
X225543D01*
Y172498D01*
X228459D01*
Y161508D01*
D02*
G37*
G36*
X233471D02*
X230543D01*
Y172509D01*
X233471D01*
Y161508D01*
D02*
G37*
G36*
X223457D02*
X220543D01*
Y172498D01*
X223457D01*
Y161508D01*
D02*
G37*
G36*
X213444D02*
X210543D01*
Y172512D01*
X213444D01*
Y161508D01*
D02*
G37*
G36*
X218455D02*
X215543D01*
Y172497D01*
X218455D01*
Y161508D01*
D02*
G37*
D10*
X156835Y115047D02*
D03*
Y117016D02*
D03*
Y118984D02*
D03*
Y120953D02*
D03*
X166165D02*
D03*
Y118984D02*
D03*
Y117016D02*
D03*
Y115047D02*
D03*
D11*
X162484Y113335D02*
D03*
X160516D02*
D03*
Y122665D02*
D03*
X162484D02*
D03*
D12*
X128228Y190866D02*
D03*
Y193425D02*
D03*
Y195984D02*
D03*
Y198543D02*
D03*
Y201102D02*
D03*
Y203661D02*
D03*
Y206221D02*
D03*
Y208780D02*
D03*
Y211339D02*
D03*
Y213898D02*
D03*
Y216457D02*
D03*
Y219016D02*
D03*
Y221575D02*
D03*
Y224134D02*
D03*
X156772D02*
D03*
Y221575D02*
D03*
Y219016D02*
D03*
Y216457D02*
D03*
Y213898D02*
D03*
Y211339D02*
D03*
Y208780D02*
D03*
Y206221D02*
D03*
Y203661D02*
D03*
Y201102D02*
D03*
Y198543D02*
D03*
Y195984D02*
D03*
Y193425D02*
D03*
Y190866D02*
D03*
D13*
X72000Y165500D02*
D03*
D14*
X69000Y171300D02*
D03*
X71000D02*
D03*
X73000D02*
D03*
X75000D02*
D03*
Y159700D02*
D03*
X73000D02*
D03*
X71000D02*
D03*
X69000D02*
D03*
D15*
X77800Y168500D02*
D03*
Y166500D02*
D03*
Y164500D02*
D03*
Y162500D02*
D03*
X66200D02*
D03*
Y164500D02*
D03*
Y166500D02*
D03*
Y168500D02*
D03*
D16*
X27937Y34874D02*
D03*
X20063D02*
D03*
D17*
X18118Y138657D02*
D03*
Y148500D02*
D03*
Y158343D02*
D03*
D18*
X166000Y283500D02*
D03*
X185000Y149500D02*
D03*
X102500Y114000D02*
D03*
X257000Y14000D02*
D03*
D19*
X210500Y220500D02*
D03*
X32500Y277000D02*
D03*
X20000Y69500D02*
D03*
D20*
X52000Y216575D02*
D03*
Y228425D02*
D03*
D21*
X50965Y51500D02*
D03*
X184035D02*
D03*
D22*
X202244Y76000D02*
D03*
X207756D02*
D03*
X278244Y81500D02*
D03*
X283756D02*
D03*
X289244D02*
D03*
X294756D02*
D03*
X101756Y126000D02*
D03*
X96244D02*
D03*
X101756Y135500D02*
D03*
X96244D02*
D03*
X219256Y66500D02*
D03*
X213744D02*
D03*
X219256Y95500D02*
D03*
X213744D02*
D03*
X267244Y30500D02*
D03*
X272756D02*
D03*
X219256Y84500D02*
D03*
X213744D02*
D03*
X32744Y136000D02*
D03*
X38256D02*
D03*
X92244Y174300D02*
D03*
X97756D02*
D03*
X20744Y47000D02*
D03*
X26256D02*
D03*
X92244Y166500D02*
D03*
X97756D02*
D03*
X70756Y147800D02*
D03*
X65244D02*
D03*
X177744Y134000D02*
D03*
X183256D02*
D03*
X104744Y220500D02*
D03*
X110256D02*
D03*
X127744Y283000D02*
D03*
X133256D02*
D03*
X202244Y106000D02*
D03*
X207756D02*
D03*
X200244Y244500D02*
D03*
X205756D02*
D03*
X177744Y127500D02*
D03*
X183256D02*
D03*
X61244Y216500D02*
D03*
X66756D02*
D03*
D23*
X219500Y193685D02*
D03*
Y204315D02*
D03*
D24*
X196685Y134000D02*
D03*
X207315D02*
D03*
D25*
X116500Y181744D02*
D03*
Y187256D02*
D03*
X109000Y181744D02*
D03*
Y187256D02*
D03*
X219000Y117744D02*
D03*
Y123256D02*
D03*
X18000Y129256D02*
D03*
Y123744D02*
D03*
X128000Y114256D02*
D03*
Y108744D02*
D03*
X197000Y256244D02*
D03*
Y261756D02*
D03*
X123500Y167744D02*
D03*
Y173256D02*
D03*
X134000Y167744D02*
D03*
Y173256D02*
D03*
X66000Y188544D02*
D03*
Y194056D02*
D03*
X54000Y188544D02*
D03*
Y194056D02*
D03*
X78500Y188544D02*
D03*
Y194056D02*
D03*
X86500Y143544D02*
D03*
Y149056D02*
D03*
X78500Y143544D02*
D03*
Y149056D02*
D03*
X55000Y156544D02*
D03*
Y162056D02*
D03*
X149000Y122244D02*
D03*
Y127756D02*
D03*
X177500Y114244D02*
D03*
Y119756D02*
D03*
X141000Y283256D02*
D03*
Y277744D02*
D03*
X119500Y283256D02*
D03*
Y277744D02*
D03*
X209000Y43244D02*
D03*
Y48756D02*
D03*
X289500Y95000D02*
D03*
Y89488D02*
D03*
X278500Y95256D02*
D03*
Y89744D02*
D03*
X175000Y256244D02*
D03*
Y261756D02*
D03*
D26*
X225532Y254000D02*
D03*
X229468D02*
D03*
X235531Y246500D02*
D03*
X239469D02*
D03*
X245532Y239000D02*
D03*
X249468D02*
D03*
X255532Y232000D02*
D03*
X259469D02*
D03*
X289032Y221000D02*
D03*
X292969D02*
D03*
X299031D02*
D03*
X302969D02*
D03*
X309032D02*
D03*
X312968D02*
D03*
X319032D02*
D03*
X322969D02*
D03*
X336968Y219500D02*
D03*
X333032D02*
D03*
X338531Y224000D02*
D03*
X342469D02*
D03*
X228031Y138000D02*
D03*
X231968D02*
D03*
X218032D02*
D03*
X221969D02*
D03*
X243969Y138500D02*
D03*
X240032D02*
D03*
X192532Y122000D02*
D03*
X196468D02*
D03*
X227532Y179000D02*
D03*
X231469D02*
D03*
D27*
X258150Y30642D02*
D03*
X226850D02*
D03*
X258150Y48358D02*
D03*
X226850D02*
D03*
Y84358D02*
D03*
X258150D02*
D03*
X226850Y66642D02*
D03*
X258150D02*
D03*
X226850Y117358D02*
D03*
X258150D02*
D03*
X226850Y99642D02*
D03*
X258150D02*
D03*
D28*
X232000Y167000D02*
D03*
Y151000D02*
D03*
X227000Y167000D02*
D03*
Y151000D02*
D03*
X222000Y167000D02*
D03*
Y151000D02*
D03*
X217000Y167000D02*
D03*
Y151000D02*
D03*
X212000Y167000D02*
D03*
Y151000D02*
D03*
D29*
X347142Y127756D02*
D03*
X342417D02*
D03*
X337693D02*
D03*
X332968D02*
D03*
X328244D02*
D03*
X323520D02*
D03*
X318795D02*
D03*
X314071D02*
D03*
X309347D02*
D03*
X304622D02*
D03*
X299898D02*
D03*
X295173D02*
D03*
Y172244D02*
D03*
X299898D02*
D03*
X304622D02*
D03*
X309347D02*
D03*
X314071D02*
D03*
X318795D02*
D03*
X323520D02*
D03*
X328244D02*
D03*
X332968D02*
D03*
X337693D02*
D03*
X342417D02*
D03*
X347142D02*
D03*
D30*
X294622Y135827D02*
D03*
Y140551D02*
D03*
Y145276D02*
D03*
Y150000D02*
D03*
Y154724D02*
D03*
Y159449D02*
D03*
Y164173D02*
D03*
D31*
X8779Y185854D02*
D03*
Y215382D02*
D03*
D32*
Y196091D02*
D03*
Y205146D02*
D03*
D33*
X20000Y195500D02*
D03*
Y198059D02*
D03*
Y200618D02*
D03*
Y203177D02*
D03*
Y205736D02*
D03*
D34*
X92870Y292216D02*
D03*
D35*
X64130Y254028D02*
D03*
Y288673D02*
D03*
X92870Y260720D02*
D03*
Y281193D02*
D03*
D36*
X166000Y270031D02*
D03*
Y273969D02*
D03*
X186000Y260469D02*
D03*
Y256532D02*
D03*
M02*
