G04 Layer_Color=65535*
%FSLAX25Y25*%
%MOIN*%
G70*
G01*
G75*
%ADD38C,0.01000*%
%ADD42C,0.00800*%
%ADD43C,0.04000*%
%ADD54C,0.01575*%
%ADD55C,0.00787*%
%ADD56C,0.00000*%
%ADD57C,0.01102*%
%ADD58C,0.00500*%
%ADD59C,0.00600*%
%ADD60C,0.00700*%
G36*
X324539Y186039D02*
X324527D01*
X324492Y186033D01*
X324445Y186021D01*
X324381Y186004D01*
X324317Y185975D01*
X324246Y185940D01*
X324176Y185893D01*
X324118Y185834D01*
X324112Y185828D01*
X324094Y185805D01*
X324071Y185764D01*
X324042Y185705D01*
X324012Y185635D01*
X323989Y185553D01*
X323972Y185448D01*
X323966Y185331D01*
Y185325D01*
Y185319D01*
Y185302D01*
Y185278D01*
X323972Y185220D01*
X323977Y185150D01*
X323995Y185074D01*
X324012Y184998D01*
X324042Y184922D01*
X324083Y184863D01*
X324089Y184857D01*
X324106Y184840D01*
X324129Y184816D01*
X324165Y184793D01*
X324205Y184769D01*
X324252Y184746D01*
X324311Y184729D01*
X324375Y184723D01*
X324404D01*
X324434Y184729D01*
X324469Y184740D01*
X324516Y184752D01*
X324562Y184775D01*
X324603Y184804D01*
X324650Y184845D01*
X324656Y184851D01*
X324668Y184875D01*
X324697Y184910D01*
X324726Y184968D01*
X324773Y185044D01*
X324796Y185091D01*
X324820Y185144D01*
X324849Y185202D01*
X324884Y185267D01*
X324913Y185337D01*
X324948Y185419D01*
X324954Y185425D01*
X324960Y185448D01*
X324978Y185483D01*
X324995Y185524D01*
X325019Y185577D01*
X325048Y185635D01*
X325112Y185770D01*
X325188Y185916D01*
X325264Y186051D01*
X325305Y186115D01*
X325346Y186173D01*
X325381Y186220D01*
X325416Y186261D01*
Y186267D01*
X325428Y186273D01*
X325463Y186302D01*
X325522Y186349D01*
X325598Y186402D01*
X325697Y186448D01*
X325808Y186495D01*
X325943Y186524D01*
X326013Y186536D01*
X326136D01*
X326177Y186530D01*
X326218Y186524D01*
X326271Y186513D01*
X326329Y186501D01*
X326388Y186484D01*
X326458Y186466D01*
X326528Y186437D01*
X326598Y186407D01*
X326674Y186366D01*
X326744Y186320D01*
X326820Y186267D01*
X326891Y186203D01*
X326961Y186133D01*
X326967Y186127D01*
X326978Y186115D01*
X326996Y186092D01*
X327013Y186056D01*
X327043Y186015D01*
X327072Y185969D01*
X327107Y185910D01*
X327136Y185840D01*
X327171Y185764D01*
X327206Y185682D01*
X327236Y185588D01*
X327259Y185489D01*
X327283Y185378D01*
X327300Y185267D01*
X327312Y185138D01*
X327318Y185009D01*
Y185003D01*
Y184986D01*
Y184962D01*
Y184927D01*
X327312Y184881D01*
X327306Y184834D01*
Y184775D01*
X327294Y184717D01*
X327277Y184582D01*
X327248Y184436D01*
X327206Y184290D01*
X327154Y184149D01*
Y184143D01*
X327148Y184132D01*
X327136Y184114D01*
X327125Y184091D01*
X327084Y184027D01*
X327037Y183950D01*
X326967Y183863D01*
X326891Y183781D01*
X326797Y183699D01*
X326692Y183634D01*
X326686D01*
X326680Y183629D01*
X326662Y183623D01*
X326639Y183611D01*
X326575Y183588D01*
X326493Y183564D01*
X326393Y183535D01*
X326276Y183518D01*
X326148Y183500D01*
X326007D01*
X325966Y184255D01*
X326001D01*
X326025Y184260D01*
X326089Y184266D01*
X326165Y184272D01*
X326241Y184290D01*
X326323Y184313D01*
X326393Y184342D01*
X326452Y184378D01*
X326458Y184383D01*
X326481Y184413D01*
X326516Y184453D01*
X326551Y184524D01*
X326575Y184559D01*
X326592Y184606D01*
X326610Y184658D01*
X326622Y184717D01*
X326639Y184781D01*
X326645Y184851D01*
X326657Y184933D01*
Y185015D01*
Y185021D01*
Y185033D01*
Y185050D01*
Y185080D01*
X326651Y185150D01*
X326639Y185232D01*
X326622Y185325D01*
X326598Y185419D01*
X326569Y185506D01*
X326522Y185583D01*
X326516Y185588D01*
X326499Y185612D01*
X326469Y185641D01*
X326429Y185670D01*
X326376Y185705D01*
X326317Y185729D01*
X326253Y185752D01*
X326183Y185758D01*
X326153D01*
X326124Y185752D01*
X326083Y185741D01*
X326037Y185723D01*
X325990Y185694D01*
X325943Y185659D01*
X325896Y185612D01*
X325890Y185606D01*
X325879Y185588D01*
X325855Y185559D01*
X325826Y185506D01*
X325808Y185471D01*
X325791Y185436D01*
X325767Y185390D01*
X325738Y185337D01*
X325715Y185278D01*
X325686Y185214D01*
X325650Y185144D01*
X325615Y185062D01*
Y185056D01*
X325609Y185044D01*
X325598Y185021D01*
X325580Y184992D01*
X325569Y184951D01*
X325545Y184910D01*
X325504Y184816D01*
X325451Y184705D01*
X325399Y184600D01*
X325346Y184494D01*
X325294Y184407D01*
X325288Y184395D01*
X325270Y184372D01*
X325241Y184337D01*
X325200Y184290D01*
X325153Y184237D01*
X325095Y184184D01*
X325030Y184132D01*
X324954Y184085D01*
X324943Y184079D01*
X324919Y184067D01*
X324872Y184050D01*
X324814Y184027D01*
X324744Y184003D01*
X324662Y183985D01*
X324568Y183974D01*
X324469Y183968D01*
X324422D01*
X324387Y183974D01*
X324346Y183980D01*
X324299Y183985D01*
X324188Y184015D01*
X324059Y184056D01*
X323989Y184085D01*
X323925Y184114D01*
X323854Y184155D01*
X323790Y184202D01*
X323726Y184255D01*
X323661Y184319D01*
X323656Y184325D01*
X323650Y184337D01*
X323632Y184354D01*
X323609Y184383D01*
X323585Y184418D01*
X323562Y184465D01*
X323533Y184518D01*
X323498Y184576D01*
X323468Y184647D01*
X323439Y184723D01*
X323416Y184804D01*
X323392Y184898D01*
X323369Y184998D01*
X323351Y185103D01*
X323345Y185214D01*
X323340Y185337D01*
Y185343D01*
Y185366D01*
Y185401D01*
X323345Y185448D01*
X323351Y185506D01*
X323357Y185571D01*
X323369Y185641D01*
X323381Y185717D01*
X323416Y185887D01*
X323474Y186062D01*
X323509Y186144D01*
X323556Y186226D01*
X323603Y186308D01*
X323661Y186378D01*
X323667Y186384D01*
X323673Y186396D01*
X323696Y186413D01*
X323720Y186437D01*
X323749Y186466D01*
X323790Y186501D01*
X323837Y186536D01*
X323884Y186571D01*
X323942Y186606D01*
X324007Y186642D01*
X324077Y186677D01*
X324153Y186712D01*
X324323Y186764D01*
X324410Y186782D01*
X324510Y186794D01*
X324539Y186039D01*
D02*
G37*
G36*
X331930Y186542D02*
Y185811D01*
X329344Y184769D01*
X331930Y184231D01*
Y183500D01*
X328086Y184296D01*
Y185033D01*
X330660Y186074D01*
X328086Y186606D01*
Y187344D01*
X331930Y186542D01*
D02*
G37*
G36*
X325762Y189713D02*
X325838Y189707D01*
X325920Y189695D01*
X326089Y189666D01*
Y187776D01*
X326113D01*
X326136Y187770D01*
X326206D01*
X326259Y187776D01*
X326323Y187788D01*
X326393Y187811D01*
X326469Y187835D01*
X326540Y187876D01*
X326610Y187928D01*
X326616Y187934D01*
X326633Y187958D01*
X326662Y187993D01*
X326692Y188040D01*
X326727Y188098D01*
X326750Y188162D01*
X326774Y188239D01*
X326780Y188320D01*
Y188326D01*
Y188338D01*
Y188356D01*
X326774Y188385D01*
X326756Y188449D01*
X326733Y188537D01*
X326686Y188630D01*
X326657Y188677D01*
X326616Y188730D01*
X326575Y188777D01*
X326522Y188823D01*
X326464Y188870D01*
X326393Y188911D01*
X326504Y189584D01*
X326510D01*
X326522Y189572D01*
X326546Y189567D01*
X326569Y189549D01*
X326604Y189525D01*
X326645Y189502D01*
X326733Y189444D01*
X326832Y189368D01*
X326937Y189274D01*
X327031Y189169D01*
X327119Y189052D01*
Y189046D01*
X327125Y189034D01*
X327136Y189017D01*
X327148Y188993D01*
X327166Y188964D01*
X327183Y188929D01*
X327218Y188835D01*
X327253Y188730D01*
X327288Y188601D01*
X327312Y188467D01*
X327318Y188315D01*
Y188309D01*
Y188291D01*
Y188262D01*
X327312Y188221D01*
X327306Y188174D01*
X327300Y188116D01*
X327288Y188057D01*
X327271Y187993D01*
X327230Y187847D01*
X327201Y187770D01*
X327171Y187695D01*
X327131Y187618D01*
X327084Y187542D01*
X327031Y187472D01*
X326967Y187402D01*
X326961Y187396D01*
X326949Y187384D01*
X326932Y187367D01*
X326902Y187349D01*
X326867Y187320D01*
X326820Y187291D01*
X326774Y187262D01*
X326715Y187226D01*
X326651Y187191D01*
X326581Y187162D01*
X326499Y187133D01*
X326417Y187104D01*
X326323Y187086D01*
X326230Y187068D01*
X326124Y187057D01*
X326019Y187051D01*
X325960D01*
X325920Y187057D01*
X325873Y187063D01*
X325814Y187068D01*
X325750Y187080D01*
X325674Y187092D01*
X325516Y187127D01*
X325346Y187186D01*
X325258Y187221D01*
X325171Y187262D01*
X325083Y187314D01*
X325001Y187367D01*
X324995Y187373D01*
X324972Y187384D01*
X324943Y187414D01*
X324907Y187449D01*
X324861Y187490D01*
X324808Y187548D01*
X324755Y187613D01*
X324697Y187683D01*
X324638Y187765D01*
X324586Y187858D01*
X324533Y187958D01*
X324486Y188069D01*
X324451Y188192D01*
X324416Y188320D01*
X324398Y188455D01*
X324393Y188601D01*
Y188607D01*
Y188625D01*
Y188648D01*
X324398Y188683D01*
X324404Y188730D01*
X324410Y188777D01*
X324434Y188894D01*
X324469Y189022D01*
X324527Y189157D01*
X324562Y189227D01*
X324609Y189292D01*
X324656Y189356D01*
X324714Y189414D01*
X324720Y189420D01*
X324726Y189426D01*
X324749Y189444D01*
X324773Y189461D01*
X324802Y189485D01*
X324843Y189508D01*
X324890Y189537D01*
X324943Y189567D01*
X325001Y189596D01*
X325071Y189625D01*
X325142Y189648D01*
X325218Y189672D01*
X325305Y189689D01*
X325399Y189707D01*
X325493Y189713D01*
X325598Y189719D01*
X325697D01*
X325762Y189713D01*
D02*
G37*
G36*
X60300Y111300D02*
Y110500D01*
Y109700D01*
Y108900D01*
Y108100D01*
Y107300D01*
X59500D01*
Y106500D01*
Y105700D01*
Y104900D01*
Y104100D01*
Y103300D01*
Y102500D01*
X52300D01*
Y103300D01*
Y104100D01*
Y104900D01*
X56300D01*
Y105700D01*
X57100D01*
Y104900D01*
X58700D01*
Y105700D01*
X57100D01*
Y106500D01*
X57900D01*
Y107300D01*
X58700D01*
Y108100D01*
X59500D01*
Y108900D01*
Y109700D01*
Y110500D01*
Y111300D01*
Y112100D01*
X60300D01*
Y111300D01*
D02*
G37*
G36*
X315605Y203835D02*
X315669D01*
X315751Y203823D01*
X315839Y203811D01*
X315944Y203800D01*
X316049Y203776D01*
X316166Y203753D01*
X316283Y203718D01*
X316406Y203677D01*
X316529Y203624D01*
X316646Y203566D01*
X316763Y203501D01*
X316874Y203419D01*
X316979Y203331D01*
X316985Y203326D01*
X317003Y203308D01*
X317026Y203279D01*
X317061Y203238D01*
X317102Y203191D01*
X317143Y203127D01*
X317190Y203057D01*
X317237Y202975D01*
X317289Y202881D01*
X317336Y202782D01*
X317377Y202671D01*
X317418Y202548D01*
X317453Y202419D01*
X317477Y202284D01*
X317494Y202138D01*
X317500Y201980D01*
Y201969D01*
Y201945D01*
X317494Y201898D01*
Y201840D01*
X317482Y201770D01*
X317471Y201682D01*
X317459Y201588D01*
X317436Y201489D01*
X317406Y201383D01*
X317371Y201272D01*
X317330Y201161D01*
X317278Y201050D01*
X317219Y200933D01*
X317149Y200828D01*
X317073Y200722D01*
X316979Y200623D01*
X316973Y200617D01*
X316956Y200600D01*
X316927Y200576D01*
X316886Y200547D01*
X316833Y200506D01*
X316769Y200465D01*
X316693Y200418D01*
X316605Y200371D01*
X316506Y200325D01*
X316400Y200278D01*
X316283Y200237D01*
X316155Y200196D01*
X316014Y200167D01*
X315868Y200143D01*
X315710Y200126D01*
X315540Y200120D01*
X315441D01*
X315388Y200126D01*
X315330Y200132D01*
X315265D01*
X315195Y200143D01*
X315037Y200161D01*
X314873Y200190D01*
X314709Y200231D01*
X314552Y200290D01*
X314546D01*
X314540Y200295D01*
X314505Y200313D01*
X314446Y200342D01*
X314376Y200383D01*
X314294Y200436D01*
X314206Y200494D01*
X314113Y200570D01*
X314025Y200646D01*
X314013Y200658D01*
X313984Y200687D01*
X313943Y200734D01*
X313896Y200793D01*
X313838Y200869D01*
X313779Y200951D01*
X313727Y201044D01*
X313680Y201144D01*
Y201150D01*
X313674Y201161D01*
X313662Y201179D01*
X313657Y201208D01*
X313645Y201243D01*
X313627Y201284D01*
X313616Y201331D01*
X313598Y201383D01*
X313575Y201506D01*
X313545Y201647D01*
X313528Y201805D01*
X313522Y201974D01*
Y201986D01*
Y202009D01*
X313528Y202056D01*
Y202115D01*
X313540Y202185D01*
X313551Y202267D01*
X313569Y202360D01*
X313586Y202460D01*
X313616Y202571D01*
X313651Y202676D01*
X313698Y202793D01*
X313744Y202904D01*
X313809Y203016D01*
X313879Y203127D01*
X313961Y203232D01*
X314054Y203331D01*
X314060Y203337D01*
X314078Y203355D01*
X314107Y203378D01*
X314154Y203413D01*
X314206Y203449D01*
X314271Y203495D01*
X314347Y203536D01*
X314435Y203589D01*
X314534Y203636D01*
X314645Y203682D01*
X314762Y203724D01*
X314891Y203759D01*
X315031Y203794D01*
X315183Y203817D01*
X315347Y203835D01*
X315517Y203840D01*
X315558D01*
X315605Y203835D01*
D02*
G37*
G36*
X311074Y204361D02*
X312683D01*
Y203583D01*
X311069D01*
X308840Y202179D01*
Y203080D01*
X310367Y203987D01*
X308840Y204876D01*
Y205765D01*
X311074Y204361D01*
D02*
G37*
G36*
X317430Y206959D02*
X316599Y206409D01*
X316593Y206403D01*
X316582Y206397D01*
X316558Y206379D01*
X316529Y206362D01*
X316488Y206338D01*
X316453Y206309D01*
X316359Y206245D01*
X316260Y206181D01*
X316172Y206110D01*
X316090Y206046D01*
X316055Y206023D01*
X316032Y205999D01*
X316026Y205993D01*
X316014Y205982D01*
X315991Y205958D01*
X315967Y205929D01*
X315915Y205853D01*
X315891Y205812D01*
X315874Y205765D01*
Y205759D01*
X315868Y205742D01*
X315856Y205712D01*
X315850Y205672D01*
X315839Y205619D01*
X315833Y205555D01*
X315827Y205473D01*
Y205379D01*
Y205227D01*
X317430D01*
Y204449D01*
X313586D01*
Y206069D01*
Y206075D01*
Y206099D01*
Y206128D01*
Y206169D01*
X313592Y206221D01*
Y206280D01*
Y206344D01*
X313598Y206409D01*
X313610Y206555D01*
X313633Y206701D01*
X313657Y206841D01*
X313674Y206906D01*
X313692Y206959D01*
Y206964D01*
X313698Y206970D01*
X313709Y207005D01*
X313738Y207058D01*
X313779Y207122D01*
X313832Y207192D01*
X313896Y207269D01*
X313972Y207339D01*
X314066Y207409D01*
X314078Y207415D01*
X314113Y207438D01*
X314165Y207462D01*
X314242Y207497D01*
X314329Y207526D01*
X314429Y207555D01*
X314546Y207573D01*
X314669Y207579D01*
X314709D01*
X314739Y207573D01*
X314780D01*
X314821Y207567D01*
X314920Y207549D01*
X315031Y207514D01*
X315154Y207468D01*
X315271Y207409D01*
X315330Y207368D01*
X315382Y207321D01*
X315388D01*
X315394Y207310D01*
X315406Y207292D01*
X315429Y207274D01*
X315447Y207245D01*
X315476Y207216D01*
X315505Y207175D01*
X315534Y207134D01*
X315564Y207081D01*
X315593Y207029D01*
X315622Y206964D01*
X315651Y206894D01*
X315681Y206824D01*
X315704Y206742D01*
X315722Y206660D01*
X315739Y206567D01*
Y206572D01*
X315745Y206578D01*
X315763Y206608D01*
X315792Y206654D01*
X315833Y206713D01*
X315880Y206777D01*
X315938Y206847D01*
X315997Y206918D01*
X316061Y206982D01*
X316067Y206988D01*
X316096Y207011D01*
X316137Y207046D01*
X316201Y207099D01*
X316289Y207163D01*
X316394Y207233D01*
X316459Y207280D01*
X316529Y207321D01*
X316599Y207368D01*
X316681Y207421D01*
X317430Y207889D01*
Y206959D01*
D02*
G37*
G36*
X330444Y190339D02*
X330502Y190333D01*
X330573Y190321D01*
X330649Y190309D01*
X330736Y190292D01*
X330824Y190269D01*
X330918Y190239D01*
X331017Y190204D01*
X331117Y190163D01*
X331216Y190111D01*
X331315Y190052D01*
X331415Y189988D01*
X331509Y189912D01*
X331514Y189906D01*
X331532Y189894D01*
X331555Y189865D01*
X331585Y189836D01*
X331620Y189789D01*
X331667Y189736D01*
X331708Y189678D01*
X331754Y189607D01*
X331801Y189525D01*
X331842Y189438D01*
X331883Y189344D01*
X331924Y189239D01*
X331953Y189128D01*
X331977Y189011D01*
X331994Y188888D01*
X332000Y188753D01*
Y188748D01*
Y188736D01*
Y188718D01*
Y188689D01*
X331994Y188654D01*
Y188613D01*
X331982Y188519D01*
X331965Y188414D01*
X331936Y188297D01*
X331901Y188174D01*
X331848Y188057D01*
Y188051D01*
X331842Y188046D01*
X331819Y188010D01*
X331784Y187952D01*
X331731Y187888D01*
X331672Y187811D01*
X331596Y187741D01*
X331503Y187671D01*
X331403Y187607D01*
X331397D01*
X331392Y187601D01*
X331374Y187595D01*
X331351Y187583D01*
X331292Y187560D01*
X331216Y187537D01*
X331122Y187507D01*
X331017Y187484D01*
X330900Y187466D01*
X330777Y187460D01*
X330742D01*
X330701Y187466D01*
X330649D01*
X330584Y187472D01*
X330508Y187484D01*
X330420Y187496D01*
X330333Y187513D01*
X330233Y187537D01*
X330134Y187566D01*
X330029Y187601D01*
X329923Y187642D01*
X329824Y187695D01*
X329724Y187753D01*
X329625Y187817D01*
X329537Y187893D01*
X329531Y187899D01*
X329520Y187911D01*
X329496Y187940D01*
X329467Y187969D01*
X329432Y188016D01*
X329391Y188069D01*
X329350Y188127D01*
X329303Y188198D01*
X329262Y188274D01*
X329221Y188361D01*
X329180Y188455D01*
X329145Y188560D01*
X329116Y188666D01*
X329093Y188783D01*
X329081Y188905D01*
X329075Y189034D01*
Y189040D01*
Y189063D01*
Y189093D01*
X329081Y189139D01*
X329087Y189186D01*
X329093Y189251D01*
X329104Y189315D01*
X329116Y189385D01*
X329157Y189543D01*
X329186Y189625D01*
X329221Y189701D01*
X329262Y189783D01*
X329303Y189859D01*
X329362Y189929D01*
X329420Y189999D01*
X329426Y190005D01*
X329438Y190017D01*
X329455Y190029D01*
X329485Y190052D01*
X329514Y190081D01*
X329555Y190111D01*
X329607Y190140D01*
X329660Y190175D01*
X329724Y190204D01*
X329795Y190233D01*
X329865Y190263D01*
X329947Y190292D01*
X330034Y190315D01*
X330128Y190327D01*
X330227Y190339D01*
X330333Y190345D01*
X330397D01*
X330444Y190339D01*
D02*
G37*
G36*
Y196657D02*
X330520Y196651D01*
X330602Y196639D01*
X330771Y196610D01*
Y194720D01*
X330795D01*
X330818Y194714D01*
X330889D01*
X330941Y194720D01*
X331006Y194732D01*
X331076Y194755D01*
X331152Y194779D01*
X331222Y194820D01*
X331292Y194872D01*
X331298Y194878D01*
X331315Y194902D01*
X331345Y194937D01*
X331374Y194983D01*
X331409Y195042D01*
X331433Y195106D01*
X331456Y195182D01*
X331462Y195264D01*
Y195270D01*
Y195282D01*
Y195299D01*
X331456Y195329D01*
X331438Y195393D01*
X331415Y195481D01*
X331368Y195574D01*
X331339Y195621D01*
X331298Y195674D01*
X331257Y195721D01*
X331204Y195767D01*
X331146Y195814D01*
X331076Y195855D01*
X331187Y196528D01*
X331193D01*
X331204Y196516D01*
X331228Y196510D01*
X331251Y196493D01*
X331286Y196469D01*
X331327Y196446D01*
X331415Y196388D01*
X331514Y196311D01*
X331620Y196218D01*
X331713Y196113D01*
X331801Y195996D01*
Y195990D01*
X331807Y195978D01*
X331819Y195960D01*
X331830Y195937D01*
X331848Y195908D01*
X331866Y195873D01*
X331901Y195779D01*
X331936Y195674D01*
X331971Y195545D01*
X331994Y195411D01*
X332000Y195258D01*
Y195253D01*
Y195235D01*
Y195206D01*
X331994Y195165D01*
X331988Y195118D01*
X331982Y195060D01*
X331971Y195001D01*
X331953Y194937D01*
X331912Y194790D01*
X331883Y194714D01*
X331854Y194638D01*
X331813Y194562D01*
X331766Y194486D01*
X331713Y194416D01*
X331649Y194346D01*
X331643Y194340D01*
X331631Y194328D01*
X331614Y194311D01*
X331585Y194293D01*
X331550Y194264D01*
X331503Y194235D01*
X331456Y194205D01*
X331397Y194170D01*
X331333Y194135D01*
X331263Y194106D01*
X331181Y194077D01*
X331099Y194048D01*
X331006Y194030D01*
X330912Y194012D01*
X330807Y194001D01*
X330701Y193995D01*
X330643D01*
X330602Y194001D01*
X330555Y194007D01*
X330497Y194012D01*
X330432Y194024D01*
X330356Y194036D01*
X330198Y194071D01*
X330029Y194129D01*
X329941Y194165D01*
X329853Y194205D01*
X329765Y194258D01*
X329683Y194311D01*
X329678Y194317D01*
X329654Y194328D01*
X329625Y194358D01*
X329590Y194393D01*
X329543Y194434D01*
X329490Y194492D01*
X329438Y194556D01*
X329379Y194627D01*
X329321Y194709D01*
X329268Y194802D01*
X329215Y194902D01*
X329169Y195013D01*
X329134Y195136D01*
X329098Y195264D01*
X329081Y195399D01*
X329075Y195545D01*
Y195551D01*
Y195569D01*
Y195592D01*
X329081Y195627D01*
X329087Y195674D01*
X329093Y195721D01*
X329116Y195838D01*
X329151Y195966D01*
X329209Y196101D01*
X329245Y196171D01*
X329291Y196235D01*
X329338Y196300D01*
X329397Y196358D01*
X329403Y196364D01*
X329408Y196370D01*
X329432Y196388D01*
X329455Y196405D01*
X329485Y196429D01*
X329525Y196452D01*
X329572Y196481D01*
X329625Y196510D01*
X329683Y196540D01*
X329754Y196569D01*
X329824Y196592D01*
X329900Y196616D01*
X329988Y196633D01*
X330081Y196651D01*
X330175Y196657D01*
X330280Y196662D01*
X330380D01*
X330444Y196657D01*
D02*
G37*
G36*
X325762Y199190D02*
X325820Y199184D01*
X325890Y199172D01*
X325966Y199160D01*
X326054Y199143D01*
X326142Y199119D01*
X326235Y199090D01*
X326335Y199055D01*
X326434Y199014D01*
X326534Y198962D01*
X326633Y198903D01*
X326733Y198839D01*
X326826Y198763D01*
X326832Y198757D01*
X326850Y198745D01*
X326873Y198716D01*
X326902Y198687D01*
X326937Y198640D01*
X326984Y198587D01*
X327025Y198529D01*
X327072Y198458D01*
X327119Y198377D01*
X327160Y198289D01*
X327201Y198195D01*
X327242Y198090D01*
X327271Y197979D01*
X327294Y197862D01*
X327312Y197739D01*
X327318Y197604D01*
Y197599D01*
Y197587D01*
Y197569D01*
Y197540D01*
X327312Y197505D01*
Y197464D01*
X327300Y197370D01*
X327283Y197265D01*
X327253Y197148D01*
X327218Y197025D01*
X327166Y196908D01*
Y196902D01*
X327160Y196897D01*
X327136Y196861D01*
X327101Y196803D01*
X327049Y196739D01*
X326990Y196662D01*
X326914Y196592D01*
X326820Y196522D01*
X326721Y196458D01*
X326715D01*
X326709Y196452D01*
X326692Y196446D01*
X326668Y196434D01*
X326610Y196411D01*
X326534Y196388D01*
X326440Y196358D01*
X326335Y196335D01*
X326218Y196317D01*
X326095Y196311D01*
X326060D01*
X326019Y196317D01*
X325966D01*
X325902Y196323D01*
X325826Y196335D01*
X325738Y196347D01*
X325650Y196364D01*
X325551Y196388D01*
X325451Y196417D01*
X325346Y196452D01*
X325241Y196493D01*
X325142Y196546D01*
X325042Y196604D01*
X324943Y196668D01*
X324855Y196744D01*
X324849Y196750D01*
X324837Y196762D01*
X324814Y196791D01*
X324785Y196820D01*
X324749Y196867D01*
X324709Y196920D01*
X324668Y196978D01*
X324621Y197049D01*
X324580Y197125D01*
X324539Y197212D01*
X324498Y197306D01*
X324463Y197411D01*
X324434Y197517D01*
X324410Y197634D01*
X324398Y197756D01*
X324393Y197885D01*
Y197891D01*
Y197914D01*
Y197944D01*
X324398Y197991D01*
X324404Y198037D01*
X324410Y198102D01*
X324422Y198166D01*
X324434Y198236D01*
X324475Y198394D01*
X324504Y198476D01*
X324539Y198552D01*
X324580Y198634D01*
X324621Y198710D01*
X324679Y198780D01*
X324738Y198850D01*
X324744Y198856D01*
X324755Y198868D01*
X324773Y198880D01*
X324802Y198903D01*
X324831Y198932D01*
X324872Y198962D01*
X324925Y198991D01*
X324978Y199026D01*
X325042Y199055D01*
X325112Y199084D01*
X325182Y199114D01*
X325264Y199143D01*
X325352Y199166D01*
X325446Y199178D01*
X325545Y199190D01*
X325650Y199196D01*
X325715D01*
X325762Y199190D01*
D02*
G37*
G36*
X325095Y201518D02*
Y201512D01*
X325089Y201501D01*
X325083Y201477D01*
X325071Y201454D01*
X325060Y201378D01*
X325054Y201296D01*
Y201290D01*
Y201261D01*
X325060Y201225D01*
X325071Y201173D01*
X325089Y201114D01*
X325118Y201044D01*
X325153Y200974D01*
X325206Y200898D01*
X325212Y200892D01*
X325235Y200863D01*
X325264Y200828D01*
X325311Y200787D01*
X325364Y200734D01*
X325434Y200681D01*
X325510Y200629D01*
X325598Y200582D01*
X325609Y200576D01*
X325621Y200570D01*
X325645Y200565D01*
X325668Y200553D01*
X325703Y200541D01*
X325744Y200529D01*
X325785Y200512D01*
X325838Y200494D01*
X325896Y200477D01*
X325960Y200459D01*
X326031Y200442D01*
X326107Y200424D01*
X326189Y200401D01*
X326276Y200383D01*
X326376Y200360D01*
X327248Y200178D01*
Y199435D01*
X324463Y200015D01*
Y200711D01*
X324989Y200605D01*
X324984Y200611D01*
X324966Y200623D01*
X324937Y200646D01*
X324896Y200676D01*
X324849Y200711D01*
X324802Y200752D01*
X324744Y200804D01*
X324691Y200857D01*
X324580Y200986D01*
X324533Y201056D01*
X324486Y201126D01*
X324445Y201208D01*
X324416Y201284D01*
X324398Y201372D01*
X324393Y201454D01*
Y201460D01*
Y201483D01*
X324398Y201518D01*
X324404Y201559D01*
X324410Y201612D01*
X324428Y201670D01*
X324445Y201734D01*
X324475Y201805D01*
X325095Y201518D01*
D02*
G37*
G36*
X325241Y195264D02*
X325235D01*
X325218Y195253D01*
X325188Y195241D01*
X325159Y195218D01*
X325124Y195194D01*
X325083Y195165D01*
X325048Y195124D01*
X325019Y195083D01*
X325013Y195077D01*
X325001Y195054D01*
X324984Y195019D01*
X324966Y194972D01*
X324948Y194907D01*
X324931Y194843D01*
X324919Y194761D01*
X324913Y194679D01*
Y194668D01*
Y194644D01*
X324919Y194597D01*
X324925Y194551D01*
X324948Y194439D01*
X324966Y194387D01*
X324995Y194340D01*
X325001Y194334D01*
X325007Y194323D01*
X325025Y194311D01*
X325048Y194293D01*
X325106Y194258D01*
X325136Y194246D01*
X325177Y194241D01*
X325194D01*
X325212Y194246D01*
X325235Y194252D01*
X325264Y194264D01*
X325294Y194281D01*
X325323Y194305D01*
X325352Y194340D01*
Y194346D01*
X325358Y194358D01*
X325370Y194381D01*
X325387Y194422D01*
X325405Y194475D01*
X325428Y194551D01*
X325446Y194597D01*
X325463Y194644D01*
X325481Y194703D01*
X325498Y194767D01*
Y194773D01*
X325504Y194790D01*
X325516Y194820D01*
X325528Y194855D01*
X325539Y194902D01*
X325557Y194948D01*
X325598Y195065D01*
X325645Y195188D01*
X325697Y195311D01*
X325756Y195416D01*
X325785Y195463D01*
X325814Y195504D01*
Y195510D01*
X325826Y195516D01*
X325855Y195545D01*
X325896Y195586D01*
X325960Y195639D01*
X326037Y195686D01*
X326130Y195727D01*
X326230Y195756D01*
X326282Y195767D01*
X326382D01*
X326405Y195762D01*
X326440Y195756D01*
X326481Y195750D01*
X326575Y195727D01*
X326686Y195686D01*
X326739Y195662D01*
X326797Y195627D01*
X326861Y195586D01*
X326920Y195545D01*
X326973Y195492D01*
X327031Y195434D01*
X327037Y195428D01*
X327043Y195416D01*
X327054Y195399D01*
X327078Y195376D01*
X327095Y195340D01*
X327119Y195299D01*
X327148Y195247D01*
X327171Y195194D01*
X327201Y195130D01*
X327224Y195060D01*
X327253Y194978D01*
X327271Y194896D01*
X327288Y194808D01*
X327306Y194709D01*
X327312Y194603D01*
X327318Y194492D01*
Y194486D01*
Y194463D01*
Y194434D01*
X327312Y194393D01*
Y194340D01*
X327306Y194281D01*
X327300Y194217D01*
X327288Y194153D01*
X327265Y194001D01*
X327224Y193849D01*
X327171Y193697D01*
X327136Y193626D01*
X327101Y193562D01*
Y193556D01*
X327090Y193550D01*
X327078Y193533D01*
X327060Y193509D01*
X327008Y193451D01*
X326937Y193386D01*
X326850Y193310D01*
X326744Y193234D01*
X326616Y193170D01*
X326475Y193117D01*
X326358Y193843D01*
X326370Y193849D01*
X326393Y193860D01*
X326434Y193878D01*
X326487Y193907D01*
X326540Y193942D01*
X326592Y193983D01*
X326645Y194030D01*
X326686Y194083D01*
X326692Y194088D01*
X326698Y194112D01*
X326715Y194141D01*
X326733Y194188D01*
X326750Y194241D01*
X326762Y194311D01*
X326774Y194387D01*
X326780Y194475D01*
Y194480D01*
Y194486D01*
Y194516D01*
X326774Y194568D01*
X326768Y194627D01*
X326750Y194691D01*
X326733Y194761D01*
X326703Y194831D01*
X326668Y194890D01*
X326662Y194896D01*
X326651Y194907D01*
X326639Y194925D01*
X326616Y194948D01*
X326551Y194983D01*
X326516Y194995D01*
X326475Y195001D01*
X326464D01*
X326429Y194995D01*
X326382Y194978D01*
X326335Y194943D01*
X326323Y194931D01*
X326311Y194913D01*
X326294Y194884D01*
X326276Y194843D01*
X326253Y194785D01*
X326224Y194720D01*
X326195Y194632D01*
Y194627D01*
X326183Y194603D01*
X326171Y194568D01*
X326159Y194521D01*
X326136Y194469D01*
X326113Y194410D01*
X326066Y194270D01*
X326007Y194124D01*
X325949Y193989D01*
X325920Y193925D01*
X325890Y193866D01*
X325861Y193819D01*
X325838Y193784D01*
X325826Y193773D01*
X325802Y193743D01*
X325756Y193702D01*
X325691Y193661D01*
X325615Y193615D01*
X325522Y193574D01*
X325416Y193544D01*
X325358Y193539D01*
X325299Y193533D01*
X325270D01*
X325247Y193539D01*
X325182Y193544D01*
X325106Y193562D01*
X325019Y193591D01*
X324919Y193638D01*
X324826Y193697D01*
X324732Y193778D01*
X324726Y193784D01*
X324714Y193796D01*
X324703Y193814D01*
X324679Y193843D01*
X324656Y193878D01*
X324627Y193925D01*
X324592Y193972D01*
X324562Y194036D01*
X324533Y194100D01*
X324498Y194176D01*
X324469Y194258D01*
X324445Y194352D01*
X324422Y194451D01*
X324404Y194556D01*
X324398Y194674D01*
X324393Y194796D01*
Y194802D01*
Y194820D01*
Y194849D01*
Y194884D01*
X324398Y194931D01*
X324404Y194983D01*
X324416Y195100D01*
X324440Y195229D01*
X324475Y195364D01*
X324527Y195498D01*
X324556Y195557D01*
X324592Y195609D01*
Y195615D01*
X324603Y195621D01*
X324627Y195656D01*
X324674Y195703D01*
X324732Y195756D01*
X324808Y195814D01*
X324902Y195873D01*
X325007Y195925D01*
X325124Y195960D01*
X325241Y195264D01*
D02*
G37*
G36*
X41900Y116900D02*
Y116100D01*
Y115300D01*
Y114500D01*
Y113700D01*
X41100D01*
Y112900D01*
Y112100D01*
Y111300D01*
Y110500D01*
Y109700D01*
Y108900D01*
Y108100D01*
Y107300D01*
X41900D01*
Y106500D01*
Y105700D01*
X42700D01*
Y104900D01*
X47500D01*
Y104100D01*
Y103300D01*
Y102500D01*
X46700D01*
Y101700D01*
Y100900D01*
X47500D01*
Y100100D01*
X48300D01*
Y99300D01*
X46700D01*
Y98500D01*
X38700D01*
Y99300D01*
X37100D01*
Y100100D01*
X33900D01*
Y99300D01*
Y98500D01*
Y97700D01*
Y96900D01*
Y96100D01*
Y95300D01*
Y94500D01*
Y93700D01*
Y92900D01*
X33100D01*
Y92100D01*
Y91300D01*
X32300D01*
Y90500D01*
X31500D01*
Y89700D01*
X30700D01*
Y88900D01*
X29100D01*
Y89700D01*
X28300D01*
Y90500D01*
Y91300D01*
X27500D01*
Y92100D01*
Y92900D01*
X26700D01*
Y93700D01*
Y94500D01*
X27500D01*
Y95300D01*
Y96100D01*
Y96900D01*
X28300D01*
Y97700D01*
Y98500D01*
X29100D01*
Y99300D01*
X29900D01*
Y98500D01*
X30700D01*
Y99300D01*
X29900D01*
Y100100D01*
Y100900D01*
Y101700D01*
Y102500D01*
Y103300D01*
X30700D01*
Y104100D01*
X31500D01*
Y103300D01*
X32300D01*
Y104100D01*
X31500D01*
Y104900D01*
X33900D01*
Y105700D01*
Y106500D01*
Y107300D01*
X33100D01*
Y108100D01*
Y108900D01*
Y109700D01*
X33900D01*
Y110500D01*
Y111300D01*
Y112100D01*
Y112900D01*
X32300D01*
Y113700D01*
X34700D01*
Y114500D01*
X35500D01*
Y115300D01*
X37100D01*
Y116100D01*
X38700D01*
Y116900D01*
X41100D01*
Y117700D01*
X41900D01*
Y116900D01*
D02*
G37*
G36*
X325194Y192913D02*
X325247Y192907D01*
X325323Y192895D01*
X325422Y192877D01*
X325539Y192854D01*
X325604Y192842D01*
X325680Y192825D01*
X327248Y192486D01*
Y191743D01*
X325674Y192082D01*
X325668D01*
X325656Y192088D01*
X325639D01*
X325615Y192094D01*
X325557Y192105D01*
X325487Y192117D01*
X325416Y192129D01*
X325346Y192146D01*
X325294Y192152D01*
X325270Y192158D01*
X325229D01*
X325200Y192152D01*
X325171Y192146D01*
X325130Y192135D01*
X325095Y192123D01*
X325054Y192099D01*
X325019Y192070D01*
X325013Y192064D01*
X325007Y192053D01*
X324989Y192035D01*
X324972Y192006D01*
X324960Y191971D01*
X324943Y191930D01*
X324937Y191883D01*
X324931Y191824D01*
Y191819D01*
Y191795D01*
X324937Y191760D01*
X324948Y191713D01*
X324966Y191661D01*
X324989Y191596D01*
X325025Y191526D01*
X325071Y191450D01*
X325077Y191438D01*
X325095Y191415D01*
X325130Y191380D01*
X325171Y191333D01*
X325223Y191280D01*
X325288Y191228D01*
X325358Y191169D01*
X325440Y191123D01*
X325446Y191117D01*
X325475Y191111D01*
X325516Y191093D01*
X325551Y191082D01*
X325586Y191070D01*
X325627Y191052D01*
X325674Y191041D01*
X325727Y191023D01*
X325791Y191006D01*
X325861Y190988D01*
X325931Y190971D01*
X326019Y190953D01*
X326107Y190929D01*
X327248Y190696D01*
Y189953D01*
X324463Y190532D01*
Y191240D01*
X324831Y191169D01*
Y191175D01*
X324820Y191181D01*
X324791Y191216D01*
X324749Y191269D01*
X324703Y191333D01*
X324644Y191409D01*
X324592Y191497D01*
X324539Y191585D01*
X324498Y191673D01*
X324492Y191684D01*
X324480Y191713D01*
X324463Y191760D01*
X324445Y191824D01*
X324428Y191901D01*
X324410Y191982D01*
X324398Y192076D01*
X324393Y192170D01*
Y192175D01*
Y192187D01*
Y192205D01*
X324398Y192228D01*
X324404Y192287D01*
X324416Y192369D01*
X324445Y192456D01*
X324480Y192544D01*
X324527Y192632D01*
X324597Y192714D01*
X324609Y192726D01*
X324633Y192749D01*
X324679Y192778D01*
X324738Y192819D01*
X324814Y192854D01*
X324902Y192889D01*
X325007Y192913D01*
X325124Y192919D01*
X325153D01*
X325194Y192913D01*
D02*
G37*
G36*
X331930Y193188D02*
Y192480D01*
X331631Y192538D01*
X331637Y192526D01*
X331667Y192503D01*
X331702Y192462D01*
X331743Y192410D01*
X331789Y192351D01*
X331836Y192281D01*
X331883Y192211D01*
X331918Y192135D01*
X331924Y192129D01*
X331930Y192099D01*
X331942Y192059D01*
X331959Y192006D01*
X331977Y191942D01*
X331988Y191866D01*
X331994Y191784D01*
X332000Y191690D01*
Y191684D01*
Y191673D01*
Y191649D01*
X331994Y191620D01*
X331988Y191579D01*
X331982Y191538D01*
X331965Y191438D01*
X331930Y191327D01*
X331877Y191210D01*
X331842Y191152D01*
X331801Y191093D01*
X331760Y191041D01*
X331708Y190988D01*
X331702D01*
X331696Y190976D01*
X331678Y190965D01*
X331649Y190947D01*
X331620Y190929D01*
X331585Y190906D01*
X331538Y190883D01*
X331485Y190859D01*
X331427Y190830D01*
X331362Y190807D01*
X331292Y190783D01*
X331210Y190766D01*
X331128Y190748D01*
X331035Y190736D01*
X330935Y190731D01*
X330830Y190725D01*
X330766D01*
X330719Y190731D01*
X330660Y190736D01*
X330590Y190742D01*
X330514Y190754D01*
X330426Y190772D01*
X330339Y190795D01*
X330239Y190818D01*
X330140Y190848D01*
X330040Y190883D01*
X329935Y190929D01*
X329830Y190982D01*
X329724Y191041D01*
X329619Y191105D01*
X329613Y191111D01*
X329596Y191123D01*
X329566Y191146D01*
X329531Y191175D01*
X329490Y191210D01*
X329449Y191257D01*
X329397Y191316D01*
X329344Y191374D01*
X329297Y191444D01*
X329245Y191520D01*
X329204Y191602D01*
X329157Y191690D01*
X329128Y191789D01*
X329098Y191895D01*
X329081Y192000D01*
X329075Y192117D01*
Y192123D01*
Y192140D01*
Y192170D01*
X329081Y192211D01*
X329087Y192257D01*
X329098Y192310D01*
X329134Y192439D01*
X329157Y192503D01*
X329186Y192573D01*
X329221Y192644D01*
X329262Y192714D01*
X329315Y192784D01*
X329379Y192848D01*
X329444Y192907D01*
X329525Y192965D01*
X328086Y193275D01*
Y194024D01*
X331930Y193188D01*
D02*
G37*
G36*
X312683Y183500D02*
X308840D01*
Y186343D01*
X309489D01*
Y184278D01*
X310343D01*
Y186197D01*
X310993D01*
Y184278D01*
X312034D01*
Y186419D01*
X312683D01*
Y183500D01*
D02*
G37*
G36*
Y190953D02*
X308840D01*
Y193796D01*
X309489D01*
Y191731D01*
X310343D01*
Y193650D01*
X310993D01*
Y191731D01*
X312034D01*
Y193872D01*
X312683D01*
Y190953D01*
D02*
G37*
G36*
X317430Y186513D02*
X316558Y186185D01*
Y184635D01*
X317430Y184319D01*
Y183500D01*
X313586Y184992D01*
Y185811D01*
X317430Y187355D01*
Y186513D01*
D02*
G37*
G36*
X315669Y194843D02*
X315716D01*
X315827Y194831D01*
X315956Y194820D01*
X316090Y194796D01*
X316231Y194767D01*
X316365Y194726D01*
X316371D01*
X316383Y194720D01*
X316406Y194714D01*
X316435Y194703D01*
X316470Y194685D01*
X316511Y194668D01*
X316605Y194621D01*
X316716Y194562D01*
X316827Y194492D01*
X316938Y194410D01*
X317044Y194317D01*
X317050Y194305D01*
X317079Y194281D01*
X317114Y194235D01*
X317155Y194176D01*
X317208Y194094D01*
X317260Y194001D01*
X317307Y193895D01*
X317354Y193773D01*
X317360Y193761D01*
X317366Y193726D01*
X317377Y193673D01*
X317389Y193591D01*
X317406Y193498D01*
X317418Y193381D01*
X317424Y193240D01*
X317430Y193088D01*
Y191637D01*
X313586D01*
Y193047D01*
Y193053D01*
Y193071D01*
Y193094D01*
Y193129D01*
Y193164D01*
X313592Y193211D01*
X313598Y193316D01*
X313604Y193439D01*
X313616Y193556D01*
X313639Y193673D01*
X313662Y193778D01*
Y193784D01*
X313668Y193796D01*
X313674Y193814D01*
X313680Y193837D01*
X313709Y193895D01*
X313744Y193977D01*
X313791Y194065D01*
X313856Y194159D01*
X313931Y194258D01*
X314019Y194352D01*
Y194358D01*
X314031Y194363D01*
X314066Y194393D01*
X314119Y194434D01*
X314189Y194492D01*
X314282Y194551D01*
X314388Y194609D01*
X314505Y194668D01*
X314639Y194720D01*
X314645D01*
X314657Y194726D01*
X314674Y194732D01*
X314704Y194738D01*
X314739Y194749D01*
X314786Y194761D01*
X314832Y194773D01*
X314891Y194785D01*
X314955Y194796D01*
X315020Y194808D01*
X315178Y194831D01*
X315353Y194843D01*
X315546Y194849D01*
X315628D01*
X315669Y194843D01*
D02*
G37*
G36*
X61900Y125700D02*
X64300D01*
Y124900D01*
X65100D01*
Y124100D01*
X66700D01*
Y123300D01*
X67500D01*
Y122500D01*
X68300D01*
Y121700D01*
Y120900D01*
X69100D01*
Y120100D01*
X69900D01*
Y119300D01*
X74700D01*
Y118500D01*
X76300D01*
Y117700D01*
X77900D01*
Y116900D01*
X78700D01*
Y116100D01*
X79500D01*
Y115300D01*
Y114500D01*
X80300D01*
Y113700D01*
Y112900D01*
X81100D01*
Y112100D01*
Y111300D01*
Y110500D01*
Y109700D01*
Y108900D01*
Y108100D01*
Y107300D01*
X80300D01*
Y106500D01*
Y105700D01*
X79500D01*
Y104900D01*
Y104100D01*
X78700D01*
Y103300D01*
X77900D01*
Y102500D01*
X77100D01*
Y101700D01*
X76300D01*
Y100900D01*
X75500D01*
Y100100D01*
X74700D01*
Y99300D01*
X73900D01*
Y98500D01*
X72300D01*
Y97700D01*
X70700D01*
Y96900D01*
X69100D01*
Y97700D01*
X68300D01*
Y98500D01*
X67500D01*
Y99300D01*
X66700D01*
Y98500D01*
Y97700D01*
X65900D01*
Y96900D01*
X65100D01*
Y96100D01*
X64300D01*
Y95300D01*
X62700D01*
Y96100D01*
X61900D01*
Y95300D01*
X62700D01*
Y94500D01*
X61900D01*
Y93700D01*
X61100D01*
Y94500D01*
X60300D01*
Y93700D01*
Y92900D01*
X59500D01*
Y92100D01*
X58700D01*
Y91300D01*
X53900D01*
Y92100D01*
Y92900D01*
Y93700D01*
Y94500D01*
Y95300D01*
X54700D01*
Y96100D01*
Y96900D01*
X55500D01*
Y97700D01*
X61100D01*
Y98500D01*
X61900D01*
Y99300D01*
X62700D01*
Y100100D01*
X63500D01*
Y100900D01*
X64300D01*
Y101700D01*
Y102500D01*
Y103300D01*
Y104100D01*
X65100D01*
Y104900D01*
Y105700D01*
Y106500D01*
Y107300D01*
Y108100D01*
Y108900D01*
Y109700D01*
X65900D01*
Y110500D01*
Y111300D01*
Y112100D01*
X66700D01*
Y111300D01*
X67500D01*
Y112100D01*
Y112900D01*
Y113700D01*
Y114500D01*
Y115300D01*
Y116100D01*
Y116900D01*
X66700D01*
Y116100D01*
X62700D01*
Y116900D01*
X61900D01*
Y116100D01*
X61100D01*
Y115300D01*
Y114500D01*
Y113700D01*
Y112900D01*
Y112100D01*
X60300D01*
Y112900D01*
X54700D01*
Y112100D01*
Y111300D01*
Y110500D01*
Y109700D01*
X53100D01*
Y110500D01*
X53900D01*
Y111300D01*
Y112100D01*
Y112900D01*
Y113700D01*
Y114500D01*
Y115300D01*
Y116100D01*
X53100D01*
Y116900D01*
X52300D01*
Y116100D01*
X49900D01*
Y116900D01*
X49100D01*
Y116100D01*
X48300D01*
Y116900D01*
X47500D01*
Y117700D01*
Y118500D01*
X55500D01*
Y117700D01*
Y116900D01*
Y116100D01*
Y115300D01*
X60300D01*
Y116100D01*
Y116900D01*
Y117700D01*
X61100D01*
Y118500D01*
Y119300D01*
Y120100D01*
Y120900D01*
X60300D01*
Y121700D01*
X59500D01*
Y122500D01*
X58700D01*
Y123300D01*
X47500D01*
Y124100D01*
X49100D01*
Y124900D01*
X50700D01*
Y124100D01*
X51500D01*
Y124900D01*
X50700D01*
Y125700D01*
X53100D01*
Y126500D01*
X61900D01*
Y125700D01*
D02*
G37*
G36*
X312683Y189356D02*
X310162Y187800D01*
X312683D01*
Y187080D01*
X308840D01*
Y187829D01*
X311420Y189414D01*
X308840D01*
Y190134D01*
X312683D01*
Y189356D01*
D02*
G37*
G36*
X315844Y190813D02*
X315991D01*
X316155Y190801D01*
X316312Y190789D01*
X316389Y190783D01*
X316465Y190777D01*
X316529Y190766D01*
X316587Y190754D01*
X316599D01*
X316634Y190742D01*
X316687Y190725D01*
X316757Y190701D01*
X316833Y190666D01*
X316915Y190631D01*
X316997Y190578D01*
X317073Y190520D01*
X317079Y190514D01*
X317108Y190491D01*
X317143Y190450D01*
X317184Y190403D01*
X317237Y190333D01*
X317289Y190257D01*
X317342Y190169D01*
X317389Y190070D01*
Y190064D01*
X317395Y190058D01*
X317401Y190040D01*
X317406Y190017D01*
X317412Y189994D01*
X317424Y189958D01*
X317442Y189871D01*
X317465Y189765D01*
X317482Y189643D01*
X317494Y189496D01*
X317500Y189332D01*
Y189327D01*
Y189309D01*
Y189280D01*
Y189245D01*
X317494Y189198D01*
Y189145D01*
X317482Y189022D01*
X317471Y188888D01*
X317447Y188753D01*
X317418Y188619D01*
X317401Y188560D01*
X317377Y188502D01*
Y188496D01*
X317371Y188490D01*
X317354Y188455D01*
X317324Y188402D01*
X317289Y188338D01*
X317237Y188268D01*
X317184Y188192D01*
X317114Y188121D01*
X317044Y188051D01*
X317032Y188046D01*
X317009Y188028D01*
X316968Y187999D01*
X316915Y187964D01*
X316851Y187928D01*
X316775Y187893D01*
X316699Y187858D01*
X316617Y187835D01*
X316599D01*
X316582Y187829D01*
X316552Y187823D01*
X316523Y187817D01*
X316476Y187811D01*
X316429Y187806D01*
X316371Y187800D01*
X316307Y187794D01*
X316236Y187788D01*
X316155Y187782D01*
X316067Y187776D01*
X315973Y187770D01*
X315868D01*
X315757Y187765D01*
X313586D01*
Y188543D01*
X315839D01*
X315944Y188549D01*
X316049D01*
X316155Y188554D01*
X316248Y188560D01*
X316289D01*
X316318Y188566D01*
X316330D01*
X316359Y188578D01*
X316400Y188595D01*
X316453Y188613D01*
X316517Y188648D01*
X316582Y188689D01*
X316640Y188736D01*
X316699Y188800D01*
X316704Y188812D01*
X316722Y188835D01*
X316745Y188876D01*
X316769Y188935D01*
X316792Y189005D01*
X316815Y189093D01*
X316833Y189198D01*
X316839Y189309D01*
Y189315D01*
Y189321D01*
Y189338D01*
Y189362D01*
X316833Y189420D01*
X316821Y189496D01*
X316804Y189572D01*
X316780Y189654D01*
X316751Y189730D01*
X316704Y189801D01*
X316699Y189806D01*
X316681Y189830D01*
X316652Y189859D01*
X316611Y189888D01*
X316564Y189923D01*
X316511Y189958D01*
X316447Y189988D01*
X316377Y190005D01*
X316365D01*
X316336Y190011D01*
X316289Y190017D01*
X316219Y190023D01*
X316131Y190029D01*
X316014Y190034D01*
X315950D01*
X315880Y190040D01*
X313586D01*
Y190818D01*
X315780D01*
X315844Y190813D01*
D02*
G37*
G36*
X314236Y198640D02*
X317430D01*
Y197862D01*
X314236D01*
Y196733D01*
X313586D01*
Y199769D01*
X314236D01*
Y198640D01*
D02*
G37*
G36*
X312174Y201846D02*
X312203Y201811D01*
X312244Y201758D01*
X312303Y201676D01*
X312367Y201576D01*
X312437Y201454D01*
X312508Y201313D01*
X312578Y201150D01*
Y201144D01*
X312584Y201126D01*
X312595Y201103D01*
X312607Y201068D01*
X312619Y201027D01*
X312631Y200980D01*
X312648Y200921D01*
X312666Y200857D01*
X312695Y200717D01*
X312724Y200559D01*
X312748Y200389D01*
X312753Y200213D01*
Y200208D01*
Y200184D01*
Y200155D01*
X312748Y200114D01*
Y200061D01*
X312742Y199997D01*
X312730Y199933D01*
X312724Y199857D01*
X312689Y199693D01*
X312648Y199517D01*
X312584Y199336D01*
X312549Y199248D01*
X312502Y199160D01*
X312496Y199155D01*
X312490Y199143D01*
X312473Y199119D01*
X312455Y199090D01*
X312432Y199049D01*
X312397Y199008D01*
X312315Y198909D01*
X312215Y198804D01*
X312092Y198693D01*
X311946Y198587D01*
X311782Y198494D01*
X311776D01*
X311759Y198482D01*
X311735Y198476D01*
X311700Y198458D01*
X311653Y198441D01*
X311601Y198423D01*
X311542Y198406D01*
X311478Y198382D01*
X311402Y198359D01*
X311320Y198342D01*
X311150Y198306D01*
X310957Y198283D01*
X310753Y198271D01*
X310694D01*
X310653Y198277D01*
X310600D01*
X310536Y198283D01*
X310472Y198295D01*
X310396Y198301D01*
X310232Y198330D01*
X310051Y198377D01*
X309869Y198435D01*
X309688Y198517D01*
X309682Y198523D01*
X309665Y198529D01*
X309641Y198546D01*
X309612Y198564D01*
X309571Y198593D01*
X309524Y198622D01*
X309425Y198704D01*
X309308Y198809D01*
X309185Y198932D01*
X309074Y199084D01*
X308968Y199254D01*
Y199260D01*
X308962Y199272D01*
X308951Y199289D01*
X308939Y199318D01*
X308922Y199359D01*
X308910Y199400D01*
X308892Y199453D01*
X308869Y199506D01*
X308851Y199570D01*
X308834Y199640D01*
X308822Y199716D01*
X308805Y199798D01*
X308781Y199974D01*
X308775Y200172D01*
Y200178D01*
Y200202D01*
Y200243D01*
X308781Y200290D01*
X308787Y200348D01*
X308793Y200418D01*
X308799Y200494D01*
X308810Y200582D01*
X308851Y200758D01*
X308904Y200945D01*
X308939Y201032D01*
X308980Y201120D01*
X309027Y201208D01*
X309080Y201284D01*
X309085Y201290D01*
X309091Y201302D01*
X309109Y201325D01*
X309132Y201348D01*
X309167Y201383D01*
X309202Y201419D01*
X309243Y201460D01*
X309296Y201501D01*
X309349Y201547D01*
X309413Y201588D01*
X309477Y201635D01*
X309553Y201676D01*
X309711Y201746D01*
X309805Y201781D01*
X309898Y201805D01*
X310045Y201032D01*
X310039D01*
X310033Y201027D01*
X309998Y201015D01*
X309945Y200997D01*
X309881Y200962D01*
X309811Y200921D01*
X309741Y200869D01*
X309665Y200804D01*
X309600Y200728D01*
X309594Y200717D01*
X309577Y200687D01*
X309547Y200641D01*
X309518Y200576D01*
X309489Y200494D01*
X309460Y200401D01*
X309442Y200290D01*
X309436Y200172D01*
Y200167D01*
Y200149D01*
Y200126D01*
X309442Y200091D01*
X309448Y200044D01*
X309454Y199997D01*
X309477Y199880D01*
X309518Y199751D01*
X309577Y199617D01*
X309612Y199552D01*
X309653Y199488D01*
X309705Y199424D01*
X309764Y199365D01*
X309770Y199359D01*
X309782Y199354D01*
X309799Y199336D01*
X309823Y199318D01*
X309858Y199295D01*
X309898Y199272D01*
X309945Y199248D01*
X310004Y199219D01*
X310068Y199190D01*
X310138Y199166D01*
X310220Y199143D01*
X310302Y199119D01*
X310396Y199102D01*
X310501Y199084D01*
X310606Y199079D01*
X310723Y199073D01*
X310788D01*
X310835Y199079D01*
X310893Y199084D01*
X310957Y199090D01*
X311028Y199096D01*
X311109Y199108D01*
X311273Y199143D01*
X311449Y199201D01*
X311531Y199231D01*
X311607Y199272D01*
X311683Y199318D01*
X311753Y199371D01*
X311759Y199377D01*
X311765Y199383D01*
X311782Y199400D01*
X311806Y199424D01*
X311829Y199459D01*
X311858Y199494D01*
X311893Y199535D01*
X311923Y199588D01*
X311987Y199699D01*
X312040Y199833D01*
X312063Y199909D01*
X312075Y199991D01*
X312086Y200079D01*
X312092Y200167D01*
Y200178D01*
Y200208D01*
X312086Y200254D01*
X312081Y200319D01*
X312069Y200389D01*
X312051Y200471D01*
X312028Y200559D01*
X311999Y200652D01*
X311993Y200664D01*
X311981Y200693D01*
X311964Y200740D01*
X311934Y200799D01*
X311899Y200863D01*
X311858Y200933D01*
X311817Y201003D01*
X311765Y201073D01*
X311273D01*
Y200190D01*
X310624D01*
Y201857D01*
X312162D01*
X312174Y201846D01*
D02*
G37*
G36*
X47500Y115300D02*
Y114500D01*
Y113700D01*
Y112900D01*
Y112100D01*
X48300D01*
Y111300D01*
Y110500D01*
Y109700D01*
X45900D01*
Y110500D01*
Y111300D01*
X46700D01*
Y112100D01*
Y112900D01*
Y113700D01*
Y114500D01*
Y115300D01*
Y116100D01*
X47500D01*
Y115300D01*
D02*
G37*
G36*
X317430Y195487D02*
X313586D01*
Y196265D01*
X317430D01*
Y195487D01*
D02*
G37*
G36*
X312683Y197043D02*
X311852Y196493D01*
X311847Y196487D01*
X311835Y196481D01*
X311811Y196464D01*
X311782Y196446D01*
X311741Y196423D01*
X311706Y196393D01*
X311613Y196329D01*
X311513Y196265D01*
X311425Y196195D01*
X311344Y196130D01*
X311308Y196107D01*
X311285Y196083D01*
X311279Y196078D01*
X311267Y196066D01*
X311244Y196042D01*
X311221Y196013D01*
X311168Y195937D01*
X311145Y195896D01*
X311127Y195849D01*
Y195844D01*
X311121Y195826D01*
X311109Y195797D01*
X311104Y195756D01*
X311092Y195703D01*
X311086Y195639D01*
X311080Y195557D01*
Y195463D01*
Y195311D01*
X312683D01*
Y194533D01*
X308840D01*
Y196153D01*
Y196159D01*
Y196183D01*
Y196212D01*
Y196253D01*
X308845Y196306D01*
Y196364D01*
Y196429D01*
X308851Y196493D01*
X308863Y196639D01*
X308887Y196785D01*
X308910Y196926D01*
X308927Y196990D01*
X308945Y197043D01*
Y197049D01*
X308951Y197054D01*
X308962Y197090D01*
X308992Y197142D01*
X309033Y197206D01*
X309085Y197277D01*
X309150Y197353D01*
X309226Y197423D01*
X309319Y197493D01*
X309331Y197499D01*
X309366Y197522D01*
X309419Y197546D01*
X309495Y197581D01*
X309583Y197610D01*
X309682Y197640D01*
X309799Y197657D01*
X309922Y197663D01*
X309963D01*
X309992Y197657D01*
X310033D01*
X310074Y197651D01*
X310174Y197634D01*
X310285Y197599D01*
X310407Y197552D01*
X310525Y197493D01*
X310583Y197452D01*
X310636Y197405D01*
X310642D01*
X310647Y197394D01*
X310659Y197376D01*
X310682Y197359D01*
X310700Y197329D01*
X310729Y197300D01*
X310758Y197259D01*
X310788Y197218D01*
X310817Y197166D01*
X310846Y197113D01*
X310876Y197049D01*
X310905Y196978D01*
X310934Y196908D01*
X310957Y196826D01*
X310975Y196744D01*
X310993Y196651D01*
Y196657D01*
X310998Y196662D01*
X311016Y196692D01*
X311045Y196739D01*
X311086Y196797D01*
X311133Y196861D01*
X311191Y196932D01*
X311250Y197002D01*
X311314Y197066D01*
X311320Y197072D01*
X311349Y197095D01*
X311390Y197131D01*
X311455Y197183D01*
X311542Y197248D01*
X311648Y197318D01*
X311712Y197364D01*
X311782Y197405D01*
X311852Y197452D01*
X311934Y197505D01*
X312683Y197973D01*
Y197043D01*
D02*
G37*
%LPC*%
G36*
X325633Y189034D02*
X325504D01*
X325451Y189028D01*
X325381Y189017D01*
X325305Y188999D01*
X325229Y188976D01*
X325153Y188941D01*
X325089Y188894D01*
X325083Y188888D01*
X325065Y188870D01*
X325036Y188835D01*
X325007Y188794D01*
X324984Y188742D01*
X324954Y188677D01*
X324937Y188601D01*
X324931Y188519D01*
Y188508D01*
Y188478D01*
X324943Y188437D01*
X324954Y188379D01*
X324978Y188315D01*
X325007Y188244D01*
X325054Y188168D01*
X325112Y188098D01*
X325118Y188092D01*
X325147Y188069D01*
X325188Y188040D01*
X325241Y187999D01*
X325317Y187958D01*
X325405Y187917D01*
X325510Y187882D01*
X325633Y187852D01*
Y189034D01*
D02*
G37*
G36*
X56300Y104100D02*
X55500D01*
Y103300D01*
X56300D01*
Y104100D01*
D02*
G37*
G36*
X54700D02*
X53900D01*
Y103300D01*
X54700D01*
Y104100D01*
D02*
G37*
G36*
X315499Y203039D02*
X315435D01*
X315388Y203033D01*
X315335D01*
X315271Y203022D01*
X315201Y203016D01*
X315125Y203004D01*
X314967Y202969D01*
X314803Y202916D01*
X314721Y202881D01*
X314645Y202846D01*
X314575Y202799D01*
X314511Y202747D01*
X314505Y202741D01*
X314499Y202735D01*
X314481Y202717D01*
X314458Y202694D01*
X314435Y202665D01*
X314405Y202629D01*
X314376Y202589D01*
X314347Y202542D01*
X314288Y202436D01*
X314236Y202302D01*
X314195Y202150D01*
X314189Y202068D01*
X314183Y201980D01*
Y201974D01*
Y201957D01*
Y201933D01*
X314189Y201898D01*
X314195Y201857D01*
X314201Y201811D01*
X314224Y201705D01*
X314265Y201582D01*
X314288Y201518D01*
X314323Y201454D01*
X314364Y201389D01*
X314405Y201325D01*
X314458Y201267D01*
X314516Y201208D01*
X314522Y201202D01*
X314534Y201196D01*
X314552Y201185D01*
X314575Y201161D01*
X314610Y201144D01*
X314657Y201120D01*
X314704Y201091D01*
X314762Y201068D01*
X314826Y201038D01*
X314903Y201015D01*
X314984Y200986D01*
X315072Y200968D01*
X315172Y200951D01*
X315277Y200933D01*
X315388Y200927D01*
X315511Y200921D01*
X315575D01*
X315616Y200927D01*
X315675Y200933D01*
X315733Y200939D01*
X315804Y200945D01*
X315880Y200956D01*
X316043Y200992D01*
X316207Y201050D01*
X316289Y201079D01*
X316365Y201120D01*
X316441Y201167D01*
X316506Y201220D01*
X316511Y201225D01*
X316517Y201231D01*
X316535Y201249D01*
X316558Y201272D01*
X316582Y201302D01*
X316611Y201337D01*
X316669Y201424D01*
X316734Y201536D01*
X316786Y201664D01*
X316810Y201740D01*
X316827Y201816D01*
X316833Y201898D01*
X316839Y201980D01*
Y201986D01*
Y202004D01*
Y202027D01*
X316833Y202056D01*
X316827Y202097D01*
X316821Y202144D01*
X316798Y202249D01*
X316757Y202366D01*
X316728Y202431D01*
X316699Y202495D01*
X316658Y202559D01*
X316617Y202624D01*
X316564Y202682D01*
X316506Y202741D01*
X316500Y202747D01*
X316488Y202752D01*
X316470Y202770D01*
X316441Y202787D01*
X316406Y202811D01*
X316365Y202834D01*
X316312Y202864D01*
X316254Y202893D01*
X316190Y202916D01*
X316113Y202945D01*
X316032Y202969D01*
X315938Y202992D01*
X315844Y203010D01*
X315733Y203027D01*
X315622Y203033D01*
X315499Y203039D01*
D02*
G37*
G36*
X314715Y206777D02*
X314680D01*
X314645Y206771D01*
X314604Y206766D01*
X314558Y206754D01*
X314505Y206730D01*
X314452Y206707D01*
X314405Y206672D01*
X314400Y206666D01*
X314388Y206654D01*
X314364Y206631D01*
X314341Y206596D01*
X314312Y206555D01*
X314288Y206508D01*
X314271Y206450D01*
X314253Y206385D01*
Y206379D01*
X314247Y206362D01*
Y206332D01*
X314242Y206280D01*
Y206245D01*
Y206210D01*
Y206163D01*
X314236Y206110D01*
Y206052D01*
Y205982D01*
Y205906D01*
Y205824D01*
Y205227D01*
X315213D01*
Y205794D01*
Y205800D01*
Y205818D01*
Y205847D01*
Y205882D01*
Y205929D01*
Y205976D01*
X315207Y206087D01*
X315201Y206204D01*
X315195Y206315D01*
X315189Y206368D01*
X315183Y206409D01*
X315172Y206450D01*
X315166Y206479D01*
Y206485D01*
X315154Y206502D01*
X315142Y206526D01*
X315131Y206561D01*
X315078Y206631D01*
X315049Y206666D01*
X315008Y206695D01*
X315002Y206701D01*
X314984Y206707D01*
X314961Y206719D01*
X314926Y206736D01*
X314885Y206754D01*
X314832Y206766D01*
X314780Y206771D01*
X314715Y206777D01*
D02*
G37*
G36*
X330239Y189596D02*
X330192D01*
X330146Y189590D01*
X330081Y189578D01*
X330017Y189555D01*
X329941Y189531D01*
X329871Y189490D01*
X329806Y189438D01*
X329800Y189432D01*
X329783Y189409D01*
X329754Y189379D01*
X329724Y189332D01*
X329695Y189274D01*
X329666Y189204D01*
X329648Y189128D01*
X329643Y189040D01*
Y189028D01*
Y188999D01*
X329648Y188952D01*
X329660Y188894D01*
X329678Y188829D01*
X329707Y188753D01*
X329742Y188677D01*
X329795Y188607D01*
X329800Y188601D01*
X329824Y188578D01*
X329859Y188543D01*
X329906Y188502D01*
X329970Y188455D01*
X330046Y188402D01*
X330134Y188356D01*
X330239Y188315D01*
X330245D01*
X330251Y188309D01*
X330286Y188297D01*
X330345Y188285D01*
X330415Y188268D01*
X330497Y188244D01*
X330584Y188233D01*
X330678Y188221D01*
X330771Y188215D01*
X330818D01*
X330877Y188221D01*
X330941Y188233D01*
X331017Y188256D01*
X331099Y188279D01*
X331175Y188320D01*
X331245Y188373D01*
X331251Y188379D01*
X331275Y188402D01*
X331298Y188437D01*
X331333Y188484D01*
X331362Y188543D01*
X331392Y188613D01*
X331415Y188695D01*
X331421Y188783D01*
Y188788D01*
Y188794D01*
Y188812D01*
X331415Y188835D01*
X331409Y188888D01*
X331386Y188964D01*
X331357Y189040D01*
X331310Y189128D01*
X331245Y189216D01*
X331204Y189256D01*
X331158Y189297D01*
X331152Y189303D01*
X331140Y189309D01*
X331117Y189327D01*
X331087Y189344D01*
X331052Y189368D01*
X331011Y189391D01*
X330959Y189420D01*
X330900Y189450D01*
X330836Y189473D01*
X330766Y189502D01*
X330608Y189549D01*
X330432Y189584D01*
X330339Y189590D01*
X330239Y189596D01*
D02*
G37*
G36*
X330315Y195978D02*
X330187D01*
X330134Y195972D01*
X330064Y195960D01*
X329988Y195943D01*
X329911Y195920D01*
X329836Y195884D01*
X329771Y195838D01*
X329765Y195832D01*
X329748Y195814D01*
X329718Y195779D01*
X329689Y195738D01*
X329666Y195686D01*
X329637Y195621D01*
X329619Y195545D01*
X329613Y195463D01*
Y195451D01*
Y195422D01*
X329625Y195381D01*
X329637Y195323D01*
X329660Y195258D01*
X329689Y195188D01*
X329736Y195112D01*
X329795Y195042D01*
X329800Y195036D01*
X329830Y195013D01*
X329871Y194983D01*
X329923Y194943D01*
X329999Y194902D01*
X330087Y194861D01*
X330192Y194826D01*
X330315Y194796D01*
Y195978D01*
D02*
G37*
G36*
X325557Y198447D02*
X325510D01*
X325463Y198441D01*
X325399Y198429D01*
X325335Y198406D01*
X325258Y198382D01*
X325188Y198342D01*
X325124Y198289D01*
X325118Y198283D01*
X325100Y198259D01*
X325071Y198230D01*
X325042Y198184D01*
X325013Y198125D01*
X324984Y198055D01*
X324966Y197979D01*
X324960Y197891D01*
Y197879D01*
Y197850D01*
X324966Y197803D01*
X324978Y197745D01*
X324995Y197680D01*
X325025Y197604D01*
X325060Y197528D01*
X325112Y197458D01*
X325118Y197452D01*
X325142Y197429D01*
X325177Y197394D01*
X325223Y197353D01*
X325288Y197306D01*
X325364Y197253D01*
X325451Y197206D01*
X325557Y197166D01*
X325563D01*
X325569Y197160D01*
X325604Y197148D01*
X325662Y197136D01*
X325732Y197119D01*
X325814Y197095D01*
X325902Y197084D01*
X325996Y197072D01*
X326089Y197066D01*
X326136D01*
X326195Y197072D01*
X326259Y197084D01*
X326335Y197107D01*
X326417Y197131D01*
X326493Y197171D01*
X326563Y197224D01*
X326569Y197230D01*
X326592Y197253D01*
X326616Y197288D01*
X326651Y197335D01*
X326680Y197394D01*
X326709Y197464D01*
X326733Y197546D01*
X326739Y197634D01*
Y197640D01*
Y197645D01*
Y197663D01*
X326733Y197686D01*
X326727Y197739D01*
X326703Y197815D01*
X326674Y197891D01*
X326627Y197979D01*
X326563Y198066D01*
X326522Y198107D01*
X326475Y198148D01*
X326469Y198154D01*
X326458Y198160D01*
X326434Y198178D01*
X326405Y198195D01*
X326370Y198219D01*
X326329Y198242D01*
X326276Y198271D01*
X326218Y198301D01*
X326153Y198324D01*
X326083Y198353D01*
X325925Y198400D01*
X325750Y198435D01*
X325656Y198441D01*
X325557Y198447D01*
D02*
G37*
G36*
X30700Y91300D02*
X29900D01*
Y90500D01*
X30700D01*
Y91300D01*
D02*
G37*
G36*
X32300Y92900D02*
X31500D01*
Y92100D01*
X32300D01*
Y92900D01*
D02*
G37*
G36*
X40300Y112100D02*
X39500D01*
Y111300D01*
X40300D01*
Y112100D01*
D02*
G37*
G36*
Y107300D02*
X39500D01*
Y106500D01*
X40300D01*
Y107300D01*
D02*
G37*
G36*
X41100Y116100D02*
X40300D01*
Y115300D01*
X41100D01*
Y116100D01*
D02*
G37*
G36*
X40300Y100900D02*
X39500D01*
Y100100D01*
X40300D01*
Y100900D01*
D02*
G37*
G36*
X34700Y101700D02*
X33900D01*
Y100900D01*
X34700D01*
Y101700D01*
D02*
G37*
G36*
X46700Y100900D02*
X45900D01*
Y100100D01*
X46700D01*
Y100900D01*
D02*
G37*
G36*
X30700Y97700D02*
X29900D01*
Y96900D01*
X30700D01*
Y97700D01*
D02*
G37*
G36*
X41900Y105700D02*
X41100D01*
Y104900D01*
X41900D01*
Y105700D01*
D02*
G37*
G36*
X40300D02*
X39500D01*
Y104900D01*
X40300D01*
Y105700D01*
D02*
G37*
G36*
X35500Y102500D02*
X34700D01*
Y101700D01*
X35500D01*
Y102500D01*
D02*
G37*
G36*
X43500Y104100D02*
X42700D01*
Y103300D01*
X43500D01*
Y104100D01*
D02*
G37*
G36*
X33900D02*
X33100D01*
Y103300D01*
X33900D01*
Y104100D01*
D02*
G37*
G36*
X330309Y192755D02*
X330257D01*
X330204Y192749D01*
X330134Y192737D01*
X330058Y192714D01*
X329976Y192684D01*
X329894Y192644D01*
X329818Y192591D01*
X329812Y192585D01*
X329789Y192562D01*
X329760Y192526D01*
X329724Y192486D01*
X329689Y192427D01*
X329660Y192363D01*
X329637Y192293D01*
X329631Y192217D01*
Y192211D01*
Y192205D01*
Y192187D01*
X329637Y192164D01*
X329648Y192099D01*
X329678Y192024D01*
X329718Y191936D01*
X329748Y191889D01*
X329789Y191842D01*
X329830Y191795D01*
X329876Y191754D01*
X329935Y191708D01*
X329999Y191667D01*
X330005D01*
X330017Y191655D01*
X330034Y191649D01*
X330064Y191631D01*
X330099Y191620D01*
X330140Y191602D01*
X330187Y191579D01*
X330239Y191561D01*
X330356Y191520D01*
X330491Y191491D01*
X330643Y191468D01*
X330801Y191456D01*
X330848D01*
X330906Y191462D01*
X330970Y191474D01*
X331047Y191491D01*
X331122Y191520D01*
X331199Y191555D01*
X331269Y191608D01*
X331275Y191614D01*
X331292Y191637D01*
X331321Y191667D01*
X331351Y191713D01*
X331380Y191766D01*
X331409Y191830D01*
X331427Y191901D01*
X331433Y191982D01*
Y191994D01*
Y192018D01*
X331427Y192059D01*
X331415Y192105D01*
X331397Y192164D01*
X331374Y192228D01*
X331339Y192298D01*
X331292Y192363D01*
X331286Y192369D01*
X331263Y192392D01*
X331234Y192427D01*
X331187Y192468D01*
X331128Y192515D01*
X331052Y192562D01*
X330965Y192608D01*
X330865Y192649D01*
X330859D01*
X330853Y192655D01*
X330836Y192661D01*
X330812Y192667D01*
X330760Y192684D01*
X330684Y192702D01*
X330602Y192720D01*
X330508Y192737D01*
X330409Y192749D01*
X330309Y192755D01*
D02*
G37*
G36*
X315909Y185934D02*
X314481Y185395D01*
X315909Y184875D01*
Y185934D01*
D02*
G37*
G36*
X315511Y194048D02*
X315400D01*
X315359Y194042D01*
X315260Y194036D01*
X315148Y194030D01*
X315037Y194012D01*
X314926Y193995D01*
X314832Y193966D01*
X314821Y193960D01*
X314791Y193954D01*
X314751Y193936D01*
X314698Y193913D01*
X314633Y193878D01*
X314575Y193843D01*
X314511Y193802D01*
X314458Y193749D01*
X314452Y193743D01*
X314435Y193726D01*
X314411Y193691D01*
X314382Y193650D01*
X314353Y193603D01*
X314323Y193539D01*
X314300Y193468D01*
X314277Y193392D01*
Y193386D01*
X314271Y193357D01*
X314265Y193316D01*
X314253Y193252D01*
Y193211D01*
X314247Y193164D01*
Y193117D01*
X314242Y193059D01*
Y192995D01*
X314236Y192924D01*
Y192842D01*
Y192761D01*
Y192415D01*
X316780D01*
Y192989D01*
Y192995D01*
Y193000D01*
Y193018D01*
Y193041D01*
Y193100D01*
X316775Y193170D01*
Y193240D01*
X316763Y193322D01*
X316757Y193392D01*
X316745Y193451D01*
Y193457D01*
X316734Y193486D01*
X316722Y193521D01*
X316710Y193562D01*
X316658Y193667D01*
X316628Y193720D01*
X316587Y193767D01*
X316582Y193773D01*
X316564Y193790D01*
X316541Y193808D01*
X316500Y193837D01*
X316447Y193872D01*
X316383Y193901D01*
X316307Y193936D01*
X316219Y193966D01*
X316213D01*
X316207Y193972D01*
X316190D01*
X316172Y193977D01*
X316113Y193989D01*
X316032Y194007D01*
X315932Y194024D01*
X315809Y194036D01*
X315669Y194042D01*
X315511Y194048D01*
D02*
G37*
G36*
X57900Y92900D02*
X57100D01*
Y92100D01*
X57900D01*
Y92900D01*
D02*
G37*
G36*
X75500Y114500D02*
X74700D01*
Y113700D01*
X73100D01*
Y112900D01*
X72300D01*
Y112100D01*
X71500D01*
Y111300D01*
X70700D01*
Y110500D01*
X69900D01*
Y109700D01*
Y108900D01*
Y108100D01*
Y107300D01*
X70700D01*
Y106500D01*
X73100D01*
Y107300D01*
Y108100D01*
X73900D01*
Y108900D01*
Y109700D01*
Y110500D01*
X74700D01*
Y109700D01*
X75500D01*
Y110500D01*
X74700D01*
Y111300D01*
Y112100D01*
X75500D01*
Y112900D01*
Y113700D01*
Y114500D01*
D02*
G37*
G36*
X67500Y110500D02*
X66700D01*
Y109700D01*
X67500D01*
Y110500D01*
D02*
G37*
G36*
X78700Y115300D02*
X77900D01*
Y114500D01*
X78700D01*
Y115300D01*
D02*
G37*
G36*
X80300Y108900D02*
X79500D01*
Y108100D01*
X80300D01*
Y108900D01*
D02*
G37*
G36*
X67500Y105700D02*
X66700D01*
Y104900D01*
X67500D01*
Y105700D01*
D02*
G37*
G36*
Y108900D02*
X66700D01*
Y108100D01*
X67500D01*
Y108900D01*
D02*
G37*
G36*
Y107300D02*
X66700D01*
Y106500D01*
X67500D01*
Y107300D01*
D02*
G37*
G36*
X61100Y123300D02*
X60300D01*
Y122500D01*
X61100D01*
Y123300D01*
D02*
G37*
G36*
X65900D02*
X65100D01*
Y122500D01*
X65900D01*
Y121700D01*
X66700D01*
Y120900D01*
X67500D01*
Y121700D01*
X66700D01*
Y122500D01*
X65900D01*
Y123300D01*
D02*
G37*
G36*
X64300Y124900D02*
X63500D01*
Y124100D01*
X64300D01*
Y124900D01*
D02*
G37*
G36*
X62700D02*
X61900D01*
Y124100D01*
X62700D01*
Y124900D01*
D02*
G37*
G36*
X69100Y120100D02*
X68300D01*
Y119300D01*
X69100D01*
Y120100D01*
D02*
G37*
G36*
X70700Y118500D02*
X69900D01*
Y117700D01*
X70700D01*
Y118500D01*
D02*
G37*
G36*
X73900D02*
X73100D01*
Y117700D01*
X73900D01*
Y118500D01*
D02*
G37*
G36*
X72300D02*
X71500D01*
Y117700D01*
X72300D01*
Y118500D01*
D02*
G37*
G36*
X70700Y99300D02*
X69900D01*
Y98500D01*
X70700D01*
Y99300D01*
D02*
G37*
G36*
X69100D02*
X68300D01*
Y98500D01*
X69100D01*
Y97700D01*
X69900D01*
Y98500D01*
X69100D01*
Y99300D01*
D02*
G37*
G36*
X59500Y94500D02*
X58700D01*
Y93700D01*
X59500D01*
Y94500D01*
D02*
G37*
G36*
X56300D02*
X55500D01*
Y93700D01*
X56300D01*
Y94500D01*
D02*
G37*
G36*
X61100Y96100D02*
X60300D01*
Y95300D01*
X61100D01*
Y96100D01*
D02*
G37*
G36*
X77100Y104100D02*
X76300D01*
Y103300D01*
X77100D01*
Y104100D01*
D02*
G37*
G36*
X75500Y102500D02*
X74700D01*
Y101700D01*
X75500D01*
Y102500D01*
D02*
G37*
G36*
X309969Y196861D02*
X309934D01*
X309898Y196855D01*
X309858Y196850D01*
X309811Y196838D01*
X309758Y196815D01*
X309705Y196791D01*
X309659Y196756D01*
X309653Y196750D01*
X309641Y196739D01*
X309618Y196715D01*
X309594Y196680D01*
X309565Y196639D01*
X309542Y196592D01*
X309524Y196534D01*
X309507Y196469D01*
Y196464D01*
X309501Y196446D01*
Y196417D01*
X309495Y196364D01*
Y196329D01*
Y196294D01*
Y196247D01*
X309489Y196195D01*
Y196136D01*
Y196066D01*
Y195990D01*
Y195908D01*
Y195311D01*
X310466D01*
Y195879D01*
Y195884D01*
Y195902D01*
Y195931D01*
Y195966D01*
Y196013D01*
Y196060D01*
X310460Y196171D01*
X310454Y196288D01*
X310448Y196399D01*
X310443Y196452D01*
X310437Y196493D01*
X310425Y196534D01*
X310419Y196563D01*
Y196569D01*
X310407Y196586D01*
X310396Y196610D01*
X310384Y196645D01*
X310331Y196715D01*
X310302Y196750D01*
X310261Y196780D01*
X310255Y196785D01*
X310238Y196791D01*
X310214Y196803D01*
X310179Y196820D01*
X310138Y196838D01*
X310086Y196850D01*
X310033Y196855D01*
X309969Y196861D01*
D02*
G37*
%LPD*%
D38*
X39261Y52063D02*
G03*
X39261Y52063I-494J0D01*
G01*
X165728Y51500D02*
G03*
X165728Y51500I-48228J0D01*
G01*
X163681Y65280D02*
X182461D01*
X163681Y37721D02*
X182461D01*
X52539D02*
X71319D01*
X52539Y65280D02*
X71319D01*
X56500Y33999D02*
X58499D01*
X57500Y34999D02*
Y33000D01*
X174000Y34499D02*
X175999D01*
X56500Y68999D02*
X58499D01*
X57500Y69999D02*
Y68000D01*
X174000Y67500D02*
X175999D01*
D42*
X152736Y187421D02*
Y227579D01*
X132264D02*
X152736D01*
X132264Y187421D02*
Y227579D01*
Y187421D02*
X152736D01*
D43*
X350500Y40000D02*
Y260000D01*
X0Y0D02*
Y300500D01*
X287500D01*
X0Y0D02*
X287500D01*
Y260000D02*
Y300500D01*
Y260000D02*
X350500D01*
X342500Y40000D02*
X350500D01*
X287500D02*
X342500D01*
X287500Y0D02*
Y40000D01*
D54*
X56453Y288673D02*
G03*
X56453Y288673I-787J0D01*
G01*
D55*
X256870Y95508D02*
G03*
X256870Y95508I-197J0D01*
G01*
X-1850Y216755D02*
G03*
X-271Y215382I1476J103D01*
G01*
X123Y185854D02*
G03*
X-1456Y184481I-103J-1476D01*
G01*
X195721Y174020D02*
G03*
X195721Y174020I-394J0D01*
G01*
X256870Y62508D02*
G03*
X256870Y62508I-197J0D01*
G01*
X228524Y52492D02*
G03*
X228524Y52492I-197J0D01*
G01*
X169945Y113984D02*
G03*
X169945Y113984I-394J0D01*
G01*
X347500Y241000D02*
Y251000D01*
X287500Y241000D02*
Y251000D01*
X347500D01*
X287500Y241000D02*
X347500D01*
X20000Y207902D02*
Y215382D01*
Y185854D02*
Y193335D01*
X13898Y185854D02*
X20000D01*
X315D02*
X3858D01*
X315D02*
Y215382D01*
X3858D01*
X13898D02*
X20000D01*
X-2047Y213610D02*
X118D01*
X-2047Y187626D02*
Y213610D01*
Y187626D02*
X118D01*
X10000Y253000D02*
X20000D01*
Y233000D02*
Y253000D01*
X10000Y233000D02*
X20000D01*
X10000D02*
Y253000D01*
X207728Y143732D02*
X236272D01*
X207728D02*
Y174268D01*
X236272D01*
Y143732D02*
Y174268D01*
X200425Y131047D02*
X203575D01*
X200425Y136953D02*
X203575D01*
X222453Y197425D02*
Y200575D01*
X216547Y197425D02*
Y200575D01*
X284500Y281500D02*
Y291500D01*
X204500Y281500D02*
X284500D01*
X204500D02*
Y291500D01*
X284500D01*
X159000Y237000D02*
Y247000D01*
X179000D01*
Y237000D02*
Y247000D01*
X159000Y237000D02*
X179000D01*
X244000Y148000D02*
Y168000D01*
Y148000D02*
X254000D01*
Y168000D01*
X244000D02*
X254000D01*
X250000Y172000D02*
Y192000D01*
Y172000D02*
X260000D01*
Y192000D01*
X250000D02*
X260000D01*
D56*
X23269Y208098D02*
G03*
X23269Y208098I-710J0D01*
G01*
X150639Y190965D02*
G03*
X150639Y190965I-1741J0D01*
G01*
D57*
X347929Y179724D02*
G03*
X347929Y179724I-551J0D01*
G01*
D58*
X17000Y37000D02*
G03*
X17000Y37000I-500J0D01*
G01*
X90311Y296941D02*
Y298122D01*
Y266232D02*
Y275681D01*
Y250878D02*
Y255209D01*
X70626Y250878D02*
X90311D01*
X66689Y259539D02*
Y283161D01*
Y294185D02*
Y298122D01*
X68657D01*
X88342D02*
X90311D01*
X88342D02*
Y306390D01*
X70232Y307965D02*
X86768D01*
X68657Y298122D02*
Y306390D01*
X86768Y307965D02*
X88342Y306390D01*
X68657D02*
X70232Y307965D01*
X230295Y120705D02*
X254705D01*
X230295Y96295D02*
X254705D01*
Y103697D02*
Y113618D01*
X230295Y103815D02*
Y113736D01*
X166390Y166752D02*
Y222248D01*
X184579D01*
X174579Y159256D02*
X192768D01*
Y214752D01*
X350528Y124606D02*
Y175394D01*
X291472Y167126D02*
Y175394D01*
Y124606D02*
Y132874D01*
Y124606D02*
X292260D01*
X291472Y175394D02*
X292260D01*
X350134D02*
X350528D01*
X350134Y124606D02*
X350528D01*
X230295Y87705D02*
X254705D01*
X230295Y63295D02*
X254705D01*
Y70697D02*
Y80618D01*
X230295Y70815D02*
Y80736D01*
Y27295D02*
X254705D01*
X230295Y51705D02*
X254705D01*
X230295Y34382D02*
Y44303D01*
X254705Y34264D02*
Y44185D01*
X56291Y216083D02*
Y228917D01*
X47709Y216083D02*
Y228917D01*
X156579Y122921D02*
X157957D01*
X156579Y113079D02*
X157957D01*
X165043Y122921D02*
X166421D01*
X165043Y113079D02*
X166421D01*
X156579Y122331D02*
Y122921D01*
Y113079D02*
Y113669D01*
X166421Y122331D02*
Y122921D01*
Y113079D02*
Y113669D01*
X185000Y252999D02*
Y251000D01*
X186000D01*
X186333Y251333D01*
Y252666D01*
X186000Y252999D01*
X185000D01*
X187999Y251000D02*
Y252999D01*
X186999Y252000D01*
X188332D01*
X260500Y22500D02*
Y24499D01*
X259500Y23500D01*
X260833D01*
X265000Y49166D02*
X265333Y49499D01*
X266000D01*
X266333Y49166D01*
Y48833D01*
X266000Y48500D01*
X265666D01*
X266000D01*
X266333Y48166D01*
Y47833D01*
X266000Y47500D01*
X265333D01*
X265000Y47833D01*
X220333Y29500D02*
X219000D01*
X220333Y30833D01*
Y31166D01*
X220000Y31499D01*
X219333D01*
X219000Y31166D01*
X220000Y47500D02*
X220666D01*
X220333D01*
Y49499D01*
X220000Y49166D01*
X63000Y171000D02*
Y171333D01*
X63333D01*
Y171000D01*
X63000D01*
X188000Y122000D02*
X189333D01*
X188666Y122666D02*
Y121333D01*
X226500Y182000D02*
X227833D01*
X227166Y182666D02*
Y181333D01*
X160000Y269499D02*
Y267500D01*
X161000D01*
X161333Y267833D01*
Y269166D01*
X161000Y269499D01*
X160000D01*
X163332D02*
X161999D01*
Y268500D01*
X162666Y268833D01*
X162999D01*
X163332Y268500D01*
Y267833D01*
X162999Y267500D01*
X162333D01*
X161999Y267833D01*
X165500Y267000D02*
X166833D01*
X166166Y267666D02*
Y266333D01*
X185000Y264000D02*
X186333D01*
X185667Y264666D02*
Y263333D01*
X251500Y232000D02*
X252833D01*
X252166Y232666D02*
Y231333D01*
X241500Y239000D02*
X242833D01*
X242166Y239666D02*
Y238333D01*
X231500Y246500D02*
X232833D01*
X232166Y247166D02*
Y245833D01*
X221500Y254000D02*
X222833D01*
X222166Y254666D02*
Y253333D01*
X217000Y141000D02*
X218333D01*
X217666Y141666D02*
Y140333D01*
X227000Y141000D02*
X228333D01*
X227666Y141666D02*
Y140333D01*
X246500Y138500D02*
X247833D01*
X247166Y139166D02*
Y137833D01*
X334500Y224000D02*
X335833D01*
X335166Y224666D02*
Y223333D01*
X336500Y216500D02*
X337833D01*
X337166Y217166D02*
Y215833D01*
X315500Y218500D02*
X316833D01*
X316166Y219166D02*
Y217833D01*
X306000Y218500D02*
X307333D01*
X306666Y219166D02*
Y217833D01*
X296000Y218500D02*
X297333D01*
X296666Y219166D02*
Y217833D01*
X285500Y218500D02*
X286833D01*
X286166Y219166D02*
Y217833D01*
X117500Y178000D02*
X118833D01*
X118166Y178666D02*
Y177333D01*
X110000Y178000D02*
X111333D01*
X110667Y178666D02*
Y177333D01*
X104500Y126000D02*
X105833D01*
X105166Y126666D02*
Y125333D01*
X104500Y135500D02*
X105833D01*
X105166Y136166D02*
Y134833D01*
X208500Y244500D02*
X209833D01*
X209166Y245166D02*
Y243833D01*
X286500Y85000D02*
X287833D01*
X287166Y85666D02*
Y84333D01*
X275500Y85000D02*
X276833D01*
X276166Y85666D02*
Y84333D01*
X283000Y240500D02*
Y242499D01*
X284000D01*
X284333Y242166D01*
Y241500D01*
X284000Y241166D01*
X283000D01*
X286332Y242499D02*
X285666Y242166D01*
X284999Y241500D01*
Y240833D01*
X285333Y240500D01*
X285999D01*
X286332Y240833D01*
Y241166D01*
X285999Y241500D01*
X284999D01*
X238000Y174500D02*
Y176499D01*
X239000D01*
X239333Y176166D01*
Y175500D01*
X239000Y175166D01*
X238000D01*
X240999Y174500D02*
Y176499D01*
X239999Y175500D01*
X241332D01*
X25000Y153500D02*
X26999D01*
Y152500D01*
X26666Y152167D01*
X26000D01*
X25666Y152500D01*
Y153500D01*
X26999Y150501D02*
Y151167D01*
X26666Y151501D01*
X25333D01*
X25000Y151167D01*
Y150501D01*
X25333Y150168D01*
X26666D01*
X26999Y150501D01*
Y149501D02*
X25000D01*
X25666Y148835D01*
X25000Y148168D01*
X26999D01*
Y146169D02*
Y147502D01*
X25000D01*
Y146169D01*
X26000Y147502D02*
Y146835D01*
X25000Y145503D02*
X26999D01*
Y144503D01*
X26666Y144170D01*
X26000D01*
X25666Y144503D01*
Y145503D01*
Y144836D02*
X25000Y144170D01*
X24667Y143503D02*
Y142170D01*
X26666Y140171D02*
X26999Y140504D01*
Y141171D01*
X26666Y141504D01*
X26333D01*
X26000Y141171D01*
Y140504D01*
X25666Y140171D01*
X25333D01*
X25000Y140504D01*
Y141171D01*
X25333Y141504D01*
X26999Y139505D02*
X25000D01*
X25666Y138838D01*
X25000Y138172D01*
X26999D01*
X26000Y70999D02*
Y69666D01*
X26666Y69000D01*
X27333Y69666D01*
Y70999D01*
X27999D02*
Y69000D01*
X28999D01*
X29332Y69333D01*
Y69666D01*
X28999Y70000D01*
X27999D01*
X28999D01*
X29332Y70333D01*
Y70666D01*
X28999Y70999D01*
X27999D01*
X29999Y69000D02*
Y70333D01*
X30665Y70999D01*
X31332Y70333D01*
Y69000D01*
Y70000D01*
X29999D01*
X31998Y70999D02*
X33331D01*
X32664D01*
Y69000D01*
X33997Y70999D02*
X35330D01*
X34664D01*
Y69000D01*
X35997Y68667D02*
X37330D01*
X37996Y70999D02*
X39329D01*
X38662D01*
Y69000D01*
X39995D02*
Y70999D01*
X40995D01*
X41328Y70666D01*
Y70000D01*
X40995Y69666D01*
X39995D01*
X141333Y232499D02*
X140000D01*
Y231500D01*
X140666D01*
X140000D01*
Y230500D01*
X141999Y232499D02*
X143332D01*
X142666D01*
Y230500D01*
X145332D02*
X143999D01*
X145332Y231833D01*
Y232166D01*
X144998Y232499D01*
X144332D01*
X143999Y232166D01*
X145998D02*
X146331Y232499D01*
X146998D01*
X147331Y232166D01*
Y231833D01*
X146998Y231500D01*
X146665D01*
X146998D01*
X147331Y231166D01*
Y230833D01*
X146998Y230500D01*
X146331D01*
X145998Y230833D01*
X149330Y230500D02*
X147997D01*
X149330Y231833D01*
Y232166D01*
X148997Y232499D01*
X148331D01*
X147997Y232166D01*
X149997Y230500D02*
Y232499D01*
X150996D01*
X151330Y232166D01*
Y231500D01*
X150996Y231166D01*
X149997D01*
X150663D02*
X151330Y230500D01*
X151996Y232499D02*
Y230500D01*
X153329D01*
X155500Y185999D02*
Y184333D01*
X155833Y184000D01*
X156500D01*
X156833Y184333D01*
Y185999D01*
X158499Y184000D02*
Y185999D01*
X157499Y185000D01*
X158832D01*
X289300Y119399D02*
Y117733D01*
X289633Y117400D01*
X290300D01*
X290633Y117733D01*
Y119399D01*
X291299Y119066D02*
X291633Y119399D01*
X292299D01*
X292632Y119066D01*
Y118733D01*
X292299Y118400D01*
X291966D01*
X292299D01*
X292632Y118067D01*
Y117733D01*
X292299Y117400D01*
X291633D01*
X291299Y117733D01*
X148000Y107499D02*
X149333D01*
X148667D01*
Y105500D01*
X149999D02*
Y107499D01*
X150999D01*
X151332Y107166D01*
Y106500D01*
X150999Y106167D01*
X149999D01*
X153332Y107166D02*
X152998Y107499D01*
X152332D01*
X151999Y107166D01*
Y106833D01*
X152332Y106500D01*
X152998D01*
X153332Y106167D01*
Y105833D01*
X152998Y105500D01*
X152332D01*
X151999Y105833D01*
X155331Y107499D02*
X154665Y107166D01*
X153998Y106500D01*
Y105833D01*
X154331Y105500D01*
X154998D01*
X155331Y105833D01*
Y106167D01*
X154998Y106500D01*
X153998D01*
X155997Y107166D02*
X156331Y107499D01*
X156997D01*
X157330Y107166D01*
Y106833D01*
X156997Y106500D01*
X156664D01*
X156997D01*
X157330Y106167D01*
Y105833D01*
X156997Y105500D01*
X156331D01*
X155997Y105833D01*
X157997Y107166D02*
X158330Y107499D01*
X158996D01*
X159330Y107166D01*
Y105833D01*
X158996Y105500D01*
X158330D01*
X157997Y105833D01*
Y107166D01*
X161329Y107499D02*
X159996D01*
Y106500D01*
X160663Y106833D01*
X160996D01*
X161329Y106500D01*
Y105833D01*
X160996Y105500D01*
X160329D01*
X159996Y105833D01*
X161995Y105500D02*
X162662D01*
X162329D01*
Y107499D01*
X161995Y107166D01*
X163662Y105500D02*
Y107499D01*
X164661D01*
X164995Y107166D01*
Y106500D01*
X164661Y106167D01*
X163662D01*
X164328D02*
X164995Y105500D01*
X165661D02*
Y107499D01*
X166327Y106833D01*
X166994Y107499D01*
Y105500D01*
X167660Y107499D02*
Y105500D01*
X168327Y106167D01*
X168993Y105500D01*
Y107499D01*
X169660Y105500D02*
Y107499D01*
X170659D01*
X170993Y107166D01*
Y106500D01*
X170659Y106167D01*
X169660D01*
X170326D02*
X170993Y105500D01*
X165000Y128999D02*
Y127333D01*
X165333Y127000D01*
X166000D01*
X166333Y127333D01*
Y128999D01*
X168332Y127000D02*
X166999D01*
X168332Y128333D01*
Y128666D01*
X167999Y128999D01*
X167333D01*
X166999Y128666D01*
X62000Y178999D02*
Y177000D01*
X63000D01*
X63333Y177333D01*
Y177666D01*
X63000Y178000D01*
X62000D01*
X63000D01*
X63333Y178333D01*
Y178666D01*
X63000Y178999D01*
X62000D01*
X65332Y177333D02*
Y178666D01*
X64999Y178999D01*
X64333D01*
X63999Y178666D01*
Y177333D01*
X64333Y177000D01*
X64999D01*
X64666Y177666D02*
X65332Y177000D01*
X64999D02*
X65332Y177333D01*
X67332Y177000D02*
X65999D01*
X67332Y178333D01*
Y178666D01*
X66998Y178999D01*
X66332D01*
X65999Y178666D01*
X68998Y177000D02*
Y178999D01*
X67998Y178000D01*
X69331D01*
X69997Y178666D02*
X70331Y178999D01*
X70997D01*
X71330Y178666D01*
Y177333D01*
X70997Y177000D01*
X70331D01*
X69997Y177333D01*
Y178666D01*
X71997Y178999D02*
X73330D01*
Y178666D01*
X71997Y177333D01*
Y177000D01*
X75329Y178999D02*
X73996D01*
Y178000D01*
X74663Y178333D01*
X74996D01*
X75329Y178000D01*
Y177333D01*
X74996Y177000D01*
X74329D01*
X73996Y177333D01*
X75995Y177000D02*
Y178999D01*
X76995D01*
X77328Y178666D01*
Y178000D01*
X76995Y177666D01*
X75995D01*
X76662D02*
X77328Y177000D01*
X79328Y178666D02*
X78995Y178999D01*
X78328D01*
X77995Y178666D01*
Y177333D01*
X78328Y177000D01*
X78995D01*
X79328Y177333D01*
Y178000D01*
X78661D01*
X79994Y178999D02*
X81327D01*
X80661D01*
Y177000D01*
X81994Y178999D02*
X83326D01*
X82660D01*
Y177000D01*
X63000Y156999D02*
Y155333D01*
X63333Y155000D01*
X64000D01*
X64333Y155333D01*
Y156999D01*
X64999Y155000D02*
X65666D01*
X65333D01*
Y156999D01*
X64999Y156666D01*
X39333Y277166D02*
X39000Y277499D01*
X38333D01*
X38000Y277166D01*
Y275833D01*
X38333Y275500D01*
X39000D01*
X39333Y275833D01*
Y276500D01*
X38666D01*
X39999Y275500D02*
Y277499D01*
X41332Y275500D01*
Y277499D01*
X41999D02*
Y275500D01*
X42998D01*
X43332Y275833D01*
Y277166D01*
X42998Y277499D01*
X41999D01*
X43998Y275167D02*
X45331D01*
X45997Y277499D02*
X47330D01*
X46664D01*
Y275500D01*
X47997D02*
Y277499D01*
X48996D01*
X49330Y277166D01*
Y276500D01*
X48996Y276166D01*
X47997D01*
X206833Y232666D02*
X206500Y232999D01*
X205833D01*
X205500Y232666D01*
Y231333D01*
X205833Y231000D01*
X206500D01*
X206833Y231333D01*
Y232000D01*
X206166D01*
X207499Y231000D02*
Y232999D01*
X208832Y231000D01*
Y232999D01*
X209499D02*
Y231000D01*
X210498D01*
X210832Y231333D01*
Y232666D01*
X210498Y232999D01*
X209499D01*
X211498Y230667D02*
X212831D01*
X213497Y232999D02*
X214830D01*
X214164D01*
Y231000D01*
X215497D02*
Y232999D01*
X216496D01*
X216830Y232666D01*
Y232000D01*
X216496Y231666D01*
X215497D01*
X268833Y14166D02*
X268500Y14499D01*
X267833D01*
X267500Y14166D01*
Y12833D01*
X267833Y12500D01*
X268500D01*
X268833Y12833D01*
Y13500D01*
X268166D01*
X269499Y12500D02*
Y14499D01*
X270832Y12500D01*
Y14499D01*
X271499D02*
Y12500D01*
X272498D01*
X272832Y12833D01*
Y14166D01*
X272498Y14499D01*
X271499D01*
X273498Y12167D02*
X274831D01*
X275497Y14499D02*
X276830D01*
X276164D01*
Y12500D01*
X277497D02*
Y14499D01*
X278496D01*
X278830Y14166D01*
Y13500D01*
X278496Y13167D01*
X277497D01*
X158500Y290000D02*
Y291333D01*
X159167Y291999D01*
X159833Y291333D01*
Y290000D01*
Y291000D01*
X158500D01*
X160499Y291999D02*
Y290000D01*
X161499D01*
X161832Y290333D01*
Y291666D01*
X161499Y291999D01*
X160499D01*
X163832Y291666D02*
X163498Y291999D01*
X162832D01*
X162499Y291666D01*
Y290333D01*
X162832Y290000D01*
X163498D01*
X163832Y290333D01*
X164498Y291999D02*
X165164D01*
X164831D01*
Y290000D01*
X164498D01*
X165164D01*
X166164D02*
Y291999D01*
X167497Y290000D01*
Y291999D01*
X168164Y289667D02*
X169496D01*
X170163Y291999D02*
X171496D01*
X170829D01*
Y290000D01*
X172162D02*
Y291999D01*
X173162D01*
X173495Y291666D01*
Y291000D01*
X173162Y290666D01*
X172162D01*
X161000Y143499D02*
Y142166D01*
X161667Y141500D01*
X162333Y142166D01*
Y143499D01*
X162999Y141500D02*
Y143499D01*
X163999D01*
X164332Y143166D01*
Y142500D01*
X163999Y142166D01*
X162999D01*
X163666D02*
X164332Y141500D01*
X166332Y143499D02*
X164999D01*
Y141500D01*
X166332D01*
X164999Y142500D02*
X165665D01*
X168331Y143166D02*
X167998Y143499D01*
X167331D01*
X166998Y143166D01*
Y141833D01*
X167331Y141500D01*
X167998D01*
X168331Y141833D01*
Y142500D01*
X167665D01*
X169997Y143499D02*
X169331D01*
X168997Y143166D01*
Y141833D01*
X169331Y141500D01*
X169997D01*
X170330Y141833D01*
Y143166D01*
X169997Y143499D01*
X170997D02*
Y141833D01*
X171330Y141500D01*
X171996D01*
X172330Y141833D01*
Y143499D01*
X172996D02*
X174329D01*
X173663D01*
Y141500D01*
X174996Y141167D02*
X176328D01*
X176995Y143499D02*
X178328D01*
X177661D01*
Y141500D01*
X178994D02*
Y143499D01*
X179994D01*
X180327Y143166D01*
Y142500D01*
X179994Y142166D01*
X178994D01*
X92500Y107499D02*
Y106167D01*
X93166Y105500D01*
X93833Y106167D01*
Y107499D01*
X94499Y105500D02*
Y107499D01*
X95499D01*
X95832Y107166D01*
Y106500D01*
X95499Y106167D01*
X94499D01*
X95166D02*
X95832Y105500D01*
X97832Y107499D02*
X96499D01*
Y105500D01*
X97832D01*
X96499Y106500D02*
X97165D01*
X99831Y107166D02*
X99498Y107499D01*
X98831D01*
X98498Y107166D01*
Y105833D01*
X98831Y105500D01*
X99498D01*
X99831Y105833D01*
Y106500D01*
X99164D01*
X100497Y105167D02*
X101830D01*
X102497Y107499D02*
X103830D01*
X103163D01*
Y105500D01*
X104496D02*
Y107499D01*
X105496D01*
X105829Y107166D01*
Y106500D01*
X105496Y106167D01*
X104496D01*
X238500Y21500D02*
Y23499D01*
X239500D01*
X239833Y23166D01*
Y22500D01*
X239500Y22166D01*
X238500D01*
X239166D02*
X239833Y21500D01*
X241832Y23499D02*
X240499D01*
Y21500D01*
X241832D01*
X240499Y22500D02*
X241166D01*
X243832Y23166D02*
X243498Y23499D01*
X242832D01*
X242499Y23166D01*
Y22833D01*
X242832Y22500D01*
X243498D01*
X243832Y22166D01*
Y21833D01*
X243498Y21500D01*
X242832D01*
X242499Y21833D01*
X245831Y23499D02*
X244498D01*
Y21500D01*
X245831D01*
X244498Y22500D02*
X245164D01*
X246497Y23499D02*
X247830D01*
X247164D01*
Y21500D01*
X240000Y58500D02*
Y60499D01*
X241000D01*
X241333Y60166D01*
Y59500D01*
X241000Y59166D01*
X240000D01*
X241999Y60499D02*
Y58500D01*
X242999D01*
X243332Y58833D01*
Y59166D01*
X242999Y59500D01*
X241999D01*
X242999D01*
X243332Y59833D01*
Y60166D01*
X242999Y60499D01*
X241999D01*
X243999Y58500D02*
X244665D01*
X244332D01*
Y60499D01*
X243999Y60166D01*
X240000Y92000D02*
Y93999D01*
X241000D01*
X241333Y93666D01*
Y93000D01*
X241000Y92666D01*
X240000D01*
X241999Y93999D02*
Y92000D01*
X242999D01*
X243332Y92333D01*
Y92666D01*
X242999Y93000D01*
X241999D01*
X242999D01*
X243332Y93333D01*
Y93666D01*
X242999Y93999D01*
X241999D01*
X243999Y93666D02*
X244332Y93999D01*
X244998D01*
X245332Y93666D01*
Y92333D01*
X244998Y92000D01*
X244332D01*
X243999Y92333D01*
Y93666D01*
X163590Y153366D02*
X163257Y153699D01*
X162591D01*
X162258Y153366D01*
Y153033D01*
X162591Y152700D01*
X163257D01*
X163590Y152366D01*
Y152033D01*
X163257Y151700D01*
X162591D01*
X162258Y152033D01*
X165590Y151700D02*
X164257D01*
X165590Y153033D01*
Y153366D01*
X165257Y153699D01*
X164590D01*
X164257Y153366D01*
X132100Y161100D02*
Y163099D01*
X133100D01*
X133433Y162766D01*
Y162100D01*
X133100Y161767D01*
X132100D01*
X132766D02*
X133433Y161100D01*
X135432D02*
X134099D01*
X135432Y162433D01*
Y162766D01*
X135099Y163099D01*
X134433D01*
X134099Y162766D01*
X137098Y161100D02*
Y163099D01*
X136099Y162100D01*
X137432D01*
X121600Y161100D02*
Y163099D01*
X122600D01*
X122933Y162766D01*
Y162100D01*
X122600Y161767D01*
X121600D01*
X122266D02*
X122933Y161100D01*
X124932D02*
X123599D01*
X124932Y162433D01*
Y162766D01*
X124599Y163099D01*
X123933D01*
X123599Y162766D01*
X125599D02*
X125932Y163099D01*
X126598D01*
X126932Y162766D01*
Y162433D01*
X126598Y162100D01*
X126265D01*
X126598D01*
X126932Y161767D01*
Y161433D01*
X126598Y161100D01*
X125932D01*
X125599Y161433D01*
X266000Y34500D02*
Y36499D01*
X267000D01*
X267333Y36166D01*
Y35500D01*
X267000Y35166D01*
X266000D01*
X266666D02*
X267333Y34500D01*
X269332D02*
X267999D01*
X269332Y35833D01*
Y36166D01*
X268999Y36499D01*
X268333D01*
X267999Y36166D01*
X271332Y34500D02*
X269999D01*
X271332Y35833D01*
Y36166D01*
X270998Y36499D01*
X270332D01*
X269999Y36166D01*
X276000Y99000D02*
Y100999D01*
X277000D01*
X277333Y100666D01*
Y100000D01*
X277000Y99666D01*
X276000D01*
X276666D02*
X277333Y99000D01*
X279332D02*
X277999D01*
X279332Y100333D01*
Y100666D01*
X278999Y100999D01*
X278333D01*
X277999Y100666D01*
X279999Y99000D02*
X280665D01*
X280332D01*
Y100999D01*
X279999Y100666D01*
X287000Y99000D02*
Y100999D01*
X288000D01*
X288333Y100666D01*
Y100000D01*
X288000Y99666D01*
X287000D01*
X287666D02*
X288333Y99000D01*
X290332D02*
X288999D01*
X290332Y100333D01*
Y100666D01*
X289999Y100999D01*
X289333D01*
X288999Y100666D01*
X290999D02*
X291332Y100999D01*
X291998D01*
X292332Y100666D01*
Y99333D01*
X291998Y99000D01*
X291332D01*
X290999Y99333D01*
Y100666D01*
X212500Y79000D02*
Y80999D01*
X213500D01*
X213833Y80666D01*
Y80000D01*
X213500Y79666D01*
X212500D01*
X213166D02*
X213833Y79000D01*
X214499D02*
X215166D01*
X214833D01*
Y80999D01*
X214499Y80666D01*
X216165Y79333D02*
X216499Y79000D01*
X217165D01*
X217498Y79333D01*
Y80666D01*
X217165Y80999D01*
X216499D01*
X216165Y80666D01*
Y80333D01*
X216499Y80000D01*
X217498D01*
X210500Y119500D02*
Y121499D01*
X211500D01*
X211833Y121166D01*
Y120500D01*
X211500Y120167D01*
X210500D01*
X211166D02*
X211833Y119500D01*
X212499D02*
X213166D01*
X212833D01*
Y121499D01*
X212499Y121166D01*
X214165D02*
X214499Y121499D01*
X215165D01*
X215498Y121166D01*
Y120833D01*
X215165Y120500D01*
X215498Y120167D01*
Y119833D01*
X215165Y119500D01*
X214499D01*
X214165Y119833D01*
Y120167D01*
X214499Y120500D01*
X214165Y120833D01*
Y121166D01*
X214499Y120500D02*
X215165D01*
X204500Y70000D02*
Y71999D01*
X205500D01*
X205833Y71666D01*
Y71000D01*
X205500Y70666D01*
X204500D01*
X205166D02*
X205833Y70000D01*
X206499D02*
X207166D01*
X206833D01*
Y71999D01*
X206499Y71666D01*
X208166Y71999D02*
X209498D01*
Y71666D01*
X208166Y70333D01*
Y70000D01*
X204500Y100500D02*
Y102499D01*
X205500D01*
X205833Y102166D01*
Y101500D01*
X205500Y101166D01*
X204500D01*
X205166D02*
X205833Y100500D01*
X206499D02*
X207166D01*
X206833D01*
Y102499D01*
X206499Y102166D01*
X209498Y102499D02*
X208832Y102166D01*
X208166Y101500D01*
Y100833D01*
X208499Y100500D01*
X209165D01*
X209498Y100833D01*
Y101166D01*
X209165Y101500D01*
X208166D01*
X128000Y277500D02*
Y279499D01*
X129000D01*
X129333Y279166D01*
Y278500D01*
X129000Y278166D01*
X128000D01*
X128666D02*
X129333Y277500D01*
X129999D02*
X130666D01*
X130333D01*
Y279499D01*
X129999Y279166D01*
X132998Y279499D02*
X131666D01*
Y278500D01*
X132332Y278833D01*
X132665D01*
X132998Y278500D01*
Y277833D01*
X132665Y277500D01*
X131999D01*
X131666Y277833D01*
X111500Y273500D02*
Y275499D01*
X112500D01*
X112833Y275166D01*
Y274500D01*
X112500Y274166D01*
X111500D01*
X112167D02*
X112833Y273500D01*
X113499D02*
X114166D01*
X113833D01*
Y275499D01*
X113499Y275166D01*
X116165Y273500D02*
Y275499D01*
X115165Y274500D01*
X116498D01*
X195100Y249600D02*
Y251599D01*
X196100D01*
X196433Y251266D01*
Y250600D01*
X196100Y250266D01*
X195100D01*
X195766D02*
X196433Y249600D01*
X197099D02*
X197766D01*
X197433D01*
Y251599D01*
X197099Y251266D01*
X198766D02*
X199099Y251599D01*
X199765D01*
X200098Y251266D01*
Y250933D01*
X199765Y250600D01*
X199432D01*
X199765D01*
X200098Y250266D01*
Y249933D01*
X199765Y249600D01*
X199099D01*
X198766Y249933D01*
X170000Y134000D02*
Y135999D01*
X171000D01*
X171333Y135666D01*
Y135000D01*
X171000Y134667D01*
X170000D01*
X170667D02*
X171333Y134000D01*
X171999D02*
X172666D01*
X172333D01*
Y135999D01*
X171999Y135666D01*
X174998Y134000D02*
X173665D01*
X174998Y135333D01*
Y135666D01*
X174665Y135999D01*
X173999D01*
X173665Y135666D01*
X16100Y117100D02*
Y119099D01*
X17100D01*
X17433Y118766D01*
Y118100D01*
X17100Y117766D01*
X16100D01*
X16767D02*
X17433Y117100D01*
X18099D02*
X18766D01*
X18433D01*
Y119099D01*
X18099Y118766D01*
X19766Y117100D02*
X20432D01*
X20099D01*
Y119099D01*
X19766Y118766D01*
X31000Y130500D02*
Y132499D01*
X32000D01*
X32333Y132166D01*
Y131500D01*
X32000Y131167D01*
X31000D01*
X31666D02*
X32333Y130500D01*
X32999D02*
X33666D01*
X33333D01*
Y132499D01*
X32999Y132166D01*
X34666D02*
X34999Y132499D01*
X35665D01*
X35998Y132166D01*
Y130833D01*
X35665Y130500D01*
X34999D01*
X34666Y130833D01*
Y132166D01*
X73500Y138500D02*
Y140499D01*
X74500D01*
X74833Y140166D01*
Y139500D01*
X74500Y139166D01*
X73500D01*
X74166D02*
X74833Y138500D01*
X75499Y138833D02*
X75833Y138500D01*
X76499D01*
X76832Y138833D01*
Y140166D01*
X76499Y140499D01*
X75833D01*
X75499Y140166D01*
Y139833D01*
X75833Y139500D01*
X76832D01*
X82000Y138500D02*
Y140499D01*
X83000D01*
X83333Y140166D01*
Y139500D01*
X83000Y139166D01*
X82000D01*
X82666D02*
X83333Y138500D01*
X83999Y140166D02*
X84333Y140499D01*
X84999D01*
X85332Y140166D01*
Y139833D01*
X84999Y139500D01*
X85332Y139166D01*
Y138833D01*
X84999Y138500D01*
X84333D01*
X83999Y138833D01*
Y139166D01*
X84333Y139500D01*
X83999Y139833D01*
Y140166D01*
X84333Y139500D02*
X84999D01*
X49000Y151000D02*
Y152999D01*
X50000D01*
X50333Y152666D01*
Y152000D01*
X50000Y151666D01*
X49000D01*
X49666D02*
X50333Y151000D01*
X50999Y152999D02*
X52332D01*
Y152666D01*
X50999Y151333D01*
Y151000D01*
X59000Y143000D02*
Y144999D01*
X60000D01*
X60333Y144666D01*
Y144000D01*
X60000Y143667D01*
X59000D01*
X59666D02*
X60333Y143000D01*
X62332Y144999D02*
X61666Y144666D01*
X60999Y144000D01*
Y143333D01*
X61333Y143000D01*
X61999D01*
X62332Y143333D01*
Y143667D01*
X61999Y144000D01*
X60999D01*
X89000Y177500D02*
Y179499D01*
X90000D01*
X90333Y179166D01*
Y178500D01*
X90000Y178166D01*
X89000D01*
X89666D02*
X90333Y177500D01*
X92332Y179499D02*
X90999D01*
Y178500D01*
X91666Y178833D01*
X91999D01*
X92332Y178500D01*
Y177833D01*
X91999Y177500D01*
X91333D01*
X90999Y177833D01*
X59500Y196000D02*
Y197999D01*
X60500D01*
X60833Y197666D01*
Y197000D01*
X60500Y196667D01*
X59500D01*
X60166D02*
X60833Y196000D01*
X62499D02*
Y197999D01*
X61499Y197000D01*
X62832D01*
X72000Y194000D02*
Y195999D01*
X73000D01*
X73333Y195666D01*
Y195000D01*
X73000Y194667D01*
X72000D01*
X72666D02*
X73333Y194000D01*
X73999Y195666D02*
X74333Y195999D01*
X74999D01*
X75332Y195666D01*
Y195333D01*
X74999Y195000D01*
X74666D01*
X74999D01*
X75332Y194667D01*
Y194333D01*
X74999Y194000D01*
X74333D01*
X73999Y194333D01*
X47000Y195500D02*
Y197499D01*
X48000D01*
X48333Y197166D01*
Y196500D01*
X48000Y196167D01*
X47000D01*
X47666D02*
X48333Y195500D01*
X50332D02*
X48999D01*
X50332Y196833D01*
Y197166D01*
X49999Y197499D01*
X49333D01*
X48999Y197166D01*
X43000Y215000D02*
Y216999D01*
X44000D01*
X44333Y216666D01*
Y216000D01*
X44000Y215666D01*
X43000D01*
X43666D02*
X44333Y215000D01*
X44999D02*
X45666D01*
X45333D01*
Y216999D01*
X44999Y216666D01*
X197500Y279500D02*
Y281499D01*
X198500D01*
X198833Y281166D01*
Y280500D01*
X198500Y280166D01*
X197500D01*
X200832Y281499D02*
X199499D01*
Y280500D01*
X200166Y280833D01*
X200499D01*
X200832Y280500D01*
Y279833D01*
X200499Y279500D01*
X199833D01*
X199499Y279833D01*
X153833Y251499D02*
X152500D01*
Y249500D01*
X153833D01*
X152500Y250500D02*
X153166D01*
X154499Y251499D02*
X155832Y249500D01*
Y251499D02*
X154499Y249500D01*
X156499Y251499D02*
X157832D01*
X157165D01*
Y249500D01*
X158498Y249167D02*
X159831D01*
X160497Y251499D02*
X161164D01*
X160831D01*
Y249500D01*
X160497D01*
X161164D01*
X162163D02*
Y251499D01*
X163496Y249500D01*
Y251499D01*
X164163Y249500D02*
Y251499D01*
X165163D01*
X165496Y251166D01*
Y250500D01*
X165163Y250166D01*
X164163D01*
X166162Y251499D02*
Y249833D01*
X166496Y249500D01*
X167162D01*
X167495Y249833D01*
Y251499D01*
X168162D02*
X169494D01*
X168828D01*
Y249500D01*
X10100Y228100D02*
Y230099D01*
X11100D01*
X11433Y229766D01*
Y229100D01*
X11100Y228766D01*
X10100D01*
X13432Y228100D02*
X12099D01*
X13432Y229433D01*
Y229766D01*
X13099Y230099D01*
X12433D01*
X12099Y229766D01*
X17279Y181118D02*
Y183117D01*
X18279D01*
X18612Y182784D01*
Y182118D01*
X18279Y181785D01*
X17279D01*
X19279Y181118D02*
X19945D01*
X19612D01*
Y183117D01*
X19279Y182784D01*
X176800Y111499D02*
Y109500D01*
X178133D01*
X178799D02*
X179466D01*
X179133D01*
Y111499D01*
X178799Y111166D01*
X91333Y247499D02*
X90666D01*
X91000D01*
Y245833D01*
X90666Y245500D01*
X90333D01*
X90000Y245833D01*
X91999Y245500D02*
X92666D01*
X92333D01*
Y247499D01*
X91999Y247166D01*
X120501Y180000D02*
X122500D01*
Y181333D01*
X120501Y183332D02*
Y181999D01*
X122500D01*
Y183332D01*
X121500Y181999D02*
Y182666D01*
X120501Y183999D02*
X122500D01*
Y184998D01*
X122167Y185332D01*
X120834D01*
X120501Y184998D01*
Y183999D01*
X122833Y185998D02*
Y187331D01*
X120501Y187997D02*
Y189330D01*
Y188664D01*
X122500D01*
X120501Y189997D02*
X122500Y191330D01*
X120501D02*
X122500Y189997D01*
X102501Y180000D02*
X104500D01*
Y181333D01*
X102501Y183332D02*
Y181999D01*
X104500D01*
Y183332D01*
X103500Y181999D02*
Y182666D01*
X102501Y183999D02*
X104500D01*
Y184998D01*
X104167Y185332D01*
X102834D01*
X102501Y184998D01*
Y183999D01*
X104833Y185998D02*
Y187331D01*
X104500Y187997D02*
X102501D01*
Y188997D01*
X102834Y189330D01*
X103500D01*
X103833Y188997D01*
Y187997D01*
Y188664D02*
X104500Y189330D01*
X102501Y189997D02*
X104500Y191330D01*
X102501D02*
X104500Y189997D01*
X231000Y133499D02*
Y131500D01*
X232000D01*
X232333Y131833D01*
Y133166D01*
X232000Y133499D01*
X231000D01*
X234332Y131500D02*
X232999D01*
X234332Y132833D01*
Y133166D01*
X233999Y133499D01*
X233333D01*
X232999Y133166D01*
X236332Y131500D02*
X234999D01*
X236332Y132833D01*
Y133166D01*
X235998Y133499D01*
X235332D01*
X234999Y133166D01*
X240000Y135499D02*
Y133500D01*
X241000D01*
X241333Y133833D01*
Y135166D01*
X241000Y135499D01*
X240000D01*
X243332Y133500D02*
X241999D01*
X243332Y134833D01*
Y135166D01*
X242999Y135499D01*
X242333D01*
X241999Y135166D01*
X243999Y133500D02*
X244665D01*
X244332D01*
Y135499D01*
X243999Y135166D01*
X210500Y136999D02*
Y135000D01*
X211500D01*
X211833Y135333D01*
Y136666D01*
X211500Y136999D01*
X210500D01*
X213832Y135000D02*
X212499D01*
X213832Y136333D01*
Y136666D01*
X213499Y136999D01*
X212833D01*
X212499Y136666D01*
X214499D02*
X214832Y136999D01*
X215498D01*
X215832Y136666D01*
Y135333D01*
X215498Y135000D01*
X214832D01*
X214499Y135333D01*
Y136666D01*
X185000Y118999D02*
Y117000D01*
X186000D01*
X186333Y117333D01*
Y118666D01*
X186000Y118999D01*
X185000D01*
X186999Y117000D02*
X187666D01*
X187333D01*
Y118999D01*
X186999Y118666D01*
X188665Y117333D02*
X188999Y117000D01*
X189665D01*
X189998Y117333D01*
Y118666D01*
X189665Y118999D01*
X188999D01*
X188665Y118666D01*
Y118333D01*
X188999Y118000D01*
X189998D01*
X233000Y182999D02*
Y181000D01*
X234000D01*
X234333Y181333D01*
Y182666D01*
X234000Y182999D01*
X233000D01*
X234999Y181000D02*
X235666D01*
X235333D01*
Y182999D01*
X234999Y182666D01*
X236666D02*
X236999Y182999D01*
X237665D01*
X237998Y182666D01*
Y182333D01*
X237665Y182000D01*
X237998Y181667D01*
Y181333D01*
X237665Y181000D01*
X236999D01*
X236666Y181333D01*
Y181667D01*
X236999Y182000D01*
X236666Y182333D01*
Y182666D01*
X236999Y182000D02*
X237665D01*
X225000Y258999D02*
Y257000D01*
X226000D01*
X226333Y257333D01*
Y258666D01*
X226000Y258999D01*
X225000D01*
X226999Y257000D02*
X227666D01*
X227333D01*
Y258999D01*
X226999Y258666D01*
X228665Y258999D02*
X229998D01*
Y258666D01*
X228665Y257333D01*
Y257000D01*
X235000Y250999D02*
Y249000D01*
X236000D01*
X236333Y249333D01*
Y250666D01*
X236000Y250999D01*
X235000D01*
X236999Y249000D02*
X237666D01*
X237333D01*
Y250999D01*
X236999Y250666D01*
X239998Y250999D02*
X239332Y250666D01*
X238666Y250000D01*
Y249333D01*
X238999Y249000D01*
X239665D01*
X239998Y249333D01*
Y249666D01*
X239665Y250000D01*
X238666D01*
X245000Y243499D02*
Y241500D01*
X246000D01*
X246333Y241833D01*
Y243166D01*
X246000Y243499D01*
X245000D01*
X246999Y241500D02*
X247666D01*
X247333D01*
Y243499D01*
X246999Y243166D01*
X249998Y243499D02*
X248665D01*
Y242500D01*
X249332Y242833D01*
X249665D01*
X249998Y242500D01*
Y241833D01*
X249665Y241500D01*
X248999D01*
X248665Y241833D01*
X255000Y235999D02*
Y234000D01*
X256000D01*
X256333Y234333D01*
Y235666D01*
X256000Y235999D01*
X255000D01*
X256999Y234000D02*
X257666D01*
X257333D01*
Y235999D01*
X256999Y235666D01*
X259665Y234000D02*
Y235999D01*
X258665Y235000D01*
X259998D01*
X288500Y216999D02*
Y215000D01*
X289500D01*
X289833Y215333D01*
Y216666D01*
X289500Y216999D01*
X288500D01*
X290499Y215000D02*
X291166D01*
X290833D01*
Y216999D01*
X290499Y216666D01*
X292165D02*
X292499Y216999D01*
X293165D01*
X293498Y216666D01*
Y216333D01*
X293165Y216000D01*
X292832D01*
X293165D01*
X293498Y215666D01*
Y215333D01*
X293165Y215000D01*
X292499D01*
X292165Y215333D01*
X298500Y216999D02*
Y215000D01*
X299500D01*
X299833Y215333D01*
Y216666D01*
X299500Y216999D01*
X298500D01*
X300499Y215000D02*
X301166D01*
X300833D01*
Y216999D01*
X300499Y216666D01*
X303498Y215000D02*
X302166D01*
X303498Y216333D01*
Y216666D01*
X303165Y216999D01*
X302499D01*
X302166Y216666D01*
X309000Y216999D02*
Y215000D01*
X310000D01*
X310333Y215333D01*
Y216666D01*
X310000Y216999D01*
X309000D01*
X310999Y215000D02*
X311666D01*
X311333D01*
Y216999D01*
X310999Y216666D01*
X312666Y215000D02*
X313332D01*
X312999D01*
Y216999D01*
X312666Y216666D01*
X318500Y216999D02*
Y215000D01*
X319500D01*
X319833Y215333D01*
Y216666D01*
X319500Y216999D01*
X318500D01*
X320499Y215000D02*
X321166D01*
X320833D01*
Y216999D01*
X320499Y216666D01*
X322165D02*
X322499Y216999D01*
X323165D01*
X323498Y216666D01*
Y215333D01*
X323165Y215000D01*
X322499D01*
X322165Y215333D01*
Y216666D01*
X330500Y216999D02*
Y215000D01*
X331500D01*
X331833Y215333D01*
Y216666D01*
X331500Y216999D01*
X330500D01*
X332499Y215333D02*
X332833Y215000D01*
X333499D01*
X333832Y215333D01*
Y216666D01*
X333499Y216999D01*
X332833D01*
X332499Y216666D01*
Y216333D01*
X332833Y216000D01*
X333832D01*
X340000Y221499D02*
Y219500D01*
X341000D01*
X341333Y219833D01*
Y221166D01*
X341000Y221499D01*
X340000D01*
X341999Y221166D02*
X342333Y221499D01*
X342999D01*
X343332Y221166D01*
Y220833D01*
X342999Y220500D01*
X343332Y220166D01*
Y219833D01*
X342999Y219500D01*
X342333D01*
X341999Y219833D01*
Y220166D01*
X342333Y220500D01*
X341999Y220833D01*
Y221166D01*
X342333Y220500D02*
X342999D01*
X277500Y77999D02*
Y76000D01*
X278833D01*
X280832Y77999D02*
X279499D01*
Y76000D01*
X280832D01*
X279499Y77000D02*
X280166D01*
X281499Y77999D02*
Y76000D01*
X282498D01*
X282832Y76333D01*
Y77666D01*
X282498Y77999D01*
X281499D01*
X283498Y76000D02*
X284165D01*
X283831D01*
Y77999D01*
X283498Y77666D01*
X288000Y77999D02*
Y76000D01*
X289333D01*
X291332Y77999D02*
X289999D01*
Y76000D01*
X291332D01*
X289999Y77000D02*
X290666D01*
X291999Y77999D02*
Y76000D01*
X292998D01*
X293332Y76333D01*
Y77666D01*
X292998Y77999D01*
X291999D01*
X293998Y77666D02*
X294331Y77999D01*
X294998D01*
X295331Y77666D01*
Y76333D01*
X294998Y76000D01*
X294331D01*
X293998Y76333D01*
Y77666D01*
X197500Y240499D02*
Y238500D01*
X198833D01*
X200832Y240499D02*
X199499D01*
Y238500D01*
X200832D01*
X199499Y239500D02*
X200166D01*
X201499Y240499D02*
Y238500D01*
X202498D01*
X202832Y238833D01*
Y240166D01*
X202498Y240499D01*
X201499D01*
X203498Y238167D02*
X204831D01*
X206830Y240499D02*
X205497D01*
Y238500D01*
X206830D01*
X205497Y239500D02*
X206164D01*
X207497Y240499D02*
X208830Y238500D01*
Y240499D02*
X207497Y238500D01*
X209496Y240499D02*
X210829D01*
X210163D01*
Y238500D01*
X92500Y122499D02*
Y120500D01*
X93833D01*
X95832Y122499D02*
X94499D01*
Y120500D01*
X95832D01*
X94499Y121500D02*
X95166D01*
X96499Y122499D02*
Y120500D01*
X97498D01*
X97832Y120833D01*
Y122166D01*
X97498Y122499D01*
X96499D01*
X98498Y120167D02*
X99831D01*
X100497Y120500D02*
Y122499D01*
X101497D01*
X101830Y122166D01*
Y121500D01*
X101497Y121167D01*
X100497D01*
X103830Y122166D02*
X103496Y122499D01*
X102830D01*
X102497Y122166D01*
Y120833D01*
X102830Y120500D01*
X103496D01*
X103830Y120833D01*
Y121500D01*
X103163D01*
X92500Y131999D02*
Y130000D01*
X93833D01*
X95832Y131999D02*
X94499D01*
Y130000D01*
X95832D01*
X94499Y131000D02*
X95166D01*
X96499Y131999D02*
Y130000D01*
X97498D01*
X97832Y130333D01*
Y131666D01*
X97498Y131999D01*
X96499D01*
X98498Y129667D02*
X99831D01*
X101830Y131666D02*
X101497Y131999D01*
X100831D01*
X100497Y131666D01*
Y130333D01*
X100831Y130000D01*
X101497D01*
X101830Y130333D01*
X102497Y131999D02*
Y130000D01*
Y131000D01*
X103830D01*
Y131999D01*
Y130000D01*
X105829Y131666D02*
X105496Y131999D01*
X104829D01*
X104496Y131666D01*
Y130333D01*
X104829Y130000D01*
X105496D01*
X105829Y130333D01*
Y131000D01*
X105163D01*
X101333Y225166D02*
X101000Y225499D01*
X100333D01*
X100000Y225166D01*
Y223833D01*
X100333Y223500D01*
X101000D01*
X101333Y223833D01*
X101999Y223500D02*
X102666D01*
X102333D01*
Y225499D01*
X101999Y225166D01*
X104998Y223500D02*
X103665D01*
X104998Y224833D01*
Y225166D01*
X104665Y225499D01*
X103999D01*
X103665Y225166D01*
X214333Y44166D02*
X214000Y44499D01*
X213333D01*
X213000Y44166D01*
Y42833D01*
X213333Y42500D01*
X214000D01*
X214333Y42833D01*
X214999Y42500D02*
X215666D01*
X215333D01*
Y44499D01*
X214999Y44166D01*
X216666Y42500D02*
X217332D01*
X216999D01*
Y44499D01*
X216666Y44166D01*
X213833Y62166D02*
X213500Y62499D01*
X212833D01*
X212500Y62166D01*
Y60833D01*
X212833Y60500D01*
X213500D01*
X213833Y60833D01*
X214499Y60500D02*
X215166D01*
X214833D01*
Y62499D01*
X214499Y62166D01*
X216165D02*
X216499Y62499D01*
X217165D01*
X217498Y62166D01*
Y60833D01*
X217165Y60500D01*
X216499D01*
X216165Y60833D01*
Y62166D01*
X214333Y91166D02*
X214000Y91499D01*
X213333D01*
X213000Y91166D01*
Y89833D01*
X213333Y89500D01*
X214000D01*
X214333Y89833D01*
X214999D02*
X215333Y89500D01*
X215999D01*
X216332Y89833D01*
Y91166D01*
X215999Y91499D01*
X215333D01*
X214999Y91166D01*
Y90833D01*
X215333Y90500D01*
X216332D01*
X145833Y275666D02*
X145500Y275999D01*
X144833D01*
X144500Y275666D01*
Y274333D01*
X144833Y274000D01*
X145500D01*
X145833Y274333D01*
X146499Y275666D02*
X146833Y275999D01*
X147499D01*
X147832Y275666D01*
Y275333D01*
X147499Y275000D01*
X147832Y274666D01*
Y274333D01*
X147499Y274000D01*
X146833D01*
X146499Y274333D01*
Y274666D01*
X146833Y275000D01*
X146499Y275333D01*
Y275666D01*
X146833Y275000D02*
X147499D01*
X176833Y252666D02*
X176500Y252999D01*
X175833D01*
X175500Y252666D01*
Y251333D01*
X175833Y251000D01*
X176500D01*
X176833Y251333D01*
X177499Y252999D02*
X178832D01*
Y252666D01*
X177499Y251333D01*
Y251000D01*
X183333Y123666D02*
X183000Y123999D01*
X182333D01*
X182000Y123666D01*
Y122333D01*
X182333Y122000D01*
X183000D01*
X183333Y122333D01*
X185332Y123999D02*
X184666Y123666D01*
X183999Y123000D01*
Y122333D01*
X184333Y122000D01*
X184999D01*
X185332Y122333D01*
Y122667D01*
X184999Y123000D01*
X183999D01*
X143833Y122666D02*
X143500Y122999D01*
X142833D01*
X142500Y122666D01*
Y121333D01*
X142833Y121000D01*
X143500D01*
X143833Y121333D01*
X145832Y122999D02*
X144499D01*
Y122000D01*
X145166Y122333D01*
X145499D01*
X145832Y122000D01*
Y121333D01*
X145499Y121000D01*
X144833D01*
X144499Y121333D01*
X127433Y103766D02*
X127100Y104099D01*
X126433D01*
X126100Y103766D01*
Y102433D01*
X126433Y102100D01*
X127100D01*
X127433Y102433D01*
X129099Y102100D02*
Y104099D01*
X128099Y103100D01*
X129432D01*
X90833Y162366D02*
X90500Y162699D01*
X89833D01*
X89500Y162366D01*
Y161033D01*
X89833Y160700D01*
X90500D01*
X90833Y161033D01*
X91499Y162366D02*
X91833Y162699D01*
X92499D01*
X92832Y162366D01*
Y162033D01*
X92499Y161700D01*
X92166D01*
X92499D01*
X92832Y161366D01*
Y161033D01*
X92499Y160700D01*
X91833D01*
X91499Y161033D01*
X15833Y47166D02*
X15500Y47499D01*
X14833D01*
X14500Y47166D01*
Y45833D01*
X14833Y45500D01*
X15500D01*
X15833Y45833D01*
X17832Y45500D02*
X16499D01*
X17832Y46833D01*
Y47166D01*
X17499Y47499D01*
X16833D01*
X16499Y47166D01*
X67333Y213166D02*
X67000Y213499D01*
X66333D01*
X66000Y213166D01*
Y211833D01*
X66333Y211500D01*
X67000D01*
X67333Y211833D01*
X67999Y211500D02*
X68666D01*
X68333D01*
Y213499D01*
X67999Y213166D01*
X165000Y75999D02*
Y74000D01*
X166000D01*
X166333Y74333D01*
Y74666D01*
X166000Y75000D01*
X165000D01*
X166000D01*
X166333Y75333D01*
Y75666D01*
X166000Y75999D01*
X165000D01*
X168332Y74000D02*
X166999D01*
X168332Y75333D01*
Y75666D01*
X167999Y75999D01*
X167333D01*
X166999Y75666D01*
X38000Y15999D02*
Y14000D01*
X39000D01*
X39333Y14333D01*
Y14667D01*
X39000Y15000D01*
X38000D01*
X39000D01*
X39333Y15333D01*
Y15666D01*
X39000Y15999D01*
X38000D01*
X39999Y14000D02*
Y15333D01*
X40666Y15999D01*
X41332Y15333D01*
Y14000D01*
Y15000D01*
X39999D01*
X41999Y15999D02*
X43332D01*
X42665D01*
Y14000D01*
X43998Y15999D02*
X45331D01*
X44664D01*
Y14000D01*
X45997Y13667D02*
X47330D01*
X49330Y15999D02*
X47997D01*
Y14000D01*
X49330D01*
X47997Y15000D02*
X48663D01*
X49996Y15999D02*
X51329Y14000D01*
Y15999D02*
X49996Y14000D01*
X199500Y126500D02*
Y128499D01*
X200500D01*
X200833Y128166D01*
Y127500D01*
X200500Y127166D01*
X199500D01*
X200167D02*
X200833Y126500D01*
X202832D02*
X201499D01*
X202832Y127833D01*
Y128166D01*
X202499Y128499D01*
X201833D01*
X201499Y128166D01*
X204832Y128499D02*
X204165Y128166D01*
X203499Y127500D01*
Y126833D01*
X203832Y126500D01*
X204498D01*
X204832Y126833D01*
Y127166D01*
X204498Y127500D01*
X203499D01*
X216100Y186400D02*
Y188399D01*
X217100D01*
X217433Y188066D01*
Y187400D01*
X217100Y187066D01*
X216100D01*
X216766D02*
X217433Y186400D01*
X219432D02*
X218099D01*
X219432Y187733D01*
Y188066D01*
X219099Y188399D01*
X218433D01*
X218099Y188066D01*
X220099Y188399D02*
X221432D01*
Y188066D01*
X220099Y186733D01*
Y186400D01*
X262500Y169500D02*
Y171499D01*
X263500D01*
X263833Y171166D01*
Y170500D01*
X263500Y170167D01*
X262500D01*
X264499Y171499D02*
X265832D01*
Y171166D01*
X264499Y169833D01*
Y169500D01*
X256500Y145500D02*
Y147499D01*
X257500D01*
X257833Y147166D01*
Y146500D01*
X257500Y146167D01*
X256500D01*
X258499Y147166D02*
X258833Y147499D01*
X259499D01*
X259832Y147166D01*
Y146833D01*
X259499Y146500D01*
X259832Y146167D01*
Y145833D01*
X259499Y145500D01*
X258833D01*
X258499Y145833D01*
Y146167D01*
X258833Y146500D01*
X258499Y146833D01*
Y147166D01*
X258833Y146500D02*
X259499D01*
X66833Y243166D02*
X66500Y243499D01*
X65833D01*
X65500Y243166D01*
Y241833D01*
X65833Y241500D01*
X66500D01*
X66833Y241833D01*
X67499Y243499D02*
Y241833D01*
X67833Y241500D01*
X68499D01*
X68832Y241833D01*
Y243499D01*
X69499Y241500D02*
Y243499D01*
X70498D01*
X70832Y243166D01*
Y242500D01*
X70498Y242166D01*
X69499D01*
X70165D02*
X70832Y241500D01*
X71498D02*
Y243499D01*
X72498D01*
X72831Y243166D01*
Y242500D01*
X72498Y242166D01*
X71498D01*
X72164D02*
X72831Y241500D01*
X74830Y243499D02*
X73497D01*
Y241500D01*
X74830D01*
X73497Y242500D02*
X74164D01*
X75497Y241500D02*
Y243499D01*
X76830Y241500D01*
Y243499D01*
X77496D02*
X78829D01*
X78162D01*
Y241500D01*
X82828Y243166D02*
X82494Y243499D01*
X81828D01*
X81495Y243166D01*
Y242833D01*
X81828Y242500D01*
X82494D01*
X82828Y242166D01*
Y241833D01*
X82494Y241500D01*
X81828D01*
X81495Y241833D01*
X84827Y243499D02*
X83494D01*
Y241500D01*
X84827D01*
X83494Y242500D02*
X84161D01*
X85493Y241500D02*
Y243499D01*
X86826Y241500D01*
Y243499D01*
X88826Y243166D02*
X88493Y243499D01*
X87826D01*
X87493Y243166D01*
Y242833D01*
X87826Y242500D01*
X88493D01*
X88826Y242166D01*
Y241833D01*
X88493Y241500D01*
X87826D01*
X87493Y241833D01*
X90492Y243499D02*
X89825D01*
X89492Y243166D01*
Y241833D01*
X89825Y241500D01*
X90492D01*
X90825Y241833D01*
Y243166D01*
X90492Y243499D01*
X91492Y241500D02*
Y243499D01*
X92491D01*
X92825Y243166D01*
Y242500D01*
X92491Y242166D01*
X91492D01*
X92158D02*
X92825Y241500D01*
X202500Y148619D02*
X202690Y148714D01*
X202976Y149000D01*
Y147000D01*
X204538Y149000D02*
X204252Y148904D01*
X204062Y148619D01*
X203966Y148143D01*
Y147857D01*
X204062Y147381D01*
X204252Y147095D01*
X204538Y147000D01*
X204728D01*
X205014Y147095D01*
X205204Y147381D01*
X205299Y147857D01*
Y148143D01*
X205204Y148619D01*
X205014Y148904D01*
X204728Y149000D01*
X204538D01*
X205238Y168833D02*
X205143Y168547D01*
X204952Y168357D01*
X204666Y168262D01*
X204571D01*
X204286Y168357D01*
X204095Y168547D01*
X204000Y168833D01*
Y168928D01*
X204095Y169214D01*
X204286Y169404D01*
X204571Y169500D01*
X204666D01*
X204952Y169404D01*
X205143Y169214D01*
X205238Y168833D01*
Y168357D01*
X205143Y167881D01*
X204952Y167595D01*
X204666Y167500D01*
X204476D01*
X204190Y167595D01*
X204095Y167786D01*
X238595Y148523D02*
Y148619D01*
X238690Y148809D01*
X238786Y148904D01*
X238976Y149000D01*
X239357D01*
X239547Y148904D01*
X239643Y148809D01*
X239738Y148619D01*
Y148428D01*
X239643Y148238D01*
X239452Y147952D01*
X238500Y147000D01*
X239833D01*
X238000Y169119D02*
X238190Y169214D01*
X238476Y169500D01*
Y167500D01*
X216586Y294414D02*
X217529Y293471D01*
X218471D01*
Y294414D01*
X217529Y295356D01*
X219178Y296534D02*
X218707D01*
X218236Y296063D01*
X218236Y295592D01*
X219178Y294649D01*
X219649D01*
X220121Y295121D01*
Y295592D01*
X220592Y297948D02*
X220121D01*
X219649Y297477D01*
Y297006D01*
X220592Y296063D01*
X221063D01*
X221534Y296534D01*
X221534Y297006D01*
X206586Y294414D02*
X207529Y293471D01*
X208471D01*
Y294414D01*
X207529Y295356D01*
X209178Y296534D02*
X208707D01*
X208236Y296063D01*
X208236Y295592D01*
X209178Y294649D01*
X209649D01*
X210121Y295121D01*
Y295592D01*
X210592Y297948D02*
X210121D01*
X209649Y297477D01*
Y297006D01*
X210592Y296063D01*
X211063D01*
X211534Y296534D01*
X211534Y297006D01*
X230166Y278167D02*
X230499Y278500D01*
Y279167D01*
X230166Y279500D01*
X229833D01*
X229500Y279167D01*
Y278500D01*
X229166Y278167D01*
X228833D01*
X228500Y278500D01*
Y279167D01*
X228833Y279500D01*
X228500Y277501D02*
X230499D01*
Y276501D01*
X230166Y276168D01*
X229500D01*
X229166Y276501D01*
Y277501D01*
X230499Y275501D02*
Y274835D01*
Y275168D01*
X228500D01*
Y275501D01*
Y274835D01*
Y273835D02*
Y273169D01*
Y273502D01*
X230499D01*
X230166Y273835D01*
X228167Y272169D02*
Y270836D01*
X230166Y268837D02*
X230499Y269170D01*
Y269836D01*
X230166Y270170D01*
X228833D01*
X228500Y269836D01*
Y269170D01*
X228833Y268837D01*
X230166Y266837D02*
X230499Y267171D01*
Y267837D01*
X230166Y268170D01*
X229833D01*
X229500Y267837D01*
Y267171D01*
X229166Y266837D01*
X228833D01*
X228500Y267171D01*
Y267837D01*
X228833Y268170D01*
X228500Y266171D02*
X230499D01*
X228500Y264838D01*
X230499D01*
X240166Y278167D02*
X240499Y278500D01*
Y279167D01*
X240166Y279500D01*
X239833D01*
X239500Y279167D01*
Y278500D01*
X239166Y278167D01*
X238833D01*
X238500Y278500D01*
Y279167D01*
X238833Y279500D01*
X238500Y277501D02*
X240499D01*
Y276501D01*
X240166Y276168D01*
X239500D01*
X239166Y276501D01*
Y277501D01*
X240499Y275501D02*
Y274835D01*
Y275168D01*
X238500D01*
Y275501D01*
Y274835D01*
Y273835D02*
Y273169D01*
Y273502D01*
X240499D01*
X240166Y273835D01*
X238167Y272169D02*
Y270836D01*
X240166Y268837D02*
X240499Y269170D01*
Y269836D01*
X240166Y270170D01*
X238833D01*
X238500Y269836D01*
Y269170D01*
X238833Y268837D01*
X240499Y268170D02*
X238500D01*
Y266837D01*
X240499Y266171D02*
X238500D01*
X239166D01*
X240499Y264838D01*
X239500Y265838D01*
X238500Y264838D01*
X250166Y278167D02*
X250499Y278500D01*
Y279167D01*
X250166Y279500D01*
X249833D01*
X249500Y279167D01*
Y278500D01*
X249166Y278167D01*
X248833D01*
X248500Y278500D01*
Y279167D01*
X248833Y279500D01*
X248500Y277501D02*
X250499D01*
Y276501D01*
X250166Y276168D01*
X249500D01*
X249166Y276501D01*
Y277501D01*
X250499Y275501D02*
Y274835D01*
Y275168D01*
X248500D01*
Y275501D01*
Y274835D01*
Y273835D02*
Y273169D01*
Y273502D01*
X250499D01*
X250166Y273835D01*
X248167Y272169D02*
Y270836D01*
X248500Y270170D02*
X250499D01*
X249833Y269503D01*
X250499Y268837D01*
X248500D01*
X250499Y268170D02*
Y267504D01*
Y267837D01*
X248500D01*
Y268170D01*
Y267504D01*
X250166Y265171D02*
X250499Y265505D01*
Y266171D01*
X250166Y266504D01*
X249833D01*
X249500Y266171D01*
Y265505D01*
X249166Y265171D01*
X248833D01*
X248500Y265505D01*
Y266171D01*
X248833Y266504D01*
X250499Y263505D02*
Y264172D01*
X250166Y264505D01*
X248833D01*
X248500Y264172D01*
Y263505D01*
X248833Y263172D01*
X250166D01*
X250499Y263505D01*
X260166Y278167D02*
X260499Y278500D01*
Y279167D01*
X260166Y279500D01*
X259833D01*
X259500Y279167D01*
Y278500D01*
X259166Y278167D01*
X258833D01*
X258500Y278500D01*
Y279167D01*
X258833Y279500D01*
X258500Y277501D02*
X260499D01*
Y276501D01*
X260166Y276168D01*
X259500D01*
X259166Y276501D01*
Y277501D01*
X260499Y275501D02*
Y274835D01*
Y275168D01*
X258500D01*
Y275501D01*
Y274835D01*
Y273835D02*
Y273169D01*
Y273502D01*
X260499D01*
X260166Y273835D01*
X258167Y272169D02*
Y270836D01*
X258500Y270170D02*
X260499D01*
X259833Y269503D01*
X260499Y268837D01*
X258500D01*
X260499Y267171D02*
Y267837D01*
X260166Y268170D01*
X258833D01*
X258500Y267837D01*
Y267171D01*
X258833Y266837D01*
X260166D01*
X260499Y267171D01*
X260166Y264838D02*
X260499Y265171D01*
Y265838D01*
X260166Y266171D01*
X259833D01*
X259500Y265838D01*
Y265171D01*
X259166Y264838D01*
X258833D01*
X258500Y265171D01*
Y265838D01*
X258833Y266171D01*
X260499Y264172D02*
Y263505D01*
Y263838D01*
X258500D01*
Y264172D01*
Y263505D01*
X268264Y295121D02*
X267793D01*
X267322Y294649D01*
X267322Y294178D01*
X268264Y293236D01*
X268736D01*
X269207Y293707D01*
X269207Y294178D01*
X268736Y294649D01*
X268264Y294178D01*
X269914Y294414D02*
X268500Y295828D01*
X270856Y295356D01*
X269443Y296770D01*
X269914Y297241D02*
X271327Y295828D01*
X272034Y296534D01*
X272034Y297006D01*
X271092Y297948D01*
X270621D01*
X269914Y297241D01*
X278264Y295121D02*
X277793D01*
X277322Y294649D01*
X277322Y294178D01*
X278264Y293236D01*
X278736D01*
X279207Y293707D01*
X279207Y294178D01*
X278736Y294649D01*
X278264Y294178D01*
X279914Y294414D02*
X278500Y295828D01*
X280856Y295356D01*
X279443Y296770D01*
X279914Y297241D02*
X281328Y295828D01*
X282034Y296534D01*
X282034Y297006D01*
X281092Y297948D01*
X280621D01*
X279914Y297241D01*
X227000Y293500D02*
X225586Y294914D01*
X226293Y295621D01*
X226764D01*
X227236Y295149D01*
X227236Y294678D01*
X226529Y293971D01*
X228178Y297034D02*
X227707D01*
X227236Y296563D01*
X227236Y296092D01*
X228178Y295149D01*
X228649D01*
X229121Y295621D01*
Y296092D01*
X229592Y296563D02*
X230063D01*
X230534Y297034D01*
X230534Y297506D01*
X229592Y298448D01*
X229121D01*
X228649Y297977D01*
Y297506D01*
X228885Y297270D01*
X229356Y297270D01*
X230063Y297977D01*
X237000Y293500D02*
X235586Y294914D01*
X236293Y295621D01*
X236764D01*
X237236Y295149D01*
X237236Y294678D01*
X236529Y293971D01*
X238178Y297034D02*
X237707D01*
X237236Y296563D01*
X237236Y296092D01*
X238178Y295149D01*
X238649D01*
X239121Y295621D01*
Y296092D01*
X238649Y297506D02*
Y297977D01*
X239121Y298448D01*
X239592D01*
X239827Y298213D01*
Y297741D01*
X240299Y297741D01*
X240534Y297506D01*
X240534Y297034D01*
X240063Y296563D01*
X239592D01*
X239356Y296799D01*
Y297270D01*
X238885Y297270D01*
X238649Y297506D01*
X239356Y297270D02*
X239827Y297741D01*
X247000Y293500D02*
X245586Y294914D01*
X246293Y295621D01*
X246764D01*
X247236Y295149D01*
X247236Y294678D01*
X246529Y293971D01*
X248178Y297034D02*
X247707D01*
X247236Y296563D01*
X247236Y296092D01*
X248178Y295149D01*
X248649D01*
X249121Y295621D01*
Y296092D01*
X248414Y297741D02*
X249356Y298684D01*
X249592Y298448D01*
Y296563D01*
X249828Y296327D01*
X257000Y293500D02*
X255586Y294914D01*
X256293Y295621D01*
X256764D01*
X257236Y295149D01*
X257236Y294678D01*
X256529Y293971D01*
X258178Y297034D02*
X257707D01*
X257236Y296563D01*
X257236Y296092D01*
X258178Y295149D01*
X258649D01*
X259121Y295621D01*
Y296092D01*
X259356Y298684D02*
X259121Y297977D01*
Y297034D01*
X259592Y296563D01*
X260063D01*
X260534Y297034D01*
X260534Y297506D01*
X260299Y297741D01*
X259827Y297741D01*
X259121Y297034D01*
X291500Y252500D02*
X290086Y253914D01*
X290793Y254621D01*
X291264D01*
X291736Y254149D01*
X291736Y253678D01*
X291029Y252971D01*
X291500Y255328D02*
X292914Y253914D01*
X293621Y254621D01*
Y255092D01*
X293385Y255328D01*
X292914D01*
X292207Y254621D01*
X292914Y255328D01*
Y255799D01*
X292678Y256034D01*
X292207D01*
X291500Y255328D01*
X294327D02*
X294799Y255799D01*
X294563Y255563D01*
X293149Y256977D01*
Y256506D01*
X294327Y257684D02*
Y258155D01*
X294799Y258626D01*
X295270D01*
X295506Y258391D01*
Y257919D01*
X295270Y257684D01*
X295506Y257919D01*
X295977Y257919D01*
X296213Y257684D01*
X296213Y257212D01*
X295741Y256741D01*
X295270D01*
X302000Y252500D02*
X300586Y253914D01*
X301293Y254621D01*
X301764D01*
X302236Y254149D01*
X302236Y253678D01*
X301529Y252971D01*
X302000Y255328D02*
X303414Y253914D01*
X304121Y254621D01*
Y255092D01*
X303885Y255328D01*
X303414D01*
X302707Y254621D01*
X303414Y255328D01*
Y255799D01*
X303178Y256034D01*
X302707D01*
X302000Y255328D01*
X304827D02*
X305299Y255799D01*
X305063Y255563D01*
X303649Y256977D01*
Y256506D01*
X306006D02*
X306477Y256977D01*
X306241Y256741D01*
X304827Y258155D01*
Y257684D01*
X312000Y252500D02*
X310586Y253914D01*
X311293Y254621D01*
X311764D01*
X312236Y254149D01*
X312236Y253678D01*
X311529Y252971D01*
X313414Y253914D02*
X312471Y254856D01*
Y255799D01*
X313414D01*
X314356Y254856D01*
X313649Y255563D01*
X312707Y254621D01*
X314356Y257684D02*
X313414Y256741D01*
X314121Y256034D01*
X314356Y256741D01*
X314592Y256977D01*
X315063D01*
X315534Y256506D01*
X315534Y256034D01*
X315063Y255563D01*
X314592D01*
X322000Y252500D02*
X320586Y253914D01*
X321293Y254621D01*
X321764D01*
X322236Y254149D01*
X322236Y253678D01*
X321529Y252971D01*
X323414Y253914D02*
X322471Y254856D01*
Y255799D01*
X323414D01*
X324356Y254856D01*
X323649Y255563D01*
X322707Y254621D01*
X325534Y256034D02*
X324121Y257448D01*
Y256034D01*
X325063Y256977D01*
X332000Y252500D02*
X330586Y253914D01*
X331293Y254621D01*
X331764D01*
X332236Y254149D01*
X332236Y253678D01*
X331529Y252971D01*
X332000Y255328D02*
X333414Y253914D01*
X334121Y254621D01*
Y255092D01*
X333178Y256034D01*
X332707D01*
X332000Y255328D01*
X334827D02*
X335299Y255799D01*
X335063Y255563D01*
X333649Y256977D01*
Y256506D01*
X336713Y257212D02*
X335299Y258626D01*
X335299Y257212D01*
X336241Y258155D01*
X341500Y252500D02*
X340086Y253914D01*
X340793Y254621D01*
X341264D01*
X341736Y254149D01*
X341736Y253678D01*
X341029Y252971D01*
X341500Y255328D02*
X342914Y253914D01*
X343621Y254621D01*
Y255092D01*
X342678Y256034D01*
X342207D01*
X341500Y255328D01*
X344327D02*
X344799Y255799D01*
X344563Y255563D01*
X343149Y256977D01*
Y256506D01*
X344327Y257684D02*
Y258155D01*
X344799Y258626D01*
X345270D01*
X345506Y258391D01*
Y257919D01*
X345270Y257684D01*
X345506Y257919D01*
X345977Y257919D01*
X346213Y257684D01*
X346213Y257212D01*
X345741Y256741D01*
X345270D01*
X293499Y240000D02*
Y239334D01*
Y239667D01*
X291500D01*
Y240000D01*
Y239334D01*
Y237001D02*
Y238334D01*
X292833Y237001D01*
X293166D01*
X293499Y237334D01*
Y238001D01*
X293166Y238334D01*
Y235002D02*
X293499Y235335D01*
Y236001D01*
X293166Y236334D01*
X291833D01*
X291500Y236001D01*
Y235335D01*
X291833Y235002D01*
X293166Y234335D02*
X293499Y234002D01*
Y233335D01*
X293166Y233002D01*
X291833D01*
X291500Y233335D01*
Y234002D01*
X291833Y234335D01*
X293166D01*
X291167Y232336D02*
Y231003D01*
X293166Y229004D02*
X293499Y229337D01*
Y230003D01*
X293166Y230336D01*
X292833D01*
X292500Y230003D01*
Y229337D01*
X292166Y229004D01*
X291833D01*
X291500Y229337D01*
Y230003D01*
X291833Y230336D01*
X293166Y227004D02*
X293499Y227337D01*
Y228004D01*
X293166Y228337D01*
X291833D01*
X291500Y228004D01*
Y227337D01*
X291833Y227004D01*
X293499Y226338D02*
X291500D01*
Y225005D01*
X303499Y240000D02*
Y239334D01*
Y239667D01*
X301500D01*
Y240000D01*
Y239334D01*
Y237001D02*
Y238334D01*
X302833Y237001D01*
X303166D01*
X303499Y237334D01*
Y238001D01*
X303166Y238334D01*
Y235002D02*
X303499Y235335D01*
Y236001D01*
X303166Y236334D01*
X301833D01*
X301500Y236001D01*
Y235335D01*
X301833Y235002D01*
X303166Y234335D02*
X303499Y234002D01*
Y233335D01*
X303166Y233002D01*
X301833D01*
X301500Y233335D01*
Y234002D01*
X301833Y234335D01*
X303166D01*
X301167Y232336D02*
Y231003D01*
X303166Y229004D02*
X303499Y229337D01*
Y230003D01*
X303166Y230336D01*
X302833D01*
X302500Y230003D01*
Y229337D01*
X302166Y229004D01*
X301833D01*
X301500Y229337D01*
Y230003D01*
X301833Y230336D01*
X303499Y228337D02*
X301500D01*
Y227337D01*
X301833Y227004D01*
X303166D01*
X303499Y227337D01*
Y228337D01*
X301500Y226338D02*
X302833D01*
X303499Y225671D01*
X302833Y225005D01*
X301500D01*
X302500D01*
Y226338D01*
X313666Y238167D02*
X313999Y238500D01*
Y239167D01*
X313666Y239500D01*
X312333D01*
X312000Y239167D01*
Y238500D01*
X312333Y238167D01*
X313000D01*
Y238834D01*
X312000Y237501D02*
X313999D01*
Y236501D01*
X313666Y236168D01*
X313000D01*
X312666Y236501D01*
Y237501D01*
X313999Y235501D02*
Y234835D01*
Y235168D01*
X312000D01*
Y235501D01*
Y234835D01*
X313999Y232836D02*
Y233502D01*
X313666Y233835D01*
X312333D01*
X312000Y233502D01*
Y232836D01*
X312333Y232502D01*
X313666D01*
X313999Y232836D01*
X312000Y231836D02*
Y231169D01*
Y231503D01*
X313999D01*
X313666Y231836D01*
X323666Y238167D02*
X323999Y238500D01*
Y239167D01*
X323666Y239500D01*
X322333D01*
X322000Y239167D01*
Y238500D01*
X322333Y238167D01*
X323000D01*
Y238834D01*
X322000Y237501D02*
X323999D01*
Y236501D01*
X323666Y236168D01*
X323000D01*
X322666Y236501D01*
Y237501D01*
X323999Y235501D02*
Y234835D01*
Y235168D01*
X322000D01*
Y235501D01*
Y234835D01*
X323999Y232836D02*
Y233502D01*
X323666Y233835D01*
X322333D01*
X322000Y233502D01*
Y232836D01*
X322333Y232502D01*
X323666D01*
X323999Y232836D01*
X323666Y231836D02*
X323999Y231503D01*
Y230836D01*
X323666Y230503D01*
X322333D01*
X322000Y230836D01*
Y231503D01*
X322333Y231836D01*
X323666D01*
X333999Y239500D02*
X332333D01*
X332000Y239167D01*
Y238500D01*
X332333Y238167D01*
X333999D01*
X332000Y237501D02*
X333333D01*
X333999Y236834D01*
X333333Y236168D01*
X332000D01*
X333000D01*
Y237501D01*
X332000Y235501D02*
X333999D01*
Y234502D01*
X333666Y234168D01*
X333000D01*
X332666Y234502D01*
Y235501D01*
Y234835D02*
X332000Y234168D01*
X333999Y233502D02*
Y232169D01*
Y232836D01*
X332000D01*
X331667Y231503D02*
Y230170D01*
X332000Y229503D02*
X333999D01*
Y228504D01*
X333666Y228170D01*
X333000D01*
X332666Y228504D01*
Y229503D01*
Y228837D02*
X332000Y228170D01*
X333999Y227504D02*
X332000Y226171D01*
X333999D02*
X332000Y227504D01*
X343499Y239500D02*
X341833D01*
X341500Y239167D01*
Y238500D01*
X341833Y238167D01*
X343499D01*
X341500Y237501D02*
X342833D01*
X343499Y236834D01*
X342833Y236168D01*
X341500D01*
X342500D01*
Y237501D01*
X341500Y235501D02*
X343499D01*
Y234502D01*
X343166Y234168D01*
X342500D01*
X342166Y234502D01*
Y235501D01*
Y234835D02*
X341500Y234168D01*
X343499Y233502D02*
Y232169D01*
Y232836D01*
X341500D01*
X341167Y231503D02*
Y230170D01*
X343499Y229503D02*
Y228170D01*
Y228837D01*
X341500D01*
X343499Y227504D02*
X341500Y226171D01*
X343499D02*
X341500Y227504D01*
X22586Y236914D02*
X23529Y235971D01*
X24471D01*
Y236914D01*
X23529Y237856D01*
X25649Y236678D02*
X26592Y237621D01*
X26356Y240684D02*
X25414Y239741D01*
X26827Y238328D01*
X27770Y239270D01*
X26121Y239034D02*
X26592Y239506D01*
X26827Y241155D02*
X29184Y240684D01*
X27770Y242097D02*
X28241Y239741D01*
Y242569D02*
X29184Y243511D01*
X28712Y243040D01*
X30126Y241626D01*
X23264Y248121D02*
X22793D01*
X22322Y247649D01*
X22322Y247178D01*
X23264Y246236D01*
X23736D01*
X24207Y246707D01*
X24207Y247178D01*
X23736Y247649D01*
X23264Y247178D01*
X24914Y247414D02*
X23500Y248828D01*
X25856Y248356D01*
X24442Y249770D01*
X24914Y250241D02*
X26327Y248828D01*
X27034Y249534D01*
X27034Y250006D01*
X26092Y250948D01*
X25621D01*
X24914Y250241D01*
X8999Y133500D02*
Y134167D01*
X8666Y134500D01*
X7333D01*
X7000Y134167D01*
Y133500D01*
X7333Y133167D01*
X8666D01*
X8999Y133500D01*
X7000Y132501D02*
X8999D01*
X7000Y131168D01*
X8999D01*
Y166500D02*
Y167167D01*
X8666Y167500D01*
X7333D01*
X7000Y167167D01*
Y166500D01*
X7333Y166167D01*
X8666D01*
X8999Y166500D01*
Y164168D02*
Y165501D01*
X8000D01*
Y164834D01*
Y165501D01*
X7000D01*
X8999Y162168D02*
Y163501D01*
X8000D01*
Y162835D01*
Y163501D01*
X7000D01*
X282999Y161000D02*
X279500D01*
Y159251D01*
X280083Y158667D01*
X280666D01*
X281249Y159251D01*
Y161000D01*
Y159251D01*
X281833Y158667D01*
X282416D01*
X282999Y159251D01*
Y161000D01*
X282416Y155169D02*
X282999Y155752D01*
Y156918D01*
X282416Y157501D01*
X280083D01*
X279500Y156918D01*
Y155752D01*
X280083Y155169D01*
X281249D01*
Y156335D01*
X279500Y154002D02*
X282999D01*
X281833Y152836D01*
X282999Y151670D01*
X279500D01*
Y150503D02*
Y149337D01*
Y149920D01*
X282999D01*
X282416Y150503D01*
Y147588D02*
X282999Y147004D01*
Y145838D01*
X282416Y145255D01*
X281833D01*
X281249Y145838D01*
Y146421D01*
Y145838D01*
X280666Y145255D01*
X280083D01*
X279500Y145838D01*
Y147004D01*
X280083Y147588D01*
X279500Y144089D02*
X282999D01*
Y142339D01*
X282416Y141756D01*
X281249D01*
X280666Y142339D01*
Y144089D01*
X220166Y279500D02*
X220499Y279167D01*
Y278500D01*
X220166Y278167D01*
X219833D01*
X219500Y278500D01*
Y278834D01*
Y278500D01*
X219166Y278167D01*
X218833D01*
X218500Y278500D01*
Y279167D01*
X218833Y279500D01*
X220499Y277501D02*
X219166D01*
X218500Y276834D01*
X219166Y276168D01*
X220499D01*
X220166Y275501D02*
X220499Y275168D01*
Y274502D01*
X220166Y274168D01*
X219833D01*
X219500Y274502D01*
Y274835D01*
Y274502D01*
X219166Y274168D01*
X218833D01*
X218500Y274502D01*
Y275168D01*
X218833Y275501D01*
X210666Y279500D02*
X210999Y279167D01*
Y278500D01*
X210666Y278167D01*
X210333D01*
X210000Y278500D01*
Y278834D01*
Y278500D01*
X209666Y278167D01*
X209333D01*
X209000Y278500D01*
Y279167D01*
X209333Y279500D01*
X210999Y277501D02*
X209666D01*
X209000Y276834D01*
X209666Y276168D01*
X210999D01*
X210666Y275501D02*
X210999Y275168D01*
Y274502D01*
X210666Y274168D01*
X210333D01*
X210000Y274502D01*
Y274835D01*
Y274502D01*
X209666Y274168D01*
X209333D01*
X209000Y274502D01*
Y275168D01*
X209333Y275501D01*
X181000Y243166D02*
X181333Y243499D01*
X182000D01*
X182333Y243166D01*
Y242833D01*
X182000Y242500D01*
X181667D01*
X182000D01*
X182333Y242166D01*
Y241833D01*
X182000Y241500D01*
X181333D01*
X181000Y241833D01*
X182999Y243499D02*
Y242166D01*
X183666Y241500D01*
X184332Y242166D01*
Y243499D01*
X184999Y243166D02*
X185332Y243499D01*
X185998D01*
X186332Y243166D01*
Y242833D01*
X185998Y242500D01*
X185665D01*
X185998D01*
X186332Y242166D01*
Y241833D01*
X185998Y241500D01*
X185332D01*
X184999Y241833D01*
X186998Y241167D02*
X188331D01*
X188997Y243499D02*
X189664D01*
X189331D01*
Y241500D01*
X188997D01*
X189664D01*
X190664D02*
Y243499D01*
X191996Y241500D01*
Y243499D01*
X153333Y242666D02*
X153000Y242999D01*
X152333D01*
X152000Y242666D01*
Y241333D01*
X152333Y241000D01*
X153000D01*
X153333Y241333D01*
Y242000D01*
X152666D01*
X153999Y241000D02*
Y242999D01*
X155332Y241000D01*
Y242999D01*
X155999D02*
Y241000D01*
X156998D01*
X157332Y241333D01*
Y242666D01*
X156998Y242999D01*
X155999D01*
X196999Y171500D02*
X195667D01*
X195000Y170834D01*
X195667Y170167D01*
X196999D01*
X195000Y169501D02*
X196999D01*
Y168501D01*
X196666Y168168D01*
X196000D01*
X195667Y168501D01*
Y169501D01*
Y168834D02*
X195000Y168168D01*
X196999Y166168D02*
Y167501D01*
X195000D01*
Y166168D01*
X196000Y167501D02*
Y166835D01*
X196666Y164169D02*
X196999Y164502D01*
Y165169D01*
X196666Y165502D01*
X195333D01*
X195000Y165169D01*
Y164502D01*
X195333Y164169D01*
X196000D01*
Y164836D01*
X196999Y211167D02*
Y212500D01*
X195000D01*
Y211167D01*
X196000Y212500D02*
Y211834D01*
X196999Y210501D02*
X195000Y209168D01*
X196999D02*
X195000Y210501D01*
X196999Y208501D02*
Y207168D01*
Y207835D01*
X195000D01*
X194667Y206502D02*
Y205169D01*
X196999Y204503D02*
Y203836D01*
Y204169D01*
X195000D01*
Y204503D01*
Y203836D01*
Y202836D02*
X196999D01*
X195000Y201504D01*
X196999D01*
X195000Y200837D02*
X196999D01*
Y199837D01*
X196666Y199504D01*
X196000D01*
X195667Y199837D01*
Y200837D01*
X196999Y198838D02*
X195333D01*
X195000Y198504D01*
Y197838D01*
X195333Y197505D01*
X196999D01*
Y196838D02*
Y195505D01*
Y196172D01*
X195000D01*
X162833Y17166D02*
X162500Y17499D01*
X161833D01*
X161500Y17166D01*
Y15833D01*
X161833Y15500D01*
X162500D01*
X162833Y15833D01*
X164499Y17499D02*
X163833D01*
X163499Y17166D01*
Y15833D01*
X163833Y15500D01*
X164499D01*
X164832Y15833D01*
Y17166D01*
X164499Y17499D01*
X165499D02*
X166165D01*
X165832D01*
Y15500D01*
X165499D01*
X166165D01*
X167165D02*
Y17499D01*
X168498Y15500D01*
Y17499D01*
X172496Y17166D02*
X172163Y17499D01*
X171497D01*
X171163Y17166D01*
Y15833D01*
X171497Y15500D01*
X172163D01*
X172496Y15833D01*
X174496Y17499D02*
X173163D01*
Y15500D01*
X174496D01*
X173163Y16500D02*
X173829D01*
X175162Y17499D02*
Y15500D01*
X176495D01*
X177162Y17499D02*
Y15500D01*
X178495D01*
X182493D02*
X181160D01*
X182493Y16833D01*
Y17166D01*
X182160Y17499D01*
X181493D01*
X181160Y17166D01*
X184159Y15500D02*
Y17499D01*
X183160Y16500D01*
X184493D01*
X186492Y17499D02*
X185159D01*
Y16500D01*
X185825Y16833D01*
X186159D01*
X186492Y16500D01*
Y15833D01*
X186159Y15500D01*
X185492D01*
X185159Y15833D01*
X187158Y17166D02*
X187492Y17499D01*
X188158D01*
X188491Y17166D01*
Y15833D01*
X188158Y15500D01*
X187492D01*
X187158Y15833D01*
Y17166D01*
X166500Y227999D02*
Y226666D01*
X167166Y226000D01*
X167833Y226666D01*
Y227999D01*
X169832Y227666D02*
X169499Y227999D01*
X168833D01*
X168499Y227666D01*
Y226333D01*
X168833Y226000D01*
X169499D01*
X169832Y226333D01*
X171832Y227666D02*
X171498Y227999D01*
X170832D01*
X170499Y227666D01*
Y226333D01*
X170832Y226000D01*
X171498D01*
X171832Y226333D01*
X172498Y225667D02*
X173831D01*
X175830Y227666D02*
X175497Y227999D01*
X174831D01*
X174497Y227666D01*
Y227333D01*
X174831Y227000D01*
X175497D01*
X175830Y226666D01*
Y226333D01*
X175497Y226000D01*
X174831D01*
X174497Y226333D01*
X177830Y227999D02*
X176497D01*
Y226000D01*
X177830D01*
X176497Y227000D02*
X177163D01*
X178496Y227999D02*
Y226000D01*
X179829D01*
X181828Y227999D02*
X180496D01*
Y226000D01*
X181828D01*
X180496Y227000D02*
X181162D01*
X183828Y227666D02*
X183494Y227999D01*
X182828D01*
X182495Y227666D01*
Y226333D01*
X182828Y226000D01*
X183494D01*
X183828Y226333D01*
X184494Y227999D02*
X185827D01*
X185161D01*
Y226000D01*
X201000Y177999D02*
Y176000D01*
X202000D01*
X202333Y176333D01*
Y177666D01*
X202000Y177999D01*
X201000D01*
X204332D02*
X202999D01*
Y176000D01*
X204332D01*
X202999Y177000D02*
X203666D01*
X204999Y177999D02*
Y176000D01*
X205998D01*
X206332Y176333D01*
Y176666D01*
X205998Y177000D01*
X204999D01*
X205998D01*
X206332Y177333D01*
Y177666D01*
X205998Y177999D01*
X204999D01*
X206998D02*
Y176333D01*
X207331Y176000D01*
X207998D01*
X208331Y176333D01*
Y177999D01*
X210330Y177666D02*
X209997Y177999D01*
X209331D01*
X208997Y177666D01*
Y176333D01*
X209331Y176000D01*
X209997D01*
X210330Y176333D01*
Y177000D01*
X209664D01*
X212996Y176000D02*
Y177999D01*
X213996D01*
X214329Y177666D01*
Y177000D01*
X213996Y176666D01*
X212996D01*
X215995Y177999D02*
X215329D01*
X214995Y177666D01*
Y176333D01*
X215329Y176000D01*
X215995D01*
X216328Y176333D01*
Y177666D01*
X215995Y177999D01*
X216995Y176000D02*
Y177999D01*
X217994D01*
X218328Y177666D01*
Y177000D01*
X217994Y176666D01*
X216995D01*
X217661D02*
X218328Y176000D01*
X218994Y177999D02*
X220327D01*
X219661D01*
Y176000D01*
D59*
X12189Y2394D02*
X35811D01*
X12189D02*
Y33299D01*
X35811Y2394D02*
Y33299D01*
X78200Y170400D02*
Y171700D01*
X76900Y159300D02*
X78200D01*
X65800Y171700D02*
X67100D01*
X65800Y159300D02*
X67100D01*
X78200D02*
Y160600D01*
X76900Y171700D02*
X78200D01*
X65800Y170400D02*
Y171700D01*
Y159300D02*
Y160600D01*
D60*
X311965Y55199D02*
Y53200D01*
X314964D01*
Y55199D01*
X313464Y53200D02*
Y54200D01*
X312465Y58198D02*
X311965Y57699D01*
Y56699D01*
X312465Y56199D01*
X314464D01*
X314964Y56699D01*
Y57699D01*
X314464Y58198D01*
X311965Y61197D02*
Y59198D01*
X314964D01*
Y61197D01*
X313464Y59198D02*
Y60198D01*
X314964Y62197D02*
X311965D01*
X314964Y64196D01*
X311965D01*
Y70195D02*
Y68195D01*
X313464D01*
X312964Y69195D01*
Y69695D01*
X313464Y70195D01*
X314464D01*
X314964Y69695D01*
Y68695D01*
X314464Y68195D01*
X312465Y71194D02*
X311965Y71694D01*
Y72694D01*
X312465Y73194D01*
X314464D01*
X314964Y72694D01*
Y71694D01*
X314464Y71194D01*
X312465D01*
X314964Y76193D02*
Y74193D01*
X312964Y76193D01*
X312465D01*
X311965Y75693D01*
Y74693D01*
X312465Y74193D01*
Y77192D02*
X311965Y77692D01*
Y78692D01*
X312465Y79192D01*
X312964D01*
X313464Y78692D01*
Y78192D01*
Y78692D01*
X313964Y79192D01*
X314464D01*
X314964Y78692D01*
Y77692D01*
X314464Y77192D01*
X317244Y53200D02*
X320243D01*
Y55199D01*
X317244Y57699D02*
Y56699D01*
X317743Y56199D01*
X319743D01*
X320243Y56699D01*
Y57699D01*
X319743Y58198D01*
X317743D01*
X317244Y57699D01*
Y59198D02*
X320243D01*
X319243Y60198D01*
X320243Y61197D01*
X317244D01*
X320243Y65196D02*
X317244D01*
Y66696D01*
X317743Y67195D01*
X318743D01*
X319243Y66696D01*
Y65196D01*
X317244Y69695D02*
Y68695D01*
X317743Y68195D01*
X319743D01*
X320243Y68695D01*
Y69695D01*
X319743Y70195D01*
X317743D01*
X317244Y69695D01*
Y71194D02*
X320243D01*
X319243Y72194D01*
X320243Y73194D01*
X317244D01*
Y76193D02*
Y74193D01*
X320243D01*
Y76193D01*
X318743Y74193D02*
Y75193D01*
X320243Y77192D02*
X317244D01*
Y78692D01*
X317743Y79192D01*
X318743D01*
X319243Y78692D01*
Y77192D01*
Y78192D02*
X320243Y79192D01*
X317244Y85190D02*
Y83190D01*
X320243D01*
Y85190D01*
X318743Y83190D02*
Y84190D01*
X320243Y86189D02*
X317244D01*
X318243Y87189D01*
X317244Y88189D01*
X320243D01*
X317244Y89188D02*
X320243D01*
Y90688D01*
X319743Y91188D01*
X319243D01*
X318743Y90688D01*
Y89188D01*
Y90688D01*
X318243Y91188D01*
X317743D01*
X317244Y90688D01*
Y89188D01*
Y95186D02*
X320243D01*
Y96686D01*
X319743Y97186D01*
X317743D01*
X317244Y96686D01*
Y95186D01*
Y100185D02*
Y98185D01*
X320243D01*
Y100185D01*
X318743Y98185D02*
Y99185D01*
X317743Y103184D02*
X317244Y102684D01*
Y101684D01*
X317743Y101184D01*
X318243D01*
X318743Y101684D01*
Y102684D01*
X319243Y103184D01*
X319743D01*
X320243Y102684D01*
Y101684D01*
X319743Y101184D01*
X317244Y104183D02*
Y105183D01*
Y104683D01*
X320243D01*
Y104183D01*
Y105183D01*
X317743Y108682D02*
X317244Y108182D01*
Y107183D01*
X317743Y106683D01*
X319743D01*
X320243Y107183D01*
Y108182D01*
X319743Y108682D01*
X318743D01*
Y107682D01*
X320243Y109682D02*
X317244D01*
X320243Y111681D01*
X317244D01*
X323022Y55199D02*
X322522Y54699D01*
Y53700D01*
X323022Y53200D01*
X325022D01*
X325521Y53700D01*
Y54699D01*
X325022Y55199D01*
X324022D01*
Y54200D01*
X323522Y56199D02*
X325022D01*
X325521Y56699D01*
Y58198D01*
X323522D01*
X325521Y59198D02*
X323522D01*
Y60698D01*
X324022Y61197D01*
X325521D01*
X326521Y62197D02*
Y62697D01*
X326021Y63197D01*
X323522D01*
X325521Y68195D02*
X322522D01*
Y69695D01*
X323022Y70195D01*
X324022D01*
X324522Y69695D01*
Y68195D01*
X323522Y71194D02*
X325521D01*
X324522D01*
X324022Y71694D01*
X323522Y72194D01*
Y72694D01*
X325521Y75693D02*
Y74693D01*
X325022Y74193D01*
X324022D01*
X323522Y74693D01*
Y75693D01*
X324022Y76193D01*
X324522D01*
Y74193D01*
X325521Y77192D02*
Y78692D01*
X325022Y79192D01*
X324522Y78692D01*
Y77692D01*
X324022Y77192D01*
X323522Y77692D01*
Y79192D01*
X322522Y80191D02*
X325521D01*
X324022D01*
X323522Y80691D01*
Y81691D01*
X324022Y82191D01*
X325521D01*
Y83190D02*
Y84190D01*
Y83690D01*
X323522D01*
Y83190D01*
X323022Y86189D02*
X323522D01*
Y85690D01*
Y86689D01*
Y86189D01*
X325022D01*
X325521Y86689D01*
X331800Y53200D02*
X329801D01*
X328801Y54200D01*
X329801Y55199D01*
X331800D01*
X330300D01*
Y53200D01*
X329801Y56699D02*
Y57699D01*
X330300Y58198D01*
X331800D01*
Y56699D01*
X331300Y56199D01*
X330800Y56699D01*
Y58198D01*
X331800Y59198D02*
X328801D01*
X330800D02*
X329801Y60698D01*
X330800Y59198D02*
X331800Y60698D01*
X329801Y62697D02*
Y63697D01*
X330300Y64196D01*
X331800D01*
Y62697D01*
X331300Y62197D01*
X330800Y62697D01*
Y64196D01*
X331800Y65196D02*
Y66696D01*
X331300Y67195D01*
X330800Y66696D01*
Y65696D01*
X330300Y65196D01*
X329801Y65696D01*
Y67195D01*
X328801Y68195D02*
X331800D01*
X330300D01*
X329801Y68695D01*
Y69695D01*
X330300Y70195D01*
X331800D01*
Y74193D02*
X329801D01*
X328801Y75193D01*
X329801Y76193D01*
X331800D01*
X330300D01*
Y74193D01*
X331800Y77192D02*
Y78692D01*
X331300Y79192D01*
X330800Y78692D01*
Y77692D01*
X330300Y77192D01*
X329801Y77692D01*
Y79192D01*
X328801Y80191D02*
X331800D01*
X330300D01*
X329801Y80691D01*
Y81691D01*
X330300Y82191D01*
X331800D01*
Y83190D02*
Y84190D01*
Y83690D01*
X329801D01*
Y83190D01*
X331800Y85690D02*
Y87189D01*
X331300Y87689D01*
X330800Y87189D01*
Y86189D01*
X330300Y85690D01*
X329801Y86189D01*
Y87689D01*
X328801Y88688D02*
X331800D01*
X330300D01*
X329801Y89188D01*
Y90188D01*
X330300Y90688D01*
X331800D01*
X329301Y96686D02*
X328801Y96186D01*
Y95186D01*
X329301Y94687D01*
X329801D01*
X330300Y95186D01*
Y96186D01*
X330800Y96686D01*
X331300D01*
X331800Y96186D01*
Y95186D01*
X331300Y94687D01*
X331800Y97686D02*
X329801D01*
Y98185D01*
X330300Y98685D01*
X331800D01*
X330300D01*
X329801Y99185D01*
X330300Y99685D01*
X331800D01*
Y100685D02*
Y101684D01*
Y101184D01*
X329801D01*
Y100685D01*
X329301Y103684D02*
X329801D01*
Y103184D01*
Y104183D01*
Y103684D01*
X331300D01*
X331800Y104183D01*
Y107183D02*
Y106183D01*
X331300Y105683D01*
X330300D01*
X329801Y106183D01*
Y107183D01*
X330300Y107682D01*
X330800D01*
Y105683D01*
X331800Y108682D02*
Y110182D01*
X331300Y110681D01*
X330800Y110182D01*
Y109182D01*
X330300Y108682D01*
X329801Y109182D01*
Y110681D01*
X328801Y111681D02*
X331800D01*
X330300D01*
X329801Y112181D01*
Y113181D01*
X330300Y113680D01*
X331800D01*
M02*
