G04 Layer_Color=8421504*
%FSLAX25Y25*%
%MOIN*%
G70*
G01*
G75*
%ADD10R,0.01968X0.02362*%
%ADD11R,0.03150X0.03543*%
%ADD12R,0.10630X0.08661*%
%ADD13R,0.10630X0.07087*%
%ADD14R,0.03543X0.03150*%
%ADD15R,0.02362X0.01968*%
%ADD16R,0.06102X0.05118*%
%ADD17R,0.05512X0.01575*%
%ADD18R,0.07480X0.07087*%
%ADD19R,0.07480X0.09055*%
%ADD20O,0.03150X0.09449*%
%ADD21O,0.09449X0.03150*%
%ADD22R,0.02913X0.10984*%
%ADD23R,0.04331X0.06693*%
%ADD24R,0.06693X0.04331*%
%ADD25R,0.10236X0.13780*%
%ADD26R,0.07165X0.04724*%
%ADD27R,0.07992X0.14961*%
%ADD28R,0.14961X0.07992*%
%ADD29R,0.04724X0.03937*%
%ADD30R,0.03937X0.10236*%
%ADD31R,0.03200X0.01200*%
%ADD32R,0.01200X0.03200*%
%ADD33R,0.06700X0.06700*%
%ADD34R,0.05905X0.01575*%
%ADD35R,0.01063X0.03386*%
%ADD36R,0.03386X0.01063*%
G36*
X228459Y145508D02*
X225543D01*
Y156491D01*
X228459D01*
Y145508D01*
D02*
G37*
G36*
X233464D02*
X230543D01*
Y156491D01*
X233464D01*
Y145508D01*
D02*
G37*
G36*
X223458D02*
X220543D01*
Y156490D01*
X223458D01*
Y145508D01*
D02*
G37*
G36*
X213448D02*
X210543D01*
Y156490D01*
X213448D01*
Y145508D01*
D02*
G37*
G36*
X218456D02*
X215543D01*
Y156492D01*
X218456D01*
Y145508D01*
D02*
G37*
G36*
X228459Y161508D02*
X225543D01*
Y172498D01*
X228459D01*
Y161508D01*
D02*
G37*
G36*
X233471D02*
X230543D01*
Y172509D01*
X233471D01*
Y161508D01*
D02*
G37*
G36*
X223457D02*
X220543D01*
Y172498D01*
X223457D01*
Y161508D01*
D02*
G37*
G36*
X213444D02*
X210543D01*
Y172512D01*
X213444D01*
Y161508D01*
D02*
G37*
G36*
X218455D02*
X215543D01*
Y172497D01*
X218455D01*
Y161508D01*
D02*
G37*
D10*
X186000Y256532D02*
D03*
Y260469D02*
D03*
X166000Y273969D02*
D03*
Y270031D02*
D03*
D11*
X66756Y216500D02*
D03*
X61244D02*
D03*
X183256Y127500D02*
D03*
X177744D02*
D03*
X205756Y244500D02*
D03*
X200244D02*
D03*
X207756Y106000D02*
D03*
X202244D02*
D03*
X133256Y283000D02*
D03*
X127744D02*
D03*
X110256Y220500D02*
D03*
X104744D02*
D03*
X183256Y134000D02*
D03*
X177744D02*
D03*
X65244Y147800D02*
D03*
X70756D02*
D03*
X97756Y166500D02*
D03*
X92244D02*
D03*
X26256Y47000D02*
D03*
X20744D02*
D03*
X97756Y174300D02*
D03*
X92244D02*
D03*
X38256Y136000D02*
D03*
X32744D02*
D03*
X213744Y84500D02*
D03*
X219256D02*
D03*
X272756Y30500D02*
D03*
X267244D02*
D03*
X213744Y95500D02*
D03*
X219256D02*
D03*
X213744Y66500D02*
D03*
X219256D02*
D03*
X96244Y135500D02*
D03*
X101756D02*
D03*
X96244Y126000D02*
D03*
X101756D02*
D03*
X294756Y81500D02*
D03*
X289244D02*
D03*
X283756D02*
D03*
X278244D02*
D03*
X207756Y76000D02*
D03*
X202244D02*
D03*
D12*
X92870Y281193D02*
D03*
Y260720D02*
D03*
X64130Y288673D02*
D03*
Y254028D02*
D03*
D13*
X92870Y292216D02*
D03*
D14*
X175000Y261756D02*
D03*
Y256244D02*
D03*
X278500Y89744D02*
D03*
Y95256D02*
D03*
X289500Y89488D02*
D03*
Y95000D02*
D03*
X209000Y48756D02*
D03*
Y43244D02*
D03*
X119500Y277744D02*
D03*
Y283256D02*
D03*
X141000Y277744D02*
D03*
Y283256D02*
D03*
X177500Y119756D02*
D03*
Y114244D02*
D03*
X149000Y127756D02*
D03*
Y122244D02*
D03*
X55000Y162056D02*
D03*
Y156544D02*
D03*
X78500Y149056D02*
D03*
Y143544D02*
D03*
X86500Y149056D02*
D03*
Y143544D02*
D03*
X78500Y194056D02*
D03*
Y188544D02*
D03*
X54000Y194056D02*
D03*
Y188544D02*
D03*
X66000Y194056D02*
D03*
Y188544D02*
D03*
X134000Y173256D02*
D03*
Y167744D02*
D03*
X123500Y173256D02*
D03*
Y167744D02*
D03*
X197000Y261756D02*
D03*
Y256244D02*
D03*
X128000Y108744D02*
D03*
Y114256D02*
D03*
X18000Y123744D02*
D03*
Y129256D02*
D03*
X219000Y123256D02*
D03*
Y117744D02*
D03*
X109000Y187256D02*
D03*
Y181744D02*
D03*
X116500Y187256D02*
D03*
Y181744D02*
D03*
D15*
X231469Y179000D02*
D03*
X227532D02*
D03*
X196468Y122000D02*
D03*
X192532D02*
D03*
X240032Y138500D02*
D03*
X243969D02*
D03*
X221969Y138000D02*
D03*
X218032D02*
D03*
X231968D02*
D03*
X228031D02*
D03*
X342469Y224000D02*
D03*
X338531D02*
D03*
X333032Y219500D02*
D03*
X336968D02*
D03*
X322969Y221000D02*
D03*
X319032D02*
D03*
X312968D02*
D03*
X309032D02*
D03*
X302969D02*
D03*
X299031D02*
D03*
X292969D02*
D03*
X289032D02*
D03*
X259469Y232000D02*
D03*
X255532D02*
D03*
X249468Y239000D02*
D03*
X245532D02*
D03*
X239469Y246500D02*
D03*
X235531D02*
D03*
X229468Y254000D02*
D03*
X225532D02*
D03*
D16*
X258150Y99642D02*
D03*
X226850D02*
D03*
X258150Y117358D02*
D03*
X226850D02*
D03*
X258150Y66642D02*
D03*
X226850D02*
D03*
X258150Y84358D02*
D03*
X226850D02*
D03*
Y48358D02*
D03*
X258150D02*
D03*
X226850Y30642D02*
D03*
X258150D02*
D03*
D17*
X20000Y205736D02*
D03*
Y203177D02*
D03*
Y200618D02*
D03*
Y198059D02*
D03*
Y195500D02*
D03*
D18*
X8779Y205146D02*
D03*
Y196091D02*
D03*
D19*
Y215382D02*
D03*
Y185854D02*
D03*
D20*
X347142Y172244D02*
D03*
X342417D02*
D03*
X337693D02*
D03*
X332968D02*
D03*
X328244D02*
D03*
X323520D02*
D03*
X318795D02*
D03*
X314071D02*
D03*
X309347D02*
D03*
X304622D02*
D03*
X299898D02*
D03*
X295173D02*
D03*
Y127756D02*
D03*
X299898D02*
D03*
X304622D02*
D03*
X309347D02*
D03*
X314071D02*
D03*
X318795D02*
D03*
X323520D02*
D03*
X328244D02*
D03*
X332968D02*
D03*
X337693D02*
D03*
X342417D02*
D03*
X347142D02*
D03*
D21*
X294622Y164173D02*
D03*
Y159449D02*
D03*
Y154724D02*
D03*
Y150000D02*
D03*
Y145276D02*
D03*
Y140551D02*
D03*
Y135827D02*
D03*
D22*
X212000Y151000D02*
D03*
Y167000D02*
D03*
X217000Y151000D02*
D03*
Y167000D02*
D03*
X222000Y151000D02*
D03*
Y167000D02*
D03*
X227000Y151000D02*
D03*
Y167000D02*
D03*
X232000Y151000D02*
D03*
Y167000D02*
D03*
D23*
X207315Y134000D02*
D03*
X196685D02*
D03*
D24*
X219500Y204315D02*
D03*
Y193685D02*
D03*
D25*
X184035Y51500D02*
D03*
X50965D02*
D03*
D26*
X52000Y228425D02*
D03*
Y216575D02*
D03*
D27*
X20000Y69500D02*
D03*
X32500Y277000D02*
D03*
X210500Y220500D02*
D03*
D28*
X257000Y14000D02*
D03*
X102500Y114000D02*
D03*
X185000Y149500D02*
D03*
X166000Y283500D02*
D03*
D29*
X18118Y158343D02*
D03*
Y148500D02*
D03*
Y138657D02*
D03*
D30*
X20063Y34874D02*
D03*
X27937D02*
D03*
D31*
X66200Y168500D02*
D03*
Y166500D02*
D03*
Y164500D02*
D03*
Y162500D02*
D03*
X77800D02*
D03*
Y164500D02*
D03*
Y166500D02*
D03*
Y168500D02*
D03*
D32*
X69000Y159700D02*
D03*
X71000D02*
D03*
X73000D02*
D03*
X75000D02*
D03*
Y171300D02*
D03*
X73000D02*
D03*
X71000D02*
D03*
X69000D02*
D03*
D33*
X72000Y165500D02*
D03*
D34*
X156772Y190866D02*
D03*
Y193425D02*
D03*
Y195984D02*
D03*
Y198543D02*
D03*
Y201102D02*
D03*
Y203661D02*
D03*
Y206221D02*
D03*
Y208780D02*
D03*
Y211339D02*
D03*
Y213898D02*
D03*
Y216457D02*
D03*
Y219016D02*
D03*
Y221575D02*
D03*
Y224134D02*
D03*
X128228D02*
D03*
Y221575D02*
D03*
Y219016D02*
D03*
Y216457D02*
D03*
Y213898D02*
D03*
Y211339D02*
D03*
Y208780D02*
D03*
Y206221D02*
D03*
Y203661D02*
D03*
Y201102D02*
D03*
Y198543D02*
D03*
Y195984D02*
D03*
Y193425D02*
D03*
Y190866D02*
D03*
D35*
X162484Y122665D02*
D03*
X160516D02*
D03*
Y113335D02*
D03*
X162484D02*
D03*
D36*
X166165Y115047D02*
D03*
Y117016D02*
D03*
Y118984D02*
D03*
Y120953D02*
D03*
X156835D02*
D03*
Y118984D02*
D03*
Y117016D02*
D03*
Y115047D02*
D03*
M02*
