G04 Layer_Color=16711935*
%FSLAX25Y25*%
%MOIN*%
G70*
G01*
G75*
%ADD41C,0.04000*%
%ADD85C,0.04147*%
%ADD86R,0.06706X0.06706*%
%ADD87C,0.06706*%
%ADD88R,0.06706X0.06706*%
%ADD89C,0.09068*%
%ADD90R,0.06343X0.06343*%
%ADD91C,0.06343*%
%ADD92C,0.06312*%
%ADD93C,0.03200*%
%ADD94C,0.02800*%
D41*
X0Y0D02*
X288500D01*
X0Y300500D02*
X288500D01*
X0Y0D02*
Y300500D01*
X288500Y0D02*
X350500D01*
Y300500D01*
X288500D02*
X350500D01*
D85*
X7882Y142595D02*
D03*
Y154405D02*
D03*
D86*
X255000Y177000D02*
D03*
X249000Y153000D02*
D03*
X15000Y238000D02*
D03*
D87*
X255000Y187000D02*
D03*
X249000Y163000D02*
D03*
X164000Y242000D02*
D03*
X279500Y286500D02*
D03*
X269500D02*
D03*
X259500D02*
D03*
X249500D02*
D03*
X239500D02*
D03*
X229500D02*
D03*
X219500D02*
D03*
X15000Y248000D02*
D03*
X343000Y286500D02*
D03*
X333000D02*
D03*
X323000D02*
D03*
X313000D02*
D03*
X303000D02*
D03*
D88*
X174000Y242000D02*
D03*
X209500Y286500D02*
D03*
X293000D02*
D03*
D89*
X166783Y161224D02*
D03*
X191193Y220280D02*
D03*
D90*
X184500Y175004D02*
D03*
D91*
Y190752D02*
D03*
Y206500D02*
D03*
X174657Y175004D02*
D03*
Y190752D02*
D03*
Y206500D02*
D03*
D92*
X78500Y260720D02*
D03*
Y288280D02*
D03*
D93*
X347000Y230500D02*
D03*
Y206500D02*
D03*
X307000Y157500D02*
D03*
X312500Y162000D02*
D03*
X323500D02*
D03*
X312500Y157500D02*
D03*
Y153000D02*
D03*
Y148500D02*
D03*
Y144000D02*
D03*
Y139500D02*
D03*
X323500D02*
D03*
Y144000D02*
D03*
Y148500D02*
D03*
Y153000D02*
D03*
Y157500D02*
D03*
X325500Y56000D02*
D03*
X301500D02*
D03*
X289000Y127756D02*
D03*
Y172000D02*
D03*
X112500Y3500D02*
D03*
X347000Y182000D02*
D03*
X283000Y250000D02*
D03*
Y274500D02*
D03*
X194500Y296500D02*
D03*
X170000Y296000D02*
D03*
X146000Y296500D02*
D03*
X121500Y296000D02*
D03*
X24000Y296500D02*
D03*
X48500D02*
D03*
X4500Y261500D02*
D03*
Y286000D02*
D03*
Y237000D02*
D03*
Y107000D02*
D03*
Y10000D02*
D03*
Y82500D02*
D03*
Y58500D02*
D03*
Y34500D02*
D03*
X88000Y4000D02*
D03*
X64000D02*
D03*
X40000D02*
D03*
X208500D02*
D03*
X184000D02*
D03*
X160000D02*
D03*
X136000D02*
D03*
X233000D02*
D03*
X257000D02*
D03*
X284500Y13500D02*
D03*
Y38000D02*
D03*
X281000Y4000D02*
D03*
X347000Y72500D02*
D03*
Y97000D02*
D03*
X307000Y162000D02*
D03*
Y153000D02*
D03*
Y139500D02*
D03*
Y144000D02*
D03*
Y148500D02*
D03*
X318000Y162000D02*
D03*
Y157500D02*
D03*
Y153000D02*
D03*
Y139500D02*
D03*
Y144000D02*
D03*
Y148500D02*
D03*
X329000D02*
D03*
Y144000D02*
D03*
Y139500D02*
D03*
Y153000D02*
D03*
Y157500D02*
D03*
Y162000D02*
D03*
X184000Y70500D02*
D03*
X28000Y52500D02*
D03*
X174969Y270031D02*
D03*
X209000Y27000D02*
D03*
X336968Y243032D02*
D03*
X319032Y242969D02*
D03*
X309000Y243000D02*
D03*
X289032Y243032D02*
D03*
X299000Y243000D02*
D03*
X219000Y128000D02*
D03*
X188000Y122000D02*
D03*
Y127500D02*
D03*
X223000Y179000D02*
D03*
X208000Y66500D02*
D03*
Y95500D02*
D03*
X54000Y203800D02*
D03*
X55000Y150300D02*
D03*
X9744Y123744D02*
D03*
X105000Y174300D02*
D03*
X133000Y120000D02*
D03*
X32500Y195500D02*
D03*
X33000Y262000D02*
D03*
X78500Y199500D02*
D03*
X104000Y281000D02*
D03*
X121500Y196000D02*
D03*
X208000Y84500D02*
D03*
X71000Y216500D02*
D03*
X160516Y128484D02*
D03*
X347000Y121500D02*
D03*
X295000Y179000D02*
D03*
X244000Y142500D02*
D03*
X228000Y134500D02*
D03*
X218000Y134000D02*
D03*
X295000Y121500D02*
D03*
X225500Y249500D02*
D03*
X235500Y242000D02*
D03*
X245500Y234000D02*
D03*
X255500Y227000D02*
D03*
X77300Y154500D02*
D03*
X278000Y24500D02*
D03*
X141000Y271500D02*
D03*
X119500D02*
D03*
X134244Y109244D02*
D03*
X117500Y216500D02*
D03*
X97000Y220500D02*
D03*
D94*
X72000Y165800D02*
D03*
M02*
